<?xml version="1.0" encoding="UTF-8" standalone="no"?>
<!-- Created with Inkscape (http://www.inkscape.org/) -->

<svg
   width="3.6588821mm"
   height="2.0857544mm"
   viewBox="0 0 3.6588821 2.0857544"
   version="1.1"
   id="svg5"
   xml:space="preserve"
   sodipodi:docname="drawing - kopia.svg"
   inkscape:version="1.2.2 (732a01da63, 2022-12-09)"
   xmlns:inkscape="http://www.inkscape.org/namespaces/inkscape"
   xmlns:sodipodi="http://sodipodi.sourceforge.net/DTD/sodipodi-0.dtd"
   xmlns="http://www.w3.org/2000/svg"
   xmlns:svg="http://www.w3.org/2000/svg"><sodipodi:namedview
     id="namedview7"
     pagecolor="#ffffff"
     bordercolor="#000000"
     borderopacity="0.25"
     inkscape:showpageshadow="2"
     inkscape:pageopacity="0.0"
     inkscape:pagecheckerboard="0"
     inkscape:deskcolor="#d1d1d1"
     inkscape:document-units="mm"
     showgrid="false"
     inkscape:zoom="4.5506012"
     inkscape:cx="377.2029"
     inkscape:cy="1053.7069"
     inkscape:window-width="1920"
     inkscape:window-height="1057"
     inkscape:window-x="-8"
     inkscape:window-y="-8"
     inkscape:window-maximized="1"
     inkscape:current-layer="layer2" /><defs
     id="defs2" /><g
     inkscape:groupmode="layer"
     id="layer2"
     inkscape:label="Layer 2"
     transform="translate(-86.635996,-276.96423)"><g
       aria-label="5V"
       id="text475"
       style="font-size:4.23333px;font-family:Ubuntu;-inkscape-font-specification:Ubuntu;fill:#ffffff;stroke:#000000;stroke-width:0.2;stroke-linecap:round;stroke-linejoin:round"
       inkscape:export-filename="5v.svg"
       inkscape:export-xdpi="96"
       inkscape:export-ydpi="96"
       transform="matrix(0.69589591,0,0,0.69589591,18.41598,86.855924)"><path
         d="m 99.395062,275.25511 q 0,-0.12276 -0.05503,-0.2159 -0.05503,-0.0974 -0.1905,-0.16086 -0.135467,-0.0635 -0.364067,-0.0974 -0.228599,-0.0339 -0.575732,-0.0339 0.04657,-0.3937 0.0762,-0.80009 0.02963,-0.4064 0.04657,-0.762 h 1.587499 v 0.52916 h -1.058333 q -0.0085,0.1524 -0.02117,0.29634 -0.0085,0.1397 -0.02117,0.24553 0.618066,0.0423 0.910166,0.2921 0.296335,0.24553 0.296335,0.6858 0,0.2032 -0.07197,0.37676 -0.07197,0.17357 -0.215899,0.30057 -0.143934,0.127 -0.364067,0.19897 -0.2159,0.072 -0.507999,0.072 -0.1143,0 -0.2413,-0.0169 -0.122767,-0.0127 -0.2413,-0.0381 -0.1143,-0.0212 -0.207433,-0.0466 -0.09313,-0.0254 -0.143933,-0.0508 l 0.1143,-0.5207 q 0.105833,0.0466 0.279399,0.0931 0.173567,0.0423 0.414867,0.0423 0.2921,0 0.423333,-0.1143 0.131233,-0.11853 0.131233,-0.27517 z"
         style="font-weight:bold;-inkscape-font-specification:'Ubuntu Bold';fill:#000000;stroke:none"
         id="path1187" /><path
         d="m 101.48633,276.11871 q -0.17357,-0.3683 -0.3429,-0.76623 -0.16933,-0.39793 -0.32173,-0.7874 -0.1524,-0.38946 -0.28364,-0.74506 -0.127,-0.3556 -0.22013,-0.635 h 0.72813 q 0.0847,0.254 0.18204,0.55033 0.1016,0.2921 0.2032,0.5842 0.10583,0.2921 0.2032,0.5588 0.0974,0.2667 0.18203,0.46143 0.0804,-0.19473 0.1778,-0.46143 0.1016,-0.2667 0.2032,-0.5588 0.10583,-0.2921 0.2032,-0.5842 0.1016,-0.29633 0.18627,-0.55033 h 0.70273 q -0.0974,0.2794 -0.22437,0.635 -0.127,0.3556 -0.2794,0.74506 -0.1524,0.38947 -0.32173,0.7874 -0.16933,0.39793 -0.3429,0.76623 z"
         style="font-weight:bold;-inkscape-font-specification:'Ubuntu Bold';fill:#000000;stroke:none"
         id="path1189" /></g></g></svg>
