<?xml version="1.0" encoding="UTF-8" standalone="no"?>
<!-- Created with Inkscape (http://www.inkscape.org/) -->

<svg
   width="75.52652mm"
   height="30.778687mm"
   viewBox="0 0 75.52652 30.778687"
   version="1.1"
   id="svg5"
   xml:space="preserve"
   sodipodi:docname="drawing - utkantt_USB.svg"
   inkscape:version="1.2.2 (732a01da63, 2022-12-09)"
   xmlns:inkscape="http://www.inkscape.org/namespaces/inkscape"
   xmlns:sodipodi="http://sodipodi.sourceforge.net/DTD/sodipodi-0.dtd"
   xmlns="http://www.w3.org/2000/svg"
   xmlns:svg="http://www.w3.org/2000/svg"><sodipodi:namedview
     id="namedview7"
     pagecolor="#ffffff"
     bordercolor="#000000"
     borderopacity="0.25"
     inkscape:showpageshadow="2"
     inkscape:pageopacity="0.0"
     inkscape:pagecheckerboard="0"
     inkscape:deskcolor="#d1d1d1"
     inkscape:document-units="mm"
     showgrid="false"
     inkscape:zoom="2.2753006"
     inkscape:cx="-580.14312"
     inkscape:cy="1392.3435"
     inkscape:window-width="1920"
     inkscape:window-height="1057"
     inkscape:window-x="-8"
     inkscape:window-y="-8"
     inkscape:window-maximized="1"
     inkscape:current-layer="layer2" /><defs
     id="defs2" /><g
     inkscape:groupmode="layer"
     id="layer2"
     inkscape:label="Layer 2"
     transform="translate(282.96296,-302.98073)"><g
       aria-label="Det är ett ljussken över staden, nåt stort och gult som alla ser. Banankontakt av tredje graden, en fruktraket som kommer ner..."
       transform="translate(-78.114617,42.593023)"
       id="text2703-4-8-9-8-9"
       style="font-weight:bold;font-size:1.41111px;font-family:Ubuntu;-inkscape-font-specification:'Ubuntu Bold';stroke-width:0.1;stroke-linecap:round;stroke-linejoin:round"
       inkscape:export-filename="banankontakt5.svg"
       inkscape:export-xdpi="96"
       inkscape:export-ydpi="96"><path
         d="m -204.57552,261.09326 q 0.01,0.0121 0.0226,0.0273 0.0148,0.0152 0.0344,0.0354 0.11504,0.11842 0.22982,0.11709 0.11576,-3.3e-4 0.22102,-0.10259 0.11032,-0.10718 0.1139,-0.2169 0.004,-0.10971 -0.11146,-0.22813 -0.0157,-0.0162 -0.0335,-0.0324 -0.0167,-0.0172 -0.0335,-0.0304 z m 0.66613,0.24014 q -0.0911,0.0885 -0.18643,0.12604 -0.0953,0.0375 -0.19101,0.0282 -0.0947,-0.008 -0.18971,-0.0616 -0.095,-0.0533 -0.18549,-0.14638 -0.0413,-0.0425 -0.0923,-0.10312 -0.052,-0.0596 -0.094,-0.1251 l 0.68318,-0.66372 q 0.0632,0.0448 0.12328,0.10057 0.0621,0.0558 0.10336,0.0983 0.0875,0.0901 0.13807,0.18262 0.0515,0.0935 0.0592,0.18846 0.008,0.0949 -0.0327,0.18913 -0.0403,0.0942 -0.13542,0.18665 z"
         id="path2975" /><path
         d="m -203.90997,261.53496 q 0.0728,-0.0668 0.14687,-0.0946 0.0761,-0.0277 0.14587,-0.0247 0.0698,0.003 0.13144,0.0326 0.0626,0.0306 0.10841,0.0805 0.10687,0.11644 0.0972,0.24985 -0.009,0.13246 -0.14693,0.25937 -0.0135,0.0124 -0.0311,0.0266 -0.0165,0.0133 -0.03,0.0237 l -0.32253,-0.35138 q -0.043,0.0491 -0.0349,0.11436 0.008,0.0653 0.0693,0.1318 0.0391,0.0426 0.0836,0.0765 0.0465,0.034 0.0818,0.0494 l -0.10671,0.13625 q -0.0177,-0.007 -0.043,-0.0218 -0.0253,-0.0151 -0.0533,-0.0372 -0.0281,-0.0202 -0.0579,-0.0464 -0.0298,-0.0262 -0.0566,-0.0554 -0.0677,-0.0738 -0.0965,-0.14894 -0.0278,-0.0741 -0.0238,-0.14484 0.006,-0.0707 0.0418,-0.13603 0.0367,-0.0643 0.097,-0.11969 z m 0.39324,0.30946 q 0.0188,-0.0192 0.0318,-0.0426 0.0139,-0.0224 0.0171,-0.0482 0.004,-0.0248 -0.004,-0.0521 -0.007,-0.0263 -0.0317,-0.0533 -0.0239,-0.026 -0.0504,-0.0361 -0.0255,-0.0111 -0.0515,-0.0102 -0.026,8.9e-4 -0.0524,0.0117 -0.0244,0.0109 -0.0471,0.0259 z"
         id="path2977" /><path
         d="m -202.91987,261.78306 0.16713,0.13199 -0.16113,0.14791 0.1708,0.18608 -0.1289,0.11832 -0.17081,-0.18608 -0.19232,0.17653 q -0.0489,0.0449 -0.0627,0.0882 -0.0129,0.0444 0.0348,0.0964 0.0229,0.025 0.0509,0.0471 0.03,0.0223 0.0584,0.0365 l -0.10055,0.13252 q -0.0372,-0.0176 -0.077,-0.0442 -0.0398,-0.0267 -0.0856,-0.0766 -0.0582,-0.0634 -0.0797,-0.12026 -0.0205,-0.0578 -0.0132,-0.11043 0.008,-0.0536 0.0424,-0.10405 0.0351,-0.0494 0.0881,-0.0981 z"
         id="path2979" /><path
         d="m -202.64548,263.23598 q 0.021,0.0229 0.0411,0.0427 0.0201,0.0198 0.0337,0.0304 l 0.11747,-0.10782 q -0.007,-0.0113 -0.0216,-0.0319 -0.0151,-0.0206 -0.0294,-0.0362 -0.02,-0.0218 -0.0413,-0.0387 -0.0192,-0.0168 -0.0399,-0.0247 -0.0206,-0.008 -0.0407,-0.005 -0.0201,0.003 -0.0388,0.0203 -0.0364,0.0334 -0.029,0.0707 0.009,0.0374 0.0485,0.08 z m 0.4418,-0.42851 q 0.063,0.0686 0.0894,0.12866 0.0264,0.0601 0.0221,0.1138 -0.003,0.0548 -0.0344,0.10439 -0.0311,0.0496 -0.082,0.0964 l -0.32227,0.29581 q -0.0378,-0.0266 -0.10156,-0.0772 -0.0648,-0.0497 -0.14208,-0.13392 -0.0487,-0.053 -0.0794,-0.10527 -0.0298,-0.0512 -0.0376,-0.10148 -0.007,-0.0512 0.0122,-0.0994 0.019,-0.0481 0.0689,-0.0939 0.0478,-0.0439 0.0983,-0.0557 0.0514,-0.0108 0.10073,0.003 0.0493,0.0141 0.0958,0.0481 0.0475,0.033 0.0886,0.0777 0.0277,0.0301 0.0455,0.0559 0.0199,0.0258 0.0291,0.0442 l 0.0145,-0.0134 q 0.0395,-0.0363 0.0415,-0.0821 0.002,-0.0459 -0.0524,-0.10511 -0.0363,-0.0395 -0.0778,-0.0722 -0.0405,-0.0337 -0.0767,-0.0522 l 0.10662,-0.13426 q 0.0166,0.01 0.0388,0.0256 0.0243,0.016 0.0494,0.0371 0.0261,0.0201 0.052,0.0442 0.0279,0.0242 0.0527,0.0512 z m -0.0357,-0.16832 q -0.0296,-0.0322 -0.0307,-0.0752 -1.2e-4,-0.044 0.0363,-0.0774 0.0364,-0.0334 0.0791,-0.0286 0.0438,0.004 0.0734,0.0361 0.0296,0.0322 0.0297,0.0762 0.001,0.043 -0.0352,0.0764 -0.0364,0.0334 -0.0802,0.0295 -0.0427,-0.005 -0.0723,-0.0371 z m 0.21279,0.23182 q -0.0296,-0.0322 -0.0307,-0.0752 -1.2e-4,-0.0439 0.0363,-0.0773 0.0364,-0.0334 0.0791,-0.0286 0.0438,0.004 0.0734,0.0361 0.0296,0.0322 0.0297,0.0762 10e-4,0.043 -0.0352,0.0764 -0.0364,0.0334 -0.0802,0.0295 -0.0427,-0.005 -0.0723,-0.0371 z"
         id="path2981" /><path
         d="m -201.70564,263.65471 q -0.0139,-0.0256 -0.0345,-0.0584 -0.0195,-0.0338 -0.0491,-0.066 -0.0134,-0.0145 -0.0356,-0.0325 -0.0202,-0.0178 -0.0329,-0.0254 l -0.41791,0.38359 -0.14218,-0.15489 0.51771,-0.4752 q 0.0527,0.0282 0.11672,0.0729 0.066,0.0448 0.12993,0.11443 0.0114,0.0125 0.0256,0.0321 0.0152,0.0186 0.0283,0.0392 0.0141,0.0196 0.0262,0.0411 0.0131,0.0205 0.0194,0.0378 z"
         id="path2983" /><path
         d="m -201.54063,264.1162 q 0.0728,-0.0668 0.14687,-0.0946 0.0761,-0.0277 0.14587,-0.0247 0.0698,0.003 0.13144,0.0326 0.0626,0.0306 0.1084,0.0805 0.10688,0.11643 0.0972,0.24985 -0.009,0.13245 -0.14693,0.25937 -0.0135,0.0124 -0.0311,0.0266 -0.0165,0.0133 -0.03,0.0237 l -0.32252,-0.35137 q -0.0431,0.0491 -0.0349,0.11436 0.008,0.0653 0.0693,0.1318 0.0391,0.0426 0.0836,0.0765 0.0465,0.034 0.0818,0.0494 l -0.1067,0.13625 q -0.0177,-0.007 -0.043,-0.0218 -0.0253,-0.0151 -0.0533,-0.0372 -0.0281,-0.0202 -0.0579,-0.0464 -0.0298,-0.0262 -0.0565,-0.0553 -0.0678,-0.0738 -0.0965,-0.14895 -0.0278,-0.0741 -0.0238,-0.14483 0.006,-0.0707 0.0418,-0.13603 0.0367,-0.0643 0.097,-0.11969 z m 0.39324,0.30945 q 0.0188,-0.0192 0.0318,-0.0426 0.0139,-0.0224 0.017,-0.0482 0.004,-0.0248 -0.004,-0.0521 -0.007,-0.0263 -0.0317,-0.0533 -0.0239,-0.026 -0.0504,-0.0361 -0.0255,-0.0111 -0.0515,-0.0102 -0.026,8.9e-4 -0.0524,0.0117 -0.0244,0.0109 -0.0471,0.026 z"
         id="path2985" /><path
         d="m -200.55054,264.36433 0.16712,0.13199 -0.16113,0.1479 0.17081,0.18609 -0.12891,0.11832 -0.1708,-0.18608 -0.19232,0.17653 q -0.0489,0.0448 -0.0627,0.0882 -0.0129,0.0444 0.0348,0.0964 0.0229,0.0249 0.0509,0.0471 0.03,0.0223 0.0584,0.0365 l -0.10055,0.13252 q -0.0372,-0.0176 -0.077,-0.0442 -0.0398,-0.0267 -0.0856,-0.0766 -0.0582,-0.0634 -0.0797,-0.12027 -0.0205,-0.0578 -0.0132,-0.11042 0.008,-0.0536 0.0424,-0.10405 0.0351,-0.0494 0.0881,-0.0981 z"
         id="path2987" /><path
         d="m -200.12687,264.82587 0.16713,0.132 -0.16113,0.1479 0.1708,0.18608 -0.1289,0.11833 -0.17081,-0.18609 -0.19232,0.17653 q -0.0489,0.0448 -0.0627,0.0882 -0.0129,0.0444 0.0348,0.0964 0.0229,0.0249 0.0509,0.0471 0.03,0.0222 0.0584,0.0365 l -0.10055,0.13252 q -0.0372,-0.0176 -0.077,-0.0442 -0.0398,-0.0267 -0.0856,-0.0766 -0.0582,-0.0634 -0.0797,-0.12027 -0.0205,-0.0578 -0.0132,-0.11042 0.008,-0.0536 0.0424,-0.10405 0.0351,-0.0494 0.0881,-0.0981 z"
         id="path2989" /><path
         d="m -199.96241,266.3969 q -0.061,-0.0685 -0.0866,-0.12355 -0.0246,-0.054 -0.0237,-0.10088 0.003,-0.0468 0.0287,-0.0877 0.0277,-0.0408 0.0714,-0.0808 l 0.60191,-0.55249 0.16712,0.13199 -0.59567,0.54677 q -0.0208,0.0191 -0.0346,0.0375 -0.0138,0.0184 -0.0176,0.0372 -0.003,0.0199 0.005,0.0432 0.008,0.0233 0.0317,0.0533 z"
         id="path2991" /><path
         d="m -200.08997,266.62305 q -0.0134,-0.0146 -0.036,-0.0455 -0.0236,-0.032 -0.0382,-0.0646 l 0.14491,-0.0946 q 0.009,0.0204 0.0194,0.0358 0.009,0.0144 0.0275,0.0341 0.0334,0.0364 0.0686,0.0309 0.0352,-0.005 0.0768,-0.0436 l 0.52307,-0.47979 0.14212,0.15494 -0.52722,0.48361 q -0.10815,0.0992 -0.20879,0.0939 -0.10065,-0.005 -0.19222,-0.10517 z m 1.09965,-0.60273 q -0.0426,0.0391 -0.0934,0.0339 -0.0487,-0.005 -0.083,-0.0425 -0.0343,-0.0374 -0.0362,-0.0874 1.6e-4,-0.0499 0.0428,-0.089 0.0426,-0.0391 0.0914,-0.034 0.0507,0.005 0.085,0.0426 0.0343,0.0374 0.0342,0.0874 0.002,0.05 -0.0408,0.0891 z"
         id="path2993" /><path
         d="m -199.13693,267.25346 q -0.0472,-0.0299 -0.11283,-0.0848 -0.0667,-0.054 -0.12846,-0.12373 -0.0627,-0.0708 -0.0858,-0.13514 -0.0222,-0.0633 -0.0127,-0.12073 0.0105,-0.0583 0.0478,-0.11207 0.0372,-0.0537 0.0943,-0.10425 l 0.30948,-0.27417 0.13942,0.15738 -0.29046,0.25733 q -0.0761,0.0674 -0.0921,0.11738 -0.016,0.05 0.0326,0.10494 0.015,0.0169 0.0329,0.035 0.019,0.0171 0.0342,0.0301 l 0.42884,-0.3799 0.13942,0.15738 z"
         id="path2995" /><path
         d="m -198.77482,267.48571 q 0.0375,0.0441 0.0616,0.055 0.0241,0.011 0.0489,-0.01 0.0194,-0.0165 0.0132,-0.052 -0.005,-0.0365 -0.0279,-0.10037 -0.018,-0.0495 -0.0295,-0.0935 -0.0105,-0.0429 -0.008,-0.0818 0.003,-0.0398 0.0222,-0.0763 0.019,-0.0365 0.0598,-0.0712 0.0796,-0.0676 0.17607,-0.0478 0.0965,0.0198 0.18422,0.12307 0.0439,0.0516 0.0744,0.10714 0.0316,0.0546 0.0446,0.0917 l -0.14848,0.0781 q -0.0141,-0.0362 -0.0349,-0.0759 -0.0199,-0.0387 -0.0546,-0.0795 -0.064,-0.0753 -0.1059,-0.0396 -0.01,0.008 -0.0145,0.0179 -0.005,0.01 -0.004,0.0257 0.002,0.0152 0.007,0.0386 0.007,0.0236 0.0193,0.0576 0.0254,0.0691 0.0353,0.11999 0.011,0.0499 0.005,0.0885 -0.004,0.0387 -0.0246,0.0691 -0.0196,0.0314 -0.0551,0.0616 -0.0839,0.0713 -0.18079,0.0444 -0.096,-0.0258 -0.19379,-0.14087 -0.064,-0.0753 -0.094,-0.13677 -0.0291,-0.0604 -0.037,-0.0871 l 0.15295,-0.0837 q 0.0186,0.0546 0.0455,0.1058 0.028,0.0503 0.0636,0.0923 z"
         id="path2997" /><path
         d="m -198.33291,268.00599 q 0.0375,0.0441 0.0616,0.055 0.0241,0.011 0.0489,-0.0101 0.0194,-0.0164 0.0132,-0.052 -0.005,-0.0364 -0.0279,-0.10036 -0.018,-0.0495 -0.0295,-0.0935 -0.0106,-0.0429 -0.008,-0.0818 0.003,-0.0398 0.0222,-0.0763 0.019,-0.0365 0.0598,-0.0713 0.0795,-0.0676 0.17605,-0.0478 0.0965,0.0198 0.18426,0.12301 0.0439,0.0516 0.0744,0.10712 0.0316,0.0546 0.0446,0.0917 l -0.14846,0.0781 q -0.0141,-0.0362 -0.0349,-0.0759 -0.0199,-0.0387 -0.0546,-0.0795 -0.064,-0.0752 -0.10591,-0.0396 -0.01,0.008 -0.0145,0.0179 -0.005,0.01 -0.004,0.0257 0.002,0.0152 0.007,0.0386 0.007,0.0236 0.0194,0.0576 0.0254,0.0691 0.0353,0.11998 0.011,0.0499 0.005,0.0885 -0.004,0.0387 -0.0246,0.0691 -0.0196,0.0315 -0.055,0.0616 -0.0838,0.0713 -0.18078,0.0444 -0.096,-0.0258 -0.19384,-0.1408 -0.064,-0.0752 -0.0941,-0.13674 -0.0292,-0.0604 -0.037,-0.0871 l 0.15292,-0.0837 q 0.0186,0.0546 0.0455,0.10579 0.028,0.0503 0.0636,0.0922 z"
         id="path2999" /><path
         d="m -197.64351,268.31711 q 0.0459,0.002 0.0949,0.002 0.0499,0.002 0.0969,0.003 0.0481,-2.1e-4 0.0901,-8.9e-4 0.043,3.9e-4 0.0741,-1.6e-4 l 0.16217,0.18996 q -0.11402,-9.9e-4 -0.22085,-0.004 -0.10484,-0.003 -0.22313,-0.0136 -0.001,0.0569 -0.0129,0.12609 -0.0104,0.0682 -0.0258,0.13709 -0.0154,0.0688 -0.0355,0.13232 -0.02,0.0635 -0.0399,0.11196 l -0.15667,-0.18352 q 0.0132,-0.041 0.0273,-0.0919 0.016,-0.0508 0.0282,-0.10387 0.0133,-0.054 0.0206,-0.10848 0.008,-0.0534 0.007,-0.0986 l -0.24684,0.21073 -0.13651,-0.15991 0.80705,-0.689 0.16227,0.13792 z"
         id="path3001" /><path
         d="m -197.39002,268.7813 q 0.0749,-0.0644 0.1499,-0.0897 0.077,-0.0252 0.1466,-0.0199 0.0697,0.005 0.13029,0.0369 0.0616,0.0327 0.1057,0.0841 0.10299,0.11989 0.0889,0.25291 -0.013,0.1321 -0.15539,0.25439 -0.0139,0.012 -0.032,0.0256 -0.017,0.0127 -0.0307,0.0227 l -0.31079,-0.36179 q -0.0446,0.0477 -0.0386,0.11315 0.006,0.0655 0.0649,0.13401 0.0377,0.0439 0.0811,0.0792 0.0453,0.0355 0.0801,0.0521 l -0.11113,0.13266 q -0.0175,-0.007 -0.0423,-0.0232 -0.0248,-0.0159 -0.0521,-0.039 -0.0274,-0.0211 -0.0564,-0.0483 -0.029,-0.0272 -0.0547,-0.0572 -0.0653,-0.076 -0.0915,-0.15203 -0.0253,-0.075 -0.019,-0.14554 0.008,-0.0704 0.0462,-0.13459 0.0388,-0.0631 0.10089,-0.11643 z m 0.38283,0.32223 q 0.0194,-0.0185 0.0332,-0.0415 0.0147,-0.0219 0.0186,-0.0476 0.005,-0.0246 -0.002,-0.0522 -0.006,-0.0265 -0.0299,-0.0543 -0.023,-0.0268 -0.0492,-0.0377 -0.0251,-0.0119 -0.0511,-0.0119 -0.026,2e-5 -0.0528,0.01 -0.0248,0.0101 -0.0479,0.0244 z"
         id="path3003" /><path
         d="m -196.56396,269.20325 q 0.0468,0.0304 0.11188,0.086 0.0661,0.0547 0.12709,0.12514 0.0619,0.0715 0.0834,0.13501 0.0235,0.0637 0.0134,0.121 -0.0101,0.0573 -0.0469,0.10969 -0.0368,0.0524 -0.0944,0.10228 l -0.31675,0.27444 -0.13768,-0.15891 0.29755,-0.2578 q 0.0768,-0.0665 0.0912,-0.11452 0.0144,-0.048 -0.0336,-0.10344 -0.0148,-0.0171 -0.0335,-0.0344 -0.0177,-0.0183 -0.0328,-0.0314 l -0.433,0.37516 -0.13767,-0.15891 z"
         id="path3005" /><path
         d="m -195.60016,270.83044 q -0.0657,0.0578 -0.13754,0.0872 -0.0708,0.0285 -0.14169,0.027 -0.0698,-0.002 -0.13577,-0.0346 -0.065,-0.0311 -0.12001,-0.0936 -0.0541,-0.0614 -0.0776,-0.13093 -0.0226,-0.0684 -0.0162,-0.13801 0.007,-0.0705 0.0438,-0.13818 0.0374,-0.0686 0.10305,-0.12641 0.0657,-0.0578 0.13741,-0.0852 0.0727,-0.0264 0.1425,-0.0239 0.0708,0.004 0.13576,0.0346 0.0659,0.0322 0.11815,0.0915 0.0531,0.0604 0.0758,0.12881 0.0236,0.0695 0.0171,0.13907 -0.006,0.0696 -0.0427,0.13725 -0.0363,0.0677 -0.10198,0.12548 z m -0.14171,-0.16101 q 0.0731,-0.0643 0.0883,-0.13035 0.0172,-0.0659 -0.0303,-0.11991 -0.0475,-0.054 -0.11602,-0.0464 -0.0674,0.007 -0.1405,0.071 -0.0731,0.0643 -0.0904,0.13221 -0.0163,0.0669 0.0313,0.12097 0.0476,0.054 0.11509,0.0453 0.0695,-0.009 0.14263,-0.0729 z m 0.15479,-0.54604 q -0.0289,-0.0328 -0.0292,-0.0758 8e-4,-0.0439 0.0379,-0.0766 0.0371,-0.0326 0.0797,-0.0269 0.0437,0.005 0.0726,0.0376 0.0289,0.0328 0.0281,0.0768 2.6e-4,0.043 -0.0368,0.0756 -0.0371,0.0326 -0.0808,0.0279 -0.0426,-0.006 -0.0715,-0.0386 z m 0.2079,0.23622 q -0.0289,-0.0328 -0.0292,-0.0759 8e-4,-0.0439 0.0379,-0.0766 0.0371,-0.0326 0.0797,-0.0269 0.0437,0.005 0.0726,0.0376 0.0289,0.0328 0.0281,0.0768 2.6e-4,0.043 -0.0368,0.0756 -0.0371,0.0326 -0.0808,0.0279 -0.0426,-0.006 -0.0715,-0.0386 z"
         id="path3007" /><path
         d="m -195.65042,271.33419 q 0.0574,-0.14763 0.14877,-0.3293 0.0923,-0.18061 0.21455,-0.3785 l 0.14839,0.1664 q -0.0317,0.0472 -0.0679,0.10405 -0.0343,0.057 -0.0706,0.11589 -0.0343,0.059 -0.0675,0.11507 -0.0323,0.0571 -0.057,0.10568 0.0501,-0.0201 0.11055,-0.0456 0.0604,-0.0255 0.12202,-0.054 0.0636,-0.0283 0.12319,-0.0569 0.0616,-0.0285 0.11206,-0.0546 l 0.14463,0.16219 q -0.21054,0.0989 -0.40144,0.16892 -0.18996,0.0711 -0.34318,0.11129 z"
         id="path3009" /><path
         d="m -195.03359,271.47639 q 0.0732,-0.0663 0.14752,-0.0936 0.0763,-0.0272 0.14604,-0.0237 0.0698,0.003 0.1312,0.0335 0.0624,0.0311 0.10785,0.0813 0.10607,0.11717 0.0954,0.25051 -0.01,0.1324 -0.14872,0.25835 -0.0136,0.0123 -0.0313,0.0264 -0.0166,0.0131 -0.0301,0.0235 l -0.32009,-0.35359 q -0.0434,0.0488 -0.0357,0.11411 0.008,0.0653 0.0683,0.13228 0.0388,0.0429 0.0831,0.0771 0.0462,0.0343 0.0814,0.05 l -0.10765,0.13551 q -0.0176,-0.007 -0.0428,-0.0221 -0.0252,-0.0152 -0.0531,-0.0376 -0.028,-0.0204 -0.0576,-0.0468 -0.0297,-0.0265 -0.0562,-0.0557 -0.0672,-0.0743 -0.0955,-0.14961 -0.0273,-0.0743 -0.0228,-0.14499 0.006,-0.0706 0.0427,-0.13574 0.0372,-0.0641 0.0978,-0.11902 z m 0.39109,0.31217 q 0.0189,-0.019 0.0321,-0.0424 0.0141,-0.0223 0.0174,-0.0481 0.004,-0.0248 -0.003,-0.0521 -0.007,-0.0263 -0.0313,-0.0535 -0.0237,-0.0262 -0.0501,-0.0365 -0.0254,-0.0112 -0.0514,-0.0105 -0.026,7.1e-4 -0.0525,0.0114 -0.0245,0.0108 -0.0472,0.0256 z"
         id="path3011" /><path
         d="m -194.01487,272.31126 q -0.0139,-0.0256 -0.0345,-0.0584 -0.0195,-0.0338 -0.0491,-0.066 -0.0134,-0.0145 -0.0356,-0.0325 -0.0202,-0.0178 -0.0329,-0.0254 l -0.41767,0.38386 -0.14227,-0.15481 0.51741,-0.47553 q 0.0527,0.0282 0.11677,0.0728 0.066,0.0447 0.13,0.11434 0.0115,0.0125 0.0256,0.032 0.0152,0.0186 0.0283,0.0392 0.0142,0.0196 0.0262,0.0411 0.0131,0.0205 0.0194,0.0378 z"
         id="path3013" /><path
         d="m -193.83675,273.09578 q 0.0396,0.0421 0.0643,0.0519 0.0247,0.01 0.0483,-0.0125 0.0185,-0.0174 0.0106,-0.0526 -0.007,-0.0362 -0.0329,-0.0988 -0.0205,-0.0485 -0.0342,-0.0919 -0.0127,-0.0423 -0.0125,-0.0812 0.001,-0.0399 0.0183,-0.0773 0.0171,-0.0374 0.0562,-0.0742 0.076,-0.0716 0.17342,-0.0566 0.0974,0.0149 0.19022,0.11358 0.0464,0.0493 0.0797,0.10324 0.0343,0.053 0.0492,0.0893 l -0.14434,0.0855 q -0.0159,-0.0354 -0.0387,-0.074 -0.0218,-0.0376 -0.0586,-0.0766 -0.0677,-0.0719 -0.10777,-0.0342 -0.009,0.009 -0.0135,0.0186 -0.004,0.01 -0.003,0.0259 0.003,0.015 0.009,0.0382 0.008,0.0232 0.0222,0.0566 0.0289,0.0678 0.0413,0.11805 0.0135,0.0493 0.009,0.0881 -0.002,0.0389 -0.0211,0.0702 -0.0179,0.0324 -0.0519,0.0643 -0.0802,0.0754 -0.17832,0.0535 -0.0972,-0.0209 -0.20067,-0.13086 -0.0677,-0.0719 -0.10082,-0.13184 -0.0322,-0.0589 -0.0413,-0.0851 l 0.14852,-0.0913 q 0.0213,0.0536 0.0508,0.10336 0.0305,0.0488 0.0682,0.0889 z"
         id="path3015" /><path
         d="m -192.95814,272.8956 0.16988,0.12843 -0.15796,0.15128 0.1747,0.18243 -0.12638,0.12102 -0.1747,-0.18243 -0.18854,0.18056 q -0.0479,0.0459 -0.0608,0.0895 -0.012,0.0446 0.0368,0.0956 0.0234,0.0245 0.0519,0.046 0.0305,0.0216 0.0591,0.0352 l -0.0977,0.13462 q -0.0376,-0.0168 -0.0779,-0.0426 -0.0404,-0.0258 -0.0872,-0.0747 -0.0595,-0.0622 -0.0823,-0.11855 -0.0217,-0.0574 -0.0156,-0.11012 0.007,-0.0537 0.0402,-0.10492 0.034,-0.0502 0.086,-0.0999 z"
         id="path3017" /><path
         d="m -192.9054,274.07409 q 0.0217,0.0222 0.0424,0.0414 0.0207,0.0192 0.0346,0.0293 l 0.11403,-0.11145 q -0.007,-0.0111 -0.0226,-0.0312 -0.0157,-0.0201 -0.0305,-0.0353 -0.0207,-0.0212 -0.0425,-0.0374 -0.0198,-0.0162 -0.0406,-0.0234 -0.0209,-0.007 -0.0409,-0.003 -0.02,0.004 -0.0382,0.0215 -0.0353,0.0345 -0.0268,0.0715 0.0105,0.037 0.051,0.0784 z m 0.42814,-0.44217 q 0.0651,0.0666 0.0934,0.1258 0.0283,0.0592 0.0257,0.11305 -0.002,0.0549 -0.0311,0.10542 -0.0295,0.0506 -0.079,0.0989 l -0.31282,0.30577 q -0.0386,-0.0254 -0.10394,-0.074 -0.0663,-0.0477 -0.14621,-0.12939 -0.0503,-0.0515 -0.0827,-0.10273 -0.0314,-0.0503 -0.0408,-0.10025 -0.008,-0.051 0.009,-0.0997 0.0175,-0.0487 0.066,-0.096 0.0464,-0.0454 0.0965,-0.0588 0.051,-0.0124 0.10078,1.5e-4 0.0497,0.0125 0.0973,0.045 0.0485,0.0315 0.0909,0.0749 0.0286,0.0293 0.0473,0.0544 0.0207,0.0252 0.0304,0.0433 l 0.0141,-0.0138 q 0.0384,-0.0375 0.0389,-0.0834 5.3e-4,-0.0459 -0.0557,-0.10342 -0.0375,-0.0383 -0.08,-0.0698 -0.0415,-0.0324 -0.0783,-0.0498 l 0.10235,-0.13754 q 0.0169,0.009 0.0396,0.0244 0.0248,0.0152 0.0505,0.0355 0.0267,0.0193 0.0534,0.0425 0.0287,0.0233 0.0543,0.0495 z"
         id="path3019" /><path
         d="m -192.26952,274.39083 q -0.0687,0.069 -0.0795,0.14184 -0.0108,0.0729 0.0502,0.13361 0.02,0.0199 0.038,0.0358 0.019,0.0149 0.032,0.0239 l 0.26988,-0.27094 q -0.005,-0.0229 -0.0221,-0.0518 -0.016,-0.0279 -0.039,-0.0508 -0.10597,-0.10556 -0.24938,0.0384 z m 0.088,0.58554 q -0.026,-0.0139 -0.0579,-0.0338 -0.031,-0.0209 -0.064,-0.0458 -0.032,-0.0239 -0.064,-0.0518 -0.032,-0.0259 -0.059,-0.0528 -0.065,-0.0647 -0.097,-0.13451 -0.0321,-0.0698 -0.0322,-0.13963 8.6e-4,-0.0708 0.0317,-0.13976 0.0328,-0.0689 0.0955,-0.1319 0.0637,-0.064 0.13052,-0.099 0.0678,-0.0361 0.13362,-0.0422 0.0658,-0.006 0.12776,0.0177 0.0629,0.0248 0.11889,0.0806 0.031,0.0309 0.049,0.0608 0.019,0.0309 0.0331,0.0668 l 0.23701,-0.23794 0.17287,0.12439 z"
         id="path3021" /><path
         d="m -191.82884,274.84449 q 0.0686,-0.071 0.14093,-0.10321 0.0743,-0.0322 0.14413,-0.0334 0.0698,-10e-4 0.13315,0.0247 0.0643,0.0268 0.11304,0.0739 0.11366,0.10982 0.11196,0.24358 -7.1e-4,0.13274 -0.13112,0.2677 -0.0127,0.0132 -0.0294,0.0285 -0.0157,0.0143 -0.0285,0.0254 l -0.343,-0.33141 q -0.04,0.0516 -0.0279,0.11624 0.0121,0.0647 0.077,0.12741 0.0416,0.0402 0.0881,0.0713 0.0484,0.0311 0.0846,0.0445 l -0.0984,0.1424 q -0.0181,-0.006 -0.0442,-0.0192 -0.0262,-0.0135 -0.0555,-0.034 -0.0292,-0.0185 -0.0606,-0.0429 -0.0314,-0.0244 -0.0598,-0.0519 -0.072,-0.0696 -0.10525,-0.1429 -0.0322,-0.0723 -0.0324,-0.14315 0.002,-0.0709 0.0336,-0.13829 0.0328,-0.0664 0.0897,-0.12529 z m 0.41107,0.28534 q 0.0176,-0.0203 0.0292,-0.0444 0.0126,-0.0232 0.0141,-0.0491 0.003,-0.025 -0.007,-0.0518 -0.008,-0.0258 -0.0348,-0.0513 -0.0254,-0.0245 -0.0525,-0.033 -0.0261,-0.01 -0.052,-0.007 -0.0259,0.002 -0.0516,0.0149 -0.0237,0.0124 -0.0454,0.0287 z"
         id="path3023" /><path
         d="m -190.9743,275.1797 q 0.0498,0.0253 0.12031,0.0738 0.0715,0.0475 0.13954,0.11109 0.0691,0.0645 0.0971,0.1255 0.03,0.0609 0.026,0.11892 -0.004,0.058 -0.0351,0.11401 -0.031,0.056 -0.0831,0.11163 l -0.28614,0.30622 -0.15362,-0.14356 0.2688,-0.28765 q 0.0694,-0.0742 0.0787,-0.12347 0.009,-0.0492 -0.0443,-0.0993 -0.0165,-0.0154 -0.037,-0.0307 -0.0195,-0.0163 -0.0359,-0.0277 l -0.39116,0.41859 -0.15362,-0.14355 z"
         id="path3025" /><path
         d="m -190.56296,276.24439 q -0.0207,0.0269 -0.0302,0.0374 -0.008,0.0114 -0.0151,0.0187 -0.0285,0.0313 -0.0671,0.0611 -0.0366,0.0297 -0.0793,0.0556 -0.0427,0.026 -0.0907,0.0472 -0.048,0.0212 -0.0972,0.0355 l -0.0945,-0.14141 q 0.0867,-0.047 0.15119,-0.099 0.0645,-0.052 0.1006,-0.0916 0.006,-0.006 0.0132,-0.0166 0.01,-0.0104 0.018,-0.0218 0.01,-0.0104 0.017,-0.0208 0.009,-0.009 0.0114,-0.0125 z"
         id="path3027" /><path
         d="m -189.87469,276.18777 q 0.0506,0.0235 0.12285,0.0695 0.0731,0.0449 0.14338,0.10608 0.0713,0.0621 0.10148,0.12199 0.0322,0.0598 0.0302,0.11793 -0.002,0.0582 -0.031,0.11517 -0.029,0.057 -0.0791,0.11451 l -0.27514,0.31614 -0.1586,-0.13803 0.25846,-0.29698 q 0.0667,-0.0766 0.0743,-0.12618 0.008,-0.0495 -0.0478,-0.0977 -0.017,-0.0148 -0.038,-0.0294 -0.0201,-0.0156 -0.0368,-0.0265 l -0.37612,0.43216 -0.1586,-0.13803 z"
         id="path3029" /><path
         d="m -189.405,277.34127 q 0.0239,0.0199 0.0464,0.0368 0.0226,0.017 0.0374,0.0256 l 0.10205,-0.12252 q -0.008,-0.0103 -0.0257,-0.0287 -0.0177,-0.0184 -0.034,-0.032 -0.0228,-0.019 -0.0461,-0.0329 -0.0213,-0.0141 -0.0428,-0.0191 -0.0215,-0.005 -0.041,7.4e-4 -0.0195,0.006 -0.0358,0.0253 -0.0316,0.038 -0.0193,0.0739 0.0143,0.0358 0.0587,0.0728 z m 0.38075,-0.48358 q 0.0716,0.0596 0.10572,0.11561 0.0342,0.056 0.0371,0.10984 0.004,0.0547 -0.0202,0.10804 -0.0242,0.0533 -0.0685,0.10644 l -0.27997,0.33612 q -0.041,-0.0213 -0.11095,-0.063 -0.0708,-0.0406 -0.15866,-0.11378 -0.0553,-0.0461 -0.0927,-0.0937 -0.0363,-0.0468 -0.0508,-0.0956 -0.0136,-0.0499 -0.001,-0.1001 0.0125,-0.0502 0.0558,-0.10227 0.0415,-0.0499 0.09,-0.0683 0.0495,-0.0175 0.10027,-0.0101 0.0508,0.007 0.10136,0.0348 0.0515,0.0264 0.0981,0.0652 0.0314,0.0262 0.0526,0.0493 0.0231,0.0229 0.0347,0.0399 l 0.0126,-0.0152 q 0.0343,-0.0412 0.0302,-0.0869 -0.004,-0.0457 -0.066,-0.0972 -0.0412,-0.0343 -0.0867,-0.0612 -0.0446,-0.028 -0.0829,-0.0415 l 0.0878,-0.14727 q 0.0177,0.007 0.0419,0.0202 0.0262,0.0126 0.0539,0.0302 0.0285,0.0164 0.0575,0.0368 0.0309,0.0202 0.0591,0.0437 z m 0.29105,-0.0496 q -0.0253,0.0304 -0.056,0.0452 -0.0287,0.0146 -0.0607,0.0156 -0.03,7.3e-4 -0.0611,-0.0105 -0.0291,-0.0114 -0.0551,-0.0331 -0.0249,-0.0208 -0.0414,-0.0473 -0.0155,-0.0276 -0.0213,-0.0582 -0.004,-0.0307 0.004,-0.0625 0.0101,-0.032 0.0354,-0.0623 0.0253,-0.0304 0.054,-0.045 0.0307,-0.0148 0.0607,-0.0156 0.032,-9.1e-4 0.0611,0.0105 0.03,0.0103 0.0549,0.0311 0.026,0.0217 0.0416,0.0493 0.0175,0.0275 0.0213,0.0582 0.006,0.0305 -0.004,0.0625 -0.008,0.0318 -0.0334,0.0622 z m -0.0791,-0.0659 q 0.0208,-0.0249 0.0164,-0.0506 -0.004,-0.0257 -0.0239,-0.0419 -0.0184,-0.0154 -0.0444,-0.015 -0.026,3.7e-4 -0.0468,0.0253 -0.0208,0.0249 -0.0164,0.0506 0.004,0.0256 0.0228,0.041 0.0195,0.0163 0.0455,0.0159 0.026,-3.6e-4 0.0468,-0.0253 z"
         id="path3031" /><path
         d="m -188.54249,277.04103 0.18544,0.10471 -0.13647,0.17093 0.1974,0.1576 -0.10918,0.13674 -0.19739,-0.1576 -0.16288,0.20401 q -0.0414,0.0518 -0.0484,0.0968 -0.006,0.0458 0.0492,0.0899 0.0265,0.0211 0.0576,0.0387 0.0331,0.0174 0.0633,0.027 l -0.079,0.14641 q -0.0395,-0.0116 -0.0829,-0.0319 -0.0434,-0.0202 -0.0964,-0.0625 -0.0673,-0.0537 -0.0973,-0.10656 -0.0291,-0.054 -0.0301,-0.10708 -6e-5,-0.0542 0.0259,-0.10933 0.0271,-0.0542 0.072,-0.11048 z"
         id="path3033" /><path
         d="m -188.09589,278.37185 q 0.0464,0.0346 0.0724,0.0399 0.026,0.005 0.0454,-0.0207 0.0152,-0.0204 0.001,-0.0536 -0.0131,-0.0344 -0.0496,-0.0916 -0.0286,-0.0442 -0.0496,-0.0845 -0.0199,-0.0395 -0.0264,-0.0778 -0.006,-0.0395 0.005,-0.0793 0.0103,-0.0398 0.0424,-0.0828 0.0624,-0.0837 0.16094,-0.0859 0.0985,-0.002 0.20706,0.0788 0.0543,0.0405 0.0965,0.0878 0.043,0.0462 0.064,0.0794 l -0.12729,0.10925 q -0.0218,-0.0321 -0.051,-0.0662 -0.028,-0.0332 -0.071,-0.0653 -0.0792,-0.0591 -0.11208,-0.015 -0.008,0.0102 -0.0101,0.0206 -0.003,0.0104 0.002,0.026 0.005,0.0144 0.0153,0.0361 0.0122,0.0214 0.0317,0.0519 0.0402,0.0617 0.0612,0.10907 0.0218,0.0462 0.0245,0.0852 0.005,0.0386 -0.009,0.0728 -0.012,0.035 -0.0399,0.0724 -0.0658,0.0882 -0.1663,0.0837 -0.0994,-0.004 -0.22037,-0.094 -0.0792,-0.0591 -0.12219,-0.1123 -0.0419,-0.0524 -0.0555,-0.0766 l 0.13039,-0.11575 q 0.0303,0.049 0.068,0.093 0.0385,0.0428 0.0826,0.0757 z"
         id="path3035" /><path
         d="m -187.27527,278.01303 0.19102,0.0942 -0.12667,0.1783 0.20591,0.14629 -0.10134,0.14265 -0.20591,-0.14629 -0.1512,0.21281 q -0.0384,0.0541 -0.0429,0.0994 -0.003,0.0461 0.0542,0.087 0.0276,0.0196 0.0596,0.0355 0.034,0.0155 0.0647,0.0235 l -0.0706,0.15061 q -0.0401,-0.009 -0.0846,-0.0272 -0.0445,-0.0178 -0.0997,-0.057 -0.0702,-0.0498 -0.10311,-0.10095 -0.0321,-0.0522 -0.036,-0.10522 -0.003,-0.0541 0.0197,-0.11061 0.024,-0.0557 0.0657,-0.11434 z"
         id="path3037" /><path
         d="m -186.53426,279.19434 q -0.0486,0.0728 -0.11045,0.11968 -0.0611,0.0457 -0.12997,0.0625 -0.0681,0.0156 -0.14012,10e-4 -0.0708,-0.0134 -0.14007,-0.0596 -0.0681,-0.0455 -0.10873,-0.10653 -0.0395,-0.0603 -0.0512,-0.12919 -0.0109,-0.0701 0.007,-0.1448 0.0184,-0.0759 0.067,-0.14867 0.0486,-0.0728 0.11084,-0.11773 0.0634,-0.0442 0.13154,-0.0598 0.0693,-0.0148 0.14011,-10e-4 0.072,0.0141 0.13773,0.058 0.0669,0.0447 0.10638,0.10496 0.0407,0.0611 0.0523,0.12997 0.0117,0.0689 -0.006,0.14363 -0.0177,0.0747 -0.0662,0.1475 z m -0.17838,-0.1191 q 0.0541,-0.081 0.0518,-0.14869 -3.4e-4,-0.0681 -0.0602,-0.10806 -0.0599,-0.04 -0.12405,-0.0149 -0.0634,0.0238 -0.11748,0.1048 -0.0541,0.081 -0.0533,0.15104 0.002,0.0689 0.0614,0.10884 0.0598,0.04 0.12288,0.0142 0.065,-0.0262 0.11905,-0.10715 z"
         id="path3039" /><path
         d="m -185.92983,279.35471 q -0.0202,-0.0209 -0.0488,-0.047 -0.0279,-0.0273 -0.065,-0.0505 -0.0168,-0.0104 -0.043,-0.0218 -0.0242,-0.0118 -0.0385,-0.0156 l -0.2999,0.48151 -0.17847,-0.11116 0.37152,-0.5965 q 0.0584,0.0131 0.13198,0.039 0.0756,0.0255 0.15583,0.0754 0.0144,0.009 0.0333,0.024 0.0196,0.0139 0.0377,0.0301 0.0189,0.0151 0.0362,0.0326 0.0181,0.0163 0.0288,0.0312 z"
         id="path3041" /><path
         d="m -185.63568,279.09848 0.19869,0.0767 -0.11017,0.18895 0.21821,0.12723 -0.0881,0.15116 -0.2182,-0.12723 -0.1315,0.22552 q -0.0334,0.0573 -0.0338,0.1028 8.2e-4,0.0462 0.0618,0.0817 0.0293,0.0171 0.0626,0.03 0.0353,0.0124 0.0665,0.0176 l -0.0568,0.15634 q -0.0407,-0.006 -0.0866,-0.0195 -0.0459,-0.0137 -0.10443,-0.0478 -0.0744,-0.0434 -0.11174,-0.0913 -0.0367,-0.0492 -0.0453,-0.10157 -0.008,-0.0536 0.01,-0.11193 0.0189,-0.0576 0.0551,-0.11977 z"
         id="path3043" /><path
         d="m -184.46945,280.36183 q -0.0396,0.078 -0.0955,0.1319 -0.0553,0.0526 -0.12168,0.0774 -0.0658,0.0236 -0.13895,0.018 -0.0719,-0.005 -0.14613,-0.0426 -0.073,-0.0371 -0.12056,-0.0929 -0.0463,-0.0552 -0.0661,-0.12223 -0.0191,-0.0683 -0.0104,-0.14459 0.009,-0.0776 0.049,-0.15555 0.0396,-0.078 0.0961,-0.13 0.0578,-0.0514 0.12356,-0.0749 0.067,-0.0229 0.13895,-0.018 0.0732,0.006 0.14362,0.0413 0.0717,0.0364 0.11804,0.0917 0.0476,0.0559 0.0673,0.12288 0.0198,0.067 0.0111,0.14333 -0.009,0.0763 -0.0483,0.15429 z m -0.19121,-0.0972 q 0.0441,-0.0868 0.0338,-0.15376 -0.008,-0.0676 -0.0725,-0.10019 -0.0642,-0.0326 -0.12496,-1.9e-4 -0.0602,0.0312 -0.10427,0.11796 -0.0441,0.0868 -0.0351,0.15627 0.01,0.0682 0.0738,0.10083 0.0641,0.0326 0.12369,-4.4e-4 0.0614,-0.0337 0.10556,-0.12048 z"
         id="path3045" /><path
         d="m -184.37077,280.40924 q 0.0331,-0.0733 0.0852,-0.12722 0.054,-0.0546 0.12049,-0.0819 0.0671,-0.0286 0.14414,-0.0279 0.0771,6.9e-4 0.15942,0.0378 0.054,0.0243 0.0944,0.0549 0.041,0.0293 0.0753,0.0664 l -0.10888,0.13512 q -0.0224,-0.0225 -0.0511,-0.0447 -0.0287,-0.0222 -0.0686,-0.0402 -0.0849,-0.0383 -0.15113,-0.005 -0.0649,0.0342 -0.10379,0.12039 -0.0412,0.0913 -0.0252,0.15891 0.0173,0.0682 0.11504,0.11221 0.0347,0.0157 0.0775,0.0272 0.0428,0.0115 0.0826,0.0125 l -0.0437,0.16913 q -0.0398,-9.2e-4 -0.0946,-0.0132 -0.0548,-0.0123 -0.11527,-0.0396 -0.0926,-0.0417 -0.14735,-0.0989 -0.0541,-0.0584 -0.0764,-0.12576 -0.021,-0.0667 -0.0126,-0.14034 0.0103,-0.0743 0.0445,-0.15021 z"
         id="path3047" /><path
         d="m -183.84633,281.0494 0.38616,-0.98839 0.20817,0.045 -0.12941,0.33122 q 0.0223,10e-4 0.0546,0.008 0.0341,0.006 0.063,0.017 0.0841,0.0329 0.13008,0.0781 0.0478,0.0444 0.0642,0.0993 0.0177,0.0554 0.008,0.11837 -0.008,0.0635 -0.0359,0.13446 l -0.15252,0.39036 -0.19584,-0.0765 0.14328,-0.36671 q 0.037,-0.0946 0.0274,-0.14382 -0.008,-0.0487 -0.074,-0.0743 -0.0263,-0.0103 -0.052,-0.0143 -0.0239,-0.005 -0.0443,-0.007 l -0.20541,0.52574 z"
         id="path3049" /><path
         d="m -182.46605,281.12589 q -0.0496,0.16927 0.0872,0.20936 0.0311,0.009 0.0606,0.009 0.0295,-1.8e-4 0.0516,-0.005 l 0.0944,-0.32229 q -0.0141,-0.007 -0.034,-0.0144 -0.0195,-0.009 -0.0466,-0.0166 -0.0799,-0.0234 -0.13464,0.0179 -0.0547,0.0413 -0.0786,0.12255 z m 0.35789,0.41956 q -0.0512,0.17469 -0.16517,0.23245 -0.11303,0.0595 -0.29855,0.005 -0.065,-0.019 -0.12642,-0.0503 -0.0618,-0.0299 -0.11179,-0.0651 l 0.0848,-0.15895 q 0.0418,0.0328 0.0901,0.0588 0.0496,0.0263 0.116,0.0457 0.0867,0.0254 0.13298,-0.002 0.0477,-0.0272 0.0651,-0.0868 l 0.008,-0.0257 q -0.0369,0.005 -0.0745,0.003 -0.0358,-0.003 -0.0765,-0.0151 -0.1476,-0.0433 -0.20075,-0.15294 -0.0527,-0.11103 -0.007,-0.26812 0.023,-0.0785 0.066,-0.13504 0.0434,-0.0579 0.10296,-0.0904 0.0609,-0.0322 0.13574,-0.0367 0.0753,-0.006 0.16056,0.0191 0.0366,0.0107 0.0733,0.0259 0.0385,0.0142 0.0748,0.0308 0.0363,0.0165 0.0678,0.0346 0.0332,0.0171 0.0579,0.0331 z"
         id="path3051" /><path
         d="m -181.31839,281.79512 q -0.0557,0.004 -0.14113,-0.002 -0.0857,-0.004 -0.1767,-0.0243 -0.0923,-0.0202 -0.14895,-0.0586 -0.0552,-0.0381 -0.0814,-0.0901 -0.0259,-0.0533 -0.0275,-0.11869 -0.002,-0.0653 0.0147,-0.13979 l 0.0885,-0.40387 0.20539,0.045 -0.083,0.37907 q -0.0217,0.0992 -0.005,0.14909 0.0165,0.0498 0.0882,0.0656 0.0221,0.005 0.0472,0.009 0.0254,0.003 0.0453,0.004 l 0.1226,-0.55964 0.20539,0.045 z"
         id="path3053" /><path
         d="m -180.83829,281.91229 q -0.0904,-0.0159 -0.1446,-0.0431 -0.0529,-0.027 -0.0812,-0.0644 -0.0267,-0.0386 -0.0319,-0.0865 -0.004,-0.0492 0.006,-0.10769 l 0.12875,-0.80682 0.21297,-3.1e-4 -0.12742,0.79846 q -0.004,0.0279 -0.004,0.0508 6.2e-4,0.023 0.009,0.0401 0.0101,0.0173 0.0308,0.0306 0.0207,0.0133 0.0579,0.0221 z"
         id="path3055" /><path
         d="m -180.60332,280.99453 0.21259,-0.0126 -0.022,0.21761 0.25132,0.0254 -0.0176,0.17409 -0.25131,-0.0253 -0.0262,0.25974 q -0.007,0.066 0.0118,0.10756 0.0199,0.0417 0.0901,0.0488 0.0337,0.003 0.0694,0.001 0.0372,-0.003 0.0678,-0.0116 l 0.0131,0.16584 q -0.0395,0.0116 -0.0869,0.0182 -0.0475,0.007 -0.11486,-2.4e-4 -0.0856,-0.009 -0.13954,-0.0368 -0.0538,-0.0295 -0.0833,-0.0736 -0.0294,-0.0455 -0.0375,-0.1059 -0.007,-0.0602 5.3e-4,-0.13185 z"
         id="path3057" /><path
         d="m -179.50696,281.84971 q 0.0578,0.002 0.0822,-0.008 0.0244,-0.0104 0.0255,-0.0429 9.1e-4,-0.0254 -0.0295,-0.0448 -0.0303,-0.0208 -0.0929,-0.0471 -0.0487,-0.0201 -0.0889,-0.0413 -0.0388,-0.0212 -0.066,-0.049 -0.0272,-0.0292 -0.0413,-0.0678 -0.0142,-0.0386 -0.0122,-0.0922 0.004,-0.10435 0.0835,-0.16222 0.0797,-0.0579 0.2151,-0.053 0.0677,0.002 0.12929,0.0173 0.0616,0.0135 0.0978,0.0289 l -0.0425,0.16228 q -0.0362,-0.014 -0.0796,-0.0254 -0.042,-0.0114 -0.0955,-0.0133 -0.0987,-0.004 -0.10068,0.0515 -4.5e-4,0.0127 0.003,0.0227 0.004,0.01 0.0162,0.0204 0.0124,0.009 0.0331,0.021 0.0222,0.0107 0.0556,0.0246 0.0682,0.0279 0.11241,0.0548 0.0443,0.0256 0.0686,0.0561 0.0258,0.0292 0.0344,0.0648 0.01,0.0357 0.008,0.0822 -0.004,0.11 -0.0891,0.16343 -0.0838,0.0535 -0.2347,0.0481 -0.0987,-0.004 -0.16439,-0.0228 -0.0643,-0.0192 -0.0892,-0.0314 l 0.0413,-0.16937 q 0.0528,0.0231 0.10879,0.0378 0.056,0.0133 0.111,0.0153 z"
         id="path3059" /><path
         d="m -178.33033,281.66786 q -0.004,0.0874 -0.0319,0.15971 -0.0283,0.0709 -0.0783,0.12113 -0.05,0.0488 -0.1188,0.0743 -0.0674,0.0255 -0.15059,0.0222 -0.0818,-0.003 -0.14832,-0.0342 -0.0651,-0.0309 -0.11103,-0.0836 -0.0458,-0.0541 -0.0697,-0.12708 -0.0238,-0.0744 -0.0203,-0.16182 0.004,-0.0874 0.0332,-0.15824 0.0311,-0.0708 0.0811,-0.11961 0.0514,-0.0488 0.1188,-0.0743 0.0688,-0.0255 0.14777,-0.0223 0.0804,0.003 0.1455,0.0341 0.0665,0.0309 0.11244,0.0836 0.0459,0.0527 0.0698,0.12568 0.0239,0.073 0.0204,0.1604 z m -0.21432,-0.009 q 0.004,-0.0973 -0.0333,-0.15387 -0.0358,-0.0579 -0.10771,-0.0608 -0.0719,-0.003 -0.11366,0.0519 -0.0417,0.0534 -0.0456,0.15068 -0.004,0.0973 0.0332,0.15669 0.0372,0.058 0.10912,0.0609 0.0719,0.003 0.11225,-0.052 0.0418,-0.0562 0.0457,-0.15351 z"
         id="path3061" /><path
         d="m -177.75271,281.68274 q 0.006,-0.1014 -0.0177,-0.14533 -0.0227,-0.0439 -0.0861,-0.0478 -0.0197,-0.001 -0.041,2.5e-4 -0.0212,8e-5 -0.0411,0.002 l -0.036,0.57178 -0.20984,-0.0132 0.045,-0.71543 q 0.0272,-0.005 0.0629,-0.0102 0.0371,-0.006 0.0769,-0.009 0.0413,-0.004 0.0837,-0.005 0.0425,-0.002 0.0834,10e-4 0.0803,0.005 0.12824,0.0293 0.0495,0.0229 0.0801,0.0531 0.0471,-0.0295 0.10599,-0.0442 0.0603,-0.0146 0.1096,-0.0115 0.0887,0.006 0.14346,0.0345 0.0562,0.0276 0.0872,0.0748 0.031,0.0472 0.0397,0.10995 0.009,0.0628 0.004,0.13882 l -0.0263,0.41827 -0.20985,-0.0132 0.0247,-0.39292 q 0.006,-0.1014 -0.0177,-0.14534 -0.0227,-0.0438 -0.0861,-0.0478 -0.0169,-10e-4 -0.0484,0.005 -0.0301,0.007 -0.0506,0.018 0.008,0.033 0.008,0.0698 6e-4,0.0354 -0.002,0.0762 l -0.0254,0.40419 -0.20984,-0.0132 z"
         id="path3063" /><path
         d="m -176.33778,282.0333 q 0.0309,0.003 0.0592,0.004 0.0282,9.7e-4 0.0454,-4.1e-4 l 0.0134,-0.15889 q -0.0124,-0.004 -0.0375,-0.009 -0.0251,-0.005 -0.0462,-0.007 -0.0295,-0.002 -0.0566,-5.3e-4 -0.0255,6.7e-4 -0.0461,0.009 -0.0205,0.008 -0.0332,0.0241 -0.0127,0.0159 -0.0148,0.0412 -0.004,0.0492 0.0265,0.0716 0.0322,0.0211 0.0898,0.026 z m 0.0349,-0.61448 q 0.0928,0.008 0.15289,0.0342 0.0601,0.0263 0.0933,0.0688 0.0346,0.0426 0.0453,0.10013 0.0107,0.0576 0.005,0.12645 l -0.0368,0.43589 q -0.0458,0.006 -0.12704,0.0119 -0.0813,0.007 -0.19523,-0.002 -0.0717,-0.006 -0.1297,-0.0237 -0.0566,-0.0175 -0.0964,-0.0492 -0.0397,-0.0331 -0.0583,-0.0814 -0.0186,-0.0483 -0.0129,-0.11579 0.005,-0.0647 0.0346,-0.10754 0.0305,-0.0427 0.0764,-0.0658 0.0459,-0.023 0.10305,-0.0295 0.0573,-0.008 0.11777,-0.003 0.0408,0.003 0.0714,0.0103 0.0321,0.006 0.0513,0.0128 l 0.002,-0.0197 q 0.005,-0.0534 -0.0251,-0.0885 -0.0296,-0.0351 -0.10976,-0.0418 -0.0534,-0.005 -0.10617,-4.7e-4 -0.0526,0.003 -0.0918,0.0135 l -0.0125,-0.17099 q 0.0188,-0.004 0.0459,-0.007 0.0287,-0.005 0.0614,-0.006 0.0328,-0.003 0.0682,-0.003 0.0369,-10e-4 0.0735,0.002 z"
         id="path3065" /><path
         d="m -175.56162,282.26525 q -0.0912,-0.0101 -0.14704,-0.0338 -0.0545,-0.0236 -0.0851,-0.0591 -0.0291,-0.0368 -0.0374,-0.0843 -0.007,-0.0488 -10e-4,-0.10783 l 0.0771,-0.81338 0.21251,-0.0139 -0.0763,0.80495 q -0.003,0.0281 -5.8e-4,0.051 0.002,0.0229 0.0118,0.0394 0.0112,0.0166 0.0327,0.0286 0.0215,0.012 0.0592,0.0184 z"
         id="path3067" /><path
         d="m -175.11916,282.31028 q -0.0911,-0.0108 -0.14677,-0.0349 -0.0543,-0.024 -0.0847,-0.0598 -0.0288,-0.037 -0.0367,-0.0846 -0.006,-0.0489 -2.6e-4,-0.10784 l 0.0836,-0.81275 0.21261,-0.0122 -0.0827,0.80432 q -0.003,0.0281 -9.8e-4,0.051 0.002,0.0229 0.0115,0.0395 0.011,0.0167 0.0325,0.0289 0.0214,0.0121 0.0591,0.0188 z"
         id="path3069" /><path
         d="m -174.64952,282.20024 q 0.0308,0.004 0.059,0.005 0.0282,0.002 0.0454,9.2e-4 l 0.0181,-0.15843 q -0.0123,-0.004 -0.0372,-0.01 -0.0249,-0.006 -0.046,-0.008 -0.0294,-0.003 -0.0566,-0.002 -0.0255,-8e-5 -0.0463,0.007 -0.0208,0.008 -0.0339,0.0231 -0.0131,0.0156 -0.016,0.0408 -0.006,0.0491 0.0244,0.0724 0.0316,0.0221 0.0891,0.0286 z m 0.053,-0.61319 q 0.0925,0.0106 0.15182,0.0386 0.0593,0.0281 0.0913,0.0715 0.0334,0.0436 0.0424,0.10142 0.009,0.0578 0.001,0.12654 l -0.0496,0.43462 q -0.046,0.005 -0.12734,0.008 -0.0815,0.005 -0.19508,-0.008 -0.0715,-0.008 -0.12895,-0.0275 -0.056,-0.0192 -0.0949,-0.052 -0.0387,-0.0342 -0.0558,-0.0831 -0.0172,-0.0488 -0.009,-0.11612 0.007,-0.0645 0.0377,-0.10647 0.0318,-0.0418 0.0783,-0.0635 0.0465,-0.0217 0.10387,-0.0265 0.0575,-0.006 0.1178,6.6e-4 0.0407,0.005 0.071,0.0124 0.0319,0.006 0.0509,0.0143 l 0.002,-0.0196 q 0.006,-0.0533 -0.0225,-0.0892 -0.0286,-0.0359 -0.10848,-0.0451 -0.0533,-0.006 -0.10611,-0.004 -0.0527,10e-4 -0.0921,0.0108 l -0.007,-0.17128 q 0.0189,-0.004 0.0461,-0.006 0.0288,-0.004 0.0616,-0.004 0.0329,-0.002 0.0683,-7.3e-4 0.0369,-4e-5 0.0734,0.004 z"
         id="path3071" /><path
         d="m -173.60463,282.32555 q 0.0573,0.008 0.0826,-2.2e-4 0.0253,-0.008 0.0296,-0.0401 0.003,-0.0252 -0.0249,-0.0475 -0.0281,-0.0237 -0.0878,-0.056 -0.0465,-0.0248 -0.0844,-0.0498 -0.0365,-0.0249 -0.0609,-0.0552 -0.0242,-0.0317 -0.0345,-0.0716 -0.0103,-0.0398 -0.003,-0.093 0.014,-0.10348 0.099,-0.15322 0.085,-0.0497 0.21928,-0.0316 0.0671,0.009 0.12695,0.03 0.06,0.0195 0.0945,0.0384 l -0.0583,0.1573 q -0.0346,-0.0175 -0.0767,-0.0331 -0.0406,-0.0155 -0.0938,-0.0226 -0.0979,-0.0132 -0.10526,0.0413 -0.002,0.0126 0.001,0.0229 0.003,0.0104 0.0141,0.0218 0.0114,0.0101 0.0309,0.0241 0.0211,0.0128 0.0529,0.0299 0.0651,0.0344 0.10646,0.0657 0.0415,0.0298 0.0627,0.0626 0.0228,0.0316 0.0279,0.0678 0.006,0.0365 2.3e-4,0.0826 -0.0148,0.10908 -0.10481,0.15386 -0.0887,0.045 -0.2383,0.0247 -0.0979,-0.0132 -0.16134,-0.0389 -0.0621,-0.0255 -0.0857,-0.0401 l 0.0578,-0.16448 q 0.0503,0.0282 0.10454,0.0483 0.0544,0.0187 0.10896,0.0261 z"
         id="path3073" /><path
         d="m -173.13858,282.17246 q 0.0148,-0.0977 0.0551,-0.16576 0.0419,-0.0693 0.0981,-0.11072 0.0562,-0.0414 0.12282,-0.057 0.068,-0.0154 0.13496,-0.005 0.15625,0.0237 0.23234,0.13371 0.0763,0.10862 0.0482,0.29418 -0.003,0.0181 -0.008,0.0403 -0.005,0.0207 -0.008,0.0372 l -0.47157,-0.0715 q -0.003,0.0652 0.0446,0.11094 0.0473,0.0457 0.1366,0.0592 0.0572,0.009 0.11309,0.007 0.0575,-0.003 0.0947,-0.0128 l 0.002,0.17305 q -0.018,0.006 -0.0472,0.01 -0.0292,0.004 -0.0649,0.004 -0.0345,0.002 -0.0742,1.6e-4 -0.0397,-0.002 -0.0788,-0.008 -0.0991,-0.015 -0.16856,-0.0555 -0.0681,-0.0403 -0.10932,-0.0979 -0.0396,-0.0588 -0.0528,-0.13216 -0.0117,-0.0731 5.2e-4,-0.15407 z m 0.50037,-0.005 q 0.003,-0.0267 -0.002,-0.0531 -0.003,-0.0262 -0.017,-0.0482 -0.0124,-0.0218 -0.0356,-0.0382 -0.0218,-0.0161 -0.0581,-0.0216 -0.0349,-0.005 -0.0619,0.003 -0.0268,0.007 -0.0465,0.0243 -0.0197,0.017 -0.0335,0.042 -0.0122,0.0238 -0.0204,0.0497 z"
         id="path3075" /><path
         d="m -171.80981,282.1911 q -0.0267,-0.0116 -0.0631,-0.0249 -0.0362,-0.0146 -0.0793,-0.0219 -0.0195,-0.003 -0.048,-0.004 -0.0269,-0.002 -0.0415,1.9e-4 l -0.0938,0.55946 -0.20736,-0.0348 0.11621,-0.69305 q 0.0589,-0.0102 0.13689,-0.0143 0.0796,-0.005 0.17282,0.0104 0.0167,0.003 0.0399,0.01 0.0234,0.005 0.0464,0.0135 0.0232,0.007 0.0459,0.0163 0.023,0.008 0.0385,0.0179 z"
         id="path3077" /><path
         d="m -171.6184,282.67769 q -0.0112,0.0625 -0.0574,0.0886 -0.0446,0.025 -0.0946,0.016 -0.05,-0.009 -0.0846,-0.0481 -0.0329,-0.0403 -0.0217,-0.10281 0.0112,-0.0625 0.0558,-0.0875 0.0463,-0.0261 0.0963,-0.0172 0.05,0.009 0.0829,0.0493 0.0346,0.0392 0.0234,0.10166 z"
         id="path3079" /><path
         d="m -170.83586,282.95703 q -0.0787,-0.0165 -0.15628,-0.0386 -0.0765,-0.0204 -0.15695,-0.056 l 0.1947,-0.92806 q 0.0689,10e-4 0.14878,0.0125 0.0802,0.01 0.14784,0.0238 0.0911,0.0191 0.16421,0.0489 0.0747,0.0286 0.12331,0.072 0.0486,0.0434 0.0679,0.10221 0.021,0.0578 0.005,0.13372 -0.024,0.11463 -0.14844,0.15774 0.0839,0.0537 0.10459,0.11999 0.0207,0.0663 0.005,0.14091 -0.0316,0.15054 -0.158,0.20332 -0.12503,0.0531 -0.34186,0.008 z m -0.019,-0.4524 -0.0519,0.24721 q 0.0229,0.008 0.0502,0.0149 0.0273,0.007 0.0605,0.0141 0.0967,0.0203 0.16185,0.005 0.0652,-0.0152 0.0808,-0.0897 0.0139,-0.0663 -0.03,-0.10434 -0.0436,-0.0394 -0.13616,-0.0588 z m 0.0345,-0.16434 0.10496,0.022 q 0.0994,0.0209 0.14746,0.005 0.0483,-0.0173 0.0602,-0.0739 0.0122,-0.058 -0.0271,-0.0908 -0.0393,-0.0327 -0.12489,-0.0507 -0.0276,-0.006 -0.0597,-0.0111 -0.0318,-0.007 -0.0572,-0.009 z"
         id="path3081" /><path
         d="m -169.9268,282.99818 q 0.0301,0.007 0.0579,0.0127 0.0277,0.005 0.0449,0.007 l 0.0378,-0.15491 q -0.0117,-0.006 -0.0357,-0.0145 -0.024,-0.009 -0.0446,-0.0138 -0.0288,-0.007 -0.0558,-0.009 -0.0253,-0.003 -0.0469,0.002 -0.0215,0.005 -0.0365,0.0187 -0.015,0.0138 -0.021,0.0385 -0.0117,0.048 0.0151,0.0749 0.0285,0.0259 0.0848,0.0396 z m 0.12952,-0.60169 q 0.0905,0.0221 0.14577,0.0574 0.0553,0.0353 0.0816,0.0824 0.0276,0.0474 0.0293,0.10594 0.002,0.0585 -0.0147,0.12569 l -0.10378,0.42495 q -0.0462,-0.001 -0.12736,-0.008 -0.0815,-0.005 -0.19252,-0.0325 -0.0699,-0.0171 -0.12448,-0.0435 -0.0532,-0.0261 -0.0876,-0.0635 -0.0341,-0.0388 -0.045,-0.0894 -0.0109,-0.0506 0.005,-0.1164 0.0154,-0.063 0.0508,-0.10089 0.0368,-0.0375 0.0856,-0.0532 0.0489,-0.0157 0.10636,-0.0132 0.0579,10e-4 0.1168,0.0154 0.0397,0.01 0.0689,0.0212 0.0309,0.0104 0.0487,0.0206 l 0.005,-0.0192 q 0.0127,-0.0521 -0.0111,-0.0913 -0.0238,-0.0392 -0.10197,-0.0583 -0.0521,-0.0127 -0.10482,-0.0169 -0.0524,-0.006 -0.0928,-8.6e-4 l 0.0141,-0.17086 q 0.0192,-10e-4 0.0465,-2.5e-4 0.0291,-1.6e-4 0.0616,0.003 0.0329,0.002 0.0678,0.008 0.0367,0.005 0.0723,0.0133 z"
         id="path3083" /><path
         d="m -169.29838,282.56688 q 0.0558,1.8e-4 0.14064,0.0118 0.0852,0.0103 0.1746,0.0364 0.0907,0.0266 0.14318,0.0684 0.0542,0.0409 0.0767,0.0945 0.0225,0.0537 0.0199,0.11759 -0.003,0.0639 -0.024,0.13708 l -0.11781,0.4022 -0.20178,-0.0591 0.11068,-0.37782 q 0.0286,-0.0975 0.0147,-0.14567 -0.0138,-0.0482 -0.0843,-0.0688 -0.0217,-0.006 -0.0468,-0.0108 -0.0248,-0.006 -0.0445,-0.009 l -0.16106,0.54981 -0.20177,-0.0591 z"
         id="path3085" /><path
         d="m -168.36995,283.45414 q 0.0293,0.0103 0.0564,0.0183 0.0271,0.008 0.044,0.011 l 0.0528,-0.15045 q -0.0111,-0.007 -0.0341,-0.0179 -0.023,-0.0111 -0.043,-0.0181 -0.028,-0.01 -0.0547,-0.0147 -0.0249,-0.006 -0.0468,-0.003 -0.0219,0.003 -0.0382,0.015 -0.0163,0.0122 -0.0247,0.0362 -0.0164,0.0466 0.008,0.076 0.0259,0.0285 0.0805,0.0477 z m 0.18781,-0.58612 q 0.0879,0.0308 0.13945,0.0714 0.0516,0.0405 0.0731,0.09 0.0229,0.0499 0.0188,0.1083 -0.004,0.0584 -0.0269,0.12364 l -0.1449,0.41275 q -0.0459,-0.006 -0.12598,-0.0203 -0.0806,-0.0133 -0.18841,-0.0512 -0.0679,-0.0238 -0.11962,-0.0555 -0.0504,-0.0311 -0.081,-0.0718 -0.0301,-0.042 -0.036,-0.0934 -0.006,-0.0514 0.0165,-0.11532 0.0215,-0.0613 0.0604,-0.0954 0.0403,-0.0337 0.0904,-0.0445 0.0502,-0.0108 0.10715,-0.003 0.0575,0.007 0.11472,0.0268 0.0386,0.0136 0.0665,0.0278 0.0297,0.0134 0.0465,0.0253 l 0.007,-0.0186 q 0.0178,-0.0506 -0.002,-0.092 -0.0199,-0.0414 -0.0958,-0.068 -0.0506,-0.0178 -0.10267,-0.0271 -0.0516,-0.0106 -0.0922,-0.01 l 0.0308,-0.16865 q 0.0192,7.5e-4 0.0463,0.004 0.029,0.003 0.061,0.009 0.0325,0.005 0.0667,0.0145 0.036,0.008 0.0706,0.0203 z"
         id="path3087" /><path
         d="m -167.71713,283.08649 q 0.0557,0.004 0.13945,0.0218 0.0843,0.0163 0.17156,0.0488 0.0886,0.033 0.13794,0.0784 0.0511,0.0446 0.0698,0.0998 0.0186,0.0551 0.0115,0.11872 -0.007,0.0636 -0.0337,0.13502 l -0.14616,0.39278 -0.19706,-0.0733 0.13731,-0.36899 q 0.0354,-0.0952 0.0251,-0.14424 -0.0104,-0.049 -0.0791,-0.0746 -0.0212,-0.008 -0.046,-0.0141 -0.0243,-0.008 -0.0438,-0.0118 l -0.19981,0.53694 -0.19705,-0.0733 z"
         id="path3089" /><path
         d="m -166.81233,283.6814 q 0.0408,-0.0211 0.0839,-0.0444 0.0444,-0.0228 0.0857,-0.0453 0.0418,-0.0238 0.0781,-0.0451 0.0377,-0.0208 0.0644,-0.0365 l 0.23455,0.0858 q -0.0998,0.0551 -0.19456,0.10459 -0.0929,0.0486 -0.20106,0.0977 0.0267,0.0503 0.0506,0.1162 0.0245,0.0645 0.0448,0.13211 0.0204,0.0676 0.0341,0.13269 0.0137,0.0651 0.0202,0.1171 l -0.2266,-0.0829 q -0.009,-0.0422 -0.0214,-0.0935 -0.011,-0.0521 -0.0264,-0.10434 -0.0149,-0.0536 -0.0353,-0.1046 -0.0191,-0.0505 -0.0425,-0.0892 l -0.11156,0.30478 -0.19744,-0.0723 0.36474,-0.9965 0.20909,0.0405 z"
         id="path3091" /><path
         d="m -165.67382,284.19953 q -0.0294,0.0824 -0.078,0.14297 -0.0481,0.0592 -0.11085,0.0923 -0.0623,0.0317 -0.13554,0.0355 -0.0719,0.004 -0.15036,-0.0237 -0.0771,-0.0275 -0.13139,-0.0769 -0.053,-0.0489 -0.0811,-0.11285 -0.0276,-0.0653 -0.0287,-0.14209 -5.8e-4,-0.0781 0.0288,-0.16052 0.0294,-0.0824 0.0788,-0.14116 0.0508,-0.0583 0.11304,-0.09 0.0636,-0.0312 0.13554,-0.0355 0.0733,-0.004 0.1477,0.0228 0.0757,0.027 0.12873,0.0759 0.0543,0.0493 0.0824,0.11332 0.0281,0.064 0.0292,0.14076 10e-4,0.0768 -0.0284,0.15919 z m -0.20201,-0.0721 q 0.0327,-0.0917 0.014,-0.15681 -0.0169,-0.066 -0.0847,-0.0902 -0.0678,-0.0242 -0.12397,0.0157 -0.0557,0.0386 -0.0884,0.13025 -0.0327,0.0917 -0.015,0.15947 0.0182,0.0664 0.086,0.0906 0.0678,0.0242 0.12263,-0.0162 0.0567,-0.0412 0.0894,-0.13291 z"
         id="path3093" /><path
         d="m -165.41032,283.92712 q 0.0558,0.003 0.13988,0.0188 0.0846,0.0145 0.17257,0.0451 0.0893,0.0311 0.13958,0.0755 0.0521,0.0435 0.0719,0.0982 0.0198,0.0547 0.0141,0.11845 -0.006,0.0637 -0.0308,0.1357 l -0.13774,0.39582 -0.19857,-0.0691 0.12938,-0.37183 q 0.0334,-0.096 0.022,-0.14475 -0.0114,-0.0488 -0.0807,-0.0729 -0.0213,-0.007 -0.0462,-0.0131 -0.0245,-0.007 -0.044,-0.0108 l -0.18829,0.54109 -0.19858,-0.0691 z"
         id="path3095" /><path
         d="m -164.56847,283.99639 0.20995,0.0357 -0.0705,0.20705 0.23911,0.0814 -0.0564,0.16564 -0.23911,-0.0814 -0.0841,0.24712 q -0.0214,0.0628 -0.0127,0.10747 0.01,0.0451 0.0768,0.0679 0.0321,0.0109 0.0673,0.0169 0.037,0.005 0.0687,0.004 l -0.0247,0.1645 q -0.0411,0.002 -0.0888,-0.002 -0.0477,-0.004 -0.11184,-0.0262 -0.0815,-0.0277 -0.12764,-0.0673 -0.0457,-0.0409 -0.0646,-0.0906 -0.0184,-0.051 -0.0127,-0.11164 0.007,-0.0602 0.0303,-0.12832 z"
         id="path3097" /><path
         d="m -163.97864,285.01927 q 0.0295,0.01 0.0567,0.0174 0.0272,0.008 0.0442,0.0103 l 0.0504,-0.15127 q -0.0111,-0.007 -0.0344,-0.0174 -0.0232,-0.0107 -0.0433,-0.0174 -0.0281,-0.009 -0.0549,-0.0138 -0.025,-0.005 -0.0469,-0.002 -0.0219,0.003 -0.0379,0.0156 -0.0161,0.0125 -0.0241,0.0366 -0.0156,0.0469 0.009,0.0759 0.0263,0.0281 0.0812,0.0464 z m 0.17849,-0.58903 q 0.0883,0.0294 0.14056,0.0692 0.0522,0.0397 0.0745,0.0888 0.0237,0.0495 0.0205,0.10799 -0.003,0.0585 -0.025,0.12405 l -0.13832,0.415 q -0.046,-0.005 -0.12629,-0.0183 -0.0808,-0.012 -0.1892,-0.0482 -0.0683,-0.0228 -0.12048,-0.0536 -0.0509,-0.0303 -0.0821,-0.0705 -0.0308,-0.0415 -0.0375,-0.0928 -0.007,-0.0513 0.0147,-0.11557 0.0205,-0.0616 0.0589,-0.0964 0.0397,-0.0344 0.0897,-0.046 0.05,-0.0116 0.1071,-0.004 0.0576,0.006 0.11513,0.025 0.0388,0.0129 0.0669,0.0268 0.0299,0.0129 0.0469,0.0245 l 0.006,-0.0188 q 0.017,-0.0509 -0.004,-0.0919 -0.0205,-0.0411 -0.0968,-0.0665 -0.0509,-0.0169 -0.10308,-0.0254 -0.0518,-0.01 -0.0924,-0.008 l 0.0281,-0.16912 q 0.0192,4.4e-4 0.0464,0.004 0.029,0.002 0.0611,0.008 0.0326,0.005 0.0669,0.0134 0.0361,0.008 0.071,0.0192 z"
         id="path3099" /><path
         d="m -163.20705,284.92903 q 0.04,-0.0226 0.0822,-0.0475 0.0436,-0.0244 0.084,-0.0484 0.0409,-0.0253 0.0764,-0.0479 0.0369,-0.0221 0.0631,-0.0388 l 0.23752,0.0772 q -0.0977,0.0587 -0.19061,0.11162 -0.0911,0.052 -0.19736,0.10499 0.0285,0.0493 0.0548,0.11428 0.0268,0.0636 0.0496,0.13038 0.0228,0.0668 0.0389,0.13136 0.0161,0.0646 0.0245,0.11629 l -0.22948,-0.0746 q -0.0101,-0.0419 -0.0248,-0.0926 -0.0129,-0.0517 -0.0302,-0.1033 -0.0169,-0.053 -0.0391,-0.10324 -0.0209,-0.0498 -0.0457,-0.0876 l -0.10036,0.30865 -0.19995,-0.065 0.32814,-1.00915 0.21042,0.0328 z"
         id="path3101" /><path
         d="m -162.51293,284.67748 0.21064,0.0314 -0.0663,0.20845 0.24072,0.0765 -0.053,0.16676 -0.24072,-0.0765 -0.0791,0.24879 q -0.0201,0.0632 -0.0105,0.1077 0.0109,0.0449 0.0781,0.0663 0.0323,0.0103 0.0676,0.0156 0.0371,0.004 0.0688,0.003 l -0.0213,0.16498 q -0.041,0.003 -0.0888,-10e-5 -0.0478,-0.003 -0.11235,-0.0239 -0.082,-0.0261 -0.12898,-0.0647 -0.0465,-0.04 -0.0664,-0.0892 -0.0194,-0.0506 -0.0149,-0.11136 0.006,-0.0603 0.0276,-0.12892 z"
         id="path3103" /><path
         d="m -161.55227,285.7965 q 0.0297,0.009 0.0571,0.0161 0.0274,0.007 0.0444,0.009 l 0.0469,-0.15241 q -0.0113,-0.006 -0.0348,-0.0166 -0.0234,-0.0102 -0.0437,-0.0164 -0.0283,-0.009 -0.0552,-0.0126 -0.0251,-0.005 -0.0469,-10e-4 -0.0218,0.004 -0.0375,0.0165 -0.0158,0.0129 -0.0232,0.0372 -0.0145,0.0472 0.0107,0.0756 0.027,0.0275 0.0823,0.0445 z m 0.16461,-0.59305 q 0.089,0.0274 0.14215,0.0658 0.0531,0.0385 0.0766,0.087 0.0248,0.049 0.0231,0.10748 -0.002,0.0585 -0.0221,0.1246 l -0.12854,0.41813 q -0.0461,-0.004 -0.12668,-0.0153 -0.081,-0.0102 -0.19029,-0.0437 -0.0688,-0.0212 -0.1217,-0.0507 -0.0516,-0.0291 -0.0837,-0.0685 -0.0318,-0.0408 -0.0396,-0.0919 -0.008,-0.0512 0.012,-0.11589 0.0191,-0.062 0.0566,-0.0977 0.0389,-0.0353 0.0886,-0.0481 0.0497,-0.0128 0.10697,-0.007 0.0577,0.004 0.11568,0.0223 0.0391,0.012 0.0675,0.0252 0.0302,0.0122 0.0474,0.0234 l 0.006,-0.0189 q 0.0158,-0.0512 -0.006,-0.0918 -0.0215,-0.0406 -0.0984,-0.0642 -0.0513,-0.0158 -0.10365,-0.023 -0.052,-0.009 -0.0925,-0.006 l 0.0241,-0.16973 q 0.0192,0 0.0465,0.002 0.0291,0.002 0.0613,0.007 0.0327,0.004 0.0672,0.0118 0.0363,0.007 0.0714,0.0175 z"
         id="path3105" /><path
         d="m -160.94467,286.13465 q -0.0284,-0.15584 -0.0458,-0.35844 -0.016,-0.20219 -0.0155,-0.4348 l 0.21357,0.064 q -0.002,0.0568 -0.003,0.12421 6.9e-4,0.0665 5.7e-4,0.1357 0.002,0.0682 0.003,0.1334 0.002,0.0655 0.007,0.11989 0.0322,-0.0434 0.0703,-0.0968 0.0381,-0.0534 0.0757,-0.10991 0.0393,-0.0575 0.0751,-0.113 0.0376,-0.0565 0.0669,-0.10517 l 0.20816,0.0624 q -0.12755,0.19452 -0.25349,0.35417 -0.12458,0.16005 -0.23404,0.27456 z"
         id="path3107" /><path
         d="m -159.81824,285.50155 0.21138,0.0259 -0.0608,0.2101 0.24263,0.0702 -0.0487,0.16807 -0.24263,-0.0702 -0.0726,0.25076 q -0.0185,0.0637 -0.008,0.10794 0.0121,0.0446 0.0798,0.0642 0.0325,0.009 0.068,0.0138 0.0372,0.003 0.0688,8.2e-4 l -0.017,0.16547 q -0.0409,0.004 -0.0888,0.002 -0.0479,-0.002 -0.11294,-0.0209 -0.0827,-0.0239 -0.13062,-0.0613 -0.0475,-0.0387 -0.0687,-0.0875 -0.0208,-0.0501 -0.0178,-0.11093 0.004,-0.0605 0.0243,-0.12959 z"
         id="path3109" /><path
         d="m -158.88526,286.15486 q -0.0252,-0.0145 -0.06,-0.0317 -0.0343,-0.0185 -0.0764,-0.0305 -0.019,-0.005 -0.0473,-0.009 -0.0266,-0.005 -0.0413,-0.004 l -0.15477,0.54574 -0.20228,-0.0574 0.19174,-0.67607 q 0.0597,-0.004 0.13762,9e-4 0.0797,0.004 0.17063,0.0293 0.0163,0.005 0.0386,0.0139 0.0227,0.008 0.0446,0.0185 0.0223,0.009 0.0438,0.0212 0.0219,0.0106 0.0363,0.022 z"
         id="path3111" /><path
         d="m -158.84443,286.36444 q 0.0263,-0.0952 0.0745,-0.15801 0.0499,-0.0638 0.11065,-0.0982 0.0608,-0.0344 0.12875,-0.042 0.0693,-0.007 0.13461,0.0109 0.15232,0.0422 0.21474,0.16047 0.0628,0.11695 0.0127,0.29783 -0.005,0.0177 -0.0123,0.0391 -0.007,0.02 -0.0129,0.036 l -0.45968,-0.12723 q -0.0105,0.0644 0.031,0.11546 0.0415,0.051 0.12856,0.0751 0.0558,0.0154 0.11143,0.0206 0.0574,0.004 0.0956,-10e-4 l -0.0184,0.17209 q -0.0186,0.004 -0.048,0.004 -0.0294,6.3e-4 -0.065,-0.003 -0.0345,-0.002 -0.0737,-0.009 -0.0392,-0.006 -0.0773,-0.017 -0.0966,-0.0267 -0.16073,-0.0752 -0.0628,-0.0481 -0.0969,-0.11027 -0.0323,-0.0631 -0.0366,-0.13752 -0.003,-0.074 0.0189,-0.1529 z m 0.49745,0.0542 q 0.006,-0.0262 0.004,-0.053 -2e-5,-0.0264 -0.0111,-0.0499 -0.01,-0.0232 -0.0308,-0.0422 -0.0197,-0.0186 -0.0551,-0.0284 -0.034,-0.009 -0.0619,-0.004 -0.0275,0.004 -0.0491,0.0186 -0.0216,0.0145 -0.0383,0.0377 -0.0149,0.0222 -0.0262,0.0469 z"
         id="path3113" /><path
         d="m -157.84264,286.62791 q -0.0253,0.094 0.002,0.16262 0.0269,0.0686 0.10999,0.0909 0.0273,0.007 0.0508,0.0122 0.0239,0.004 0.0396,0.005 l 0.0992,-0.3693 q -0.0158,-0.0174 -0.0449,-0.034 -0.0278,-0.0162 -0.0591,-0.0247 -0.14445,-0.0388 -0.19719,0.15741 z m 0.36768,0.46411 q -0.0294,8.6e-4 -0.0671,-4.9e-4 -0.0373,-0.003 -0.0783,-0.008 -0.0396,-0.005 -0.0812,-0.0131 -0.0406,-0.007 -0.0774,-0.0164 -0.0886,-0.0238 -0.15112,-0.0684 -0.0625,-0.0446 -0.0974,-0.10509 -0.0345,-0.0619 -0.0421,-0.13697 -0.006,-0.0761 0.0172,-0.16195 0.0234,-0.0872 0.0639,-0.15085 0.0408,-0.065 0.0949,-0.10308 0.0541,-0.0381 0.11963,-0.0482 0.0669,-0.01 0.14323,0.0107 0.0422,0.0113 0.0728,0.0283 0.0319,0.0173 0.0619,0.0415 l 0.0872,-0.32434 0.21184,0.0219 z"
         id="path3115" /><path
         d="m -157.42335,287.40024 q -0.0191,-0.005 -0.0549,-0.0188 -0.0371,-0.0141 -0.067,-0.0337 l 0.0707,-0.15797 q 0.0187,0.0122 0.0357,0.0196 0.0157,0.007 0.0416,0.0138 0.0478,0.0126 0.0744,-0.0111 0.0266,-0.0236 0.041,-0.0782 l 0.18038,-0.68648 0.20335,0.0534 -0.18181,0.69194 q -0.0373,0.14194 -0.12483,0.19189 -0.0875,0.0499 -0.21856,0.0155 z m 0.59882,-1.10178 q -0.0147,0.056 -0.0602,0.079 -0.0437,0.0221 -0.0929,0.009 -0.0491,-0.0129 -0.0777,-0.054 -0.0269,-0.0421 -0.0122,-0.098 0.0147,-0.056 0.0584,-0.078 0.0454,-0.0231 0.0946,-0.0102 0.0491,0.0129 0.076,0.055 0.0286,0.0411 0.0139,0.097 z"
         id="path3117" /><path
         d="m -156.83891,286.90624 q 0.0246,-0.0957 0.0716,-0.15937 0.0487,-0.0647 0.1088,-0.10025 0.0601,-0.0355 0.12795,-0.0443 0.0692,-0.008 0.13479,0.008 0.15308,0.0393 0.21768,0.15646 0.065,0.11576 0.0183,0.29753 -0.005,0.0178 -0.0115,0.0393 -0.007,0.0202 -0.0122,0.0362 l -0.46195,-0.1187 q -0.009,0.0646 0.0331,0.11487 0.0425,0.0503 0.12992,0.0727 0.056,0.0144 0.1118,0.0185 0.0575,0.003 0.0955,-0.003 l -0.0152,0.17239 q -0.0185,0.004 -0.0479,0.005 -0.0294,0.001 -0.065,-0.002 -0.0346,-0.002 -0.0739,-0.007 -0.0393,-0.006 -0.0776,-0.0156 -0.097,-0.0249 -0.1621,-0.0722 -0.0637,-0.047 -0.0989,-0.10845 -0.0335,-0.0625 -0.0392,-0.13682 -0.004,-0.074 0.0161,-0.15322 z m 0.49837,0.045 q 0.005,-0.0263 0.003,-0.053 -5.2e-4,-0.0264 -0.012,-0.0497 -0.0101,-0.023 -0.0316,-0.0416 -0.0201,-0.0183 -0.0556,-0.0274 -0.0342,-0.009 -0.0619,-0.003 -0.0274,0.005 -0.0487,0.0195 -0.0213,0.0149 -0.0376,0.0384 -0.0145,0.0225 -0.0253,0.0474 z"
         id="path3119" /><path
         d="m -155.50042,287.21484 q -0.0421,0.17129 0.0963,0.20533 0.0315,0.008 0.0609,0.006 0.0294,-0.001 0.0513,-0.008 l 0.0802,-0.32612 q -0.0144,-0.006 -0.0346,-0.0129 -0.0199,-0.008 -0.0473,-0.0145 -0.0808,-0.0199 -0.13372,0.0238 -0.0529,0.0437 -0.0731,0.12587 z m 0.37593,0.40347 q -0.0435,0.17677 -0.15482,0.23947 -0.1103,0.0644 -0.29803,0.0182 -0.0658,-0.0162 -0.12851,-0.0447 -0.0631,-0.0272 -0.11453,-0.0602 l 0.0778,-0.16252 q 0.0432,0.031 0.0926,0.0548 0.0508,0.0241 0.11789,0.0406 0.0877,0.0216 0.13276,-0.008 0.0464,-0.0293 0.0613,-0.0896 l 0.006,-0.026 q -0.0366,0.007 -0.0742,0.006 -0.0359,-0.002 -0.077,-0.0117 -0.14936,-0.0368 -0.20726,-0.144 -0.0576,-0.10862 -0.0185,-0.26757 0.0195,-0.0795 0.0601,-0.1378 0.0408,-0.0597 0.0989,-0.0948 0.0594,-0.0348 0.134,-0.0426 0.0749,-0.009 0.16125,0.012 0.037,0.009 0.0744,0.0227 0.0391,0.0125 0.0761,0.0274 0.037,0.0149 0.0693,0.0316 0.0339,0.0156 0.0593,0.0306 z"
         id="path3121" /><path
         d="m -154.39016,287.31845 q -0.0258,-0.0134 -0.0612,-0.0292 -0.0351,-0.0171 -0.0776,-0.0273 -0.0192,-0.005 -0.0477,-0.007 -0.0267,-0.003 -0.0414,-0.003 l -0.1321,0.55167 -0.20448,-0.049 0.16365,-0.68341 q 0.0595,-0.006 0.13755,-0.005 0.0797,2.3e-4 0.17169,0.0222 0.0165,0.004 0.0391,0.0123 0.023,0.007 0.0453,0.0167 0.0227,0.008 0.0447,0.0194 0.0223,0.01 0.0372,0.0205 z"
         id="path3123" /><path
         d="m -154.07966,287.81158 q 0.0302,0.007 0.058,0.0121 0.0278,0.005 0.0449,0.006 l 0.0362,-0.15529 q -0.0117,-0.006 -0.0358,-0.0141 -0.0241,-0.009 -0.0447,-0.0133 -0.0289,-0.007 -0.0559,-0.009 -0.0254,-0.003 -0.0469,0.002 -0.0215,0.005 -0.0363,0.019 -0.0148,0.0139 -0.0206,0.0387 -0.0112,0.0481 0.0159,0.0747 0.0288,0.0256 0.0852,0.0387 z m 0.12325,-0.60301 q 0.0907,0.0212 0.14636,0.0559 0.0556,0.0347 0.0824,0.0815 0.0281,0.0471 0.0304,0.10563 0.002,0.0585 -0.0134,0.12583 l -0.0994,0.42601 q -0.0462,-6.4e-4 -0.12744,-0.007 -0.0815,-0.005 -0.19284,-0.0305 -0.0701,-0.0164 -0.12492,-0.0422 -0.0535,-0.0255 -0.0883,-0.0626 -0.0345,-0.0385 -0.0459,-0.089 -0.0114,-0.0505 0.004,-0.11644 0.0147,-0.0632 0.0497,-0.10142 0.0364,-0.0379 0.0851,-0.0541 0.0487,-0.0162 0.10623,-0.0144 0.0579,4.5e-4 0.11694,0.0142 0.0399,0.009 0.0691,0.0205 0.031,0.0101 0.0489,0.0201 l 0.004,-0.0192 q 0.0122,-0.0522 -0.0121,-0.0912 -0.0242,-0.039 -0.10257,-0.0573 -0.0522,-0.0122 -0.10499,-0.0158 -0.0525,-0.005 -0.0928,1e-4 l 0.0124,-0.171 q 0.0191,-10e-4 0.0465,-7.4e-4 0.0291,-4.6e-4 0.0616,0.003 0.0329,0.002 0.0679,0.007 0.0367,0.004 0.0724,0.0125 z"
         id="path3125" /><path
         d="m -153.37133,287.73874 q -0.0214,0.095 0.008,0.16242 0.0296,0.0674 0.11358,0.0864 0.0275,0.006 0.0512,0.0101 0.024,0.003 0.0398,0.003 l 0.0842,-0.37302 q -0.0165,-0.0167 -0.0463,-0.0322 -0.0284,-0.0151 -0.0601,-0.0222 -0.14591,-0.0329 -0.19067,0.16527 z m 0.38616,0.44886 q -0.0294,0.002 -0.067,0.002 -0.0373,-10e-4 -0.0785,-0.005 -0.0398,-0.003 -0.0817,-0.01 -0.0408,-0.005 -0.078,-0.0133 -0.0895,-0.0202 -0.15376,-0.0622 -0.0643,-0.042 -0.10159,-0.10106 -0.037,-0.0604 -0.0476,-0.13516 -0.009,-0.0758 0.0107,-0.16251 0.0199,-0.0881 0.0578,-0.15331 0.0382,-0.0666 0.0907,-0.10683 0.0525,-0.0402 0.11757,-0.053 0.0665,-0.0125 0.14355,0.005 0.0427,0.01 0.0738,0.0254 0.0326,0.016 0.0635,0.0389 l 0.074,-0.3276 0.21255,0.0133 z"
         id="path3127" /><path
         d="m -152.75409,287.88917 q 0.0211,-0.0965 0.0657,-0.16188 0.0463,-0.0664 0.10506,-0.10416 0.0588,-0.0377 0.12624,-0.049 0.0688,-0.011 0.13501,0.003 0.15441,0.0337 0.22326,0.14839 0.0692,0.11331 0.0291,0.29667 -0.004,0.0179 -0.0101,0.0397 -0.006,0.0204 -0.0109,0.0366 l -0.46598,-0.10172 q -0.007,0.0649 0.0373,0.11358 0.0443,0.0487 0.1325,0.0679 0.0565,0.0123 0.1124,0.0144 0.0575,10e-4 0.0953,-0.007 l -0.009,0.17283 q -0.0183,0.005 -0.0477,0.007 -0.0294,0.002 -0.0651,2.4e-4 -0.0346,-3.3e-4 -0.0741,-0.005 -0.0395,-0.004 -0.0781,-0.0127 -0.0979,-0.0214 -0.16464,-0.0663 -0.0654,-0.0446 -0.10278,-0.10476 -0.0357,-0.0612 -0.0441,-0.13529 -0.007,-0.0738 0.0104,-0.15371 z m 0.49968,0.0268 q 0.004,-0.0265 0.001,-0.0531 -0.001,-0.0263 -0.0138,-0.0492 -0.011,-0.0226 -0.0331,-0.0404 -0.0207,-0.0175 -0.0566,-0.0254 -0.0345,-0.008 -0.062,-5.3e-4 -0.0272,0.006 -0.048,0.0213 -0.0207,0.0157 -0.0361,0.0398 -0.0137,0.023 -0.0235,0.0483 z"
         id="path3129" /><path
         d="m -151.84435,287.72742 q 0.0557,-0.004 0.14114,9.3e-4 0.0858,0.004 0.17688,0.0229 0.0925,0.0195 0.14802,0.0572 0.0572,0.0366 0.0838,0.0883 0.0266,0.0518 0.029,0.11571 0.002,0.064 -0.0134,0.13852 l -0.0865,0.41007 -0.20573,-0.0434 0.0812,-0.38522 q 0.021,-0.0994 0.003,-0.14637 -0.0175,-0.047 -0.0893,-0.0621 -0.0221,-0.005 -0.0475,-0.007 -0.0251,-0.004 -0.0451,-0.005 l -0.11824,0.56058 -0.20573,-0.0434 z"
         id="path3131" /><path
         d="m -150.94073,288.42931 q -0.004,0.0337 -0.007,0.0476 -0.001,0.0141 -0.003,0.0238 -0.009,0.0415 -0.0265,0.0867 -0.0163,0.0442 -0.0398,0.0883 -0.0235,0.0442 -0.0539,0.0869 -0.0304,0.0427 -0.0655,0.0802 l -0.15346,-0.0734 q 0.0505,-0.0847 0.0795,-0.16229 0.0289,-0.0776 0.0397,-0.13013 0.002,-0.008 0.003,-0.021 0.003,-0.0138 0.004,-0.0279 0.003,-0.0138 0.004,-0.0265 0.003,-0.0124 0.003,-0.0166 z"
         id="path3133" /><path
         d="m -150.4706,288.37096 q 0.0191,-0.0969 0.0624,-0.16314 0.045,-0.0674 0.10298,-0.10622 0.058,-0.0389 0.12525,-0.0515 0.0686,-0.0123 0.13505,8.1e-4 0.15505,0.0306 0.22615,0.14394 0.0714,0.11192 0.035,0.29604 -0.004,0.018 -0.009,0.0399 -0.005,0.0205 -0.0102,0.0368 l -0.4679,-0.0925 q -0.006,0.065 0.0395,0.11282 0.0452,0.0478 0.13382,0.0653 0.0567,0.0112 0.11266,0.0122 0.0576,-1.3e-4 0.0952,-0.009 l -0.005,0.17297 q -0.0182,0.005 -0.0476,0.008 -0.0293,0.003 -0.065,0.002 -0.0346,3.6e-4 -0.0742,-0.003 -0.0396,-0.004 -0.0783,-0.0112 -0.0983,-0.0194 -0.16591,-0.063 -0.0662,-0.0433 -0.10484,-0.10271 -0.037,-0.0605 -0.0468,-0.13439 -0.008,-0.0736 0.007,-0.15389 z m 0.50011,0.0169 q 0.004,-0.0266 4.3e-4,-0.0531 -0.002,-0.0263 -0.0148,-0.0489 -0.0114,-0.0224 -0.0339,-0.0398 -0.0211,-0.0171 -0.0571,-0.0242 -0.0346,-0.007 -0.062,6.9e-4 -0.0271,0.006 -0.0476,0.0223 -0.0204,0.0161 -0.0353,0.0405 -0.0132,0.0233 -0.0226,0.0488 z"
         id="path3135" /><path
         d="m -149.56414,288.19131 q 0.0556,-0.005 0.14113,-0.002 0.0858,0.002 0.1773,0.0194 0.0929,0.0177 0.14911,0.0543 0.0579,0.0355 0.0855,0.0867 0.0276,0.0512 0.0312,0.11512 0.004,0.0639 -0.0106,0.13875 l -0.0784,0.4117 -0.20654,-0.0393 0.0737,-0.38675 q 0.019,-0.0998 6e-4,-0.1464 -0.0184,-0.0466 -0.0905,-0.0603 -0.0222,-0.004 -0.0477,-0.006 -0.0252,-0.003 -0.0452,-0.004 l -0.1072,0.56279 -0.20654,-0.0393 z"
         id="path3137" /><path
         d="m -148.0364,288.09162 q 0.0583,0.0106 0.10464,0.0319 0.0466,0.0199 0.071,0.0358 l -0.0703,0.15792 q -0.0255,-0.0175 -0.0578,-0.0291 -0.0307,-0.0127 -0.0584,-0.0178 -0.0375,-0.007 -0.0659,-4.9e-4 -0.0268,0.005 -0.0453,0.0205 -0.0172,0.0155 -0.0286,0.0393 -0.0101,0.024 -0.0154,0.0531 l -0.007,0.0361 0.25548,0.0464 -0.0312,0.17216 -0.25547,-0.0464 -0.10129,0.55815 -0.20688,-0.0375 0.13959,-0.76919 q 0.0257,-0.14162 0.11996,-0.21057 0.0957,-0.0687 0.25254,-0.0402 z"
         id="path3139" /><path
         d="m -147.42536,288.74764 q -0.0266,-0.0118 -0.0629,-0.0254 -0.036,-0.015 -0.0791,-0.0226 -0.0195,-0.003 -0.048,-0.004 -0.0269,-0.002 -0.0415,-1.6e-4 l -0.0986,0.55864 -0.20706,-0.0365 0.1221,-0.69205 q 0.059,-0.01 0.137,-0.0131 0.0796,-0.005 0.17272,0.0118 0.0167,0.003 0.0398,0.01 0.0234,0.006 0.0463,0.0139 0.0231,0.007 0.0458,0.0167 0.0229,0.008 0.0383,0.0182 z"
         id="path3141" /><path
         d="m -146.7472,289.40208 q -0.0555,0.006 -0.14106,0.005 -0.0858,-3.1e-4 -0.17764,-0.016 -0.0932,-0.0159 -0.15153,-0.0516 -0.0569,-0.0355 -0.0855,-0.0861 -0.0283,-0.0521 -0.033,-0.11728 -0.005,-0.0652 0.008,-0.14032 l 0.0695,-0.40758 0.20726,0.0353 -0.0652,0.38253 q -0.0171,0.10016 0.002,0.14918 0.0188,0.049 0.0912,0.0613 0.0223,0.004 0.0475,0.007 0.0255,0.001 0.0455,0.002 l 0.0962,-0.56477 0.20726,0.0353 z"
         id="path3143" /><path
         d="m -146.27251,289.02565 q 0.0361,-0.0284 0.0741,-0.0594 0.0393,-0.0307 0.0757,-0.0606 0.0366,-0.0312 0.0683,-0.0589 0.0331,-0.0275 0.0565,-0.048 l 0.24649,0.0403 q -0.0877,0.0729 -0.17149,0.13925 -0.0822,0.0652 -0.17916,0.13369 0.0356,0.0444 0.0715,0.10464 0.0361,0.0588 0.0688,0.12136 0.0327,0.0625 0.0584,0.12394 0.0257,0.0614 0.0419,0.11123 l -0.23813,-0.039 q -0.0164,-0.0399 -0.0385,-0.0878 -0.0206,-0.0491 -0.0455,-0.0975 -0.0247,-0.0498 -0.0543,-0.0961 -0.0282,-0.0461 -0.0585,-0.0796 l -0.0524,0.3203 -0.2075,-0.034 0.17133,-1.04723 0.21296,5.2e-4 z"
         id="path3145" /><path
         d="m -145.62386,288.67199 0.21297,-7.1e-4 -0.0341,0.21605 0.24951,0.0393 -0.0273,0.17285 -0.2495,-0.0393 -0.0407,0.25787 q -0.0103,0.0655 0.006,0.10805 0.0175,0.0428 0.0872,0.0538 0.0335,0.005 0.0692,0.005 0.0373,-10e-4 0.0684,-0.008 l 0.004,0.16631 q -0.0401,0.009 -0.0878,0.0133 -0.0478,0.004 -0.11466,-0.007 -0.085,-0.0134 -0.13727,-0.0445 -0.052,-0.0325 -0.0791,-0.0782 -0.0269,-0.0471 -0.0316,-0.10783 -0.003,-0.0605 0.008,-0.13161 z"
         id="path3147" /><path
         d="m -144.61612,289.20386 q -0.0268,-0.0112 -0.0634,-0.024 -0.0364,-0.0141 -0.0796,-0.0207 -0.0195,-0.003 -0.0481,-0.003 -0.0269,-10e-4 -0.0415,8e-4 l -0.0856,0.56076 -0.20784,-0.0317 0.10609,-0.69468 q 0.0588,-0.011 0.13666,-0.0162 0.0795,-0.006 0.17295,0.008 0.0167,0.003 0.04,0.009 0.0235,0.005 0.0466,0.0128 0.0233,0.006 0.0462,0.0156 0.0231,0.008 0.0387,0.0173 z"
         id="path3149" /><path
         d="m -144.26564,289.66952 q 0.0307,0.005 0.0588,0.007 0.0281,0.003 0.0453,0.002 l 0.0232,-0.15775 q -0.0122,-0.005 -0.0369,-0.0111 -0.0247,-0.007 -0.0457,-0.01 -0.0293,-0.004 -0.0565,-0.004 -0.0255,-9e-4 -0.0465,0.006 -0.021,0.007 -0.0346,0.022 -0.0136,0.0151 -0.0173,0.0402 -0.007,0.0489 0.0221,0.0731 0.0308,0.0231 0.0881,0.0315 z m 0.0728,-0.61115 q 0.0921,0.0136 0.15049,0.0435 0.0583,0.03 0.0889,0.0744 0.0319,0.0446 0.0391,0.10274 0.007,0.0581 -0.003,0.12651 l -0.0637,0.43278 q -0.0461,0.003 -0.12754,0.004 -0.0816,0.002 -0.19471,-0.0144 -0.0712,-0.0105 -0.12799,-0.0317 -0.0554,-0.021 -0.0932,-0.0551 -0.0376,-0.0355 -0.0531,-0.0848 -0.0156,-0.0494 -0.006,-0.11637 0.009,-0.0642 0.0412,-0.10519 0.0331,-0.0408 0.0803,-0.0609 0.0472,-0.0202 0.10467,-0.0231 0.0577,-0.004 0.11772,0.004 0.0405,0.006 0.0706,0.0147 0.0317,0.008 0.0504,0.016 l 0.003,-0.0195 q 0.008,-0.053 -0.0196,-0.0899 -0.0274,-0.0368 -0.10696,-0.0486 -0.0531,-0.008 -0.10594,-0.007 -0.0527,-6.3e-4 -0.0924,0.008 l -0.002,-0.17143 q 0.019,-0.003 0.0463,-0.005 0.029,-0.003 0.0617,-0.002 0.0329,-8.6e-4 0.0683,0.001 0.0369,10e-4 0.0732,0.007 z"
         id="path3151" /><path
         d="m -143.521,289.44628 q 0.0355,-0.0292 0.0727,-0.061 0.0387,-0.0316 0.0743,-0.0622 0.0359,-0.032 0.0669,-0.0604 0.0325,-0.0282 0.0554,-0.0492 l 0.24732,0.0349 q -0.0861,0.0748 -0.16836,0.143 -0.0807,0.067 -0.17615,0.13763 0.0366,0.0436 0.0738,0.10304 0.0374,0.058 0.0715,0.1198 0.034,0.0618 0.0611,0.12261 0.0271,0.0608 0.0443,0.11028 l -0.23894,-0.0337 q -0.0172,-0.0395 -0.0405,-0.0869 -0.0216,-0.0486 -0.0477,-0.0965 -0.0258,-0.0492 -0.0565,-0.0949 -0.0292,-0.0455 -0.0602,-0.0783 l -0.0453,0.32138 -0.2082,-0.0293 0.14808,-1.05077 0.21292,-0.004 z"
         id="path3153" /><path
         d="m -143.02291,289.6259 q 0.0132,-0.0979 0.0523,-0.16667 0.0407,-0.07 0.0963,-0.11234 0.0555,-0.0424 0.12186,-0.0591 0.0677,-0.0165 0.13484,-0.007 0.15664,0.0211 0.23455,0.12981 0.0781,0.10733 0.0531,0.29333 -0.002,0.0182 -0.007,0.0404 -0.004,0.0208 -0.008,0.0374 l -0.4727,-0.0636 q -0.002,0.0653 0.0464,0.11018 0.0481,0.0449 0.13757,0.057 0.0573,0.008 0.1132,0.005 0.0574,-0.004 0.0945,-0.0143 l 0.005,0.17298 q -0.0179,0.006 -0.047,0.0108 -0.0291,0.005 -0.0648,0.006 -0.0345,0.002 -0.0742,0.001 -0.0397,-0.001 -0.0789,-0.006 -0.0993,-0.0134 -0.16946,-0.0527 -0.0688,-0.0392 -0.11095,-0.0961 -0.0406,-0.0582 -0.0549,-0.13127 -0.013,-0.0729 -0.002,-0.15405 z m 0.5002,-0.0138 q 0.002,-0.0268 -0.003,-0.0531 -0.004,-0.0261 -0.0178,-0.048 -0.0127,-0.0216 -0.0362,-0.0376 -0.0221,-0.0158 -0.0584,-0.0207 -0.035,-0.005 -0.0618,0.004 -0.0267,0.008 -0.0461,0.0251 -0.0194,0.0173 -0.0328,0.0426 -0.0118,0.024 -0.0196,0.05 z"
         id="path3155" /><path
         d="m -142.10827,289.18151 0.21286,-0.007 -0.0279,0.21693 0.25052,0.0323 -0.0223,0.17354 -0.25052,-0.0323 -0.0334,0.25892 q -0.008,0.0658 0.009,0.10785 0.0188,0.0422 0.0887,0.0513 0.0336,0.004 0.0693,0.003 0.0373,-0.002 0.0681,-0.01 l 0.008,0.16613 q -0.0398,0.0105 -0.0874,0.0158 -0.0476,0.005 -0.11481,-0.003 -0.0854,-0.011 -0.13847,-0.0406 -0.0529,-0.031 -0.0813,-0.0759 -0.0282,-0.0463 -0.0346,-0.1069 -0.005,-0.0604 0.004,-0.13178 z"
         id="path3157" /><path
         d="m -141.03257,290.09896 q 0.0574,0.007 0.0826,-10e-4 0.0252,-0.008 0.0291,-0.0405 0.003,-0.0252 -0.0256,-0.0471 -0.0284,-0.0233 -0.0886,-0.0548 -0.0468,-0.0241 -0.0851,-0.0487 -0.0369,-0.0244 -0.0617,-0.0544 -0.0246,-0.0314 -0.0355,-0.0711 -0.0108,-0.0397 -0.004,-0.0929 0.0125,-0.10367 0.0969,-0.15458 0.0843,-0.0509 0.21882,-0.0346 0.0672,0.008 0.12736,0.0282 0.0603,0.0187 0.095,0.0371 l -0.0561,0.1581 q -0.0349,-0.017 -0.0771,-0.0321 -0.0408,-0.0149 -0.0941,-0.0213 -0.0981,-0.0119 -0.10467,0.0428 -0.002,0.0126 0.001,0.0229 0.003,0.0103 0.0144,0.0216 0.0116,0.01 0.0312,0.0237 0.0212,0.0125 0.0533,0.0292 0.0656,0.0335 0.10737,0.0642 0.042,0.0292 0.0636,0.0617 0.0232,0.0312 0.0288,0.0674 0.007,0.0364 0.001,0.0826 -0.0132,0.10927 -0.10265,0.15531 -0.088,0.0462 -0.23793,0.0281 -0.0981,-0.0119 -0.16187,-0.0367 -0.0624,-0.0246 -0.0863,-0.0389 l 0.0555,-0.16527 q 0.0507,0.0275 0.1052,0.0468 0.0547,0.018 0.10932,0.0246 z"
         id="path3159" /><path
         d="m -139.85042,290.01435 q -0.01,0.0869 -0.0436,0.15692 -0.0335,0.0686 -0.0871,0.11498 -0.0535,0.045 -0.12398,0.0653 -0.0691,0.0205 -0.15182,0.011 -0.0813,-0.009 -0.14537,-0.0451 -0.0627,-0.0356 -0.10453,-0.0916 -0.0417,-0.0573 -0.0601,-0.13191 -0.0183,-0.076 -0.008,-0.16288 0.01,-0.0869 0.0448,-0.15535 0.0363,-0.0683 0.0897,-0.11325 0.0549,-0.0448 0.12398,-0.0653 0.0705,-0.0203 0.14902,-0.0113 0.0799,0.009 0.14257,0.0448 0.0641,0.0358 0.10592,0.0917 0.0419,0.0559 0.0603,0.13051 0.0184,0.0746 0.008,0.16147 z m -0.21309,-0.0245 q 0.0111,-0.0967 -0.0218,-0.15591 -0.0314,-0.0604 -0.1029,-0.0686 -0.0715,-0.008 -0.11719,0.0433 -0.0455,0.0502 -0.0567,0.14689 -0.0111,0.0967 0.0215,0.15872 0.0328,0.0606 0.1043,0.0688 0.0715,0.008 0.1158,-0.0435 0.0459,-0.053 0.057,-0.14969 z"
         id="path3161" /><path
         d="m -139.28437,290.05483 q 0.0108,-0.10102 -0.0113,-0.14597 -0.0208,-0.0448 -0.0839,-0.0516 -0.0196,-0.002 -0.041,-0.002 -0.0212,-8.5e-4 -0.0411,-1.4e-4 l -0.061,0.56965 -0.20906,-0.0224 0.0763,-0.71277 q 0.0274,-0.004 0.0632,-0.007 0.0374,-0.005 0.0773,-0.006 0.0414,-0.003 0.0838,-9.6e-4 0.0425,2.9e-4 0.0832,0.005 0.08,0.009 0.12683,0.0349 0.0484,0.025 0.0777,0.0566 0.0484,-0.0275 0.10783,-0.0395 0.0609,-0.0119 0.10999,-0.007 0.0884,0.009 0.14182,0.0407 0.055,0.03 0.0838,0.0785 0.0289,0.0485 0.0349,0.11159 0.006,0.0631 -0.002,0.13885 l -0.0446,0.41672 -0.20906,-0.0224 0.0419,-0.39146 q 0.0108,-0.10102 -0.0113,-0.14597 -0.0207,-0.0448 -0.0839,-0.0516 -0.0168,-0.002 -0.0486,0.003 -0.0304,0.005 -0.0514,0.0158 0.006,0.0333 0.005,0.0701 -9.4e-4,0.0354 -0.005,0.0761 l -0.0431,0.40269 -0.20906,-0.0224 z"
         id="path3163" /><path
         d="m -137.93018,290.1129 q 0.0342,-0.0307 0.07,-0.0641 0.0373,-0.0333 0.0716,-0.0654 0.0344,-0.0335 0.0643,-0.0632 0.0312,-0.0296 0.0532,-0.0516 l 0.2486,0.0241 q -0.0827,0.0785 -0.16199,0.15018 -0.0777,0.0704 -0.17001,0.14515 0.0385,0.042 0.0782,0.0997 0.0399,0.0563 0.0766,0.11659 0.0367,0.0603 0.0664,0.11984 0.0297,0.0596 0.0491,0.10825 l -0.24018,-0.0233 q -0.0189,-0.0387 -0.0442,-0.0851 -0.0237,-0.0477 -0.0518,-0.0943 -0.028,-0.0481 -0.0605,-0.0923 -0.0312,-0.0441 -0.0636,-0.0756 l -0.0313,0.32304 -0.20928,-0.0203 0.10233,-1.05621 0.21254,-0.0134 z"
         id="path3165" /><path
         d="m -136.69731,290.32972 q -0.008,0.0871 -0.0398,0.15791 -0.0318,0.0694 -0.0843,0.11704 -0.0524,0.0462 -0.12238,0.0682 -0.0686,0.0221 -0.15152,0.0146 -0.0815,-0.007 -0.14641,-0.0416 -0.0635,-0.0341 -0.10669,-0.089 -0.0431,-0.0563 -0.0632,-0.13043 -0.0201,-0.0755 -0.0122,-0.16263 0.008,-0.0871 0.0411,-0.15638 0.0346,-0.0691 0.087,-0.11537 0.0538,-0.0461 0.12238,-0.0682 0.07,-0.022 0.14871,-0.0148 0.0801,0.007 0.1436,0.0414 0.0649,0.0342 0.1081,0.0892 0.0432,0.0549 0.0634,0.12902 0.0202,0.0741 0.0123,0.16123 z m -0.21361,-0.0194 q 0.009,-0.097 -0.0256,-0.15535 -0.0328,-0.0597 -0.10451,-0.0662 -0.0717,-0.007 -0.11612,0.0461 -0.0443,0.0512 -0.0531,0.1482 -0.009,0.097 0.0253,0.15816 0.0343,0.0598 0.10592,0.0663 0.0717,0.007 0.11472,-0.0463 0.0446,-0.054 0.0534,-0.15101 z"
         id="path3167" /><path
         d="m -136.13034,290.35674 q 0.008,-0.10125 -0.0148,-0.14566 -0.0218,-0.0443 -0.0851,-0.0495 -0.0197,-0.002 -0.041,-5.8e-4 -0.0212,-3.4e-4 -0.0411,8.3e-4 l -0.0474,0.57095 -0.20954,-0.0174 0.0593,-0.71438 q 0.0273,-0.005 0.063,-0.009 0.0373,-0.005 0.0771,-0.008 0.0414,-0.004 0.0838,-0.003 0.0425,-7.2e-4 0.0833,0.003 0.0802,0.007 0.12763,0.0318 0.049,0.0239 0.079,0.0547 0.0477,-0.0286 0.10686,-0.0421 0.0606,-0.0134 0.1098,-0.009 0.0886,0.007 0.14274,0.0374 0.0557,0.0287 0.0857,0.0765 0.03,0.0478 0.0375,0.11073 0.008,0.0629 0.001,0.13887 l -0.0347,0.41766 -0.20953,-0.0174 0.0326,-0.39235 q 0.008,-0.10125 -0.0148,-0.14566 -0.0218,-0.0443 -0.0851,-0.0495 -0.0169,-10e-4 -0.0485,0.004 -0.0302,0.006 -0.051,0.017 0.007,0.0332 0.007,0.07 -1.1e-4,0.0354 -0.004,0.0762 l -0.0335,0.4036 -0.20954,-0.0174 z"
         id="path3169" /><path
         d="m -134.92132,290.45266 q 0.008,-0.10133 -0.0161,-0.14553 -0.0222,-0.0441 -0.0855,-0.0488 -0.0197,-10e-4 -0.041,-2.2e-4 -0.0212,-1.5e-4 -0.0411,0.001 l -0.0423,0.57134 -0.20968,-0.0155 0.053,-0.71488 q 0.0273,-0.005 0.063,-0.009 0.0372,-0.006 0.077,-0.008 0.0413,-0.004 0.0838,-0.004 0.0425,-10e-4 0.0833,0.002 0.0802,0.006 0.12791,0.0307 0.0492,0.0235 0.0795,0.054 0.0474,-0.029 0.10648,-0.043 0.0605,-0.0139 0.10972,-0.0103 0.0887,0.007 0.14307,0.0361 0.0559,0.0282 0.0864,0.0757 0.0304,0.0475 0.0385,0.11039 0.008,0.0629 0.002,0.13885 l -0.031,0.41796 -0.20968,-0.0155 0.0291,-0.39262 q 0.008,-0.10132 -0.0161,-0.14552 -0.0222,-0.0441 -0.0855,-0.0488 -0.0169,-0.001 -0.0485,0.005 -0.0302,0.006 -0.0508,0.0175 0.007,0.0331 0.008,0.0699 2.1e-4,0.0354 -0.003,0.0762 l -0.0299,0.40388 -0.20968,-0.0155 z"
         id="path3171" /><path
         d="m -134.15481,290.53656 q 0.007,-0.0986 0.041,-0.1698 0.0359,-0.0726 0.0885,-0.11855 0.0526,-0.046 0.11761,-0.0671 0.0665,-0.021 0.13405,-0.0165 0.15769,0.0105 0.24273,0.11377 0.0851,0.10185 0.0726,0.28911 -0.001,0.0183 -0.004,0.0407 -0.003,0.021 -0.005,0.0378 l -0.47589,-0.0318 q 0.003,0.0652 0.0537,0.10682 0.051,0.0416 0.14108,0.0476 0.0577,0.004 0.1133,-0.002 0.0571,-0.008 0.0933,-0.0206 l 0.0168,0.17224 q -0.0175,0.007 -0.0462,0.0139 -0.0287,0.007 -0.0643,0.01 -0.0343,0.005 -0.074,0.006 -0.0397,0.002 -0.0791,-10e-4 -0.1,-0.007 -0.17262,-0.0412 -0.0712,-0.0344 -0.11714,-0.0884 -0.0444,-0.0553 -0.0636,-0.12728 -0.0178,-0.0719 -0.0124,-0.15357 z m 0.49815,-0.0474 q 3.8e-4,-0.0268 -0.006,-0.0528 -0.005,-0.0258 -0.0209,-0.0466 -0.0142,-0.0207 -0.0387,-0.0351 -0.0231,-0.0143 -0.0597,-0.0167 -0.0352,-0.002 -0.0614,0.009 -0.0261,0.01 -0.0443,0.0282 -0.0182,0.0186 -0.0299,0.0447 -0.0101,0.0248 -0.0161,0.0513 z"
         id="path3173" /><path
         d="m -132.84095,290.43022 q -0.0277,-0.009 -0.0653,-0.0182 -0.0375,-0.0108 -0.0812,-0.0135 -0.0197,-0.001 -0.0481,10e-4 -0.0269,10e-4 -0.0413,0.005 l -0.0349,0.5662 -0.20986,-0.0129 0.0432,-0.7014 q 0.0575,-0.0163 0.13465,-0.0285 0.0786,-0.0135 0.17295,-0.008 0.0169,10e-4 0.0407,0.005 0.0238,0.003 0.0475,0.009 0.0238,0.004 0.0474,0.0114 0.0237,0.006 0.0401,0.0138 z"
         id="path3175" /><path
         d="m -132.35046,290.29772 q 0.0544,-0.0126 0.13961,-0.0207 0.0853,-0.01 0.17831,-0.004 0.0944,0.005 0.15503,0.0338 0.0621,0.0274 0.0963,0.0745 0.0342,0.0471 0.0463,0.1099 0.0121,0.0628 0.008,0.13893 l -0.0226,0.41849 -0.20994,-0.0114 0.0213,-0.39312 q 0.005,-0.10146 -0.019,-0.14518 -0.0245,-0.0437 -0.0977,-0.0477 -0.0225,-10e-4 -0.0481,2.3e-4 -0.0254,3e-5 -0.0453,0.002 l -0.0309,0.57207 -0.20994,-0.0114 z"
         id="path3177" /><path
         d="m -131.57672,290.69105 q 0.005,-0.0987 0.0379,-0.17053 0.0346,-0.0732 0.0863,-0.12016 0.0517,-0.0469 0.11636,-0.0693 0.0661,-0.0222 0.13371,-0.019 0.15786,0.008 0.24479,0.10929 0.087,0.10026 0.0779,0.28772 -8.8e-4,0.0183 -0.003,0.0408 -0.002,0.0211 -0.005,0.0379 l -0.4764,-0.023 q 0.004,0.0652 0.0556,0.10581 0.0517,0.0406 0.14193,0.045 0.0578,0.003 0.11323,-0.004 0.0569,-0.009 0.0929,-0.0224 l 0.02,0.1719 q -0.0173,0.008 -0.0459,0.0147 -0.0286,0.007 -0.0641,0.011 -0.0342,0.005 -0.0738,0.008 -0.0397,0.002 -0.0791,4.2e-4 -0.10008,-0.005 -0.17335,-0.038 -0.0719,-0.0331 -0.11875,-0.0863 -0.0454,-0.0545 -0.066,-0.12609 -0.0192,-0.0716 -0.0152,-0.15331 z m 0.49719,-0.0565 q -1.2e-4,-0.0268 -0.007,-0.0526 -0.006,-0.0257 -0.0218,-0.0463 -0.0146,-0.0205 -0.0393,-0.0344 -0.0234,-0.0138 -0.06,-0.0156 -0.0352,-0.002 -0.0612,0.01 -0.0259,0.0101 -0.0438,0.029 -0.0179,0.0189 -0.029,0.0452 -0.01,0.025 -0.0152,0.0515 z"
         id="path3179" /><path
         d="m -130.26492,290.56073 q -0.0279,-0.008 -0.0657,-0.017 -0.0377,-0.0101 -0.0814,-0.012 -0.0197,-8.6e-4 -0.0481,0.002 -0.0269,0.002 -0.0412,0.005 l -0.0247,0.56673 -0.21006,-0.009 0.0306,-0.70207 q 0.0573,-0.0173 0.13411,-0.0309 0.0783,-0.0149 0.17279,-0.0108 0.0169,7.4e-4 0.0408,0.005 0.0239,0.002 0.0477,0.008 0.0238,0.004 0.0476,0.0106 0.0238,0.005 0.0404,0.0131 z"
         id="path3181" /><path
         d="m -130.01526,291.01547 q -0.003,0.0634 -0.0448,0.0956 -0.0408,0.0308 -0.0916,0.0288 -0.0508,-0.002 -0.0903,-0.0361 -0.0381,-0.0354 -0.0355,-0.0989 0.003,-0.0635 0.0434,-0.0943 0.0423,-0.0322 0.093,-0.0301 0.0508,0.002 0.0889,0.0375 0.0396,0.0341 0.037,0.0975 z"
         id="path3183" /><path
         d="m -129.66859,291.0288 q -0.002,0.0634 -0.0446,0.0957 -0.0407,0.0309 -0.0915,0.029 -0.0508,-0.002 -0.0904,-0.0359 -0.0382,-0.0353 -0.0358,-0.0988 0.002,-0.0635 0.0431,-0.0944 0.0422,-0.0323 0.093,-0.0303 0.0508,0.002 0.089,0.0373 0.0396,0.034 0.0372,0.0974 z"
         id="path3185" /><path
         d="m -129.32195,291.0413 q -0.002,0.0635 -0.0444,0.0958 -0.0406,0.031 -0.0914,0.0292 -0.0508,-0.002 -0.0905,-0.0357 -0.0383,-0.0353 -0.036,-0.0987 0.002,-0.0635 0.0429,-0.0945 0.0421,-0.0324 0.0929,-0.0306 0.0508,0.002 0.089,0.0371 0.0397,0.0339 0.0375,0.0974 z"
         id="path3187" /></g></g></svg>
