<?xml version="1.0" encoding="UTF-8" standalone="no"?>
<!-- Created with Inkscape (http://www.inkscape.org/) -->

<svg
   width="106.99637mm"
   height="41.832153mm"
   viewBox="0 0 106.99637 41.832153"
   version="1.1"
   id="svg5"
   xml:space="preserve"
   sodipodi:docname="drawing - utkantt_USB.svg"
   inkscape:version="1.2.2 (732a01da63, 2022-12-09)"
   xmlns:inkscape="http://www.inkscape.org/namespaces/inkscape"
   xmlns:sodipodi="http://sodipodi.sourceforge.net/DTD/sodipodi-0.dtd"
   xmlns="http://www.w3.org/2000/svg"
   xmlns:svg="http://www.w3.org/2000/svg"><sodipodi:namedview
     id="namedview7"
     pagecolor="#ffffff"
     bordercolor="#000000"
     borderopacity="0.25"
     inkscape:showpageshadow="2"
     inkscape:pageopacity="0.0"
     inkscape:pagecheckerboard="0"
     inkscape:deskcolor="#d1d1d1"
     inkscape:document-units="mm"
     showgrid="false"
     inkscape:zoom="6.435522"
     inkscape:cx="-558.77363"
     inkscape:cy="1227.0955"
     inkscape:window-width="1920"
     inkscape:window-height="1057"
     inkscape:window-x="-8"
     inkscape:window-y="-8"
     inkscape:window-maximized="1"
     inkscape:current-layer="layer2" /><defs
     id="defs2" /><g
     inkscape:groupmode="layer"
     id="layer2"
     inkscape:label="Layer 2"
     transform="translate(205.32349,-348.14885)"><path
       style="color:#000000;fill:none;stroke:#000000;stroke-width:0.1;stroke-linecap:round;stroke-linejoin:round;stroke-dasharray:none;stroke-opacity:1"
       d="m -205.27349,355.45636 8.78659,9.73604 c 0.1831,0.19943 0.49821,0.55668 0.67383,0.76367 5.25993,6.1999 11.47798,13.58632 18.4375,14.61719 0.35432,0.0525 0.81766,0.091 1.15625,0.10547 h 0.002 c 0.17826,0.007 0.36401,0.0144 0.54102,0.0195 h 0.002 c 0.28206,0.008 0.4996,0.0153 0.50977,0.0156 3.72954,0.1738 7.05344,0.65626 9.1875,1.23632 0.24553,0.0667 0.70368,0.21 0.9375,0.29297 0.15678,0.0557 0.3241,0.11628 0.48437,0.17578 0.27127,0.10072 0.71454,0.26603 0.9961,0.36915 15.88732,5.81863 32.66869,7.65036 49.00781,7.02734 0.29615,-0.0113 0.76921,-0.0297 1.06445,-0.043 0.17223,-0.008 0.35453,-0.017 0.5293,-0.0254 0.29563,-0.014 0.7693,-0.0388 1.06445,-0.0547 4.34037,-0.23404 8.61785,-0.62425 12.93174,-1.19442 l 0.5842,-17.22674 -103.29001,-23.07227 z"
       id="path1797-6"
       sodipodi:nodetypes="cccsssscccssscccscccc"
       inkscape:export-filename="banankontakt_utkant.svg"
       inkscape:export-xdpi="96"
       inkscape:export-ydpi="96" /></g></svg>
