<?xml version="1.0" encoding="UTF-8" standalone="no"?>
<!-- Created with Inkscape (http://www.inkscape.org/) -->

<svg
   width="210mm"
   height="297mm"
   viewBox="0 0 210 297"
   version="1.1"
   id="svg5"
   xml:space="preserve"
   inkscape:version="1.2.2 (b0a8486541, 2022-12-01)"
   sodipodi:docname="banan.svg"
   inkscape:export-filename="banan.png"
   inkscape:export-xdpi="96"
   inkscape:export-ydpi="96"
   xmlns:inkscape="http://www.inkscape.org/namespaces/inkscape"
   xmlns:sodipodi="http://sodipodi.sourceforge.net/DTD/sodipodi-0.dtd"
   xmlns="http://www.w3.org/2000/svg"
   xmlns:svg="http://www.w3.org/2000/svg"><sodipodi:namedview
     id="namedview7"
     pagecolor="#ffffff"
     bordercolor="#666666"
     borderopacity="1.0"
     inkscape:showpageshadow="2"
     inkscape:pageopacity="0.0"
     inkscape:pagecheckerboard="0"
     inkscape:deskcolor="#d1d1d1"
     inkscape:document-units="mm"
     showgrid="false"
     inkscape:zoom="12.603463"
     inkscape:cx="53.239335"
     inkscape:cy="39.909666"
     inkscape:window-width="1920"
     inkscape:window-height="1048"
     inkscape:window-x="0"
     inkscape:window-y="0"
     inkscape:window-maximized="1"
     inkscape:current-layer="layer2" /><defs
     id="defs2" /><g
     inkscape:groupmode="layer"
     id="layer2"
     inkscape:label="Lager 2"><g
       id="g332"><path
         style="fill:none;stroke:#000000;stroke-width:0.239165;stroke-linecap:round;stroke-linejoin:round;stroke-dasharray:none;stroke-opacity:1"
         d="m 10.238129,14.010221 0.393728,0.455099 0.769232,-1.208793 c 0.03394,-0.06286 0.22473,-0.177072 0.285224,-0.212437 0.73102,-0.427355 1.183577,-3.528522 0.746861,-4.6563077"
         id="path355"
         sodipodi:nodetypes="cccsc" /><path
         style="fill:none;stroke:#000000;stroke-width:0.239165;stroke-linecap:round;stroke-linejoin:round;stroke-dasharray:none;stroke-opacity:1"
         d="m 12.433174,8.3877823 c 0.158817,0.2999891 0.43107,1.3728499 0.905979,2.3912197 0.10035,0.234082 0.87552,0.16402 0.899103,-0.109891 C 14.300046,9.373408 14.142941,7.9477456 13.359133,7.2325424 12.995756,6.9009701 12.297781,7.2683235 11.780709,7.6021736 10.903418,5.9996168 9.5678787,4.6730837 8.5639217,4.7050665 8.3558167,4.7116962 8.2813154,4.8375211 8.294191,5.0047673 8.3180744,5.3149961 8.7702016,6.1432806 9.1733131,6.6131613 8.5550638,6.5303584 8.1015359,6.5215064 7.4949891,6.7230511 7.346919,6.7627264 7.1399471,7.0170637 7.2352485,7.1226526 7.612014,7.5237455 8.1501679,7.6412896 8.7137721,7.7919839 9.1930174,7.920123 9.5713236,8.2034489 9.9646455,8.649569 8.6928954,8.8564682 8.3785585,11.49122 8.7263938,12.213833 c 0.137216,0.290729 0.49231,0.320133 0.4968695,0.133602 0.074905,-1.120974 0.2273019,-2.8122382 0.9390617,-3.386618 0.792135,0.6551316 0.539455,3.115869 0.595032,3.386618 0.05999,0.292273 0.07849,0.374098 0.06431,0.489512 -0.04693,0.382048 -0.241692,0.640824 -0.583538,1.173274"
         id="path357"
         sodipodi:nodetypes="cccscsscccsccccssc" /><path
         style="fill:none;stroke:#000000;stroke-width:0.239165;stroke-linecap:butt;stroke-linejoin:miter;stroke-dasharray:none;stroke-opacity:1"
         d="m 9.1733131,6.6131613 c 0.4714381,0.6355544 0.9990319,1.3108046 1.2608149,1.920489"
         id="path359"
         sodipodi:nodetypes="cc" /><path
         style="fill:none;stroke:#000000;stroke-width:0.239165;stroke-linecap:butt;stroke-linejoin:miter;stroke-dasharray:none;stroke-opacity:1"
         d="M 11.780709,7.6021736 C 11.466586,7.8264448 11.040798,8.0993144 11.3616,9.2548595 11.12712,8.6466454 10.734734,8.4811975 10.434128,8.5336503"
         id="path361"
         sodipodi:nodetypes="ccc" /><path
         style="fill:none;stroke:#000000;stroke-width:0.239165;stroke-linecap:butt;stroke-linejoin:miter;stroke-dasharray:none;stroke-opacity:1"
         d="M 9.9646455,8.649569 10.434128,8.5336503"
         id="path363" /><path
         style="fill:none;stroke:#000000;stroke-width:0.239165;stroke-linecap:butt;stroke-linejoin:miter;stroke-dasharray:none;stroke-opacity:1"
         d="M 12.433174,8.3877823 C 12.097844,7.6889361 11.632861,7.8012434 11.450984,8.1377004 11.250197,8.5091406 11.326286,8.9050235 11.3616,9.2548595"
         id="path367"
         sodipodi:nodetypes="csc" /><path
         style="fill:none;stroke:#000000;stroke-width:0.239165;stroke-linecap:round;stroke-linejoin:miter;stroke-dasharray:none;stroke-opacity:1"
         d="M 10.162325,8.960817 C 10.504515,8.6886018 11.01745,8.5619589 11.3616,9.2548595"
         id="path369"
         sodipodi:nodetypes="cc" /><path
         style="fill:none;stroke:#000000;stroke-width:0.239165;stroke-linecap:butt;stroke-linejoin:miter;stroke-dasharray:none;stroke-opacity:1"
         d="m 10.473058,13.64637 0.404354,0.486044"
         id="path1110" /><path
         style="fill:#000000;fill-opacity:1;stroke:#000000;stroke-width:0.239166;stroke-linecap:round;stroke-linejoin:round;stroke-dasharray:none"
         d="m 10.48024,13.761553 c -0.01461,0.0019 -0.02001,0.01826 -0.02815,0.02839 -0.0424,0.06601 -0.0862,0.131137 -0.127274,0.197977 -0.0058,0.0078 -0.009,0.01924 -0.0011,0.02702 0.0471,0.05835 0.09727,0.114168 0.145966,0.171185 0.04571,0.0522 0.09014,0.105548 0.13677,0.156923 0.0068,0.0091 0.02158,0.01257 0.02882,0.002 0.02752,-0.03759 0.05104,-0.07798 0.07653,-0.116948 0.02264,-0.03635 0.04657,-0.072 0.0679,-0.109107 0.0024,-0.01343 -0.01152,-0.02146 -0.018,-0.03158 -0.08528,-0.102552 -0.169803,-0.205751 -0.256377,-0.307216 -0.0072,-0.007 -0.01371,-0.0189 -0.02504,-0.01867 z"
         id="path2084" /><path
         style="fill:#000000;fill-opacity:1;stroke:#000000;stroke-width:0.0536727;stroke-linecap:round;stroke-linejoin:round;stroke-dasharray:none"
         d="m 8.5948084,4.8167622 c -0.06268,0.00146 -0.1474661,0.00342 -0.1770342,0.070417 -0.034528,0.1010252 0.00605,0.2082668 0.036755,0.3049862 0.1153269,0.3136462 0.2837824,0.6047725 0.4628152,0.8858089 0.1152097,0.181574 0.2482307,0.3506816 0.3808636,0.5195819 0.3471664,0.4653593 0.702661,0.9271418 0.998257,1.4276572 0.07318,0.1240085 0.139069,0.2524952 0.203251,0.3815939 0.03446,0.016373 0.0784,0.00592 0.11678,0.013202 0.171958,0.018181 0.333682,0.094702 0.463138,0.2071779 0.019,0.018814 0.07048,0.026702 0.06105,-0.014323 -0.0039,-0.1714056 0.0052,-0.3454475 0.06557,-0.5075949 0.05995,-0.1845252 0.185942,-0.34023 0.334743,-0.4611284 0.02624,-0.026127 0.06045,-0.044332 0.08624,-0.069685 0.003,-0.032499 -0.02761,-0.059588 -0.03918,-0.089011 C 11.217974,6.8439372 10.775654,6.2403085 10.247072,5.7199852 9.9250592,5.4079608 9.568138,5.1199683 9.1534914,4.9411729 8.976953,4.8670054 8.7876164,4.8145426 8.5948084,4.8167622 Z"
         id="path2812" /></g></g></svg>
