<?xml version="1.0" encoding="UTF-8" standalone="no"?>
<!-- Created with Inkscape (http://www.inkscape.org/) -->

<svg
   width="101.20114mm"
   height="31.139893mm"
   viewBox="0 0 101.20114 31.139893"
   version="1.1"
   id="svg5"
   xml:space="preserve"
   sodipodi:docname="drawing - utkantt_USB.svg"
   inkscape:version="1.2.2 (732a01da63, 2022-12-09)"
   xmlns:inkscape="http://www.inkscape.org/namespaces/inkscape"
   xmlns:sodipodi="http://sodipodi.sourceforge.net/DTD/sodipodi-0.dtd"
   xmlns="http://www.w3.org/2000/svg"
   xmlns:svg="http://www.w3.org/2000/svg"><sodipodi:namedview
     id="namedview7"
     pagecolor="#ffffff"
     bordercolor="#000000"
     borderopacity="0.25"
     inkscape:showpageshadow="2"
     inkscape:pageopacity="0.0"
     inkscape:pagecheckerboard="0"
     inkscape:deskcolor="#d1d1d1"
     inkscape:document-units="mm"
     showgrid="false"
     inkscape:zoom="6.435522"
     inkscape:cx="-558.77363"
     inkscape:cy="1227.0955"
     inkscape:window-width="1920"
     inkscape:window-height="1057"
     inkscape:window-x="-8"
     inkscape:window-y="-8"
     inkscape:window-maximized="1"
     inkscape:current-layer="layer2" /><defs
     id="defs2" /><g
     inkscape:groupmode="layer"
     id="layer2"
     inkscape:label="Layer 2"
     transform="translate(329.11472,-263.53429)"><g
       aria-label="Det är ett ljussken över staden, nåt stort och gult som alla ser. Banankontakt av tredje graden, en fruktraket som kommer ner... "
       transform="translate(-124.30946,3.3512522)"
       id="text2703-4-8-9-3"
       style="font-size:1.94028px;font-family:Ubuntu;-inkscape-font-specification:Ubuntu;stroke-width:0.1;stroke-linecap:round;stroke-linejoin:round"><path
         d="m -203.57082,261.43131 q -0.12611,0.12079 -0.25757,0.17147 -0.13006,0.0493 -0.26016,0.0369 -0.1287,-0.0137 -0.25482,-0.0837 -0.12471,-0.0713 -0.23879,-0.19041 -0.0564,-0.0589 -0.11921,-0.13569 -0.0629,-0.0741 -0.10391,-0.14496 l 0.94165,-0.90187 q 0.069,0.044 0.14034,0.11007 0.074,0.0661 0.13042,0.12495 0.11408,0.1191 0.17854,0.24812 0.0659,0.12767 0.0727,0.25819 0.008,0.12917 -0.0481,0.25832 -0.0549,0.12782 -0.18102,0.2486 z m -0.8815,-0.1686 q 0.18521,0.19338 0.37456,0.19472 0.19075,0 0.36871,-0.17045 0.17796,-0.17044 0.18479,-0.35967 0.008,-0.19057 -0.17698,-0.38395 -0.055,-0.0575 -0.0873,-0.0883 -0.0309,-0.0295 -0.0444,-0.0408 l -0.74267,0.7113 q 0.0107,0.014 0.0388,0.0461 0.0295,0.0336 0.0845,0.091 z"
         id="path19123" /><path
         d="m -203.55278,261.72139 q 0.0986,-0.0905 0.19777,-0.12886 0.10057,-0.0396 0.19246,-0.0371 0.0919,0.003 0.17262,0.0417 0.0807,0.0392 0.13976,0.10349 0.13777,0.15008 0.1169,0.31673 -0.0194,0.16533 -0.21098,0.34114 -0.009,0.008 -0.0229,0.021 -0.0129,0.0118 -0.0256,0.0209 l -0.46709,-0.50887 q -0.10791,0.11485 -0.11415,0.22857 -0.006,0.11371 0.10791,0.23807 0.0643,0.07 0.11902,0.10671 0.0575,0.0368 0.0912,0.0506 l -0.0944,0.12092 q -0.0352,-0.0125 -0.10588,-0.0608 -0.0694,-0.0469 -0.14025,-0.1241 -0.0892,-0.0972 -0.12624,-0.19491 -0.0343,-0.0976 -0.0248,-0.19057 0.009,-0.093 0.0585,-0.18014 0.0518,-0.087 0.13613,-0.16445 z m 0.5413,0.44338 q 0.0914,-0.0812 0.10524,-0.18088 0.0166,-0.0995 -0.0582,-0.18101 -0.042,-0.0457 -0.0934,-0.0644 -0.0487,-0.0186 -0.0995,-0.0166 -0.0509,0.002 -0.10118,0.0218 -0.049,0.0213 -0.0915,0.0524 z"
         id="path19125" /><path
         d="m -202.29407,262.3438 0.25848,0.28159 -0.11149,0.10234 -0.25848,-0.28159 -0.34306,0.31489 q -0.0557,0.0512 -0.085,0.0939 -0.0279,0.0414 -0.0336,0.0782 -0.004,0.0355 0.0108,0.0691 0.015,0.0336 0.0465,0.0679 0.0551,0.06 0.10077,0.084 0.0484,0.024 0.0673,0.0331 l -0.0865,0.12676 q -0.0284,-0.0108 -0.0886,-0.0477 -0.0616,-0.0356 -0.12069,-0.0999 -0.0695,-0.0757 -0.0969,-0.14284 -0.0246,-0.067 -0.0136,-0.13241 0.011,-0.0654 0.055,-0.12948 0.0467,-0.0639 0.12101,-0.13214 l 0.66325,-0.6088 0.14489,0.11195 z"
         id="path19127" /><path
         d="m -201.99429,263.97019 q 0.0433,0.0472 0.0775,0.0816 0.037,0.0345 0.065,0.0536 l 0.22156,-0.20337 q -0.006,-0.0209 -0.0319,-0.0577 -0.0231,-0.0367 -0.0651,-0.0824 -0.0275,-0.03 -0.0633,-0.0604 -0.0345,-0.0289 -0.075,-0.0444 -0.0378,-0.0154 -0.0791,-0.0116 -0.0399,0.002 -0.0785,0.0378 -0.0715,0.0656 -0.0581,0.13758 0.0148,0.0707 0.087,0.14929 z m 0.6556,-0.62285 q 0.0735,0.08 0.1019,0.15404 0.0312,0.0741 0.0227,0.14242 -0.006,0.0684 -0.0455,0.13126 -0.0383,0.0615 -0.10123,0.11926 l -0.46455,0.42641 q -0.0186,-0.0145 -0.0532,-0.0407 -0.0318,-0.0261 -0.0716,-0.0607 -0.0397,-0.0347 -0.0846,-0.0778 -0.045,-0.0404 -0.0856,-0.0847 -0.0577,-0.0629 -0.0934,-0.12759 -0.0357,-0.0647 -0.0439,-0.12822 -0.007,-0.0648 0.0192,-0.12827 0.0261,-0.0634 0.0904,-0.12246 0.0615,-0.0564 0.12808,-0.0728 0.0679,-0.0149 0.13445,0.003 0.0665,0.018 0.13186,0.0633 0.0653,0.0454 0.12308,0.10826 0.0184,0.02 0.0352,0.0441 0.0183,0.0227 0.031,0.0453 0.0155,0.0226 0.0258,0.0396 0.0103,0.0169 0.0141,0.0239 l 0.0372,-0.0341 q 0.0329,-0.0302 0.0578,-0.0662 0.0263,-0.0373 0.0336,-0.0782 0.009,-0.0422 -0.007,-0.0882 -0.0131,-0.0459 -0.0604,-0.0973 -0.0603,-0.0658 -0.11628,-0.1066 -0.0532,-0.0407 -0.0855,-0.0558 l 0.0956,-0.11676 q 0.0351,0.0152 0.10016,0.0661 0.0665,0.0495 0.13083,0.11958 z m 0.0137,-0.22326 q -0.0302,-0.0329 -0.0309,-0.0796 0.002,-0.0466 0.0392,-0.0807 0.0372,-0.0341 0.0823,-0.0308 0.0479,0.003 0.0781,0.0363 0.0302,0.0329 0.0282,0.0795 7.5e-4,0.0467 -0.0364,0.0808 -0.0372,0.0341 -0.0851,0.0307 -0.0452,-0.003 -0.0753,-0.0362 z m 0.24929,0.27159 q -0.0302,-0.0329 -0.0309,-0.0796 0.002,-0.0466 0.0392,-0.0807 0.0372,-0.0341 0.0823,-0.0308 0.0479,0.003 0.0781,0.0363 0.0302,0.0329 0.0282,0.0795 7.5e-4,0.0467 -0.0364,0.0808 -0.0372,0.0341 -0.0851,0.0307 -0.0452,-0.003 -0.0753,-0.0362 z"
         id="path19129" /><path
         d="m -200.62517,264.13042 q 0.0157,0.0171 0.0326,0.0412 0.0196,0.0242 0.035,0.0496 0.0168,0.0241 0.0283,0.0451 0.0142,0.0212 0.0192,0.0324 l -0.13678,0.0834 q -0.009,-0.021 -0.0357,-0.0647 -0.0242,-0.0436 -0.0767,-0.10078 -0.0341,-0.0372 -0.0768,-0.0665 -0.04,-0.0292 -0.0533,-0.038 l -0.62465,0.57337 -0.12202,-0.13293 0.71184,-0.65341 q 0.0605,0.0314 0.13904,0.0883 0.08,0.0556 0.16004,0.1428 z"
         id="path19131" /><path
         d="m -200.49439,265.05333 q 0.0986,-0.0905 0.19777,-0.12886 0.10057,-0.0396 0.19247,-0.0371 0.0919,0.003 0.17262,0.0417 0.0807,0.0392 0.13976,0.10349 0.13776,0.15008 0.1169,0.31673 -0.0194,0.16533 -0.21098,0.34114 -0.009,0.008 -0.0229,0.021 -0.0129,0.0118 -0.0256,0.0209 l -0.46709,-0.50887 q -0.10791,0.11485 -0.11415,0.22857 -0.006,0.11371 0.1079,0.23807 0.0643,0.07 0.11903,0.10671 0.0575,0.0368 0.0912,0.0506 l -0.0944,0.12092 q -0.0352,-0.0125 -0.10588,-0.0608 -0.0694,-0.0469 -0.14025,-0.1241 -0.0892,-0.0972 -0.12623,-0.19491 -0.0343,-0.0976 -0.0248,-0.19057 0.009,-0.093 0.0585,-0.18014 0.0518,-0.087 0.13612,-0.16445 z m 0.54131,0.44338 q 0.0914,-0.0812 0.10524,-0.18088 0.0166,-0.0995 -0.0582,-0.18101 -0.042,-0.0457 -0.0934,-0.0644 -0.0486,-0.0186 -0.0995,-0.0166 -0.0509,0.002 -0.10118,0.0218 -0.049,0.0213 -0.0915,0.0524 z"
         id="path19133" /><path
         d="m -199.23564,265.67577 0.25847,0.2816 -0.1115,0.10234 -0.25847,-0.2816 -0.34307,0.31488 q -0.0557,0.0512 -0.085,0.0939 -0.0279,0.0414 -0.0336,0.0782 -0.004,0.0355 0.0108,0.0691 0.015,0.0336 0.0465,0.0679 0.0551,0.06 0.10077,0.084 0.0484,0.0241 0.0672,0.0331 l -0.0865,0.12675 q -0.0284,-0.0108 -0.0886,-0.0477 -0.0616,-0.0356 -0.12068,-0.0999 -0.0695,-0.0758 -0.0969,-0.14285 -0.0246,-0.067 -0.0136,-0.13241 0.011,-0.0654 0.055,-0.12948 0.0467,-0.0639 0.12101,-0.13214 l 0.66327,-0.60877 0.14488,0.11195 z"
         id="path19135" /><path
         d="m -198.70524,266.25787 0.25405,0.2856 -0.11308,0.10059 -0.25405,-0.2856 -0.34793,0.30949 q -0.0565,0.0503 -0.0865,0.0925 -0.0285,0.0409 -0.0348,0.0777 -0.005,0.0355 0.01,0.0693 0.0145,0.0338 0.0455,0.0686 0.0542,0.0609 0.0994,0.0855 0.048,0.0248 0.0667,0.0341 l -0.0884,0.12539 q -0.0282,-0.0113 -0.0878,-0.0491 -0.0611,-0.0366 -0.11911,-0.10179 -0.0684,-0.0768 -0.0946,-0.14434 -0.0236,-0.0673 -0.0115,-0.13261 0.0121,-0.0653 0.057,-0.1286 0.0477,-0.0632 0.12306,-0.13024 l 0.67267,-0.59836 0.14313,0.11419 z"
         id="path19137" /><path
         d="m -198.58158,267.97655 q -0.10505,-0.1297 -0.0985,-0.2269 0.007,-0.0972 0.11599,-0.19014 l 0.92287,-0.7837 0.14047,0.11744 -0.92435,0.78496 q -0.034,0.0289 -0.0512,0.0537 -0.0172,0.0248 -0.0192,0.0494 -0.002,0.0246 0.009,0.0531 0.0129,0.0272 0.0361,0.0635 z"
         id="path19139" /><path
         d="m -198.80299,268.24643 q -0.0151,-0.0177 -0.0345,-0.0496 -0.0195,-0.0319 -0.0284,-0.0573 l 0.12741,-0.0778 q 0.008,0.0185 0.0215,0.0403 0.0134,0.0217 0.0272,0.038 0.0603,0.0709 0.12983,0.0628 0.0693,-0.005 0.1535,-0.0771 l 0.75516,-0.64247 0.11693,0.13744 -0.75369,0.64121 q -0.14778,0.12572 -0.27655,0.11809 -0.12899,-0.005 -0.23837,-0.13346 z m 1.34843,-0.81348 q -0.0314,-0.0369 -0.0304,-0.0837 0.004,-0.0465 0.0451,-0.0817 0.0414,-0.0352 0.0864,-0.0302 0.0478,0.005 0.0792,0.0422 0.0314,0.0369 0.0277,0.0834 -0.001,0.0467 -0.0424,0.0819 -0.0414,0.0352 -0.0891,0.03 -0.045,-0.005 -0.0764,-0.0419 z"
         id="path19141" /><path
         d="m -197.55654,269.10392 q -0.0521,-0.0371 -0.13224,-0.10393 -0.0788,-0.0653 -0.16582,-0.16711 -0.0756,-0.0885 -0.10227,-0.17039 -0.0251,-0.0832 -0.009,-0.16038 0.0157,-0.0772 0.0652,-0.14765 0.051,-0.0717 0.12919,-0.13852 l 0.43066,-0.36814 0.11725,0.13716 -0.40116,0.34293 q -0.14011,0.11977 -0.16276,0.21571 -0.0226,0.0959 0.0669,0.20065 0.0189,0.0221 0.0406,0.0445 0.0216,0.0223 0.0408,0.0417 0.0206,0.0181 0.0359,0.0331 0.0181,0.0152 0.0273,0.02 l 0.64746,-0.55347 0.11725,0.13716 z"
         id="path19143" /><path
         d="m -197.12465,269.45125 q 0.0722,0.0838 0.12846,0.10443 0.0575,0.0221 0.10602,-0.0197 0.05,-0.0431 0.0451,-0.1081 -0.005,-0.065 -0.0466,-0.1878 -0.0204,-0.0593 -0.0382,-0.11564 -0.0151,-0.0562 -0.0155,-0.10707 -3.6e-4,-0.0509 0.0197,-0.099 0.0201,-0.048 0.0715,-0.0924 0.1014,-0.0874 0.22479,-0.0632 0.12487,0.023 0.23636,0.15232 0.0279,0.0323 0.0513,0.0685 0.0249,0.0349 0.0431,0.0679 0.0197,0.0317 0.0315,0.0574 0.0131,0.0271 0.0189,0.0427 l -0.1391,0.0764 q -0.007,-0.0322 -0.036,-0.0893 -0.0273,-0.0584 -0.0843,-0.12456 -0.0494,-0.0573 -0.10966,-0.0797 -0.0588,-0.0236 -0.10728,0.0182 -0.025,0.0215 -0.0365,0.0468 -0.0102,0.0268 -0.01,0.0598 0.003,0.0332 0.0152,0.074 0.0121,0.0408 0.0329,0.0946 0.0263,0.0721 0.0425,0.13247 0.0176,0.0591 0.0165,0.11128 1.5e-4,0.0537 -0.0241,0.10277 -0.0228,0.0478 -0.0772,0.0947 -0.10581,0.0912 -0.2286,0.0587 -0.12152,-0.031 -0.24695,-0.1765 -0.0874,-0.10139 -0.11919,-0.17391 -0.0333,-0.0712 -0.0422,-0.0994 l 0.1391,-0.0764 q 0.0115,0.0311 0.0382,0.0978 0.0267,0.0666 0.10019,0.15188 z"
         id="path19145" /><path
         d="m -196.55857,270.10507 q 0.0726,0.0834 0.12898,0.1038 0.0576,0.0219 0.10592,-0.0202 0.0497,-0.0433 0.0446,-0.10831 -0.005,-0.065 -0.0476,-0.18757 -0.0207,-0.0592 -0.0388,-0.11545 -0.0154,-0.0561 -0.016,-0.107 -6.1e-4,-0.0509 0.0192,-0.0991 0.0198,-0.0481 0.071,-0.0927 0.10096,-0.0879 0.22448,-0.0643 0.12497,0.0224 0.2371,0.15115 0.028,0.0322 0.0517,0.0682 0.0251,0.0347 0.0435,0.0676 0.0198,0.0316 0.0318,0.0572 0.0133,0.027 0.0191,0.0426 l -0.13872,0.0771 q -0.007,-0.0321 -0.0365,-0.0892 -0.0276,-0.0583 -0.0849,-0.12413 -0.0497,-0.0571 -0.11006,-0.0791 -0.0589,-0.0233 -0.10719,0.0187 -0.0249,0.0217 -0.0362,0.047 -0.0101,0.0268 -0.01,0.0599 0.003,0.0332 0.0155,0.074 0.0123,0.0407 0.0334,0.0944 0.0267,0.072 0.0431,0.13225 0.0179,0.059 0.0171,0.1112 4.2e-4,0.0537 -0.0236,0.10289 -0.0226,0.048 -0.0767,0.0951 -0.10535,0.0917 -0.2283,0.0599 -0.12167,-0.0304 -0.24782,-0.17526 -0.0879,-0.10097 -0.12005,-0.17333 -0.0336,-0.0711 -0.0427,-0.0992 l 0.13872,-0.0771 q 0.0116,0.0311 0.0386,0.0976 0.027,0.0665 0.10094,0.15137 z"
         id="path19147" /><path
         d="m -195.58379,270.57279 q 0.005,0.0732 -0.002,0.16483 -0.006,0.0931 -0.0229,0.19102 -0.0144,0.0981 -0.0368,0.1929 -0.021,0.0935 -0.0462,0.16757 l -0.13992,-0.15859 q 0.024,-0.0755 0.0404,-0.16244 0.0192,-0.0868 0.0287,-0.17279 0.011,-0.0873 0.0119,-0.16833 9.5e-4,-0.0811 -0.007,-0.14618 l -0.36374,0.32092 -0.11938,-0.13532 1.10577,-0.97558 0.14266,0.11478 -0.68965,0.60845 q 0.0657,0.004 0.14514,0.009 0.0794,0.005 0.15902,0.007 0.0796,0.002 0.15096,0.004 0.0728,4.3e-4 0.12649,-3.4e-4 l 0.13992,0.15859 q -0.0659,-0.001 -0.1442,-0.002 -0.0783,-7.8e-4 -0.16064,-0.003 -0.0809,-0.004 -0.16449,-0.008 -0.0809,-0.004 -0.15353,-0.007 z"
         id="path19149" /><path
         d="m -195.26738,271.01006 q 0.0996,-0.0894 0.19916,-0.1267 0.101,-0.0385 0.19286,-0.035 0.0919,0.004 0.17216,0.0436 0.0803,0.04 0.13862,0.105 0.13613,0.15158 0.11345,0.31798 -0.0212,0.16511 -0.21467,0.33883 -0.009,0.008 -0.0231,0.0208 -0.013,0.0117 -0.0258,0.0206 l -0.46153,-0.51392 q -0.10915,0.11368 -0.11663,0.22732 -0.007,0.11363 0.10532,0.23922 0.0635,0.0707 0.11785,0.10801 0.0571,0.0374 0.0907,0.0516 l -0.0957,0.11989 q -0.035,-0.0129 -0.10522,-0.062 -0.0689,-0.0477 -0.13889,-0.12562 -0.0882,-0.0982 -0.12411,-0.19628 -0.0332,-0.098 -0.0227,-0.19082 0.0105,-0.0929 0.0605,-0.17949 0.0527,-0.0865 0.1379,-0.16297 z m 0.53646,0.44924 q 0.0922,-0.0802 0.1072,-0.17972 0.0177,-0.0994 -0.0562,-0.18164 -0.0415,-0.0462 -0.0927,-0.0654 -0.0484,-0.0191 -0.0993,-0.0177 -0.0509,0.001 -0.10141,0.0207 -0.0492,0.0207 -0.0921,0.0514 z"
         id="path19151" /><path
         d="m -194.15629,271.53089 q 0.0534,0.0352 0.13587,0.0991 0.0824,0.0639 0.17301,0.1625 0.0814,0.0886 0.10949,0.17079 0.0295,0.0809 0.0153,0.1572 -0.0115,0.0764 -0.0612,0.14846 -0.0497,0.072 -0.12546,0.14162 l -0.41722,0.38331 -0.12208,-0.13288 0.38864,-0.35705 q 0.0686,-0.063 0.10797,-0.11765 0.0407,-0.0532 0.051,-0.1022 0.0103,-0.049 -0.01,-0.0965 -0.0185,-0.0489 -0.0671,-0.10172 -0.0197,-0.0214 -0.0421,-0.043 -0.0224,-0.0215 -0.045,-0.0403 -0.0198,-0.0187 -0.0384,-0.0332 -0.0173,-0.0131 -0.0253,-0.0189 l -0.62725,0.57628 -0.12208,-0.13288 z"
         id="path19153" /><path
         d="m -192.83596,273.63489 q -0.087,0.0831 -0.18123,0.12489 -0.0943,0.0418 -0.18901,0.0438 -0.0934,0.003 -0.18177,-0.0329 -0.087,-0.0376 -0.15803,-0.11199 -0.0711,-0.0744 -0.10472,-0.16294 -0.0323,-0.0899 -0.026,-0.18448 0.008,-0.0932 0.0536,-0.18542 0.046,-0.0923 0.13298,-0.1754 0.0856,-0.0818 0.17982,-0.12355 0.0957,-0.0431 0.18907,-0.0465 0.0947,-0.002 0.18171,0.0357 0.0884,0.0363 0.15943,0.11065 0.0711,0.0743 0.10332,0.16428 0.0337,0.0886 0.0261,0.18174 -0.006,0.0945 -0.0537,0.18816 -0.046,0.0923 -0.13157,0.17406 z m -0.13004,-0.13606 q 0.12344,-0.11798 0.14135,-0.24245 0.0207,-0.12442 -0.0705,-0.2198 -0.0912,-0.0954 -0.21772,-0.0818 -0.12382,0.0137 -0.24726,0.13163 -0.12343,0.11798 -0.14409,0.24239 -0.0179,0.12448 0.0732,0.21986 0.0912,0.0954 0.21498,0.0817 0.12656,-0.0136 0.25,-0.13157 z m 0.17494,-0.8167 q -0.0308,-0.0323 -0.0325,-0.079 10e-4,-0.0466 0.0375,-0.0815 0.0365,-0.0349 0.0817,-0.0325 0.048,0.002 0.0788,0.0347 0.0308,0.0323 0.0298,0.0789 0.002,0.0467 -0.0348,0.0815 -0.0365,0.0349 -0.0844,0.0324 -0.0452,-0.002 -0.0761,-0.0347 z m 0.25471,0.26651 q -0.0308,-0.0323 -0.0325,-0.079 0.001,-0.0466 0.0375,-0.0815 0.0365,-0.0349 0.0817,-0.0325 0.048,0.002 0.0788,0.0347 0.0308,0.0323 0.0298,0.0789 0.002,0.0467 -0.0348,0.0815 -0.0365,0.0349 -0.0844,0.0324 -0.0452,-0.002 -0.0761,-0.0347 z"
         id="path19155" /><path
         d="m -191.77027,273.99831 q -0.25486,0.14498 -0.51222,0.25427 -0.25598,0.11067 -0.4692,0.18735 l -0.11441,-0.11607 q 0.0797,-0.21209 0.19269,-0.46785 0.11433,-0.25438 0.26294,-0.50714 l 0.13621,0.13818 q -0.0514,0.0833 -0.10694,0.18171 -0.0528,0.0984 -0.10432,0.1982 -0.0487,0.0998 -0.0933,0.19553 -0.0446,0.0957 -0.0767,0.17369 0.0784,-0.031 0.17478,-0.0742 0.0964,-0.0432 0.19549,-0.0919 0.10187,-0.0487 0.19967,-0.10147 0.10053,-0.0528 0.18459,-0.10295 z"
         id="path19157" /><path
         d="m -192.06435,274.42027 q 0.0937,-0.0956 0.19066,-0.13917 0.0983,-0.0449 0.19023,-0.0472 0.0919,-0.002 0.17459,0.0325 0.0827,0.0348 0.14505,0.0959 0.14553,0.14258 0.13353,0.31009 -0.0106,0.16613 -0.19259,0.35185 -0.008,0.008 -0.0217,0.0222 -0.0122,0.0125 -0.0245,0.0222 l -0.49341,-0.48338 q -0.10167,0.12041 -0.10187,0.23429 -2.1e-4,0.11389 0.12038,0.23202 0.0679,0.0665 0.12451,0.10025 0.0593,0.0337 0.0938,0.0457 l -0.0879,0.12576 q -0.0358,-0.0106 -0.10896,-0.0551 -0.0718,-0.0432 -0.14663,-0.11649 -0.0943,-0.0923 -0.1364,-0.18794 -0.0394,-0.0956 -0.0349,-0.18899 0.005,-0.0933 0.0489,-0.18298 0.0471,-0.0897 0.12721,-0.17144 z m 0.56405,0.41405 q 0.0869,-0.086 0.0955,-0.18621 0.0113,-0.10027 -0.0677,-0.17767 -0.0444,-0.0435 -0.0967,-0.0594 -0.0496,-0.016 -0.10028,-0.0113 -0.0507,0.005 -0.0999,0.0271 -0.0478,0.0238 -0.0886,0.0572 z"
         id="path19159" /><path
         d="m -190.61944,275.08239 q 0.0169,0.016 0.0354,0.0388 0.0212,0.0227 0.0384,0.047 0.0185,0.0228 0.0314,0.043 0.0157,0.0202 0.0215,0.031 l -0.13054,0.0929 q -0.0102,-0.0203 -0.0402,-0.062 -0.0272,-0.0418 -0.0836,-0.0951 -0.0366,-0.0347 -0.0813,-0.0609 -0.0419,-0.0263 -0.0558,-0.0341 l -0.58257,0.61608 -0.13111,-0.12398 0.66389,-0.70207 q 0.0625,0.0271 0.14493,0.0783 0.0837,0.0498 0.16974,0.13113 z"
         id="path19161" /><path
         d="m -190.46043,276.45026 q 0.0824,0.0737 0.14089,0.087 0.0599,0.0145 0.10258,-0.0332 0.044,-0.0492 0.0308,-0.11303 -0.0132,-0.0638 -0.0705,-0.18019 -0.0279,-0.0562 -0.0529,-0.10973 -0.0222,-0.0537 -0.0292,-0.10418 -0.007,-0.0505 0.007,-0.10068 0.0137,-0.0502 0.059,-0.10086 0.0892,-0.0998 0.21474,-0.0917 0.12679,0.007 0.25407,0.12048 0.0318,0.0285 0.0598,0.0612 0.0292,0.0314 0.0515,0.0617 0.0236,0.0289 0.0387,0.0528 0.0165,0.0252 0.0242,0.0399 l -0.12806,0.0937 q -0.0113,-0.031 -0.0473,-0.0839 -0.0346,-0.0544 -0.0997,-0.11261 -0.0564,-0.0504 -0.11905,-0.0648 -0.0613,-0.0158 -0.10402,0.0319 -0.022,0.0246 -0.0301,0.0512 -0.007,0.0279 -0.002,0.0606 0.007,0.0326 0.0246,0.0715 0.0173,0.0389 0.0448,0.0896 0.0354,0.0681 0.0592,0.12586 0.0251,0.0563 0.0308,0.10821 0.007,0.0532 -0.0106,0.10503 -0.0164,0.0504 -0.0643,0.1039 -0.0931,0.10413 -0.21908,0.0878 -0.12451,-0.015 -0.26769,-0.14308 -0.0998,-0.0892 -0.14069,-0.15704 -0.0422,-0.0663 -0.0547,-0.0931 l 0.12806,-0.0937 q 0.0154,0.0294 0.0505,0.092 0.0351,0.0626 0.11899,0.13764 z"
         id="path19163" /><path
         d="m -189.28995,276.30883 0.29014,0.24885 -0.0985,0.11487 -0.29014,-0.24884 -0.30315,0.35347 q -0.0493,0.0574 -0.0733,0.10331 -0.0228,0.0444 -0.024,0.0816 -10e-6,0.0358 0.0189,0.0674 0.0189,0.0316 0.0543,0.0619 0.0619,0.053 0.11005,0.0714 0.0509,0.0181 0.0707,0.0249 l -0.0708,0.13614 q -0.0295,-0.007 -0.0936,-0.0369 -0.0654,-0.028 -0.13172,-0.0849 -0.0781,-0.0669 -0.11319,-0.1303 -0.0324,-0.0636 -0.0292,-0.12986 0.003,-0.0663 0.0392,-0.1351 0.0388,-0.069 0.10443,-0.1456 l 0.58611,-0.68337 0.15718,0.0939 z"
         id="path19165" /><path
         d="m -189.13415,277.58633 q 0.0496,0.0405 0.0885,0.0696 0.0416,0.0289 0.072,0.0437 l 0.18998,-0.23314 q -0.009,-0.0198 -0.0398,-0.0525 -0.0282,-0.033 -0.0763,-0.0722 -0.0316,-0.0257 -0.0714,-0.0506 -0.0383,-0.0237 -0.0806,-0.0332 -0.0396,-0.01 -0.08,-1.2e-4 -0.0392,0.008 -0.0723,0.0487 -0.0613,0.0752 -0.0377,0.14451 0.0248,0.0678 0.10756,0.13522 z m 0.55915,-0.71072 q 0.0842,0.0686 0.123,0.13778 0.0415,0.0689 0.043,0.13766 0.004,0.0685 -0.0261,0.13643 -0.0291,0.0664 -0.083,0.13259 l -0.39836,0.48883 q -0.0205,-0.0117 -0.0585,-0.0326 -0.0353,-0.0212 -0.0795,-0.0498 -0.0443,-0.0286 -0.0949,-0.0648 -0.0503,-0.0335 -0.0969,-0.0715 -0.0662,-0.0539 -0.1108,-0.11282 -0.0446,-0.0589 -0.0619,-0.12056 -0.0161,-0.0632 5.6e-4,-0.1297 0.0167,-0.0665 0.0718,-0.1342 0.0527,-0.0647 0.11628,-0.0905 0.0651,-0.0246 0.13348,-0.0164 0.0684,0.008 0.1396,0.0437 0.0712,0.0355 0.13738,0.0894 0.0211,0.0172 0.0412,0.0385 0.0213,0.0199 0.0372,0.0403 0.0186,0.0202 0.0312,0.0354 0.0126,0.0153 0.0174,0.0217 l 0.0319,-0.0391 q 0.0282,-0.0346 0.0476,-0.0738 0.0207,-0.0407 0.022,-0.0822 0.002,-0.043 -0.0198,-0.0862 -0.0196,-0.0435 -0.0738,-0.0876 -0.0692,-0.0564 -0.13041,-0.0888 -0.0585,-0.0326 -0.0926,-0.043 l 0.0778,-0.1293 q 0.0369,0.01 0.10863,0.051 0.073,0.0394 0.14668,0.0995 z"
         id="path19167" /><path
         d="m -187.69288,277.86954 q -0.01,-0.0416 -0.044,-0.0992 -0.0342,-0.0576 -0.0929,-0.10224 -0.0618,-0.0469 -0.12422,-0.0578 -0.0597,-0.0112 -0.11801,0.008 -0.0572,0.0175 -0.11059,0.0622 -0.0534,0.0447 -0.10038,0.1065 -0.10679,0.1406 -0.0959,0.27067 0.012,0.12852 0.12791,0.21654 0.0587,0.0446 0.10087,0.0693 0.0449,0.0243 0.0712,0.0346 z m 0.41073,-0.5408 0.16248,0.0844 -0.89306,1.17586 q -0.06,-0.0236 -0.14783,-0.0684 -0.0878,-0.0448 -0.18825,-0.12105 -0.0927,-0.0704 -0.14458,-0.1561 -0.0519,-0.0857 -0.0633,-0.17967 -0.0115,-0.094 0.0179,-0.19354 0.032,-0.0999 0.10597,-0.19727 0.0704,-0.0927 0.15227,-0.15236 0.0834,-0.0585 0.172,-0.0789 0.0886,-0.0204 0.17852,-8.6e-4 0.0915,0.0207 0.17798,0.0865 0.0695,0.0528 0.10799,0.11125 0.04,0.0596 0.0533,0.0966 z"
         id="path19169" /><path
         d="m -187.53871,278.35029 q 0.0766,-0.1098 0.16503,-0.16877 0.0895,-0.0606 0.1798,-0.078 0.0902,-0.0175 0.17755,0.003 0.0873,0.0207 0.15892,0.0706 0.1671,0.11654 0.18297,0.28373 0.017,0.16561 -0.13176,0.37886 -0.007,0.01 -0.0178,0.0255 -0.01,0.0143 -0.0205,0.026 l -0.56656,-0.39515 q -0.0804,0.13557 -0.0617,0.24792 0.0186,0.11235 0.15708,0.20891 0.078,0.0544 0.13938,0.0783 0.0641,0.0234 0.10004,0.0295 l -0.0659,0.13856 q -0.037,-0.005 -0.11658,-0.0364 -0.0779,-0.0307 -0.16388,-0.0906 -0.10821,-0.0755 -0.16559,-0.1628 -0.0547,-0.0878 -0.0656,-0.18062 -0.011,-0.0928 0.018,-0.18855 0.0316,-0.0962 0.0971,-0.19012 z m 0.62476,0.31509 q 0.0715,-0.0992 0.0634,-0.19943 -0.005,-0.10077 -0.0961,-0.16404 -0.0509,-0.0355 -0.10514,-0.0426 -0.0515,-0.008 -0.10077,0.005 -0.0493,0.013 -0.094,0.0432 -0.0432,0.0314 -0.0779,0.071 z"
         id="path19171" /><path
         d="m -186.36409,278.58166 q 0.0608,0.02 0.15708,0.0601 0.0963,0.0401 0.20952,0.11155 0.10174,0.0642 0.15038,0.13617 0.0497,0.0703 0.0559,0.14771 0.009,0.0768 -0.0202,0.15931 -0.0292,0.0826 -0.084,0.16952 l -0.30232,0.47916 -0.15261,-0.0963 0.28162,-0.44633 q 0.0497,-0.0788 0.0734,-0.14181 0.0254,-0.062 0.0225,-0.112 -0.003,-0.05 -0.0346,-0.0906 -0.0307,-0.0423 -0.0914,-0.0806 -0.0246,-0.0155 -0.0519,-0.0305 -0.0273,-0.0149 -0.054,-0.0272 -0.024,-0.0129 -0.0458,-0.022 -0.0201,-0.008 -0.0294,-0.0117 l -0.45452,0.72038 -0.15261,-0.0963 z"
         id="path19173" /><path
         d="m -185.66364,279.89894 q -0.006,0.0144 -0.0139,0.0278 -0.007,0.0118 -0.0146,0.0252 -0.0613,0.10575 -0.15257,0.18966 -0.0905,0.0865 -0.19875,0.14942 l -0.0985,-0.10868 q 0.0916,-0.0613 0.1566,-0.14246 0.064,-0.0795 0.10879,-0.15672 0.0127,-0.0218 0.0226,-0.0429 0.0117,-0.0201 0.0207,-0.0396 z"
         id="path19175" /><path
         d="m -184.69865,279.56842 q 0.0626,0.0135 0.16253,0.0433 0.1,0.0298 0.22007,0.0889 0.10792,0.0531 0.16385,0.11963 0.0568,0.0647 0.0711,0.14102 0.0169,0.0754 -0.003,0.16055 -0.0203,0.0852 -0.0658,0.17741 l -0.25033,0.50826 -0.16188,-0.0797 0.23319,-0.47344 q 0.0411,-0.0836 0.0581,-0.14873 0.0187,-0.0643 0.0106,-0.11374 -0.008,-0.0494 -0.0439,-0.0865 -0.0349,-0.0388 -0.0993,-0.0706 -0.0261,-0.0129 -0.0548,-0.0248 -0.0287,-0.012 -0.0565,-0.0213 -0.0252,-0.0103 -0.0478,-0.0171 -0.0209,-0.006 -0.0304,-0.008 l -0.37635,0.76413 -0.16188,-0.0797 z"
         id="path19177" /><path
         d="m -183.76234,280.93969 q 0.0592,0.0244 0.10479,0.0411 0.0481,0.0156 0.0816,0.021 l 0.11458,-0.27806 q -0.0142,-0.0164 -0.0533,-0.0387 -0.0365,-0.0234 -0.0939,-0.0471 -0.0377,-0.0155 -0.0829,-0.0279 -0.0435,-0.0116 -0.0867,-0.008 -0.0407,0.002 -0.0766,0.023 -0.0352,0.0191 -0.0551,0.0675 -0.037,0.0897 0.006,0.14923 0.0434,0.0577 0.14203,0.0984 z m 0.33014,-0.84189 q 0.10046,0.0414 0.15754,0.0964 0.0596,0.0539 0.0809,0.11939 0.0238,0.0644 0.0144,0.13815 -0.009,0.072 -0.0412,0.15091 l -0.24025,0.58302 q -0.023,-0.005 -0.0654,-0.0144 -0.0399,-0.0101 -0.0906,-0.0247 -0.0506,-0.0146 -0.10953,-0.0346 -0.0578,-0.0175 -0.11345,-0.0405 -0.0789,-0.0325 -0.13865,-0.076 -0.0597,-0.0435 -0.0941,-0.0975 -0.0337,-0.0558 -0.0369,-0.12433 -0.003,-0.0685 0.03,-0.14923 0.0318,-0.0771 0.0852,-0.12018 0.0552,-0.0423 0.12307,-0.0542 0.0679,-0.0119 0.14627,0.002 0.0784,0.0134 0.15735,0.046 0.0251,0.0104 0.0505,0.025 0.0262,0.0129 0.0473,0.0279 0.0236,0.0139 0.0401,0.0249 0.0165,0.011 0.0229,0.0157 l 0.0192,-0.0466 q 0.017,-0.0413 0.0243,-0.0844 0.008,-0.045 -0.003,-0.0851 -0.01,-0.0419 -0.0439,-0.0769 -0.0313,-0.036 -0.0959,-0.0626 -0.0825,-0.034 -0.15049,-0.0473 -0.0654,-0.0144 -0.1011,-0.0144 l 0.0372,-0.14626 q 0.0382,-10e-4 0.11873,0.0174 0.0813,0.0167 0.16916,0.0529 z m 0.31813,-0.17109 q -0.0177,0.043 -0.0479,0.0705 -0.0277,0.0264 -0.0631,0.0412 -0.0347,0.013 -0.074,0.0115 -0.0375,-7.5e-4 -0.0751,-0.0163 -0.0377,-0.0155 -0.0666,-0.0421 -0.0271,-0.0259 -0.0426,-0.0595 -0.0148,-0.0355 -0.0176,-0.0744 -3.1e-4,-0.04 0.0174,-0.0831 0.0177,-0.043 0.0454,-0.0694 0.0302,-0.0274 0.0649,-0.0404 0.0355,-0.0148 0.0729,-0.014 0.0393,10e-4 0.0769,0.017 0.0377,0.0155 0.0648,0.0414 0.0289,0.0266 0.0437,0.0621 0.0155,0.0337 0.0158,0.0737 0.003,0.0389 -0.0149,0.082 z m -0.0897,-0.037 q 0.0192,-0.0466 8.6e-4,-0.0836 -0.0158,-0.038 -0.0553,-0.0543 -0.0395,-0.0163 -0.0793,-10e-4 -0.0373,0.014 -0.0565,0.0607 -0.0192,0.0466 -0.003,0.0846 0.0183,0.0369 0.0578,0.0532 0.0395,0.0163 0.0767,0.002 0.0398,-0.0151 0.059,-0.0617 z"
         id="path19179" /><path
         d="m -182.70216,280.40274 0.36193,0.12293 -0.0487,0.1433 -0.36193,-0.12293 -0.14976,0.44093 q -0.0243,0.0717 -0.0295,0.12316 -0.005,0.0497 0.008,0.0847 0.0133,0.0332 0.0426,0.0555 0.0293,0.0223 0.0734,0.0372 0.0772,0.0262 0.12871,0.0253 0.054,-0.002 0.0749,-0.003 l -0.015,0.1527 q -0.0301,0.004 -0.10063,6.6e-4 -0.0712,-0.002 -0.15384,-0.0297 -0.0974,-0.0331 -0.15356,-0.0788 -0.0537,-0.0469 -0.0755,-0.10965 -0.0217,-0.0627 -0.0139,-0.13997 0.0103,-0.0785 0.0427,-0.17402 l 0.28953,-0.85246 0.18085,0.0286 z"
         id="path19181" /><path
         d="m -181.75513,281.59136 q 0.10781,0.0247 0.16537,0.008 0.0595,-0.0162 0.0738,-0.0786 0.0147,-0.0643 -0.0277,-0.11383 -0.0424,-0.0495 -0.14881,-0.12368 -0.0515,-0.0357 -0.0993,-0.0705 -0.0454,-0.0363 -0.0759,-0.0771 -0.0305,-0.0408 -0.0427,-0.0914 -0.0123,-0.0506 0.003,-0.11678 0.0299,-0.1305 0.1437,-0.18404 0.11423,-0.0554 0.28066,-0.0173 0.0416,0.01 0.0819,0.0247 0.0407,0.0133 0.0749,0.0291 0.0346,0.0139 0.0594,0.0275 0.0266,0.0141 0.0405,0.0232 l -0.0668,0.14393 q -0.0249,-0.0216 -0.082,-0.0506 -0.0566,-0.0309 -0.14172,-0.0504 -0.0738,-0.0169 -0.13554,7.8e-4 -0.0614,0.0158 -0.0756,0.0782 -0.007,0.0322 -0.002,0.0593 0.008,0.0276 0.0274,0.0541 0.0222,0.025 0.0561,0.0507 0.0339,0.0257 0.0825,0.0567 0.0639,0.0425 0.11269,0.0816 0.0492,0.0372 0.0792,0.0799 0.0319,0.0431 0.0414,0.0971 0.01,0.0521 -0.006,0.12203 -0.0312,0.13617 -0.14937,0.18274 -0.11627,0.047 -0.30351,0.004 -0.13049,-0.0299 -0.19905,-0.0695 -0.069,-0.0377 -0.0929,-0.0551 l 0.0668,-0.14393 q 0.0277,0.0183 0.0887,0.0562 0.061,0.0379 0.17068,0.063 z"
         id="path19183" /><path
         d="m -180.84914,280.87491 0.37794,0.0572 -0.0226,0.14964 -0.37794,-0.0571 -0.0696,0.46043 q -0.0113,0.0748 -0.007,0.12644 0.004,0.0497 0.0229,0.082 0.019,0.0303 0.0517,0.0471 0.0328,0.0167 0.0788,0.0237 0.0806,0.0122 0.13115,0.002 0.0528,-0.0116 0.0731,-0.0164 l 0.0122,0.15294 q -0.0289,0.009 -0.0989,0.0184 -0.0703,0.0109 -0.15667,-0.002 -0.10168,-0.0154 -0.16505,-0.0505 -0.0612,-0.0367 -0.0936,-0.0946 -0.0324,-0.0579 -0.0384,-0.13533 -0.004,-0.0791 0.0113,-0.17882 l 0.13462,-0.89016 0.18306,-0.004 z"
         id="path19185" /><path
         d="m -179.49742,281.50531 q -0.008,0.12004 -0.049,0.21458 -0.0412,0.0945 -0.10962,0.16006 -0.0665,0.0657 -0.15617,0.0987 -0.0895,0.0311 -0.19214,0.0244 -0.10262,-0.007 -0.18734,-0.0492 -0.0846,-0.0444 -0.14394,-0.11829 -0.0574,-0.0737 -0.0859,-0.17283 -0.0285,-0.0991 -0.0207,-0.21913 0.008,-0.1181 0.0489,-0.21264 0.0413,-0.0965 0.10781,-0.16212 0.0684,-0.0655 0.15797,-0.0966 0.0897,-0.033 0.19228,-0.0263 0.10261,0.007 0.18721,0.0511 0.0847,0.0425 0.14213,0.11623 0.0593,0.0739 0.0877,0.17489 0.0285,0.0991 0.0208,0.21719 z m -0.1878,-0.0123 q 0.0111,-0.17039 -0.0599,-0.27419 -0.0689,-0.10561 -0.20059,-0.11421 -0.13166,-0.009 -0.21569,0.087 -0.082,0.0938 -0.0931,0.2642 -0.0111,0.17038 0.0578,0.27599 0.071,0.1038 0.20266,0.1124 0.13166,0.009 0.21362,-0.0852 0.084,-0.0956 0.0952,-0.266 z"
         id="path19187" /><path
         d="m -178.78165,280.99293 q 0.0233,7.2e-4 0.0522,0.005 0.031,0.003 0.0599,0.01 0.029,0.005 0.0521,0.0113 0.0251,0.005 0.0366,0.009 l -0.0359,0.15613 q -0.0211,-0.008 -0.0712,-0.0197 -0.0481,-0.0131 -0.1257,-0.0155 -0.0504,-0.002 -0.1012,0.009 -0.0488,0.008 -0.0644,0.0116 l -0.0262,0.8475 -0.18036,-0.006 0.0298,-0.9658 q 0.0647,-0.0213 0.16035,-0.0378 0.0957,-0.0184 0.21399,-0.0147 z"
         id="path19189" /><path
         d="m -178.30597,281.03517 0.3817,0.0203 -0.008,0.15113 -0.3817,-0.0203 -0.0247,0.46501 q -0.004,0.0756 0.005,0.12656 0.009,0.0491 0.0308,0.0794 0.0218,0.0284 0.0561,0.0418 0.0343,0.0135 0.0808,0.016 0.0814,0.004 0.13074,-0.0105 0.0514,-0.0167 0.0712,-0.0234 l 0.0269,0.15104 q -0.0279,0.0121 -0.0967,0.0279 -0.069,0.0177 -0.15614,0.0131 -0.10269,-0.005 -0.16916,-0.0343 -0.0644,-0.0306 -0.10234,-0.0851 -0.0379,-0.0545 -0.0513,-0.13097 -0.0114,-0.0783 -0.006,-0.17908 l 0.0478,-0.89902 0.18184,-0.0214 z"
         id="path19191" /><path
         d="m -176.37576,281.66935 q -0.009,0.11995 -0.0512,0.21406 -0.0421,0.0941 -0.11124,0.15893 -0.0672,0.065 -0.15717,0.0971 -0.0898,0.0302 -0.19239,0.0224 -0.10254,-0.008 -0.18682,-0.0511 -0.0841,-0.0453 -0.14273,-0.11976 -0.0566,-0.0743 -0.0842,-0.1737 -0.0275,-0.0994 -0.0185,-0.21932 0.009,-0.11802 0.0511,-0.21213 0.0423,-0.096 0.10946,-0.16101 0.0691,-0.0648 0.15895,-0.095 0.09,-0.0321 0.19254,-0.0244 0.10254,0.008 0.18668,0.053 0.0843,0.0433 0.14093,0.11767 0.0586,0.0745 0.0859,0.17579 0.0275,0.0994 0.0186,0.21739 z m -0.18768,-0.0142 q 0.0129,-0.17026 -0.0571,-0.27478 -0.0679,-0.10631 -0.19942,-0.11625 -0.13156,-0.01 -0.21655,0.0848 -0.0829,0.093 -0.0958,0.26323 -0.0129,0.17026 0.055,0.27657 0.0699,0.10452 0.2015,0.11447 0.13156,0.01 0.21447,-0.083 0.085,-0.0948 0.0979,-0.26502 z"
         id="path19193" /><path
         d="m -175.72645,282.25867 q -0.12172,-0.0113 -0.21088,-0.0585 -0.0872,-0.047 -0.14455,-0.1225 -0.0554,-0.0753 -0.0775,-0.1728 -0.022,-0.0995 -0.0112,-0.21539 0.0107,-0.11592 0.0525,-0.20948 0.0437,-0.0934 0.11199,-0.15721 0.0684,-0.0658 0.16089,-0.0962 0.0946,-0.0322 0.20468,-0.022 0.0676,0.006 0.13417,0.0241 0.0665,0.0179 0.12605,0.0487 l -0.0547,0.14888 q -0.0388,-0.0231 -0.0918,-0.0397 -0.0511,-0.0164 -0.11098,-0.022 -0.1507,-0.014 -0.24061,0.0732 -0.088,0.0873 -0.10479,0.26895 -0.008,0.0811 0.004,0.15038 0.0131,0.0694 0.0472,0.12128 0.0361,0.0521 0.0954,0.0848 0.0595,0.0308 0.14838,0.0391 0.0715,0.007 0.13069,-0.002 0.0592,-0.008 0.0935,-0.0206 l 0.0112,0.15302 q -0.0164,0.008 -0.0462,0.0152 -0.0297,0.005 -0.0669,0.007 -0.0374,0.004 -0.0803,0.004 -0.0411,0.002 -0.0797,-0.002 z"
         id="path19195" /><path
         d="m -175.26223,282.27993 0.1617,-1.46572 0.18276,-0.0111 -0.0566,0.513 q 0.0523,-0.0138 0.10926,-0.0172 0.0591,-0.005 0.11506,9.8e-4 0.11957,0.0132 0.19482,0.0566 0.0754,0.0415 0.11493,0.10833 0.0416,0.0651 0.0515,0.15209 0.01,0.087 -0.001,0.1892 l -0.0621,0.56314 -0.17936,-0.0198 0.0579,-0.52458 q 0.0102,-0.0926 0.004,-0.15963 -0.004,-0.0668 -0.0288,-0.11054 -0.0245,-0.0437 -0.0708,-0.0664 -0.0461,-0.0246 -0.11744,-0.0325 -0.0289,-0.003 -0.0602,-0.003 -0.0313,4.6e-4 -0.0608,0.003 -0.0274,8.8e-4 -0.0512,0.004 -0.0219,0.003 -0.0319,0.006 l -0.0919,0.83315 z"
         id="path19197" /><path
         d="m -173.07596,282.44975 q -0.0252,0.0121 -0.096,0.0276 -0.0686,0.0138 -0.15695,10e-4 -0.0903,-0.0127 -0.16692,-0.053 -0.0747,-0.0399 -0.12585,-0.10791 -0.0509,-0.0699 -0.0727,-0.16507 -0.0218,-0.0952 -0.004,-0.22006 0.0155,-0.10951 0.0609,-0.1952 0.0457,-0.0876 0.11639,-0.14424 0.0729,-0.0583 0.16834,-0.082 0.0957,-0.0257 0.20908,-0.01 0.12488,0.0176 0.21438,0.0499 0.0917,0.0306 0.15293,0.0549 l -0.12588,0.89145 q -0.0326,0.23054 -0.16632,0.31747 -0.13376,0.0869 -0.37584,0.0527 -0.0941,-0.0133 -0.1765,-0.0406 -0.0804,-0.027 -0.13894,-0.0568 l 0.0546,-0.151 q 0.0508,0.0287 0.12549,0.055 0.0763,0.0284 0.16086,0.0403 0.15946,0.0225 0.23758,-0.0311 0.08,-0.0534 0.0996,-0.19169 z m 0.10279,-0.74186 q -0.0258,-0.0115 -0.0711,-0.0238 -0.0431,-0.0139 -0.11996,-0.0248 -0.14409,-0.0204 -0.23615,0.0627 -0.0901,0.0833 -0.11212,0.23891 -0.0122,0.0865 2.5e-4,0.15091 0.0144,0.0647 0.0452,0.11024 0.0327,0.0458 0.078,0.0718 0.0472,0.0263 0.0991,0.0336 0.0711,0.01 0.13336,-7.7e-4 0.0625,-0.0127 0.10092,-0.0347 z"
         id="path19199" /><path
         d="m -171.80938,282.72525 q -0.0638,0.005 -0.1681,0.005 -0.10239,5.7e-4 -0.23444,-0.0215 -0.11482,-0.0192 -0.18784,-0.0649 -0.0727,-0.0476 -0.11029,-0.11681 -0.0376,-0.0692 -0.0449,-0.15505 -0.007,-0.0877 0.01,-0.18915 l 0.0935,-0.5588 0.17797,0.0298 -0.0871,0.52052 q -0.0304,0.1818 0.0139,0.26986 0.0443,0.0881 0.18015,0.1108 0.0287,0.005 0.0597,0.008 0.0309,0.003 0.058,0.006 0.0274,6.6e-4 0.0488,0.002 0.0236,2e-5 0.0338,-0.002 l 0.14056,-0.8401 0.17797,0.0298 z"
         id="path19201" /><path
         d="m -171.21501,282.88684 q -0.16321,-0.0349 -0.21918,-0.11466 -0.056,-0.0797 -0.0292,-0.22081 l 0.22572,-1.18951 0.18307,0.003 -0.22608,1.19142 q -0.008,0.0438 -0.006,0.0739 0.002,0.03 0.0161,0.0505 0.0139,0.0204 0.0407,0.0354 0.0271,0.0131 0.068,0.0267 z"
         id="path19203" /><path
         d="m -170.61682,281.95901 0.37399,0.079 -0.0313,0.14808 -0.37399,-0.0789 -0.0962,0.45563 q -0.0156,0.074 -0.0147,0.1258 0.001,0.0499 0.0181,0.0831 0.0172,0.0314 0.0489,0.05 0.0318,0.0186 0.0773,0.0282 0.0797,0.0168 0.1308,0.01 0.0534,-0.009 0.0739,-0.0121 l 0.003,0.15339 q -0.0294,0.008 -0.0998,0.0126 -0.0709,0.007 -0.15628,-0.0112 -0.10062,-0.0212 -0.16186,-0.0599 -0.0589,-0.0402 -0.088,-0.0999 -0.0291,-0.0597 -0.0305,-0.13732 8.4e-4,-0.0792 0.0217,-0.17787 l 0.18596,-0.88087 0.18297,0.007 z"
         id="path19205" /><path
         d="m -169.5295,283.11599 q 0.10681,0.0287 0.16496,0.0142 0.06,-0.014 0.0766,-0.0759 0.0171,-0.0637 -0.0234,-0.11478 -0.0405,-0.0511 -0.14413,-0.12912 -0.0502,-0.0376 -0.0966,-0.0742 -0.0441,-0.0379 -0.073,-0.0799 -0.0289,-0.0419 -0.0393,-0.0929 -0.0104,-0.051 0.007,-0.11659 0.0347,-0.1293 0.15043,-0.17859 0.1162,-0.0512 0.2811,-0.007 0.0412,0.0111 0.0809,0.0278 0.0402,0.0148 0.0738,0.0319 0.0341,0.0152 0.0583,0.0297 0.0261,0.0151 0.0396,0.0247 l -0.0721,0.14135 q -0.0241,-0.0225 -0.08,-0.0536 -0.0554,-0.033 -0.13976,-0.0556 -0.0731,-0.0196 -0.13547,-0.004 -0.0619,0.0135 -0.0785,0.0754 -0.009,0.0319 -0.004,0.0592 0.007,0.0279 0.0254,0.055 0.0212,0.0258 0.0542,0.0527 0.0329,0.0269 0.0804,0.0598 0.0623,0.0449 0.10959,0.0857 0.0478,0.039 0.0762,0.0828 0.0303,0.0443 0.0378,0.0986 0.008,0.0524 -0.0106,0.12171 -0.0362,0.13492 -0.15605,0.17708 -0.11793,0.0426 -0.30345,-0.007 -0.12929,-0.0347 -0.19634,-0.0768 -0.0675,-0.0402 -0.0907,-0.0585 l 0.0721,-0.14136 q 0.027,0.0193 0.0865,0.0594 0.0596,0.0401 0.16823,0.0693 z"
         id="path19207" /><path
         d="m -167.94524,283.21876 q -0.0385,0.11395 -0.10271,0.19467 -0.0642,0.0807 -0.14719,0.12636 -0.0812,0.0463 -0.17634,0.0551 -0.0945,0.007 -0.19193,-0.026 -0.0974,-0.033 -0.16832,-0.0958 -0.0703,-0.0647 -0.10856,-0.15141 -0.0364,-0.0861 -0.0384,-0.18915 -0.002,-0.10309 0.0365,-0.21705 0.0379,-0.11212 0.10208,-0.19283 0.0648,-0.0826 0.14598,-0.12883 0.083,-0.0457 0.17756,-0.0526 0.0951,-0.009 0.19255,0.0242 0.0974,0.0329 0.1677,0.0977 0.0709,0.0629 0.10734,0.14895 0.0383,0.0867 0.0397,0.19161 0.002,0.10309 -0.0359,0.21521 z m -0.17829,-0.0603 q 0.0547,-0.16174 0.0129,-0.28035 -0.0394,-0.11982 -0.16435,-0.16208 -0.12498,-0.0423 -0.23083,0.0284 -0.10338,0.0695 -0.15808,0.23124 -0.0547,0.16175 -0.0153,0.28157 0.0418,0.1186 0.16681,0.16087 0.12498,0.0423 0.22836,-0.0272 0.10585,-0.0707 0.16055,-0.23246 z"
         id="path19209" /><path
         d="m -167.5266,282.87891 q 0.0636,0.007 0.16433,0.0254 0.10253,0.0192 0.22814,0.0655 0.091,0.0336 0.14352,0.0819 0.0532,0.0465 0.0776,0.10926 0.0161,-0.004 0.0494,-0.0107 0.0333,-0.006 0.0788,-0.006 0.0461,-0.002 0.0993,0.006 0.0539,0.005 0.11028,0.0262 0.10923,0.0403 0.16632,0.0985 0.0578,0.0565 0.0745,0.12881 0.0186,0.073 0.002,0.15782 -0.015,0.0855 -0.0499,0.18013 l -0.19601,0.53158 -0.1693,-0.0624 0.18259,-0.49517 q 0.0309,-0.0837 0.0439,-0.14717 0.0149,-0.0628 0.006,-0.11154 -0.007,-0.0481 -0.0404,-0.0811 -0.0308,-0.0341 -0.0927,-0.0569 -0.0856,-0.0315 -0.15072,-0.0287 -0.0627,0.002 -0.0894,0.0125 -0.003,0.0527 -0.0164,0.11182 -0.0135,0.0591 -0.0364,0.12102 l -0.19601,0.53157 -0.1693,-0.0624 0.18259,-0.49516 q 0.0309,-0.0837 0.0439,-0.14717 0.013,-0.0634 0.004,-0.11221 -0.007,-0.0481 -0.0404,-0.0811 -0.0308,-0.0341 -0.0909,-0.0563 -0.0255,-0.009 -0.0553,-0.0183 -0.0298,-0.009 -0.0584,-0.0154 -0.0262,-0.008 -0.0494,-0.012 -0.0232,-0.004 -0.0311,-0.005 l -0.29469,0.79918 -0.1693,-0.0624 z"
         id="path19211" /><path
         d="m -165.52315,284.50894 q 0.0604,0.0212 0.10685,0.0354 0.0489,0.013 0.0826,0.0166 l 0.0994,-0.28383 q -0.0151,-0.0156 -0.0553,-0.0358 -0.0377,-0.0214 -0.0963,-0.042 -0.0385,-0.0135 -0.0843,-0.0234 -0.044,-0.009 -0.0871,-0.004 -0.0406,0.004 -0.0753,0.0271 -0.0341,0.021 -0.0514,0.0704 -0.0321,0.0916 0.0137,0.14871 0.0464,0.0553 0.14713,0.0906 z m 0.28429,-0.85845 q 0.10254,0.0359 0.1625,0.0878 0.0624,0.0506 0.0872,0.11485 0.0273,0.063 0.0219,0.13717 -0.005,0.0723 -0.033,0.15291 l -0.20849,0.59513 q -0.0233,-0.004 -0.0661,-0.0108 -0.0404,-0.008 -0.0917,-0.0198 -0.0514,-0.0118 -0.11125,-0.0287 -0.0587,-0.0144 -0.11545,-0.0343 -0.0806,-0.0282 -0.14255,-0.0684 -0.062,-0.0402 -0.0992,-0.0923 -0.0366,-0.0539 -0.0436,-0.12217 -0.007,-0.0682 0.0219,-0.15062 0.0276,-0.0787 0.0786,-0.1246 0.0529,-0.0452 0.11997,-0.0608 0.0671,-0.0155 0.14615,-0.006 0.079,0.009 0.15959,0.0374 0.0256,0.009 0.0518,0.0223 0.0268,0.0115 0.0487,0.0253 0.0244,0.0127 0.0414,0.0227 0.017,0.0101 0.0237,0.0145 l 0.0167,-0.0476 q 0.0147,-0.0421 0.0197,-0.0856 0.006,-0.0453 -0.007,-0.0848 -0.0123,-0.0413 -0.048,-0.0744 -0.0332,-0.0343 -0.0992,-0.0573 -0.0842,-0.0295 -0.15282,-0.0391 -0.0661,-0.0108 -0.10173,-0.009 l 0.0293,-0.14805 q 0.0381,-0.003 0.11949,0.011 0.082,0.0123 0.17177,0.0437 z"
         id="path19213" /><path
         d="m -164.65179,284.96807 q -0.15662,-0.0577 -0.20072,-0.14456 -0.0441,-0.0869 0.002,-0.22272 l 0.39201,-1.14551 0.18078,0.029 -0.39264,1.14735 q -0.0144,0.0422 -0.0165,0.0723 -0.002,0.03 0.009,0.0522 0.0109,0.0222 0.0353,0.0408 0.025,0.0168 0.0635,0.0361 z"
         id="path19215" /><path
         d="m -164.14977,285.13747 q -0.1569,-0.0569 -0.20143,-0.14358 -0.0445,-0.0866 0.001,-0.22272 l 0.38634,-1.14744 0.18092,0.0282 -0.38696,1.14928 q -0.0142,0.0423 -0.0162,0.0723 -0.002,0.0301 0.009,0.0522 0.011,0.0221 0.0355,0.0406 0.0251,0.0166 0.0637,0.0358 z"
         id="path19217" /><path
         d="m -163.56334,285.17444 q 0.0608,0.02 0.10752,0.0333 0.0491,0.0121 0.0829,0.015 l 0.0939,-0.2857 q -0.0154,-0.0153 -0.056,-0.0348 -0.0381,-0.0207 -0.0971,-0.0401 -0.0387,-0.0127 -0.0848,-0.0217 -0.0442,-0.008 -0.0871,-0.002 -0.0405,0.005 -0.0747,0.0285 -0.0337,0.0216 -0.05,0.0714 -0.0303,0.0922 0.0166,0.14842 0.0475,0.0544 0.14885,0.0877 z m 0.26762,-0.8638 q 0.10322,0.0339 0.16417,0.0846 0.0634,0.0494 0.0894,0.11314 0.0285,0.0625 0.0245,0.13673 -0.003,0.0724 -0.03,0.15352 l -0.19693,0.59905 q -0.0233,-0.004 -0.0663,-0.01 -0.0405,-0.007 -0.0921,-0.018 -0.0516,-0.0108 -0.11178,-0.0265 -0.059,-0.0133 -0.1161,-0.032 -0.0811,-0.0267 -0.14385,-0.0657 -0.0627,-0.039 -0.101,-0.0904 -0.0376,-0.0532 -0.0459,-0.1213 -0.008,-0.0681 0.019,-0.15102 0.0261,-0.0793 0.0762,-0.12609 0.052,-0.0462 0.11877,-0.0631 0.0668,-0.0169 0.14599,-0.009 0.0792,0.008 0.16029,0.0343 0.0258,0.008 0.0522,0.0213 0.027,0.0109 0.0492,0.0243 0.0246,0.0122 0.0418,0.0219 0.0172,0.01 0.024,0.014 l 0.0157,-0.0479 q 0.0139,-0.0424 0.0181,-0.086 0.005,-0.0454 -0.009,-0.0846 -0.0131,-0.0411 -0.0494,-0.0734 -0.0339,-0.0336 -0.10024,-0.0554 -0.0848,-0.0279 -0.15355,-0.0362 -0.0663,-0.01 -0.10188,-0.007 l 0.0264,-0.1486 q 0.038,-0.004 0.11969,0.009 0.0823,0.0107 0.17258,0.0404 z"
         id="path19219" /><path
         d="m -162.27578,285.58891 q 0.1055,0.0332 0.16421,0.0211 0.0606,-0.0115 0.0798,-0.0725 0.0198,-0.0629 -0.0185,-0.11567 -0.0383,-0.0527 -0.13853,-0.13511 -0.0485,-0.0397 -0.0934,-0.0782 -0.0424,-0.0398 -0.0695,-0.0829 -0.0271,-0.0431 -0.0354,-0.0945 -0.008,-0.0514 0.0122,-0.11619 0.0402,-0.1277 0.15786,-0.17204 0.11826,-0.0462 0.28114,0.005 0.0407,0.0128 0.0797,0.0312 0.0395,0.0165 0.0724,0.035 0.0334,0.0166 0.057,0.0322 0.0254,0.0161 0.0385,0.0263 l -0.078,0.13817 q -0.0231,-0.0235 -0.0777,-0.057 -0.054,-0.0353 -0.13728,-0.0615 -0.0722,-0.0227 -0.13517,-0.01 -0.0624,0.0109 -0.0816,0.072 -0.01,0.0315 -0.006,0.059 0.005,0.0281 0.0231,0.0561 0.0201,0.0267 0.0519,0.055 0.0318,0.0283 0.0778,0.0631 0.0603,0.0475 0.10586,0.0903 0.0461,0.041 0.0726,0.0859 0.0284,0.0455 0.0336,0.10007 0.006,0.0527 -0.0157,0.12115 -0.0419,0.13327 -0.16341,0.17031 -0.11964,0.0376 -0.30288,-0.02 -0.12771,-0.0402 -0.1929,-0.0851 -0.0658,-0.0431 -0.0882,-0.0623 l 0.078,-0.13817 q 0.0261,0.0204 0.0839,0.063 0.0578,0.0426 0.16514,0.0764 z"
         id="path19221" /><path
         d="m -161.62029,285.40417 q 0.039,-0.12807 0.105,-0.21141 0.0665,-0.0852 0.14702,-0.12963 0.0805,-0.0444 0.1699,-0.0517 0.0894,-0.007 0.17295,0.0182 0.19488,0.0594 0.26148,0.21357 0.0672,0.15231 -0.009,0.40102 -0.003,0.0111 -0.009,0.0297 -0.005,0.0167 -0.0115,0.031 l -0.66073,-0.20138 q -0.0347,0.15373 0.0177,0.25487 0.0523,0.10115 0.21381,0.15036 0.091,0.0277 0.15672,0.0315 0.0682,0.003 0.10427,-0.003 l -0.02,0.15212 q -0.0367,0.007 -0.12211,0.001 -0.0836,-0.005 -0.18383,-0.0357 -0.12621,-0.0385 -0.2077,-0.10387 -0.0791,-0.0667 -0.11809,-0.15161 -0.039,-0.0849 -0.041,-0.18492 4.4e-4,-0.10128 0.0338,-0.21078 z m 0.69144,0.10728 q 0.0375,-0.11636 -10e-4,-0.20926 -0.0362,-0.0942 -0.14199,-0.12644 -0.0594,-0.0181 -0.11314,-0.008 -0.0513,0.009 -0.0942,0.0362 -0.0429,0.0275 -0.0761,0.0701 -0.0314,0.0432 -0.0523,0.0916 z"
         id="path19223" /><path
         d="m -160.02507,285.33341 q 0.0223,0.007 0.0491,0.0186 0.0292,0.0107 0.0555,0.0245 0.0268,0.012 0.0475,0.0242 0.0231,0.0109 0.0331,0.0179 l -0.0744,0.14187 q -0.0183,-0.0135 -0.0639,-0.0371 -0.0432,-0.0249 -0.11762,-0.047 -0.0484,-0.0143 -0.10005,-0.0175 -0.0493,-0.004 -0.0653,-0.005 l -0.2408,0.81299 -0.17302,-0.0513 0.27442,-0.92647 q 0.068,-0.004 0.16468,0.004 0.0972,0.007 0.2107,0.0402 z"
         id="path19225" /><path
         d="m -159.82461,286.35587 q -0.0146,0.0503 -0.059,0.0778 -0.0444,0.0275 -0.10213,0.0107 -0.0578,-0.0168 -0.0805,-0.0638 -0.0227,-0.047 -0.008,-0.0973 0.0146,-0.0503 0.059,-0.0778 0.0444,-0.0275 0.10213,-0.0107 0.0577,0.0168 0.0805,0.0638 0.0227,0.047 0.008,0.0973 z"
         id="path19227" /><path
         d="m -158.81183,286.7646 q -0.0393,-0.0109 -0.0855,-0.0258 -0.0444,-0.0143 -0.09,-0.0311 -0.0438,-0.0162 -0.0871,-0.0343 -0.0433,-0.0181 -0.0781,-0.0378 l 0.34915,-1.25625 q 0.04,0.001 0.0864,0.008 0.0464,0.007 0.0923,0.0156 0.0478,0.009 0.0932,0.0199 0.0454,0.0106 0.0846,0.0215 0.11217,0.0312 0.2047,0.075 0.0944,0.0444 0.15401,0.10523 0.062,0.0595 0.0849,0.13638 0.023,0.0769 -0.004,0.1722 -0.0296,0.10656 -0.0993,0.1617 -0.0692,0.0533 -0.16266,0.0635 0.10468,0.0653 0.15172,0.15696 0.047,0.0916 0.0102,0.22434 -0.054,0.19442 -0.22552,0.25349 -0.16909,0.0577 -0.47942,-0.0285 z m 8.2e-4,-0.66232 -0.12677,0.45614 q 0.02,0.008 0.0476,0.0172 0.0238,0.009 0.055,0.0193 0.0336,0.009 0.0766,0.0213 0.0804,0.0223 0.15403,0.0327 0.076,0.009 0.13751,-0.002 0.0615,-0.0111 0.10625,-0.049 0.0466,-0.0374 0.0664,-0.10842 0.0177,-0.0636 0.005,-0.11331 -0.0118,-0.0516 -0.0513,-0.0908 -0.0376,-0.0386 -0.098,-0.0675 -0.0605,-0.0289 -0.13896,-0.0507 z m 0.0405,-0.14582 0.19068,0.053 q 0.0673,0.0187 0.12972,0.026 0.0624,0.007 0.11217,-0.005 0.0516,-0.0118 0.0868,-0.0443 0.0371,-0.032 0.0537,-0.0918 0.0156,-0.0561 -2e-4,-0.10074 -0.0153,-0.0465 -0.0558,-0.082 -0.0381,-0.0368 -0.0967,-0.0651 -0.0586,-0.0284 -0.12775,-0.0476 -0.0692,-0.0192 -0.10894,-0.0283 -0.0398,-0.009 -0.0726,-0.0141 z"
         id="path19229" /><path
         d="m -157.60336,286.94761 q 0.0619,0.0165 0.10923,0.0272 0.0497,0.009 0.0836,0.0103 l 0.0776,-0.29055 q -0.0162,-0.0144 -0.0579,-0.0315 -0.0392,-0.0185 -0.0992,-0.0345 -0.0394,-0.0105 -0.0859,-0.0169 -0.0446,-0.006 -0.0871,0.003 -0.0401,0.007 -0.073,0.0327 -0.0324,0.0235 -0.0459,0.0741 -0.025,0.0937 0.0249,0.14725 0.0505,0.0516 0.15357,0.0792 z m 0.21831,-0.87756 q 0.10498,0.028 0.1687,0.0752 0.0661,0.0458 0.0957,0.1079 0.032,0.0608 0.0322,0.13512 7.2e-4,0.0725 -0.0213,0.15497 l -0.16272,0.60924 q -0.0235,-0.002 -0.0667,-0.006 -0.0409,-0.005 -0.093,-0.0128 -0.0521,-0.008 -0.1131,-0.0202 -0.0596,-0.01 -0.11773,-0.0254 -0.0825,-0.022 -0.14733,-0.0574 -0.0649,-0.0354 -0.10596,-0.0845 -0.0406,-0.051 -0.0527,-0.1185 -0.0121,-0.0675 0.0104,-0.15185 0.0215,-0.0806 0.0689,-0.13021 0.0493,-0.0491 0.11502,-0.0697 0.0658,-0.0206 0.14524,-0.0174 0.0795,0.003 0.16197,0.0252 0.0262,0.007 0.0534,0.0183 0.0276,0.009 0.0505,0.0215 0.0252,0.0108 0.043,0.0195 0.0177,0.009 0.0247,0.0126 l 0.013,-0.0487 q 0.0115,-0.0431 0.0132,-0.0869 0.002,-0.0456 -0.0137,-0.084 -0.0154,-0.0403 -0.0535,-0.0705 -0.0357,-0.0316 -0.10321,-0.0497 -0.0862,-0.023 -0.15535,-0.0274 -0.0667,-0.006 -0.10211,-0.001 l 0.0179,-0.14985 q 0.0377,-0.006 0.11998,0.002 0.0827,0.006 0.17459,0.0306 z"
         id="path19231" /><path
         d="m -156.7441,286.29624 q 0.064,4.2e-4 0.16795,0.009 0.10394,0.009 0.23361,0.042 0.11651,0.03 0.18486,0.0836 0.0688,0.0518 0.0985,0.12348 0.032,0.0703 0.0295,0.15784 -0.002,0.0875 -0.0281,0.18712 l -0.14103,0.54872 -0.17477,-0.0449 0.13137,-0.51115 q 0.0232,-0.0902 0.0265,-0.15747 0.005,-0.0668 -0.0129,-0.1135 -0.018,-0.0467 -0.0607,-0.0757 -0.0421,-0.0309 -0.11168,-0.0487 -0.0282,-0.007 -0.0587,-0.0131 -0.0306,-0.006 -0.0597,-0.009 -0.0268,-0.005 -0.0503,-0.007 -0.0216,-0.002 -0.0315,-0.002 l -0.21202,0.82497 -0.17477,-0.0449 z"
         id="path19233" /><path
         d="m -155.54621,287.47655 q 0.0622,0.0154 0.10972,0.0251 0.0499,0.008 0.0838,0.009 l 0.0721,-0.29196 q -0.0165,-0.0141 -0.0584,-0.0304 -0.0396,-0.0178 -0.0999,-0.0327 -0.0395,-0.01 -0.0862,-0.0153 -0.0447,-0.005 -0.087,0.004 -0.04,0.008 -0.0724,0.0341 -0.0319,0.0241 -0.0445,0.0749 -0.0233,0.0942 0.0277,0.14675 0.0514,0.0507 0.15503,0.0763 z m 0.20181,-0.8815 q 0.10548,0.0261 0.17008,0.072 0.0669,0.0445 0.0977,0.10609 0.0331,0.0601 0.0347,0.13449 0.002,0.0725 -0.0184,0.15535 l -0.15125,0.61218 q -0.0235,-0.002 -0.0668,-0.005 -0.041,-0.004 -0.0932,-0.011 -0.0523,-0.007 -0.11346,-0.018 -0.0598,-0.009 -0.11818,-0.0232 -0.0829,-0.0205 -0.14839,-0.0547 -0.0655,-0.0342 -0.10752,-0.0825 -0.0416,-0.0502 -0.0549,-0.1175 -0.0134,-0.0673 0.008,-0.15202 0.02,-0.081 0.0665,-0.13148 0.0483,-0.05 0.11369,-0.0718 0.0653,-0.0218 0.14488,-0.0202 0.0795,0.002 0.16242,0.0221 0.0264,0.007 0.0537,0.0173 0.0278,0.009 0.0509,0.0206 0.0254,0.0103 0.0434,0.0187 0.0179,0.008 0.025,0.0122 l 0.0121,-0.049 q 0.0107,-0.0433 0.0115,-0.0871 10e-4,-0.0457 -0.0153,-0.0837 -0.0161,-0.04 -0.0548,-0.0695 -0.0363,-0.031 -0.10413,-0.0477 -0.0866,-0.0214 -0.15584,-0.0245 -0.0668,-0.005 -0.10211,7.5e-4 l 0.0151,-0.15016 q 0.0376,-0.007 0.12,-3.3e-4 0.0828,0.004 0.17514,0.0273 z"
         id="path19235" /><path
         d="m -154.69914,286.80924 q 0.064,-7.7e-4 0.16808,0.006 0.10409,0.007 0.23436,0.0376 0.11704,0.0278 0.18638,0.0801 0.0698,0.0505 0.10077,0.12162 0.0333,0.0697 0.0325,0.15727 -8.3e-4,0.0875 -0.0246,0.1876 l -0.1308,0.55126 -0.17557,-0.0417 0.12184,-0.5135 q 0.0215,-0.0906 0.0235,-0.15794 0.004,-0.0669 -0.015,-0.11324 -0.0189,-0.0464 -0.0621,-0.0745 -0.0427,-0.0301 -0.11257,-0.0466 -0.0283,-0.007 -0.059,-0.012 -0.0307,-0.005 -0.0599,-0.008 -0.0269,-0.004 -0.0504,-0.006 -0.0217,-0.001 -0.0316,-0.002 l -0.19664,0.82878 -0.17557,-0.0417 z"
         id="path19237" /><path
         d="m -153.3624,287.55798 q 0.0468,0.0564 0.0946,0.13498 0.0497,0.079 0.093,0.16844 0.0456,0.088 0.0828,0.17807 0.0376,0.0882 0.0604,0.163 l -0.20621,-0.047 q -0.0246,-0.0753 -0.0621,-0.15543 -0.0351,-0.0816 -0.0777,-0.157 -0.0421,-0.0772 -0.0887,-0.14358 -0.0466,-0.0663 -0.0914,-0.11435 l -0.10775,0.47296 -0.17594,-0.0401 0.32757,-1.43777 0.18283,0.01 -0.2043,0.89671 q 0.0558,-0.0351 0.12311,-0.0774 0.0674,-0.0424 0.13326,-0.087 0.0659,-0.0447 0.12484,-0.085 0.0594,-0.0422 0.10246,-0.0742 l 0.20621,0.047 q -0.0543,0.0374 -0.1183,0.0825 -0.064,0.0451 -0.13223,0.0913 -0.0678,0.0443 -0.13791,0.09 -0.0678,0.0442 -0.12861,0.0841 z"
         id="path19239" /><path
         d="m -151.93073,287.92668 q -0.0257,0.11752 -0.0805,0.20485 -0.0548,0.0873 -0.13228,0.14191 -0.0756,0.055 -0.16914,0.0743 -0.0932,0.0174 -0.19364,-0.005 -0.10046,-0.0219 -0.1779,-0.0766 -0.077,-0.0565 -0.12468,-0.13845 -0.0457,-0.0815 -0.0592,-0.18372 -0.0134,-0.10223 0.0122,-0.21975 0.0252,-0.11564 0.0801,-0.20297 0.0552,-0.0892 0.13079,-0.14422 0.0775,-0.0546 0.17063,-0.072 0.0936,-0.0193 0.19404,0.003 0.10047,0.0219 0.17749,0.0785 0.0774,0.0546 0.1232,0.13613 0.0477,0.0819 0.0607,0.18603 0.0134,0.10223 -0.0118,0.21787 z m -0.18387,-0.0402 q 0.0364,-0.16681 -0.0183,-0.28005 -0.0524,-0.11471 -0.1813,-0.14286 -0.1289,-0.0282 -0.22625,0.0539 -0.095,0.0805 -0.13147,0.24735 -0.0364,0.16681 0.016,0.28153 0.0547,0.11323 0.18362,0.14138 0.1289,0.0282 0.22394,-0.0524 0.0974,-0.082 0.13378,-0.24883 z"
         id="path19241" /><path
         d="m -151.58984,287.51297 q 0.064,-0.003 0.16819,10e-4 0.10423,0.004 0.2353,0.0312 0.11777,0.0245 0.18852,0.075 0.0711,0.0485 0.10408,0.11879 0.0352,0.0688 0.0368,0.15632 0.002,0.0875 -0.0194,0.18821 l -0.11555,0.55465 -0.17666,-0.0368 0.10765,-0.51666 q 0.019,-0.0912 0.0191,-0.15853 0.002,-0.067 -0.0181,-0.11278 -0.0202,-0.0458 -0.0641,-0.0728 -0.0435,-0.0289 -0.11381,-0.0435 -0.0285,-0.006 -0.0593,-0.0104 -0.0308,-0.004 -0.0601,-0.007 -0.027,-0.004 -0.0506,-0.005 -0.0217,-5.5e-4 -0.0316,-6.3e-4 l -0.17374,0.83388 -0.17665,-0.0368 z"
         id="path19243" /><path
         d="m -150.33559,287.74126 0.37481,0.075 -0.0297,0.1484 -0.37481,-0.075 -0.0913,0.45662 q -0.0148,0.0742 -0.0133,0.12595 0.002,0.0498 0.019,0.0829 0.0175,0.0312 0.0495,0.0495 0.032,0.0183 0.0776,0.0274 0.0799,0.016 0.13089,0.008 0.0533,-0.009 0.0738,-0.0129 l 0.005,0.15335 q -0.0293,0.008 -0.0997,0.0137 -0.0708,0.008 -0.15639,-0.01 -0.10084,-0.0202 -0.16248,-0.0582 -0.0594,-0.0396 -0.089,-0.0989 -0.0297,-0.0594 -0.032,-0.13699 0,-0.0792 0.0198,-0.17808 l 0.17659,-0.8828 0.18303,0.005 z"
         id="path19245" /><path
         d="m -149.57413,288.78658 q 0.0629,0.0121 0.11087,0.0193 0.0503,0.006 0.0841,0.004 l 0.0568,-0.29533 q -0.0172,-0.0132 -0.0599,-0.0273 -0.0405,-0.0157 -0.10143,-0.0274 -0.04,-0.008 -0.0868,-0.0108 -0.0449,-0.003 -0.0867,0.009 -0.0395,0.0102 -0.0705,0.0378 -0.0306,0.0257 -0.0405,0.0772 -0.0183,0.0953 0.0353,0.1451 0.054,0.0479 0.15881,0.0681 z m 0.15546,-0.89084 q 0.1067,0.0205 0.17361,0.063 0.0692,0.041 0.10311,0.10083 0.0362,0.0583 0.0417,0.13249 0.006,0.0723 -0.0102,0.1561 l -0.11906,0.61925 q -0.0236,-5.9e-4 -0.067,-10e-4 -0.0411,-0.002 -0.0936,-0.006 -0.0526,-0.004 -0.11425,-0.0121 -0.0602,-0.006 -0.11924,-0.017 -0.0838,-0.0161 -0.15104,-0.0468 -0.0672,-0.0307 -0.11168,-0.0768 -0.0441,-0.048 -0.061,-0.11447 -0.0169,-0.0665 -3.7e-4,-0.15221 0.0157,-0.0819 0.0595,-0.13477 0.0457,-0.0525 0.10978,-0.0777 0.0641,-0.0252 0.14363,-0.0277 0.0795,-0.002 0.16335,0.0136 0.0267,0.005 0.0545,0.0144 0.0282,0.007 0.0519,0.0179 0.0259,0.009 0.0443,0.0164 0.0183,0.007 0.0256,0.0108 l 0.01,-0.0495 q 0.008,-0.0438 0.007,-0.0876 -0.001,-0.0457 -0.0196,-0.0828 -0.0182,-0.0391 -0.0583,-0.0665 -0.0379,-0.029 -0.10648,-0.0422 -0.0876,-0.0168 -0.1569,-0.0163 -0.067,-0.001 -0.10194,0.006 l 0.007,-0.15075 q 0.0372,-0.009 0.11982,-0.007 0.0829,1.4e-4 0.17632,0.0181 z"
         id="path19247" /><path
         d="m -148.48011,288.5598 q 0.0492,0.0544 0.10026,0.13085 0.053,0.0768 0.10003,0.16434 0.0493,0.086 0.0903,0.17439 0.0413,0.0865 0.0672,0.1603 l -0.20801,-0.0382 q -0.0278,-0.0742 -0.0686,-0.15266 -0.0386,-0.0801 -0.0843,-0.15355 -0.0453,-0.0754 -0.0947,-0.13969 -0.0494,-0.0643 -0.0961,-0.11037 l -0.0876,0.4771 -0.17748,-0.0326 0.26623,-1.45038 0.18309,0.002 -0.16605,0.90458 q 0.0542,-0.0374 0.11972,-0.0826 0.0655,-0.0452 0.12944,-0.0926 0.064,-0.0474 0.12111,-0.0902 0.0575,-0.0447 0.0992,-0.0784 l 0.20802,0.0382 q -0.0527,0.0397 -0.11469,0.0875 -0.062,0.0478 -0.12824,0.0968 -0.0659,0.0471 -0.13396,0.0957 -0.0659,0.0471 -0.12493,0.0895 z"
         id="path19249" /><path
         d="m -147.60149,288.25662 0.37645,0.0662 -0.0262,0.14905 -0.37645,-0.0662 -0.0807,0.45863 q -0.0131,0.0745 -0.0104,0.12622 0.003,0.0498 0.0209,0.0825 0.0182,0.0308 0.0506,0.0483 0.0324,0.0175 0.0782,0.0256 0.0803,0.0141 0.13105,0.005 0.0531,-0.0104 0.0735,-0.0146 l 0.008,0.15319 q -0.0291,0.009 -0.0993,0.016 -0.0706,0.009 -0.15657,-0.006 -0.10128,-0.0178 -0.16379,-0.0544 -0.0603,-0.0382 -0.0913,-0.0968 -0.031,-0.0587 -0.0351,-0.13621 -0.002,-0.0791 0.0156,-0.17849 l 0.15601,-0.88667 0.1831,6.9e-4 z"
         id="path19251" /><path
         d="m -146.37424,289.35762 q 0.0632,0.0104 0.11135,0.0164 0.0504,0.004 0.0842,0.002 l 0.0489,-0.29674 q -0.0176,-0.0127 -0.0606,-0.0257 -0.0409,-0.0146 -0.10212,-0.0247 -0.0402,-0.007 -0.0871,-0.008 -0.045,-0.002 -0.0864,0.0113 -0.0392,0.0112 -0.0695,0.0397 -0.0299,0.0265 -0.0385,0.0782 -0.0158,0.0957 0.0392,0.14411 0.0553,0.0465 0.16057,0.0638 z m 0.13171,-0.89466 q 0.10721,0.0177 0.17523,0.0584 0.0702,0.0391 0.10576,0.0981 0.0377,0.0573 0.0452,0.13134 0.008,0.0721 -0.006,0.15631 l -0.10255,0.6222 q -0.0236,4e-5 -0.067,7.6e-4 -0.0412,-8.8e-4 -0.0938,-0.004 -0.0526,-0.003 -0.11453,-0.009 -0.0603,-0.004 -0.11964,-0.0138 -0.0842,-0.0139 -0.15223,-0.0428 -0.068,-0.0289 -0.11369,-0.0738 -0.0454,-0.0468 -0.064,-0.11281 -0.0186,-0.066 -0.004,-0.15214 0.0136,-0.0823 0.0559,-0.13631 0.0442,-0.0537 0.10767,-0.0806 0.0634,-0.0269 0.14284,-0.0315 0.0794,-0.005 0.16366,0.009 0.0268,0.004 0.0549,0.013 0.0284,0.007 0.0523,0.0165 0.0262,0.008 0.0447,0.0152 0.0185,0.007 0.0259,0.0102 l 0.008,-0.0498 q 0.007,-0.044 0.005,-0.0877 -0.002,-0.0456 -0.0218,-0.0823 -0.0192,-0.0386 -0.0601,-0.065 -0.0386,-0.028 -0.10757,-0.0394 -0.0881,-0.0145 -0.15727,-0.0122 -0.067,7.6e-4 -0.10174,0.009 l 0.003,-0.15089 q 0.037,-0.01 0.1196,-0.01 0.0829,-0.002 0.17674,0.0134 z"
         id="path19253" /><path
         d="m -144.82706,288.71428 q -0.11861,0.26815 -0.26046,0.50909 -0.13993,0.24124 -0.2657,0.42971 l -0.16102,-0.0252 q -0.0621,-0.21791 -0.12343,-0.4907 -0.0594,-0.27248 -0.0903,-0.56406 l 0.19169,0.03 q 0.008,0.0975 0.0221,0.20968 0.0161,0.11054 0.034,0.22138 0.0202,0.10921 0.0413,0.21268 0.0211,0.10347 0.0417,0.18525 0.0446,-0.0716 0.0964,-0.16362 0.0517,-0.0921 0.10247,-0.19016 0.0529,-0.0997 0.10013,-0.20034 0.0494,-0.10224 0.0871,-0.19256 z"
         id="path19255" /><path
         d="m -144.04311,288.83078 0.37823,0.0552 -0.0218,0.14975 -0.37824,-0.0552 -0.0672,0.46079 q -0.0109,0.0749 -0.007,0.12648 0.005,0.0497 0.0233,0.0818 0.0191,0.0302 0.052,0.0468 0.0329,0.0166 0.079,0.0233 0.0806,0.0118 0.13115,0.001 0.0527,-0.0119 0.073,-0.0168 l 0.013,0.15287 q -0.0288,0.01 -0.0988,0.0189 -0.0703,0.0113 -0.15667,-0.001 -0.10176,-0.0149 -0.16532,-0.0496 -0.0614,-0.0364 -0.0941,-0.0941 -0.0328,-0.0577 -0.0391,-0.13512 -0.004,-0.079 0.0104,-0.17887 l 0.12997,-0.89086 0.18304,-0.005 z"
         id="path19257" /><path
         d="m -143.07221,288.94762 q 0.0231,0.003 0.0513,0.0111 0.0305,0.006 0.0585,0.016 0.0283,0.008 0.0505,0.0169 0.0244,0.007 0.0354,0.0128 l -0.0525,0.15135 q -0.0201,-0.0106 -0.0687,-0.0272 -0.0464,-0.0182 -0.1233,-0.029 -0.05,-0.007 -0.10153,-0.002 -0.0494,0.003 -0.0653,0.005 l -0.11734,0.83974 -0.17871,-0.025 0.13372,-0.95696 q 0.0666,-0.0142 0.16347,-0.0203 0.0971,-0.008 0.21434,0.008 z"
         id="path19259" /><path
         d="m -142.8318,289.51398 q 0.0176,-0.13272 0.069,-0.22572 0.0517,-0.0949 0.12385,-0.15193 0.0721,-0.057 0.15917,-0.0787 0.087,-0.0217 0.1736,-0.0103 0.20197,0.0267 0.29287,0.16795 0.0912,0.13929 0.057,0.39704 -0.002,0.0115 -0.004,0.0308 -0.002,0.0173 -0.006,0.0324 l -0.68477,-0.0907 q -0.009,0.15733 0.0591,0.24856 0.0682,0.0912 0.23551,0.11339 0.0943,0.0125 0.15977,0.005 0.0677,-0.009 0.10242,-0.0197 l 0.005,0.15335 q -0.035,0.013 -0.12025,0.0213 -0.0833,0.009 -0.1872,-0.005 -0.1308,-0.0173 -0.22188,-0.0685 -0.0889,-0.0529 -0.14128,-0.13027 -0.0524,-0.0774 -0.0707,-0.17572 -0.0161,-0.1 -0.001,-0.21348 z m 0.69967,-0.007 q 0.018,-0.12093 -0.0353,-0.20627 -0.0511,-0.087 -0.16075,-0.10153 -0.0615,-0.008 -0.11295,0.0105 -0.0492,0.017 -0.087,0.0511 -0.0378,0.0341 -0.0636,0.0816 -0.0239,0.0477 -0.0366,0.0989 z"
         id="path19261" /><path
         d="m -141.02201,289.45118 q -0.0294,-0.031 -0.0879,-0.0636 -0.0585,-0.0327 -0.1317,-0.0417 -0.077,-0.01 -0.13644,0.0125 -0.0572,0.0203 -0.0981,0.0661 -0.0406,0.0439 -0.0643,0.10935 -0.0237,0.0655 -0.0333,0.14252 -0.0217,0.17523 0.0531,0.28223 0.075,0.10506 0.21941,0.12292 0.0732,0.009 0.12203,0.009 0.051,-0.002 0.0789,-0.006 z m 0.0833,-0.67397 0.18289,-0.009 -0.18115,1.4654 q -0.0638,0.01 -0.16218,0.0151 -0.0984,0.005 -0.22359,-0.01 -0.11554,-0.0143 -0.20345,-0.0623 -0.0879,-0.048 -0.14504,-0.1235 -0.0571,-0.0755 -0.0818,-0.17629 -0.0225,-0.1025 -0.008,-0.22381 0.0143,-0.11554 0.0551,-0.20825 0.0427,-0.0925 0.10905,-0.15465 0.0663,-0.0622 0.1539,-0.0905 0.0895,-0.028 0.19732,-0.0147 0.0866,0.0107 0.14927,0.0419 0.0645,0.0314 0.0947,0.0567 z"
         id="path19263" /><path
         d="m -140.83814,290.64009 q -0.0231,-0.003 -0.0591,-0.0128 -0.0359,-0.0101 -0.0599,-0.0226 l 0.0403,-0.14375 q 0.0186,0.008 0.0432,0.0148 0.0246,0.007 0.0458,0.009 0.0925,0.0108 0.13782,-0.0425 0.047,-0.0511 0.0599,-0.16099 l 0.11545,-0.98474 0.17922,0.021 -0.11522,0.98282 q -0.0226,0.1927 -0.12208,0.27481 -0.0978,0.0843 -0.26545,0.0646 z m 0.43341,-1.514 q -0.0482,-0.006 -0.0793,-0.0405 -0.0289,-0.0366 -0.0226,-0.0906 0.006,-0.054 0.0427,-0.0809 0.0385,-0.0287 0.0867,-0.023 0.0482,0.006 0.0771,0.0422 0.0311,0.0349 0.0248,0.0889 -0.006,0.054 -0.0449,0.0827 -0.0364,0.027 -0.0846,0.0213 z"
         id="path19265" /><path
         d="m -140.14503,289.85037 q 0.0148,-0.13306 0.0643,-0.22712 0.0497,-0.096 0.12064,-0.15449 0.0709,-0.0585 0.15749,-0.0821 0.0866,-0.0236 0.17334,-0.0139 0.20248,0.0225 0.29633,0.16178 0.0941,0.13735 0.0653,0.39575 -0.001,0.0116 -0.003,0.0309 -0.002,0.0174 -0.006,0.0326 l -0.68651,-0.0763 q -0.006,0.15749 0.0643,0.24727 0.0701,0.0898 0.23784,0.10842 0.0945,0.0105 0.15984,0.002 0.0675,-0.0101 0.10199,-0.0219 l 0.008,0.1532 q -0.0347,0.0137 -0.11978,0.0238 -0.0831,0.0103 -0.18727,-10e-4 -0.13113,-0.0146 -0.22327,-0.0639 -0.09,-0.051 -0.14398,-0.12728 -0.054,-0.0763 -0.0743,-0.1742 -0.0182,-0.0996 -0.006,-0.21341 z m 0.69937,-0.0218 q 0.0154,-0.12127 -0.0396,-0.20548 -0.0529,-0.0859 -0.16284,-0.0981 -0.0617,-0.007 -0.1127,0.0129 -0.0489,0.018 -0.0859,0.0529 -0.0371,0.0349 -0.0619,0.0829 -0.0229,0.0482 -0.0345,0.0996 z"
         id="path19267" /><path
         d="m -137.98129,290.4831 q -0.0247,0.0131 -0.0948,0.0315 -0.0679,0.0167 -0.15676,0.008 -0.0907,-0.009 -0.16896,-0.046 -0.0763,-0.0368 -0.1302,-0.10262 -0.0537,-0.0677 -0.0795,-0.16192 -0.0257,-0.0942 -0.0133,-0.2197 0.0109,-0.11006 0.0528,-0.19754 0.042,-0.0894 0.11033,-0.14894 0.0704,-0.0613 0.16482,-0.0889 0.0946,-0.0296 0.20849,-0.0183 0.1255,0.0125 0.21626,0.041 0.0929,0.0268 0.15507,0.0485 l -0.0889,0.89588 q -0.023,0.2317 -0.15306,0.32408 -0.13006,0.0924 -0.37334,0.0682 -0.0946,-0.009 -0.17803,-0.0333 -0.0815,-0.0237 -0.14117,-0.0511 l 0.0483,-0.15314 q 0.0519,0.0266 0.12765,0.0497 0.0774,0.0252 0.16239,0.0337 0.16026,0.0159 0.23609,-0.0409 0.0778,-0.0566 0.0916,-0.19564 z m 0.0721,-0.74548 q -0.0263,-0.0104 -0.072,-0.0208 -0.0436,-0.0121 -0.12087,-0.0198 -0.14481,-0.0144 -0.23337,0.0724 -0.0866,0.0869 -0.10215,0.24333 -0.009,0.0869 0.006,0.15078 0.017,0.0641 0.0497,0.10828 0.0346,0.0444 0.081,0.0685 0.0483,0.0243 0.10041,0.0295 0.0714,0.007 0.13321,-0.006 0.062,-0.0153 0.0994,-0.0389 z"
         id="path19269" /><path
         d="m -137.03884,289.63835 q 0.0232,0.002 0.0518,0.009 0.0307,0.005 0.0592,0.0133 0.0286,0.007 0.0513,0.0145 0.0248,0.006 0.036,0.0111 l -0.0453,0.15365 q -0.0205,-0.01 -0.0699,-0.024 -0.0472,-0.016 -0.12452,-0.0232 -0.0502,-0.005 -0.10154,0.002 -0.0492,0.005 -0.065,0.008 l -0.0779,0.84432 -0.17968,-0.0166 0.0887,-0.96218 q 0.0659,-0.0173 0.16235,-0.0279 0.0966,-0.0125 0.21449,-0.002 z"
         id="path19271" /><path
         d="m -136.40732,290.59786 q 0.0638,0.005 0.11229,0.008 0.0506,4.4e-4 0.0841,-0.004 l 0.0257,-0.29964 q -0.0185,-0.0113 -0.0625,-0.0209 -0.0419,-0.0114 -0.10373,-0.0167 -0.0406,-0.003 -0.0875,-0.002 -0.045,0.002 -0.0853,0.018 -0.0382,0.0143 -0.0662,0.045 -0.0278,0.0288 -0.0323,0.081 -0.008,0.0967 0.0503,0.14063 0.0587,0.042 0.16504,0.0511 z m 0.0617,-0.9022 q 0.10826,0.009 0.17924,0.0446 0.0731,0.0335 0.11307,0.0895 0.0421,0.0542 0.0553,0.12743 0.0134,0.0713 0.006,0.15631 l -0.0538,0.62829 q -0.0235,0.002 -0.0667,0.006 -0.0411,0.002 -0.0938,0.004 -0.0527,10e-4 -0.11489,-1e-4 -0.0604,6.6e-4 -0.12035,-0.004 -0.0851,-0.007 -0.1551,-0.0308 -0.07,-0.0235 -0.11909,-0.0647 -0.0489,-0.0431 -0.0726,-0.10748 -0.0237,-0.0643 -0.0162,-0.15134 0.007,-0.0831 0.0451,-0.14024 0.0399,-0.0569 0.10108,-0.0887 0.0611,-0.0318 0.13996,-0.0425 0.0788,-0.0108 0.16388,-0.003 0.0271,0.002 0.0557,0.009 0.0288,0.004 0.0535,0.0124 0.0267,0.006 0.0457,0.0117 0.019,0.006 0.0266,0.008 l 0.004,-0.0503 q 0.004,-0.0445 -0.002,-0.0878 -0.006,-0.0453 -0.0282,-0.0803 -0.0221,-0.0369 -0.0649,-0.0601 -0.0407,-0.0249 -0.11031,-0.0309 -0.0889,-0.008 -0.15775,1.2e-4 -0.0667,0.006 -0.10074,0.0167 l -0.009,-0.15067 q 0.0361,-0.0125 0.11848,-0.0191 0.0825,-0.009 0.17724,-4e-4 z"
         id="path19273" /><path
         d="m -135.03781,290.04109 q -0.0308,-0.0296 -0.0907,-0.0596 -0.06,-0.03 -0.13346,-0.0357 -0.0774,-0.006 -0.13573,0.0186 -0.0563,0.0229 -0.095,0.0705 -0.0386,0.0457 -0.0593,0.11216 -0.0207,0.0665 -0.0267,0.14388 -0.0137,0.17604 0.0659,0.27952 0.0797,0.10155 0.22477,0.11283 0.0735,0.006 0.12232,0.004 0.0509,-0.004 0.0786,-0.009 z m 0.0526,-0.67706 0.18231,-0.017 -0.11437,1.47212 q -0.0633,0.0126 -0.16133,0.0225 -0.0981,0.01 -0.22381,1.3e-4 -0.11607,-0.009 -0.20607,-0.053 -0.09,-0.044 -0.15051,-0.11678 -0.0605,-0.0728 -0.0898,-0.17239 -0.0272,-0.10136 -0.0177,-0.22323 0.009,-0.11607 0.0456,-0.21054 0.0385,-0.0943 0.10191,-0.15945 0.0634,-0.0651 0.14963,-0.0974 0.0881,-0.0321 0.19645,-0.0237 0.087,0.007 0.15102,0.0351 0.0659,0.0285 0.0971,0.0523 z"
         id="path19275" /><path
         d="m -134.63111,290.36562 q 0.009,-0.13355 0.0549,-0.22958 0.0457,-0.098 0.11417,-0.15932 0.0685,-0.0614 0.15397,-0.0885 0.0855,-0.0271 0.17262,-0.0211 0.20324,0.0141 0.30275,0.14942 0.0996,0.13336 0.0816,0.39273 -8.1e-4,0.0116 -0.002,0.031 -0.001,0.0174 -0.004,0.0328 l -0.68908,-0.0479 q 7.1e-4,0.15759 0.0744,0.2444 0.0737,0.0868 0.2421,0.0985 0.0948,0.007 0.1598,-0.004 0.067,-0.0128 0.101,-0.026 l 0.0147,0.15273 q -0.0341,0.0151 -0.11869,0.0287 -0.0826,0.0137 -0.18717,0.006 -0.13162,-0.009 -0.2257,-0.0546 -0.092,-0.0473 -0.14911,-0.12124 -0.0571,-0.074 -0.0815,-0.17099 -0.0223,-0.0988 -0.0144,-0.213 z m 0.69788,-0.0506 q 0.0104,-0.12181 -0.0481,-0.20367 -0.0564,-0.0837 -0.16675,-0.0914 -0.0619,-0.004 -0.11208,0.0175 -0.0481,0.02 -0.0837,0.0564 -0.0356,0.0364 -0.0585,0.0854 -0.0209,0.0491 -0.0304,0.10098 z"
         id="path19277" /><path
         d="m -133.46753,289.96696 q 0.0629,-0.0117 0.16664,-0.0228 0.10372,-0.0111 0.23734,-0.003 0.12007,0.007 0.19733,0.0471 0.0774,0.0378 0.12003,0.10265 0.0447,0.063 0.0588,0.14942 0.0141,0.0864 0.008,0.18905 l -0.0348,0.56549 -0.18011,-0.0111 0.0325,-0.52676 q 0.006,-0.093 -0.004,-0.15964 -0.008,-0.0666 -0.0341,-0.10902 -0.0265,-0.0425 -0.0739,-0.0629 -0.0472,-0.0223 -0.11888,-0.0268 -0.029,-0.002 -0.0601,-0.002 -0.0311,3e-5 -0.0604,0.002 -0.0272,2.7e-4 -0.0507,0.003 -0.0215,0.003 -0.0313,0.004 l -0.0524,0.85017 -0.18011,-0.0111 z"
         id="path19279" /><path
         d="m -132.21388,290.80143 q 10e-4,0.0156 2.1e-4,0.0311 -7.6e-4,0.0136 -0.002,0.0291 -0.007,0.12204 -0.0502,0.23816 -0.0416,0.11816 -0.10965,0.22317 l -0.13699,-0.0524 q 0.054,-0.0961 0.0752,-0.19789 0.0211,-0.0999 0.0261,-0.18899 0.001,-0.0252 7.7e-4,-0.0485 0.001,-0.0232 5.5e-4,-0.0447 z"
         id="path19281" /><path
         d="m -131.52432,290.55675 q 0.006,-0.13374 0.0498,-0.23075 0.0435,-0.099 0.11059,-0.16182 0.0671,-0.0629 0.15197,-0.0919 0.0849,-0.029 0.17211,-0.0249 0.2035,0.01 0.30599,0.14266 0.10258,0.1311 0.0903,0.39081 -5.5e-4,0.0116 -0.001,0.031 -8.3e-4,0.0174 -0.004,0.0329 l -0.68997,-0.0326 q 0.004,0.15754 0.0798,0.2427 0.0756,0.0851 0.24423,0.0931 0.095,0.004 0.15966,-0.008 0.0667,-0.0143 0.1004,-0.0283 l 0.0181,0.15236 q -0.0338,0.0159 -0.11802,0.0313 -0.0823,0.0155 -0.18698,0.0106 -0.13179,-0.006 -0.22687,-0.0496 -0.093,-0.0452 -0.15176,-0.11789 -0.0587,-0.0727 -0.0853,-0.16914 -0.0245,-0.0983 -0.0191,-0.21262 z m 0.69658,-0.0662 q 0.008,-0.12201 -0.0526,-0.20256 -0.0583,-0.0824 -0.16874,-0.0876 -0.062,-0.003 -0.11167,0.02 -0.0476,0.0211 -0.0824,0.0583 -0.0348,0.0372 -0.0565,0.0867 -0.0198,0.0496 -0.0281,0.10162 z"
         id="path19283" /><path
         d="m -130.36966,290.13235 q 0.0627,-0.0131 0.1661,-0.0264 0.10345,-0.0134 0.23722,-0.008 0.12021,0.005 0.19831,0.0428 0.0782,0.0361 0.12226,0.1 0.0461,0.062 0.0621,0.1481 0.016,0.0861 0.0119,0.18882 l -0.0224,0.56612 -0.1803,-0.007 0.0209,-0.52735 q 0.004,-0.0931 -0.007,-0.15951 -0.009,-0.0664 -0.0365,-0.10825 -0.0275,-0.0419 -0.0753,-0.0612 -0.0477,-0.0213 -0.11944,-0.0241 -0.0291,-10e-4 -0.0602,-4.4e-4 -0.0311,7.1e-4 -0.0603,0.003 -0.0272,8.7e-4 -0.0506,0.004 -0.0215,0.003 -0.0312,0.005 l -0.0337,0.85112 -0.18031,-0.007 z"
         id="path19285" /><path
         d="m -128.4086,289.67556 q 0.0795,0.002 0.1354,0.0157 0.0578,0.0134 0.0808,0.0238 l -0.0376,0.15416 q -0.0229,-0.0123 -0.0653,-0.0233 -0.0423,-0.0129 -0.10437,-0.0148 -0.12606,-0.004 -0.17859,0.0645 -0.0525,0.0664 -0.056,0.18273 l -0.003,0.0873 0.38789,0.0117 -0.005,0.15127 -0.38788,-0.0117 -0.0258,0.85722 -0.18037,-0.005 0.0331,-1.09965 q 0.006,-0.19394 0.10401,-0.29581 0.0982,-0.10381 0.30188,-0.0977 z"
         id="path19287" /><path
         d="m -127.70073,290.16975 q 0.0233,5.8e-4 0.0523,0.005 0.031,0.003 0.0599,0.009 0.029,0.005 0.0521,0.011 0.0251,0.005 0.0367,0.009 l -0.035,0.15634 q -0.0211,-0.008 -0.0713,-0.0192 -0.0482,-0.0129 -0.12579,-0.0148 -0.0504,-0.001 -0.10115,0.009 -0.0487,0.008 -0.0644,0.012 l -0.0211,0.84764 -0.18039,-0.005 0.0241,-0.96596 q 0.0646,-0.0217 0.16012,-0.0387 0.0956,-0.019 0.2139,-0.016 z"
         id="path19289" /><path
         d="m -126.54647,291.19456 q -0.0624,0.0144 -0.16551,0.0299 -0.1012,0.0156 -0.23506,0.0131 -0.11639,-0.002 -0.19531,-0.0366 -0.0789,-0.0364 -0.12623,-0.0994 -0.0473,-0.063 -0.0671,-0.1468 -0.0198,-0.0858 -0.0178,-0.18857 l 0.0106,-0.56646 0.18041,0.003 -0.01,0.52767 q -0.003,0.18429 0.0533,0.26492 0.0567,0.0806 0.19445,0.0832 0.0291,5.4e-4 0.0602,-8.2e-4 0.0311,-10e-4 0.0583,-0.003 0.0272,-0.003 0.0486,-0.005 0.0234,-0.003 0.0331,-0.007 l 0.0159,-0.85164 0.18041,0.003 z"
         id="path19291" /><path
         d="m -125.86554,290.6775 q 0.0577,0.0453 0.12096,0.11199 0.0652,0.0667 0.12639,0.14505 0.0631,0.0764 0.1185,0.1566 0.0554,0.0783 0.0934,0.14661 l -0.21148,-0.002 q -0.04,-0.0684 -0.0935,-0.13885 -0.0516,-0.0724 -0.10902,-0.13708 -0.0574,-0.0666 -0.11696,-0.12166 -0.0595,-0.055 -0.11342,-0.0925 l -0.006,0.48504 -0.18044,-0.002 0.017,-1.47451 0.1808,-0.029 -0.0106,0.91964 q 0.0471,-0.046 0.10401,-0.10165 0.0569,-0.0556 0.11191,-0.11319 0.055,-0.0576 0.1041,-0.1094 0.0491,-0.0538 0.0845,-0.0941 l 0.21147,0.002 q -0.0452,0.048 -0.0982,0.10559 -0.0531,0.0576 -0.11002,0.1171 -0.0569,0.0575 -0.11583,0.11703 -0.0569,0.0575 -0.10799,0.10936 z"
         id="path19293" /><path
         d="m -125.04932,290.23058 0.38223,0.002 -8.5e-4,0.15134 -0.38223,-0.002 -0.003,0.46566 q -4.2e-4,0.0757 0.0109,0.12618 0.0114,0.0486 0.0345,0.0778 0.0231,0.0273 0.058,0.0391 0.0349,0.0118 0.0814,0.0121 0.0815,4.5e-4 0.1301,-0.0167 0.0506,-0.0191 0.07,-0.0268 l 0.0341,0.14959 q -0.0272,0.0134 -0.0953,0.0325 -0.068,0.021 -0.15534,0.0205 -0.10283,-5.7e-4 -0.1706,-0.0262 -0.0658,-0.0275 -0.10627,-0.0801 -0.0405,-0.0526 -0.0575,-0.12839 -0.0151,-0.0777 -0.0145,-0.17859 l 0.005,-0.90027 0.18062,-0.03 z"
         id="path19295" /><path
         d="m -124.07082,290.21204 q 0.0233,2e-5 0.0524,0.004 0.031,0.002 0.0601,0.008 0.0291,0.004 0.0524,0.01 0.0252,0.004 0.0369,0.008 l -0.0311,0.15715 q -0.0213,-0.008 -0.0718,-0.0175 -0.0485,-0.0117 -0.12611,-0.0117 -0.0504,-3e-5 -0.10091,0.0116 -0.0485,0.01 -0.064,0.0135 l -4.8e-4,0.8479 -0.18045,-1e-4 5.5e-4,-0.96626 q 0.064,-0.0232 0.15912,-0.0426 0.0951,-0.0213 0.21345,-0.0212 z"
         id="path19297" /><path
         d="m -123.35401,291.11026 q 0.064,-3.3e-4 0.11252,-0.003 0.0504,-0.004 0.0834,-0.0121 l -0.002,-0.30074 q -0.0195,-0.01 -0.0641,-0.0152 -0.0427,-0.008 -0.10482,-0.007 -0.0407,2.1e-4 -0.0873,0.006 -0.0446,0.006 -0.0833,0.0256 -0.0368,0.0177 -0.0618,0.0508 -0.0251,0.0312 -0.0248,0.0836 5e-4,0.097 0.0628,0.1355 0.0623,0.0365 0.169,0.036 z m -0.0202,-0.90408 q 0.10865,-5.6e-4 0.18253,0.0282 0.0758,0.0268 0.12071,0.0789 0.0468,0.0502 0.0666,0.12189 0.0198,0.0697 0.0202,0.15512 l 0.003,0.63058 q -0.0233,0.004 -0.0659,0.012 -0.0407,0.006 -0.0931,0.0121 -0.0524,0.006 -0.11443,0.0103 -0.0601,0.006 -0.12026,0.006 -0.0854,4.4e-4 -0.15725,-0.0166 -0.0719,-0.0171 -0.12446,-0.0537 -0.0526,-0.0385 -0.082,-0.10047 -0.0294,-0.0619 -0.0299,-0.14925 -4.3e-4,-0.0834 0.0322,-0.14375 0.0346,-0.0603 0.0926,-0.0975 0.058,-0.0372 0.13553,-0.055 0.0775,-0.0179 0.16289,-0.0183 0.0272,-1.4e-4 0.0563,0.004 0.0291,0.002 0.0544,0.007 0.0272,0.004 0.0466,0.008 0.0194,0.004 0.0272,0.006 l -2.6e-4,-0.0504 q -2.3e-4,-0.0446 -0.0102,-0.0873 -0.01,-0.0446 -0.0353,-0.0774 -0.0254,-0.0348 -0.0701,-0.054 -0.0428,-0.0211 -0.11265,-0.0208 -0.0892,4.6e-4 -0.15709,0.0144 -0.0659,0.012 -0.0988,0.0257 l -0.0221,-0.14929 q 0.0349,-0.0157 0.11627,-0.0297 0.0814,-0.016 0.17648,-0.0164 z"
         id="path19299" /><path
         d="m -122.32372,290.67659 q 0.0587,0.044 0.12351,0.10917 0.0667,0.0652 0.12971,0.14209 0.0649,0.0749 0.12209,0.15382 0.0572,0.077 0.0968,0.14442 l -0.21148,0.002 q -0.0415,-0.0674 -0.0967,-0.13665 -0.0532,-0.0712 -0.11216,-0.13453 -0.059,-0.0653 -0.11974,-0.11892 -0.0608,-0.0536 -0.11552,-0.0899 l 0.006,0.48503 -0.18044,0.002 -0.017,-1.47451 0.18007,-0.0331 0.0106,0.91963 q 0.046,-0.0471 0.10164,-0.10402 0.0556,-0.0569 0.10926,-0.11575 0.0536,-0.0588 0.10155,-0.11177 0.0479,-0.0549 0.0823,-0.096 l 0.21147,-0.002 q -0.0441,0.049 -0.0958,0.10783 -0.0517,0.0588 -0.10728,0.1196 -0.0556,0.0589 -0.1131,0.11968 -0.0556,0.0589 -0.10543,0.11182 z"
         id="path19301" /><path
         d="m -121.78519,290.72232 q -0.002,-0.13386 0.0346,-0.2335 0.037,-0.10158 0.0998,-0.1687 0.0628,-0.0671 0.14565,-0.10161 0.0828,-0.0345 0.17012,-0.0361 0.20369,-0.004 0.31465,0.12238 0.11092,0.12412 0.11564,0.38408 2.1e-4,0.0116 5.6e-4,0.031 3.1e-4,0.0175 -0.001,0.033 l -0.69063,0.0125 q 0.0145,0.15692 0.0955,0.23696 0.081,0.08 0.24979,0.077 0.0951,-0.002 0.1588,-0.0184 0.0656,-0.0187 0.0983,-0.0348 l 0.028,0.15086 q -0.0327,0.0181 -0.11573,0.039 -0.0811,0.0209 -0.18588,0.0228 -0.13192,0.002 -0.22962,-0.0346 -0.0958,-0.039 -0.15914,-0.10773 -0.0633,-0.0687 -0.0961,-0.16321 -0.0309,-0.0965 -0.0329,-0.21093 z m 0.69077,-0.11149 q -2.7e-4,-0.12225 -0.0657,-0.19869 -0.0635,-0.0784 -0.17409,-0.0764 -0.0621,0.001 -0.11013,0.0272 -0.0461,0.0241 -0.0784,0.0635 -0.0323,0.0394 -0.0508,0.0902 -0.0165,0.0508 -0.0214,0.10324 z"
         id="path19303" /><path
         d="m -120.49074,290.19001 0.38212,-0.009 0.004,0.1513 -0.38212,0.009 0.0112,0.46553 q 0.002,0.0756 0.0147,0.1258 0.0128,0.0482 0.0368,0.0768 0.0239,0.0266 0.0591,0.0374 0.0352,0.0108 0.0817,0.01 0.0815,-0.002 0.12954,-0.0206 0.05,-0.0206 0.0692,-0.0288 l 0.0385,0.14852 q -0.0268,0.0142 -0.0943,0.0353 -0.0674,0.023 -0.15467,0.0251 -0.1028,0.002 -0.1713,-0.0211 -0.0666,-0.0256 -0.10859,-0.077 -0.042,-0.0514 -0.0613,-0.12662 -0.0174,-0.0772 -0.0198,-0.17808 l -0.0216,-0.90003 0.17965,-0.0354 z"
         id="path19305" /><path
         d="m -119.17699,291.03288 q 0.11054,-0.004 0.16197,-0.0343 0.0534,-0.0308 0.0513,-0.0948 -0.002,-0.0659 -0.0557,-0.10304 -0.0536,-0.0371 -0.17539,-0.0817 -0.0589,-0.0214 -0.11397,-0.0429 -0.0532,-0.0235 -0.093,-0.0553 -0.0398,-0.0317 -0.0646,-0.0775 -0.0248,-0.0458 -0.0269,-0.11367 -0.004,-0.13381 0.0921,-0.21455 0.0964,-0.0827 0.26701,-0.0881 0.0427,-0.001 0.0855,0.003 0.0428,0.003 0.0799,0.009 0.037,0.005 0.0644,0.0115 0.0293,0.007 0.045,0.0121 l -0.028,0.1562 q -0.0296,-0.0146 -0.0921,-0.0281 -0.0626,-0.0155 -0.14988,-0.0127 -0.0756,0.002 -0.13088,0.0353 -0.0553,0.0309 -0.0533,0.0949 0.001,0.033 0.0135,0.0578 0.0144,0.0248 0.0403,0.0453 0.0278,0.0185 0.0671,0.0347 0.0393,0.0162 0.0943,0.0339 0.0726,0.0249 0.12974,0.0502 0.057,0.0234 0.097,0.0571 0.0418,0.0336 0.0648,0.0833 0.0229,0.0478 0.0252,0.11956 0.004,0.13963 -0.098,0.21473 -0.10048,0.075 -0.29247,0.0812 -0.13381,0.004 -0.21019,-0.0166 -0.0763,-0.0189 -0.10384,-0.0297 l 0.028,-0.1562 q 0.0314,0.0106 0.10003,0.0317 0.0686,0.0211 0.18109,0.0175 z"
         id="path19307" /><path
         d="m -117.67533,290.60423 q 0.005,0.12021 -0.0267,0.21848 -0.0312,0.0983 -0.0926,0.17049 -0.0594,0.0722 -0.14518,0.11424 -0.0859,0.0401 -0.18862,0.044 -0.10276,0.004 -0.19141,-0.0296 -0.0887,-0.0355 -0.15534,-0.10285 -0.0647,-0.0674 -0.10327,-0.16307 -0.0386,-0.0956 -0.0431,-0.21583 -0.004,-0.11827 0.0267,-0.21654 0.0312,-0.1002 0.0906,-0.17236 0.0613,-0.0722 0.14719,-0.11237 0.0858,-0.0421 0.18854,-0.046 0.10276,-0.004 0.19148,0.0316 0.0887,0.0335 0.15334,0.10098 0.0666,0.0674 0.10527,0.16494 0.0386,0.0956 0.0431,0.21389 z m -0.18807,0.007 q -0.006,-0.17062 -0.0878,-0.26657 -0.0794,-0.0979 -0.21129,-0.093 -0.13184,0.005 -0.20557,0.10876 -0.0719,0.10175 -0.0654,0.27237 0.006,0.17062 0.0859,0.26858 0.0813,0.096 0.21315,0.0909 0.13184,-0.005 0.20371,-0.10675 0.0737,-0.10376 0.0673,-0.27438 z"
         id="path19309" /><path
         d="m -117.44425,290.11913 q 0.0613,-0.0184 0.16127,-0.0405 0.10191,-0.0222 0.23564,-0.0285 0.0969,-0.005 0.16407,0.0195 0.0671,0.0221 0.114,0.0704 0.0131,-0.0103 0.0414,-0.0291 0.0283,-0.0188 0.0702,-0.0363 0.0418,-0.0194 0.0936,-0.0335 0.0517,-0.016 0.11178,-0.0188 0.11629,-0.005 0.19157,0.026 0.0752,0.0295 0.11878,0.0896 0.0455,0.06 0.0631,0.14469 0.0195,0.0845 0.0242,0.18534 l 0.0264,0.56594 -0.18025,0.008 -0.0246,-0.52719 q -0.004,-0.0891 -0.0168,-0.15266 -0.0107,-0.0636 -0.0379,-0.10506 -0.0252,-0.0416 -0.0688,-0.059 -0.0417,-0.0194 -0.10759,-0.0163 -0.0911,0.004 -0.15,0.0322 -0.0571,0.026 -0.0775,0.0464 0.0179,0.0497 0.0284,0.10939 0.0105,0.0597 0.0136,0.12562 l 0.0264,0.56595 -0.18025,0.008 -0.0246,-0.52718 q -0.004,-0.0892 -0.0168,-0.15267 -0.0127,-0.0635 -0.0399,-0.10497 -0.0252,-0.0416 -0.0688,-0.059 -0.0417,-0.0194 -0.10565,-0.0164 -0.0271,0.001 -0.0581,0.005 -0.0309,0.003 -0.0598,0.009 -0.027,0.003 -0.0501,0.008 -0.0231,0.005 -0.0307,0.007 l 0.0397,0.85086 -0.18025,0.008 z"
         id="path19311" /><path
         d="m -114.94948,290.41968 q 0.0607,0.0412 0.12833,0.10347 0.0696,0.0621 0.13602,0.13606 0.0682,0.0719 0.12892,0.14814 0.0606,0.0743 0.1032,0.13988 l -0.21115,0.012 q -0.0445,-0.0655 -0.10275,-0.13213 -0.0564,-0.0687 -0.11814,-0.12931 -0.0619,-0.0626 -0.12501,-0.11338 -0.0631,-0.0508 -0.11947,-0.0845 l 0.0276,0.48428 -0.18016,0.0103 -0.0838,-1.47223 0.17839,-0.0412 0.0523,0.9182 q 0.0438,-0.0491 0.0968,-0.10851 0.053,-0.0594 0.10391,-0.12058 0.0509,-0.0612 0.0964,-0.11626 0.0453,-0.057 0.0779,-0.0997 l 0.21115,-0.012 q -0.0418,0.051 -0.0908,0.11206 -0.049,0.0611 -0.10175,0.12434 -0.0529,0.0613 -0.10756,0.12467 -0.0529,0.0613 -0.10026,0.11649 z"
         id="path19313" /><path
         d="m -113.47031,290.38017 q 0.008,0.12006 -0.0212,0.21907 -0.0288,0.099 -0.0883,0.17273 -0.0576,0.0736 -0.1423,0.1178 -0.0848,0.0423 -0.18747,0.0487 -0.10263,0.006 -0.19208,-0.0249 -0.0896,-0.0333 -0.15785,-0.099 -0.0663,-0.0658 -0.10728,-0.16046 -0.0409,-0.0946 -0.0485,-0.21469 -0.007,-0.11813 0.0214,-0.21714 0.0287,-0.10095 0.0863,-0.17455 0.0595,-0.0737 0.14436,-0.11598 0.0847,-0.0442 0.18734,-0.0506 0.10263,-0.006 0.19221,0.0268 0.0894,0.0313 0.15579,0.0971 0.0683,0.0657 0.10933,0.16228 0.0409,0.0946 0.0483,0.21276 z m -0.18784,0.0118 q -0.0107,-0.17041 -0.0943,-0.26431 -0.0818,-0.096 -0.21352,-0.0877 -0.13168,0.008 -0.20282,0.11382 -0.0693,0.1035 -0.0586,0.27391 0.0107,0.17041 0.0925,0.26636 0.0836,0.0939 0.21533,0.0856 0.13168,-0.008 0.20101,-0.11177 0.0711,-0.10555 0.0604,-0.27596 z"
         id="path19315" /><path
         d="m -113.25378,289.8901 q 0.0608,-0.0198 0.16026,-0.0443 0.10136,-0.0246 0.23491,-0.034 0.0968,-0.007 0.16449,0.0157 0.0676,0.0205 0.11563,0.0677 0.0129,-0.0106 0.0407,-0.0301 0.0278,-0.0195 0.0693,-0.0379 0.0414,-0.0204 0.0928,-0.0357 0.0513,-0.0172 0.11131,-0.0214 0.11613,-0.008 0.19213,0.0215 0.0759,0.0277 0.12086,0.0868 0.0469,0.0589 0.0665,0.14315 0.0215,0.0841 0.0285,0.18472 l 0.0397,0.56517 -0.18,0.0127 -0.037,-0.52646 q -0.006,-0.089 -0.0204,-0.15222 -0.0122,-0.0633 -0.0404,-0.10414 -0.0262,-0.041 -0.0702,-0.0573 -0.0421,-0.0184 -0.10795,-0.0138 -0.091,0.006 -0.14919,0.0358 -0.0564,0.0273 -0.0764,0.0482 0.019,0.0492 0.031,0.10869 0.012,0.0595 0.0166,0.12527 l 0.0398,0.56516 -0.18,0.0127 -0.037,-0.52645 q -0.006,-0.089 -0.0204,-0.15223 -0.0142,-0.0632 -0.0423,-0.104 -0.0262,-0.041 -0.0702,-0.0573 -0.0421,-0.0184 -0.10601,-0.0139 -0.0271,0.002 -0.0579,0.006 -0.0308,0.004 -0.0596,0.01 -0.027,0.004 -0.0499,0.009 -0.023,0.005 -0.0306,0.008 l 0.0598,0.84969 -0.18,0.0127 z"
         id="path19317" /><path
         d="m -111.5958,289.77208 q 0.0607,-0.0204 0.15988,-0.0457 0.10114,-0.0255 0.2346,-0.036 0.0967,-0.008 0.16462,0.0142 0.0677,0.0199 0.11621,0.0667 0.0128,-0.0107 0.0404,-0.0304 0.0276,-0.0197 0.069,-0.0385 0.0412,-0.0208 0.0925,-0.0365 0.0512,-0.0177 0.11112,-0.0224 0.11605,-0.009 0.1923,0.0198 0.0761,0.0271 0.12162,0.0858 0.0474,0.0585 0.0677,0.14257 0.0222,0.0839 0.0301,0.18446 l 0.0446,0.5648 -0.17989,0.0142 -0.0416,-0.52612 q -0.007,-0.089 -0.0217,-0.15204 -0.0128,-0.0632 -0.0413,-0.10379 -0.0266,-0.0407 -0.0707,-0.0567 -0.0423,-0.0181 -0.10806,-0.0129 -0.0909,0.007 -0.14889,0.0371 -0.0562,0.0278 -0.0759,0.0488 0.0195,0.0491 0.0319,0.10842 0.0125,0.0593 0.0177,0.12512 l 0.0446,0.5648 -0.17988,0.0142 -0.0416,-0.52611 q -0.007,-0.089 -0.0217,-0.15204 -0.0147,-0.0631 -0.0432,-0.10364 -0.0266,-0.0407 -0.0707,-0.0567 -0.0423,-0.0181 -0.10613,-0.013 -0.0271,0.002 -0.0579,0.007 -0.0308,0.004 -0.0595,0.0105 -0.0269,0.004 -0.0498,0.01 -0.0229,0.006 -0.0305,0.008 l 0.0671,0.84913 -0.17989,0.0142 z"
         id="path19319" /><path
         d="m -109.95254,290.11932 q -0.0115,-0.13339 0.0187,-0.2353 0.03,-0.10385 0.0882,-0.17506 0.0581,-0.0712 0.13844,-0.11122 0.0803,-0.04 0.1673,-0.0475 0.20298,-0.0174 0.3222,0.10084 0.11905,0.11635 0.14132,0.37539 9.9e-4,0.0116 0.003,0.0309 0.001,0.0174 9e-4,0.033 l -0.68821,0.0591 q 0.0251,0.15559 0.1113,0.22997 0.0862,0.0744 0.25442,0.0599 0.0947,-0.008 0.15719,-0.0291 0.0642,-0.0231 0.0958,-0.0413 l 0.0381,0.14863 q -0.0314,0.0202 -0.11283,0.0467 -0.0795,0.0263 -0.18392,0.0353 -0.13146,0.0113 -0.23144,-0.0191 -0.0982,-0.0325 -0.16605,-0.0967 -0.0678,-0.0643 -0.10691,-0.15634 -0.0373,-0.0942 -0.0471,-0.20822 z m 0.68166,-0.1579 q -0.009,-0.12196 -0.079,-0.1938 -0.0687,-0.0739 -0.17886,-0.0645 -0.0619,0.005 -0.10803,0.0346 -0.0444,0.0272 -0.0739,0.0687 -0.0295,0.0415 -0.0446,0.0934 -0.0131,0.0518 -0.0144,0.10445 z"
         id="path19321" /><path
         d="m -108.4941,289.46156 q 0.0232,-0.002 0.0525,-8.5e-4 0.0311,-8.6e-4 0.0606,0.002 0.0293,10e-4 0.053,0.005 0.0255,0.002 0.0374,0.004 l -0.0168,0.15932 q -0.0219,-0.006 -0.0731,-0.0109 -0.0494,-0.007 -0.12665,-2.4e-4 -0.0502,0.005 -0.0994,0.0207 -0.0474,0.014 -0.0625,0.0193 l 0.0763,0.84446 -0.17971,0.0163 -0.087,-0.96233 q 0.0617,-0.029 0.15461,-0.0568 0.0928,-0.0298 0.21064,-0.0405 z"
         id="path19323" /><path
         d="m -107.67472,289.43624 q 0.0603,-0.0214 0.16097,-0.0487 0.10068,-0.0273 0.23393,-0.0402 0.11974,-0.0116 0.20229,0.0155 0.0824,0.0251 0.1347,0.0825 0.0541,0.0552 0.0816,0.13829 0.0275,0.0831 0.0375,0.18546 l 0.0547,0.56391 -0.1796,0.0174 -0.0509,-0.52529 q -0.009,-0.0927 -0.0289,-0.15705 -0.0179,-0.0645 -0.0509,-0.10229 -0.0329,-0.0377 -0.0829,-0.0504 -0.0502,-0.0146 -0.12161,-0.008 -0.029,0.003 -0.0597,0.008 -0.0307,0.005 -0.0593,0.0116 -0.0268,0.005 -0.0496,0.0107 -0.0209,0.006 -0.0303,0.009 l 0.0822,0.84781 -0.1796,0.0174 z"
         id="path19325" /><path
         d="m -106.57889,289.80902 q -0.0136,-0.13319 0.015,-0.23557 0.0284,-0.10431 0.0854,-0.17643 0.057,-0.0721 0.13666,-0.1134 0.0797,-0.0413 0.16652,-0.0501 0.20267,-0.0207 0.32376,0.0957 0.12089,0.11445 0.14726,0.3731 0.001,0.0116 0.003,0.0309 0.002,0.0174 0.001,0.033 l -0.68718,0.0701 q 0.0275,0.15517 0.11493,0.22817 0.0874,0.073 0.25534,0.0559 0.0946,-0.01 0.15671,-0.0316 0.0639,-0.0241 0.0951,-0.0428 l 0.0404,0.148 q -0.031,0.0207 -0.11207,0.0485 -0.0791,0.0276 -0.18334,0.0382 -0.13126,0.0134 -0.23171,-0.0154 -0.0987,-0.0309 -0.16757,-0.0941 -0.0688,-0.0632 -0.10938,-0.15463 -0.0388,-0.0936 -0.0504,-0.20745 z m 0.67907,-0.16871 q -0.0105,-0.1218 -0.082,-0.19252 -0.0698,-0.0728 -0.17987,-0.0616 -0.0618,0.006 -0.10746,0.0363 -0.044,0.0279 -0.0729,0.0698 -0.0289,0.0419 -0.0431,0.0941 -0.0123,0.052 -0.0127,0.10466 z"
         id="path19327" /><path
         d="m -105.13099,289.12842 q 0.0232,-0.002 0.0525,-0.002 0.0311,-10e-4 0.0606,10e-4 0.0293,8e-4 0.0531,0.004 0.0255,0.001 0.0375,0.004 l -0.0143,0.15956 q -0.022,-0.005 -0.0732,-0.01 -0.0495,-0.006 -0.12664,0.002 -0.0502,0.005 -0.0991,0.0222 -0.0472,0.0147 -0.0622,0.0202 l 0.0892,0.8432 -0.17944,0.019 -0.10168,-0.96089 q 0.0612,-0.0299 0.15373,-0.0592 0.0923,-0.0312 0.21,-0.0437 z"
         id="path19329" /><path
         d="m -104.55356,289.99703 q 0.006,0.0521 -0.0249,0.0944 -0.0305,0.0423 -0.0903,0.0488 -0.0598,0.006 -0.0987,-0.0283 -0.0389,-0.0348 -0.0445,-0.0869 -0.006,-0.0521 0.0249,-0.0944 0.0305,-0.0423 0.0904,-0.0488 0.0598,-0.006 0.0987,0.0283 0.0389,0.0348 0.0445,0.0869 z"
         id="path19331" /><path
         d="m -104.07899,289.94488 q 0.006,0.0521 -0.0247,0.0945 -0.0305,0.0424 -0.0902,0.049 -0.0598,0.007 -0.0987,-0.0281 -0.039,-0.0347 -0.0447,-0.0868 -0.006,-0.0521 0.0247,-0.0945 0.0305,-0.0424 0.0902,-0.049 0.0598,-0.007 0.0987,0.0281 0.039,0.0347 0.0447,0.0868 z"
         id="path19333" /><path
         d="m -103.60512,289.89187 q 0.006,0.0521 -0.0245,0.0945 -0.0304,0.0425 -0.0902,0.0492 -0.0598,0.007 -0.0988,-0.028 -0.039,-0.0347 -0.0449,-0.0867 -0.006,-0.0521 0.0245,-0.0945 0.0304,-0.0425 0.0902,-0.0492 0.0598,-0.007 0.0988,0.0279 0.039,0.0347 0.0449,0.0867 z"
         id="path19335" /></g></g></svg>
