<?xml version="1.0" encoding="UTF-8" standalone="no"?>
<!-- Created with Inkscape (http://www.inkscape.org/) -->

<svg
   width="71.087517mm"
   height="30.54776mm"
   viewBox="0 0 71.087517 30.54776"
   version="1.1"
   id="svg5"
   xml:space="preserve"
   sodipodi:docname="drawing - utkantt_USB.svg"
   inkscape:version="1.2.2 (732a01da63, 2022-12-09)"
   xmlns:inkscape="http://www.inkscape.org/namespaces/inkscape"
   xmlns:sodipodi="http://sodipodi.sourceforge.net/DTD/sodipodi-0.dtd"
   xmlns="http://www.w3.org/2000/svg"
   xmlns:svg="http://www.w3.org/2000/svg"><sodipodi:namedview
     id="namedview7"
     pagecolor="#ffffff"
     bordercolor="#000000"
     borderopacity="0.25"
     inkscape:showpageshadow="2"
     inkscape:pageopacity="0.0"
     inkscape:pagecheckerboard="0"
     inkscape:deskcolor="#d1d1d1"
     inkscape:document-units="mm"
     showgrid="false"
     inkscape:zoom="2.2753006"
     inkscape:cx="24.831883"
     inkscape:cy="1302.2455"
     inkscape:window-width="1920"
     inkscape:window-height="1057"
     inkscape:window-x="-8"
     inkscape:window-y="-8"
     inkscape:window-maximized="1"
     inkscape:current-layer="layer2" /><defs
     id="defs2" /><g
     inkscape:groupmode="layer"
     id="layer2"
     inkscape:label="Layer 2"
     transform="translate(55.181531,-335.63036)"><g
       aria-label="Det är ett ljussken över staden, nåt stort och gult som alla ser. Banankontakt av tredje graden, en fruktraket som kommer ner..."
       transform="translate(149.6588,75.236395)"
       id="text2703-4-8-9-8-3"
       style="font-weight:bold;font-size:1.41111px;font-family:Ubuntu;-inkscape-font-specification:'Ubuntu Bold';stroke-width:0.1;stroke-linecap:round;stroke-linejoin:round"
       inkscape:export-filename="banankontakt7.svg"
       inkscape:export-xdpi="96"
       inkscape:export-ydpi="96"><path
         d="m -203.94054,261.30005 q -0.091,0.0886 -0.18631,0.12621 -0.0943,0.0367 -0.18899,0.0284 -0.0937,-0.009 -0.18581,-0.0594 -0.0911,-0.0511 -0.17478,-0.13707 -0.0413,-0.0425 -0.0875,-0.098 -0.0462,-0.0535 -0.0764,-0.10481 l 0.6795,-0.66143 q 0.0505,0.0316 0.10271,0.0792 0.0542,0.0476 0.0956,0.0901 0.0837,0.0859 0.1313,0.1794 0.0487,0.0925 0.0544,0.18734 0.007,0.0939 -0.0335,0.18815 -0.0392,0.0933 -0.13018,0.18186 z m -0.64206,-0.11743 q 0.13583,0.13954 0.27354,0.1394 0.13872,-0.001 0.26714,-0.12612 0.12842,-0.125 0.13227,-0.26266 0.005,-0.13864 -0.13097,-0.27818 -0.0404,-0.0415 -0.064,-0.0637 -0.0227,-0.0213 -0.0325,-0.0294 l -0.53591,0.52166 q 0.008,0.0101 0.0285,0.0333 0.0216,0.0242 0.062,0.0657 z"
         style="font-weight:normal;-inkscape-font-specification:Ubuntu"
         id="path7846" /><path
         d="m -203.92713,261.51623 q 0.0717,-0.0658 0.14383,-0.0937 0.0731,-0.0288 0.13998,-0.027 0.0668,0.002 0.12554,0.0303 0.0587,0.0285 0.10164,0.0753 0.1002,0.10916 0.085,0.23035 -0.0141,0.12024 -0.15344,0.24811 -0.006,0.006 -0.0166,0.0153 -0.009,0.009 -0.0186,0.0152 l -0.3397,-0.37009 q -0.0785,0.0835 -0.083,0.16623 -0.005,0.0827 0.0785,0.17314 0.0468,0.0509 0.0866,0.0776 0.0418,0.0268 0.0663,0.0368 l -0.0687,0.0879 q -0.0256,-0.009 -0.077,-0.0442 -0.0505,-0.0341 -0.10201,-0.0903 -0.0649,-0.0707 -0.0918,-0.14175 -0.0249,-0.071 -0.018,-0.1386 0.007,-0.0676 0.0426,-0.131 0.0377,-0.0633 0.099,-0.11961 z m 0.39368,0.32246 q 0.0664,-0.0591 0.0765,-0.13155 0.0121,-0.0724 -0.0423,-0.13164 -0.0305,-0.0333 -0.0679,-0.0468 -0.0354,-0.0135 -0.0724,-0.0121 -0.037,0.001 -0.0736,0.0158 -0.0356,0.0154 -0.0666,0.0381 z"
         style="font-weight:normal;-inkscape-font-specification:Ubuntu"
         id="path7848" /><path
         d="m -203.01171,261.96889 0.18798,0.20479 -0.0811,0.0744 -0.18798,-0.20479 -0.24949,0.22901 q -0.0405,0.0372 -0.0619,0.0683 -0.0203,0.0301 -0.0244,0.0569 -0.003,0.0258 0.008,0.0503 0.0109,0.0244 0.0338,0.0494 0.0401,0.0437 0.0733,0.0611 0.0352,0.0175 0.0489,0.0241 l -0.0629,0.0922 q -0.0206,-0.008 -0.0644,-0.0347 -0.0448,-0.0259 -0.0878,-0.0727 -0.0506,-0.0551 -0.0705,-0.10389 -0.0179,-0.0487 -0.01,-0.0963 0.008,-0.0476 0.04,-0.0942 0.034,-0.0465 0.088,-0.0961 l 0.48235,-0.44275 0.10538,0.0814 z"
         style="font-weight:normal;-inkscape-font-specification:Ubuntu"
         id="path7850" /><path
         d="m -202.79369,263.15172 q 0.0315,0.0343 0.0564,0.0593 0.0269,0.0251 0.0473,0.039 l 0.16114,-0.14791 q -0.004,-0.0152 -0.0232,-0.0419 -0.0168,-0.0267 -0.0474,-0.0599 -0.02,-0.0218 -0.0461,-0.0439 -0.0251,-0.0211 -0.0546,-0.0323 -0.0275,-0.0112 -0.0576,-0.008 -0.029,0.002 -0.0571,0.0275 -0.052,0.0477 -0.0422,0.10006 0.0108,0.0514 0.0633,0.10857 z m 0.4768,-0.45298 q 0.0534,0.0582 0.0741,0.11203 0.0227,0.0539 0.0165,0.10358 -0.004,0.0498 -0.0331,0.0955 -0.0279,0.0447 -0.0736,0.0867 l -0.33785,0.31012 q -0.0135,-0.0106 -0.0387,-0.0296 -0.0232,-0.019 -0.052,-0.0442 -0.0289,-0.0252 -0.0615,-0.0566 -0.0327,-0.0294 -0.0623,-0.0616 -0.042,-0.0457 -0.0679,-0.0928 -0.0259,-0.0471 -0.032,-0.0933 -0.005,-0.0471 0.014,-0.0933 0.019,-0.0461 0.0657,-0.0891 0.0447,-0.041 0.0932,-0.0529 0.0494,-0.0109 0.0978,0.002 0.0484,0.0131 0.0959,0.046 0.0475,0.033 0.0895,0.0787 0.0134,0.0145 0.0256,0.032 0.0133,0.0165 0.0226,0.0329 0.0113,0.0165 0.0187,0.0288 0.007,0.0123 0.0102,0.0174 l 0.027,-0.0248 q 0.0239,-0.022 0.042,-0.0481 0.0191,-0.0271 0.0244,-0.0569 0.006,-0.0307 -0.005,-0.0641 -0.01,-0.0334 -0.0439,-0.0708 -0.0439,-0.0478 -0.0846,-0.0775 -0.0387,-0.0296 -0.0622,-0.0406 l 0.0695,-0.0849 q 0.0255,0.0111 0.0728,0.0481 0.0484,0.036 0.0951,0.087 z m 0.01,-0.16237 q -0.022,-0.0239 -0.0225,-0.0579 10e-4,-0.0339 0.0285,-0.0587 0.027,-0.0248 0.0599,-0.0224 0.0349,0.002 0.0568,0.0264 0.022,0.0239 0.0205,0.0578 5.4e-4,0.034 -0.0265,0.0588 -0.027,0.0248 -0.0619,0.0223 -0.0328,-0.002 -0.0548,-0.0263 z m 0.1813,0.19752 q -0.0219,-0.0239 -0.0225,-0.0579 0.001,-0.0339 0.0285,-0.0587 0.027,-0.0248 0.0599,-0.0224 0.0348,0.002 0.0568,0.0264 0.022,0.0239 0.0205,0.0578 5.4e-4,0.034 -0.0265,0.0588 -0.027,0.0248 -0.0619,0.0223 -0.0328,-0.002 -0.0548,-0.0263 z"
         style="font-weight:normal;-inkscape-font-specification:Ubuntu"
         id="path7852" /><path
         d="m -201.79796,263.26826 q 0.0115,0.0125 0.0237,0.03 0.0142,0.0176 0.0254,0.036 0.0122,0.0175 0.0206,0.0328 0.0103,0.0154 0.014,0.0236 l -0.0995,0.0607 q -0.006,-0.0153 -0.0259,-0.0471 -0.0176,-0.0317 -0.0558,-0.0733 -0.0248,-0.027 -0.0559,-0.0483 -0.0291,-0.0212 -0.0388,-0.0276 l -0.45429,0.41699 -0.0887,-0.0967 0.5177,-0.4752 q 0.044,0.0229 0.10112,0.0643 0.0582,0.0405 0.11639,0.10386 z"
         style="font-weight:normal;-inkscape-font-specification:Ubuntu"
         id="path7854" /><path
         d="m -201.70285,263.93948 q 0.0717,-0.0658 0.14383,-0.0937 0.0731,-0.0288 0.13997,-0.027 0.0668,0.002 0.12554,0.0303 0.0587,0.0285 0.10165,0.0753 0.10019,0.10916 0.085,0.23035 -0.0141,0.12024 -0.15343,0.24811 -0.006,0.006 -0.0166,0.0153 -0.009,0.009 -0.0186,0.0152 l -0.3397,-0.37009 q -0.0785,0.0835 -0.083,0.16623 -0.005,0.0827 0.0785,0.17314 0.0468,0.0509 0.0866,0.0776 0.0418,0.0268 0.0663,0.0368 l -0.0687,0.0879 q -0.0256,-0.009 -0.077,-0.0442 -0.0505,-0.0341 -0.102,-0.0903 -0.0649,-0.0707 -0.0918,-0.14175 -0.0249,-0.071 -0.018,-0.1386 0.007,-0.0676 0.0426,-0.13101 0.0377,-0.0633 0.099,-0.1196 z m 0.39367,0.32246 q 0.0665,-0.0591 0.0765,-0.13155 0.0121,-0.0724 -0.0423,-0.13164 -0.0305,-0.0333 -0.0679,-0.0468 -0.0354,-0.0135 -0.0724,-0.0121 -0.037,0.001 -0.0736,0.0158 -0.0356,0.0155 -0.0666,0.0381 z"
         style="font-weight:normal;-inkscape-font-specification:Ubuntu"
         id="path7856" /><path
         d="m -200.78742,264.39214 0.18798,0.20479 -0.0811,0.0744 -0.18798,-0.2048 -0.24949,0.22902 q -0.0405,0.0372 -0.0618,0.0683 -0.0203,0.0301 -0.0244,0.0569 -0.003,0.0258 0.008,0.0503 0.0109,0.0244 0.0338,0.0494 0.0401,0.0437 0.0733,0.0611 0.0352,0.0175 0.0489,0.0241 l -0.0629,0.0922 q -0.0206,-0.008 -0.0644,-0.0347 -0.0448,-0.0259 -0.0878,-0.0727 -0.0506,-0.0551 -0.0705,-0.10389 -0.0179,-0.0487 -0.01,-0.0963 0.008,-0.0476 0.04,-0.0942 0.034,-0.0465 0.088,-0.0961 l 0.48236,-0.44276 0.10538,0.0814 z"
         style="font-weight:normal;-inkscape-font-specification:Ubuntu"
         id="path7858" /><path
         d="m -200.40383,264.81004 0.18798,0.2048 -0.0811,0.0744 -0.18798,-0.2048 -0.24949,0.22901 q -0.0405,0.0372 -0.0618,0.0683 -0.0203,0.0301 -0.0244,0.0569 -0.003,0.0258 0.008,0.0503 0.0109,0.0244 0.0338,0.0494 0.0401,0.0437 0.0733,0.0611 0.0352,0.0175 0.0489,0.0241 l -0.0629,0.0922 q -0.0206,-0.008 -0.0644,-0.0347 -0.0448,-0.0259 -0.0878,-0.0727 -0.0506,-0.0551 -0.0705,-0.10389 -0.0179,-0.0487 -0.01,-0.0963 0.008,-0.0476 0.04,-0.0942 0.034,-0.0465 0.088,-0.0961 l 0.48235,-0.44276 0.10538,0.0814 z"
         style="font-weight:normal;-inkscape-font-specification:Ubuntu"
         id="path7860" /><path
         d="m -200.28494,266.04553 q -0.08,-0.0913 -0.0779,-0.16213 0.002,-0.0708 0.079,-0.14144 l 0.64869,-0.59543 0.10537,0.0814 -0.64972,0.59639 q -0.0239,0.022 -0.0357,0.0404 -0.0118,0.0185 -0.0126,0.0364 -7.6e-4,0.0179 0.008,0.0383 0.0102,0.0194 0.028,0.0451 z"
         style="font-weight:normal;-inkscape-font-specification:Ubuntu"
         id="path7862" /><path
         d="m -200.4384,266.2477 q -0.0114,-0.0125 -0.0265,-0.0351 -0.015,-0.0226 -0.0222,-0.0409 l 0.0905,-0.06 q 0.006,0.0133 0.0168,0.0287 0.0103,0.0154 0.0208,0.0269 0.0458,0.0499 0.0961,0.0421 0.0502,-0.006 0.10944,-0.0602 l 0.53121,-0.48761 0.0888,0.0967 -0.53018,0.48666 q -0.10396,0.0954 -0.19775,0.0934 -0.0939,-2e-5 -0.1769,-0.0905 z m 0.9577,-0.62814 q -0.0239,-0.026 -0.0244,-0.06 0.001,-0.0339 0.0306,-0.0606 0.0291,-0.0267 0.062,-0.0243 0.0348,0.002 0.0587,0.0285 0.0239,0.026 0.0224,0.0599 5.4e-4,0.034 -0.0286,0.0607 -0.0291,0.0267 -0.064,0.0242 -0.0329,-0.002 -0.0567,-0.0284 z"
         style="font-weight:normal;-inkscape-font-specification:Ubuntu"
         id="path7864" /><path
         d="m -199.51154,266.83744 q -0.0388,-0.0258 -0.0985,-0.0725 -0.0588,-0.0457 -0.12441,-0.11763 -0.057,-0.0626 -0.0783,-0.12149 -0.0202,-0.0599 -0.0106,-0.11636 0.01,-0.0565 0.044,-0.10884 0.0354,-0.0533 0.0907,-0.10368 l 0.30452,-0.27757 0.0884,0.097 -0.28366,0.25857 q -0.0991,0.0903 -0.11331,0.16057 -0.0142,0.0703 0.0532,0.1443 0.0143,0.0156 0.0305,0.0314 0.0162,0.0157 0.0306,0.0294 0.0154,0.0127 0.0269,0.0232 0.0135,0.0106 0.0203,0.0139 l 0.45783,-0.41731 0.0884,0.097 z"
         style="font-weight:normal;-inkscape-font-specification:Ubuntu"
         id="path7866" /><path
         d="m -199.18425,267.09624 q 0.053,0.0605 0.094,0.0752 0.042,0.0158 0.077,-0.0149 0.0361,-0.0316 0.0322,-0.0789 -0.004,-0.0473 -0.035,-0.13631 -0.0152,-0.043 -0.0285,-0.0839 -0.0113,-0.0408 -0.0119,-0.0778 -5.5e-4,-0.037 0.0138,-0.0721 0.0143,-0.035 0.0515,-0.0676 0.0732,-0.0642 0.16311,-0.0472 0.0909,0.016 0.17278,0.1094 0.0205,0.0233 0.0377,0.0495 0.0183,0.0252 0.0318,0.0491 0.0145,0.023 0.0233,0.0415 0.01,0.0196 0.014,0.0309 l -0.10071,0.0564 q -0.005,-0.0234 -0.0267,-0.0648 -0.0202,-0.0423 -0.062,-0.0901 -0.0363,-0.0414 -0.0802,-0.0573 -0.0429,-0.0168 -0.0779,0.0139 -0.018,0.0158 -0.0263,0.0343 -0.007,0.0195 -0.007,0.0436 0.002,0.0241 0.0115,0.0537 0.009,0.0296 0.0245,0.0686 0.0196,0.0523 0.0317,0.0961 0.0132,0.0429 0.0127,0.0808 4.2e-4,0.039 -0.0169,0.0749 -0.0163,0.0349 -0.0556,0.0693 -0.0764,0.067 -0.1659,0.0441 -0.0885,-0.0218 -0.18062,-0.12691 -0.0642,-0.0732 -0.0877,-0.12579 -0.0246,-0.0516 -0.0312,-0.0721 l 0.10072,-0.0564 q 0.009,0.0226 0.0283,0.0709 0.0198,0.0483 0.0738,0.10986 z"
         style="font-weight:normal;-inkscape-font-specification:Ubuntu"
         id="path7868" /><path
         d="m -198.78332,267.5629 q 0.0521,0.0613 0.0928,0.0767 0.0417,0.0164 0.0772,-0.0137 0.0366,-0.031 0.0334,-0.0784 -0.003,-0.0473 -0.0329,-0.13683 -0.0145,-0.0432 -0.0272,-0.0843 -0.0107,-0.0409 -0.0106,-0.078 2e-5,-0.037 0.0149,-0.0719 0.0149,-0.0348 0.0525,-0.0668 0.0742,-0.063 0.16383,-0.0447 0.0907,0.0174 0.17105,0.11209 0.0201,0.0237 0.037,0.0501 0.0179,0.0255 0.031,0.0496 0.0141,0.0232 0.0226,0.0419 0.009,0.0198 0.0135,0.0311 l -0.10158,0.0548 q -0.005,-0.0234 -0.0257,-0.0652 -0.0196,-0.0426 -0.0606,-0.091 -0.0356,-0.042 -0.0793,-0.0585 -0.0426,-0.0175 -0.0781,0.0126 -0.0183,0.0155 -0.0268,0.0338 -0.008,0.0194 -0.008,0.0434 0.002,0.0242 0.0106,0.0539 0.009,0.0297 0.0234,0.069 0.0187,0.0526 0.0302,0.0966 0.0125,0.0431 0.0114,0.081 -1.8e-4,0.039 -0.0181,0.0746 -0.0168,0.0347 -0.0567,0.0684 -0.0774,0.0657 -0.16657,0.0414 -0.0882,-0.0232 -0.17861,-0.12972 -0.063,-0.0742 -0.0857,-0.12714 -0.0238,-0.052 -0.0301,-0.0725 l 0.10159,-0.0548 q 0.008,0.0227 0.0272,0.0713 0.0191,0.0486 0.072,0.111 z"
         style="font-weight:normal;-inkscape-font-specification:Ubuntu"
         id="path7870" /><path
         d="m -198.08013,267.91332 q 0.003,0.0533 -0.004,0.11983 -0.005,0.0676 -0.0192,0.13859 -0.0117,0.0711 -0.0293,0.13979 -0.0165,0.0677 -0.0358,0.12123 l -0.0997,-0.11716 q 0.0184,-0.0546 0.0315,-0.11758 0.0151,-0.0628 0.0231,-0.12527 0.009,-0.0633 0.0109,-0.12225 0.002,-0.0589 -0.003,-0.10638 l -0.26872,0.22856 -0.085,-0.1 0.81692,-0.69482 0.10222,0.0853 -0.5095,0.43335 q 0.0477,0.004 0.10543,0.009 0.0577,0.005 0.11553,0.007 0.0578,0.003 0.10972,0.005 0.0529,10e-4 0.092,10e-4 l 0.0997,0.11716 q -0.0479,-0.002 -0.10484,-0.003 -0.0569,-0.002 -0.11676,-0.004 -0.0588,-0.004 -0.11951,-0.008 -0.0588,-0.004 -0.11155,-0.007 z"
         style="font-weight:normal;-inkscape-font-specification:Ubuntu"
         id="path7872" /><path
         d="m -197.85286,268.23931 q 0.074,-0.0632 0.14709,-0.0885 0.0741,-0.0262 0.14085,-0.0219 0.0667,0.004 0.12437,0.0348 0.0576,0.0306 0.0989,0.0788 0.0962,0.11267 0.0767,0.23324 -0.0184,0.11966 -0.16222,0.24246 -0.006,0.005 -0.0172,0.0147 -0.01,0.008 -0.0192,0.0145 l -0.32624,-0.38201 q -0.0814,0.0807 -0.0889,0.16315 -0.008,0.0825 0.0722,0.17584 0.0449,0.0526 0.0837,0.0807 0.0408,0.0282 0.065,0.0392 l -0.0718,0.0854 q -0.0252,-0.01 -0.0754,-0.047 -0.0492,-0.0359 -0.0987,-0.0938 -0.0623,-0.073 -0.0867,-0.14495 -0.0224,-0.0718 -0.0131,-0.13915 0.009,-0.0673 0.0472,-0.1294 0.0399,-0.0619 0.10322,-0.11599 z m 0.38188,0.33634 q 0.0685,-0.0567 0.0812,-0.12872 0.0147,-0.0719 -0.0376,-0.13308 -0.0293,-0.0343 -0.0662,-0.0493 -0.0349,-0.0148 -0.0719,-0.0147 -0.037,9e-5 -0.0741,0.0132 -0.0361,0.0142 -0.0679,0.0357 z"
         style="font-weight:normal;-inkscape-font-specification:Ubuntu"
         id="path7874" /><path
         d="m -197.05235,268.64179 q 0.038,0.0269 0.0964,0.0753 0.0584,0.0484 0.12184,0.12228 0.057,0.0663 0.0755,0.12679 0.0195,0.0595 0.007,0.11463 -0.0102,0.0553 -0.0481,0.10643 -0.0379,0.0512 -0.0946,0.0999 l -0.31249,0.26858 -0.0855,-0.0995 0.29109,-0.25018 q 0.0514,-0.0441 0.0813,-0.0829 0.0309,-0.0377 0.0395,-0.0731 0.009,-0.0354 -0.005,-0.0704 -0.0123,-0.036 -0.0463,-0.0756 -0.0138,-0.0161 -0.0296,-0.0322 -0.0158,-0.0162 -0.0317,-0.0304 -0.0139,-0.0141 -0.0271,-0.0251 -0.0123,-0.01 -0.0179,-0.0144 l -0.4698,0.40378 -0.0855,-0.0995 z"
         style="font-weight:normal;-inkscape-font-specification:Ubuntu"
         id="path7876" /><path
         d="m -196.14858,270.21533 q -0.066,0.0574 -0.13589,0.0846 -0.0699,0.0272 -0.13879,0.0254 -0.068,-7.1e-4 -0.13094,-0.0301 -0.0619,-0.0303 -0.11101,-0.0867 -0.0491,-0.0564 -0.0706,-0.12192 -0.0204,-0.0664 -0.0127,-0.1349 0.009,-0.0674 0.0452,-0.13289 0.0365,-0.0655 0.10254,-0.12292 0.0649,-0.0565 0.13483,-0.0837 0.071,-0.0281 0.13892,-0.0274 0.0689,0.002 0.13081,0.0321 0.063,0.0294 0.11207,0.0858 0.0491,0.0564 0.0695,0.12284 0.0215,0.0655 0.0128,0.13292 -0.008,0.0685 -0.0454,0.13488 -0.0366,0.0655 -0.10148,0.12199 z m -0.0899,-0.10326 q 0.0937,-0.0815 0.11091,-0.17134 0.0192,-0.0897 -0.0438,-0.16207 -0.063,-0.0724 -0.1554,-0.0668 -0.0904,0.006 -0.18409,0.0873 -0.0937,0.0815 -0.1129,0.1712 -0.0172,0.0898 0.0458,0.16221 0.063,0.0724 0.15341,0.0666 0.0924,-0.006 0.18607,-0.0871 z m 0.15476,-0.58738 q -0.0213,-0.0245 -0.0209,-0.0585 0.002,-0.0338 0.03,-0.0579 0.0277,-0.0241 0.0605,-0.0208 0.0348,0.003 0.0561,0.0279 0.0213,0.0245 0.019,0.0583 -3.6e-4,0.034 -0.028,0.0581 -0.0277,0.0241 -0.0625,0.0207 -0.0328,-0.003 -0.0541,-0.0277 z m 0.17602,0.20224 q -0.0213,-0.0245 -0.0209,-0.0585 0.002,-0.0339 0.03,-0.0579 0.0277,-0.0241 0.0605,-0.0208 0.0348,0.003 0.0561,0.0279 0.0213,0.0245 0.019,0.0583 -3.6e-4,0.034 -0.028,0.0581 -0.0277,0.0241 -0.0624,0.0207 -0.0328,-0.003 -0.0541,-0.0278 z"
         style="font-weight:normal;-inkscape-font-specification:Ubuntu"
         id="path7878" /><path
         d="m -195.38678,270.52631 q -0.19105,0.0947 -0.38244,0.16343 -0.19045,0.0698 -0.34843,0.11662 l -0.0783,-0.089 q 0.0667,-0.1507 0.15927,-0.33173 0.0935,-0.17997 0.2119,-0.35735 l 0.0932,0.10596 q -0.0407,0.0584 -0.0852,0.12752 -0.0424,0.0693 -0.0839,0.13959 -0.0395,0.0704 -0.0759,0.13811 -0.0363,0.0677 -0.0629,0.12295 0.0582,-0.0193 0.12997,-0.0466 0.0717,-0.0274 0.14575,-0.0586 0.076,-0.0311 0.14917,-0.0654 0.0752,-0.0342 0.13829,-0.0671 z"
         style="font-weight:normal;-inkscape-font-specification:Ubuntu"
         id="path7880" /><path
         d="m -195.61477,270.82448 q 0.0727,-0.0647 0.14525,-0.0915 0.0736,-0.0277 0.14038,-0.0248 0.0668,0.003 0.12506,0.0323 0.0583,0.0294 0.10047,0.0768 0.0985,0.11068 0.0815,0.23163 -0.016,0.12001 -0.15723,0.24572 -0.006,0.006 -0.0169,0.015 -0.009,0.008 -0.0188,0.0149 l -0.33399,-0.37526 q -0.0797,0.0823 -0.0856,0.16494 -0.006,0.0826 0.0758,0.17432 0.046,0.0516 0.0854,0.0789 0.0414,0.0274 0.0658,0.0378 l -0.07,0.0869 q -0.0254,-0.009 -0.0763,-0.0454 -0.0499,-0.0349 -0.1006,-0.0918 -0.0638,-0.0717 -0.0896,-0.14315 -0.0238,-0.0713 -0.0159,-0.13885 0.008,-0.0675 0.0446,-0.13034 0.0386,-0.0627 0.10082,-0.11807 z m 0.38868,0.32846 q 0.0674,-0.058 0.0786,-0.13036 0.0132,-0.0722 -0.0403,-0.13228 -0.03,-0.0337 -0.0672,-0.0479 -0.0352,-0.014 -0.0722,-0.0132 -0.037,8.4e-4 -0.0738,0.0147 -0.0358,0.0149 -0.0671,0.0371 z"
         style="font-weight:normal;-inkscape-font-specification:Ubuntu"
         id="path7882" /><path
         d="m -194.59728,271.38642 q 0.0113,0.0126 0.0234,0.0302 0.0141,0.0177 0.0251,0.0363 0.0121,0.0176 0.0203,0.033 0.0102,0.0155 0.0137,0.0237 l -0.10003,0.0597 q -0.006,-0.0153 -0.0255,-0.0473 -0.0173,-0.0319 -0.0551,-0.0738 -0.0246,-0.0273 -0.0554,-0.0488 -0.0289,-0.0215 -0.0385,-0.028 l -0.45814,0.41276 -0.0878,-0.0975 0.52209,-0.47038 q 0.0437,0.0233 0.10051,0.0652 0.0578,0.041 0.11543,0.10493 z"
         style="font-weight:normal;-inkscape-font-specification:Ubuntu"
         id="path7884" /><path
         d="m -194.5656,272.39388 q 0.0544,0.0592 0.0958,0.073 0.0423,0.0148 0.0766,-0.0167 0.0353,-0.0324 0.0304,-0.0796 -0.005,-0.0471 -0.0382,-0.13545 -0.0162,-0.0426 -0.0304,-0.0832 -0.0123,-0.0405 -0.0137,-0.0775 -0.001,-0.037 0.0121,-0.0724 0.0135,-0.0354 0.0499,-0.0688 0.0717,-0.0659 0.16196,-0.051 0.0913,0.0139 0.17529,0.10534 0.021,0.0229 0.0389,0.0486 0.0189,0.0248 0.0329,0.0483 0.015,0.0226 0.0242,0.041 0.0102,0.0194 0.0147,0.0306 l -0.0994,0.0587 q -0.006,-0.0232 -0.0282,-0.0641 -0.0212,-0.0418 -0.0641,-0.0886 -0.0372,-0.0405 -0.0815,-0.0554 -0.0433,-0.0158 -0.0776,0.0157 -0.0177,0.0162 -0.0254,0.0349 -0.007,0.0197 -0.006,0.0437 0.003,0.0241 0.0127,0.0535 0.01,0.0294 0.0261,0.068 0.0208,0.0518 0.0339,0.0953 0.0142,0.0426 0.0145,0.0805 0.001,0.039 -0.0152,0.0753 -0.0155,0.0353 -0.0539,0.0706 -0.0748,0.0687 -0.16483,0.0479 -0.089,-0.0198 -0.18354,-0.12266 -0.0659,-0.0717 -0.0906,-0.1237 -0.0258,-0.051 -0.0329,-0.0713 l 0.0994,-0.0587 q 0.009,0.0223 0.03,0.0702 0.0209,0.0478 0.0763,0.10811 z"
         style="font-weight:normal;-inkscape-font-specification:Ubuntu"
         id="path7886" /><path
         d="m -193.70372,272.38483 0.18946,0.20343 -0.0805,0.075 -0.18947,-0.20342 -0.24782,0.23082 q -0.0403,0.0375 -0.0613,0.0687 -0.0201,0.0302 -0.024,0.0571 -0.003,0.0259 0.008,0.0502 0.0111,0.0244 0.0342,0.0491 0.0404,0.0434 0.0737,0.0605 0.0353,0.0172 0.0491,0.0237 l -0.0622,0.0926 q -0.0207,-0.008 -0.0647,-0.0342 -0.045,-0.0256 -0.0883,-0.072 -0.051,-0.0547 -0.0712,-0.10337 -0.0182,-0.0486 -0.0106,-0.0962 0.008,-0.0476 0.0393,-0.0944 0.0336,-0.0467 0.0873,-0.0967 l 0.47913,-0.44625 0.10597,0.0806 z"
         style="font-weight:normal;-inkscape-font-specification:Ubuntu"
         id="path7888" /><path
         d="m -193.69795,273.32513 q 0.032,0.0338 0.0573,0.0585 0.0273,0.0247 0.0479,0.0382 l 0.1588,-0.1504 q -0.005,-0.0151 -0.0238,-0.0416 -0.0173,-0.0264 -0.0483,-0.0592 -0.0204,-0.0215 -0.0467,-0.0432 -0.0254,-0.0207 -0.055,-0.0314 -0.0276,-0.0107 -0.0577,-0.008 -0.029,0.002 -0.0567,0.0284 -0.0512,0.0485 -0.0407,0.1007 0.0116,0.0512 0.065,0.10757 z m 0.46967,-0.46037 q 0.0543,0.0574 0.0759,0.11086 0.0235,0.0535 0.0182,0.1033 -0.003,0.0498 -0.0316,0.096 -0.0272,0.0452 -0.0723,0.0879 l -0.33297,0.31536 q -0.0137,-0.0104 -0.0391,-0.029 -0.0234,-0.0186 -0.0527,-0.0433 -0.0293,-0.0247 -0.0624,-0.0556 -0.0332,-0.0288 -0.0632,-0.0606 -0.0427,-0.0451 -0.0694,-0.0917 -0.0267,-0.0466 -0.0334,-0.0927 -0.006,-0.0471 0.0125,-0.0935 0.0182,-0.0464 0.0643,-0.0901 0.044,-0.0417 0.0923,-0.0544 0.0492,-0.0116 0.0978,6.6e-4 0.0486,0.0123 0.0966,0.0446 0.048,0.0323 0.0907,0.0773 0.0136,0.0143 0.0261,0.0317 0.0135,0.0163 0.0231,0.0326 0.0115,0.0163 0.0192,0.0285 0.008,0.0122 0.0105,0.0172 l 0.0266,-0.0252 q 0.0236,-0.0223 0.0413,-0.0488 0.0187,-0.0274 0.0235,-0.0573 0.006,-0.0308 -0.006,-0.064 -0.0101,-0.0332 -0.045,-0.0701 -0.0446,-0.0471 -0.0858,-0.0762 -0.0391,-0.029 -0.0628,-0.0396 l 0.0682,-0.086 q 0.0257,0.0107 0.0736,0.0469 0.0489,0.0353 0.0965,0.0855 z"
         style="font-weight:normal;-inkscape-font-specification:Ubuntu"
         id="path7890" /><path
         d="m -192.68474,273.68219 q -0.002,-0.031 -0.0207,-0.0762 -0.0182,-0.0452 -0.0555,-0.0837 -0.0393,-0.0405 -0.0829,-0.0552 -0.0417,-0.0146 -0.0857,-0.007 -0.043,0.006 -0.0863,0.0325 -0.0433,0.0263 -0.0839,0.0655 -0.0922,0.0893 -0.0988,0.18403 -0.005,0.0937 0.0681,0.16975 0.0373,0.0385 0.0649,0.0609 0.0296,0.0224 0.0474,0.0327 z m 0.35479,-0.34358 0.10752,0.0786 -0.77143,0.74703 q -0.0405,-0.0236 -0.0987,-0.0654 -0.0582,-0.0419 -0.12202,-0.10774 -0.0589,-0.0608 -0.0868,-0.12813 -0.0279,-0.0673 -0.0258,-0.13614 0.002,-0.0688 0.0341,-0.13716 0.034,-0.0683 0.0979,-0.13016 0.0608,-0.0589 0.12623,-0.0928 0.0664,-0.0329 0.13233,-0.0378 0.066,-0.005 0.12843,0.019 0.0635,0.025 0.11844,0.0817 0.0442,0.0456 0.0654,0.0919 0.0222,0.0473 0.0277,0.0753 z"
         style="font-weight:normal;-inkscape-font-specification:Ubuntu"
         id="path7892" /><path
         d="m -192.62045,274.05359 q 0.0691,-0.0686 0.14002,-0.0993 0.072,-0.0317 0.13881,-0.0325 0.0669,-7.8e-4 0.12663,0.0254 0.0598,0.0261 0.10454,0.0712 0.10441,0.10512 0.094,0.22682 -0.009,0.1207 -0.14354,0.25396 -0.006,0.006 -0.016,0.0159 -0.009,0.009 -0.018,0.0159 l -0.35403,-0.35641 q -0.0751,0.0866 -0.0764,0.16937 -0.001,0.0828 0.0852,0.16992 0.0487,0.049 0.0896,0.0741 0.0428,0.0251 0.0677,0.0342 l -0.0652,0.0906 q -0.0259,-0.008 -0.0787,-0.0412 -0.0518,-0.0321 -0.10548,-0.0862 -0.0676,-0.0681 -0.0973,-0.13802 -0.0277,-0.0699 -0.0235,-0.13778 0.004,-0.0678 0.0374,-0.13258 0.0351,-0.0647 0.0942,-0.12342 z m 0.40608,0.30669 q 0.0641,-0.0616 0.0713,-0.13446 0.009,-0.0728 -0.0475,-0.12988 -0.0318,-0.032 -0.0697,-0.0441 -0.0359,-0.0121 -0.0728,-0.009 -0.0369,0.003 -0.0729,0.0187 -0.035,0.0168 -0.065,0.0407 z"
         style="font-weight:normal;-inkscape-font-specification:Ubuntu"
         id="path7894" /><path
         d="m -191.79545,274.38973 q 0.0402,0.0235 0.10249,0.0668 0.0623,0.0432 0.13189,0.11136 0.0625,0.0612 0.0861,0.11983 0.0246,0.0576 0.0172,0.11357 -0.005,0.0559 -0.0387,0.11018 -0.0334,0.0542 -0.0857,0.10768 l -0.28826,0.29442 -0.0938,-0.0918 0.26852,-0.27426 q 0.0474,-0.0484 0.0739,-0.0896 0.0275,-0.0402 0.0331,-0.0762 0.006,-0.036 -0.0107,-0.0697 -0.0153,-0.0348 -0.0526,-0.0713 -0.0151,-0.0148 -0.0322,-0.0296 -0.0171,-0.0148 -0.0342,-0.0276 -0.0151,-0.0128 -0.0292,-0.0226 -0.0131,-0.009 -0.0191,-0.0128 l -0.43338,0.44265 -0.0938,-0.0918 z"
         style="font-weight:normal;-inkscape-font-specification:Ubuntu"
         id="path7896" /><path
         d="m -191.50236,275.44332 q -0.007,0.009 -0.0146,0.0173 -0.007,0.007 -0.0146,0.0153 -0.0615,0.0642 -0.1404,0.10781 -0.0789,0.0456 -0.16614,0.0714 l -0.0509,-0.0937 q 0.0753,-0.0276 0.13515,-0.0738 0.0589,-0.0452 0.10381,-0.0921 0.0127,-0.0133 0.0234,-0.0265 0.0117,-0.0122 0.0214,-0.0244 z"
         style="font-weight:normal;-inkscape-font-specification:Ubuntu"
         id="path7898" /><path
         d="m -190.74247,275.40347 q 0.0409,0.0223 0.10443,0.0637 0.0636,0.0414 0.13517,0.10738 0.0643,0.0593 0.0896,0.11721 0.0263,0.0569 0.0205,0.11301 -0.004,0.0561 -0.0354,0.11128 -0.0317,0.0552 -0.0824,0.11019 l -0.27935,0.30289 -0.0965,-0.089 0.26022,-0.28215 q 0.0459,-0.0498 0.0712,-0.0917 0.0263,-0.041 0.0308,-0.0771 0.005,-0.0361 -0.0128,-0.0694 -0.0164,-0.0343 -0.0548,-0.0697 -0.0156,-0.0143 -0.0331,-0.0286 -0.0175,-0.0143 -0.035,-0.0265 -0.0155,-0.0124 -0.0298,-0.0218 -0.0133,-0.008 -0.0195,-0.0122 l -0.41999,0.45538 -0.0965,-0.089 z"
         style="font-weight:normal;-inkscape-font-specification:Ubuntu"
         id="path7900" /><path
         d="m -190.38029,276.56934 q 0.0348,0.031 0.0621,0.0533 0.0293,0.0223 0.051,0.034 l 0.1454,-0.1634 q -0.006,-0.0146 -0.0273,-0.0394 -0.0194,-0.0249 -0.0532,-0.0549 -0.0221,-0.0197 -0.0503,-0.0391 -0.0271,-0.0184 -0.0575,-0.0266 -0.0285,-0.008 -0.0581,-0.003 -0.0287,0.005 -0.054,0.0331 -0.0469,0.0527 -0.0319,0.10381 0.0159,0.05 0.0739,0.10164 z m 0.42868,-0.49876 q 0.059,0.0525 0.085,0.10398 0.028,0.0513 0.0269,0.10138 9.1e-4,0.0499 -0.0233,0.0983 -0.0232,0.0473 -0.0645,0.0937 l -0.30485,0.34261 q -0.0145,-0.009 -0.0415,-0.0256 -0.0249,-0.0165 -0.0562,-0.0387 -0.0313,-0.0222 -0.0669,-0.0501 -0.0355,-0.0259 -0.0682,-0.055 -0.0464,-0.0413 -0.077,-0.0855 -0.0306,-0.0442 -0.0412,-0.0896 -0.01,-0.0464 0.005,-0.0942 0.0142,-0.0478 0.0564,-0.0953 0.0403,-0.0453 0.0873,-0.0621 0.048,-0.0158 0.0975,-0.008 0.0494,0.008 0.10006,0.0362 0.0506,0.028 0.097,0.0693 0.0148,0.0131 0.0287,0.0293 0.0149,0.0151 0.0258,0.0305 0.0129,0.0152 0.0215,0.0267 0.009,0.0115 0.012,0.0163 l 0.0244,-0.0274 q 0.0216,-0.0242 0.0369,-0.0521 0.0163,-0.0289 0.0185,-0.0591 0.003,-0.0312 -0.0117,-0.0633 -0.0129,-0.0322 -0.0508,-0.066 -0.0485,-0.0431 -0.092,-0.0686 -0.0415,-0.0256 -0.066,-0.0341 l 0.0606,-0.0915 q 0.0265,0.008 0.0773,0.0405 0.0518,0.031 0.10343,0.0769 z m 0.25947,-0.0411 q -0.0225,0.0253 -0.0498,0.0369 -0.0253,0.0115 -0.0532,0.0131 -0.0269,5.8e-4 -0.0535,-0.01 -0.0255,-0.01 -0.0477,-0.0292 -0.0221,-0.0197 -0.0356,-0.0449 -0.0124,-0.0243 -0.015,-0.0511 -0.002,-0.0279 0.006,-0.0553 0.009,-0.0275 0.0319,-0.0528 0.0225,-0.0253 0.0478,-0.0368 0.0273,-0.0116 0.0543,-0.0122 0.0279,-0.002 0.0534,0.008 0.0266,0.0104 0.0487,0.0301 0.0221,0.0197 0.0345,0.044 0.0135,0.0252 0.0151,0.0531 0.003,0.0268 -0.007,0.0544 -0.007,0.0274 -0.0299,0.0527 z m -0.0527,-0.0469 q 0.0244,-0.0274 0.0207,-0.0572 -0.002,-0.0299 -0.0249,-0.0505 -0.0232,-0.0206 -0.0541,-0.0198 -0.0289,6.9e-4 -0.0533,0.0281 -0.0244,0.0274 -0.0226,0.0573 0.004,0.0298 0.0269,0.0504 0.0232,0.0206 0.0521,0.0199 0.0309,-8.1e-4 0.0553,-0.0282 z"
         style="font-weight:normal;-inkscape-font-specification:Ubuntu"
         id="path7902" /><path
         d="m -189.50488,276.48681 0.21068,0.18136 -0.0718,0.0834 -0.21069,-0.18135 -0.22094,0.25667 q -0.0359,0.0417 -0.0534,0.075 -0.0166,0.0323 -0.0176,0.0593 -6e-5,0.026 0.0137,0.049 0.0137,0.023 0.0394,0.0451 0.0449,0.0387 0.0799,0.0521 0.037,0.0132 0.0514,0.0182 l -0.0516,0.0989 q -0.0214,-0.005 -0.0681,-0.0269 -0.0476,-0.0205 -0.0957,-0.0619 -0.0567,-0.0488 -0.0821,-0.0949 -0.0235,-0.0463 -0.0211,-0.0945 0.002,-0.0482 0.0287,-0.0982 0.0283,-0.0502 0.0761,-0.10576 l 0.42716,-0.49623 0.11419,0.0685 z"
         style="font-weight:normal;-inkscape-font-specification:Ubuntu"
         id="path7904" /><path
         d="m -189.20334,277.57559 q 0.0623,0.0509 0.10519,0.0586 0.044,0.009 0.0735,-0.0275 0.0303,-0.0371 0.0187,-0.0831 -0.0117,-0.046 -0.0571,-0.12863 -0.0221,-0.0399 -0.0419,-0.078 -0.0179,-0.0383 -0.0246,-0.0747 -0.007,-0.0364 0.002,-0.0734 0.008,-0.0369 0.0396,-0.0752 0.0616,-0.0754 0.15304,-0.0736 0.0923,7.3e-4 0.1885,0.0793 0.024,0.0196 0.0454,0.0426 0.0222,0.0218 0.0394,0.0432 0.0181,0.0202 0.0298,0.0371 0.0128,0.0178 0.0189,0.0282 l -0.09,0.0722 q -0.009,-0.0221 -0.0371,-0.0594 -0.0269,-0.0384 -0.0761,-0.0786 -0.0426,-0.0348 -0.0886,-0.0432 -0.0451,-0.01 -0.0745,0.0266 -0.0152,0.0186 -0.0202,0.0381 -0.004,0.0204 4.3e-4,0.0441 0.006,0.0234 0.0202,0.0511 0.0138,0.0277 0.0355,0.0636 0.0279,0.0483 0.0471,0.0895 0.0201,0.0401 0.0259,0.0776 0.007,0.0384 -0.004,0.0767 -0.0103,0.0371 -0.0433,0.0776 -0.0643,0.0787 -0.15632,0.0709 -0.091,-0.007 -0.19914,-0.0953 -0.0754,-0.0616 -0.1073,-0.10953 -0.0328,-0.0468 -0.0427,-0.0659 l 0.09,-0.0722 q 0.0121,0.0208 0.0397,0.0652 0.0275,0.0444 0.0909,0.0961 z"
         style="font-weight:normal;-inkscape-font-specification:Ubuntu"
         id="path7906" /><path
         d="m -188.35625,277.43658 0.2184,0.17198 -0.0681,0.0865 -0.2184,-0.17198 -0.20952,0.26608 q -0.0341,0.0432 -0.0501,0.0773 -0.0152,0.033 -0.015,0.0601 0.001,0.026 0.0158,0.0484 0.0147,0.0224 0.0413,0.0433 0.0466,0.0367 0.0821,0.0485 0.0376,0.0116 0.0521,0.0159 l -0.0473,0.10108 q -0.0216,-0.004 -0.0692,-0.0239 -0.0484,-0.0184 -0.0983,-0.0577 -0.0588,-0.0463 -0.0862,-0.0912 -0.0255,-0.0452 -0.0252,-0.0935 2.9e-4,-0.0483 0.0244,-0.0994 0.026,-0.0513 0.0714,-0.10898 l 0.40508,-0.51441 0.11707,0.0634 z"
         style="font-weight:normal;-inkscape-font-specification:Ubuntu"
         id="path7908" /><path
         d="m -187.73758,278.37096 q -0.0525,0.07 -0.11522,0.11113 -0.0627,0.0412 -0.13042,0.0538 -0.0666,0.0135 -0.13433,-0.002 -0.0669,-0.0167 -0.12668,-0.0616 -0.0598,-0.0449 -0.0945,-0.10448 -0.0338,-0.0607 -0.0406,-0.12928 -0.006,-0.0677 0.0164,-0.13941 0.0221,-0.0717 0.0746,-0.14163 0.0517,-0.0688 0.11436,-0.10999 0.0635,-0.0423 0.13014,-0.0558 0.0677,-0.0127 0.13462,0.004 0.0677,0.0156 0.12753,0.0605 0.0598,0.0449 0.0936,0.10561 0.0347,0.0596 0.0403,0.12731 0.007,0.0686 -0.0162,0.14138 -0.0221,0.0717 -0.0737,0.1405 z m -0.10945,-0.0822 q 0.0746,-0.0993 0.0726,-0.19074 6e-5,-0.0917 -0.0767,-0.14934 -0.0767,-0.0576 -0.16592,-0.0328 -0.0872,0.0245 -0.16179,0.1238 -0.0746,0.0993 -0.0746,0.19101 0.002,0.0915 0.0787,0.14907 0.0767,0.0576 0.16395,0.0331 0.0892,-0.0248 0.16377,-0.12408 z"
         style="font-weight:normal;-inkscape-font-specification:Ubuntu"
         id="path7910" /><path
         d="m -187.15171,278.31908 q 0.0138,0.01 0.0294,0.0244 0.0176,0.0143 0.0324,0.03 0.0156,0.0146 0.0269,0.0279 0.0133,0.0129 0.0186,0.0202 l -0.0847,0.08 q -0.009,-0.0136 -0.0351,-0.0406 -0.0238,-0.0274 -0.0698,-0.0601 -0.0299,-0.0213 -0.0647,-0.0357 -0.0328,-0.0147 -0.0436,-0.019 l -0.35796,0.50213 -0.10686,-0.0762 0.40792,-0.57222 q 0.0478,0.0132 0.11224,0.0419 0.0653,0.0275 0.13541,0.0775 z"
         style="font-weight:normal;-inkscape-font-specification:Ubuntu"
         id="path7912" /><path
         d="m -186.84862,278.54843 0.22982,0.15641 -0.0619,0.091 -0.22982,-0.15641 -0.19054,0.27998 q -0.031,0.0455 -0.0446,0.0806 -0.0128,0.0339 -0.0108,0.061 0.003,0.0258 0.0191,0.0471 0.0162,0.0213 0.0442,0.0403 0.049,0.0333 0.0853,0.0427 0.0383,0.009 0.0531,0.0122 l -0.0401,0.10412 q -0.0219,-0.003 -0.0707,-0.0191 -0.0496,-0.015 -0.10206,-0.0507 -0.0618,-0.0421 -0.0923,-0.085 -0.0285,-0.0433 -0.0316,-0.0915 -0.003,-0.0482 0.0174,-0.10081 0.0224,-0.053 0.0637,-0.11368 l 0.36839,-0.54129 0.1212,0.0552 z"
         style="font-weight:normal;-inkscape-font-specification:Ubuntu"
         id="path7914" /><path
         d="m -185.87584,279.60924 q -0.0459,0.0745 -0.10463,0.12115 -0.0587,0.0467 -0.12498,0.0655 -0.0651,0.0195 -0.13396,0.0102 -0.0681,-0.0105 -0.13176,-0.0498 -0.0636,-0.0393 -0.1036,-0.0954 -0.0392,-0.0574 -0.0522,-0.12505 -0.0117,-0.067 0.004,-0.14033 0.0154,-0.0734 0.0614,-0.14783 0.0452,-0.0733 0.10388,-0.11995 0.0594,-0.0479 0.12452,-0.0674 0.0663,-0.0188 0.13442,-0.008 0.0689,0.009 0.13251,0.0486 0.0636,0.0393 0.10285,0.0967 0.04,0.0562 0.0517,0.12312 0.0129,0.0677 -0.003,0.14226 -0.0154,0.0734 -0.0607,0.14663 z m -0.11648,-0.0719 q 0.0652,-0.10567 0.055,-0.19656 -0.008,-0.0913 -0.0899,-0.14174 -0.0816,-0.0504 -0.16823,-0.0176 -0.0846,0.0323 -0.14985,0.138 -0.0652,0.10567 -0.0569,0.19702 0.0102,0.0909 0.0919,0.14129 0.0817,0.0504 0.16629,0.0181 0.0866,-0.0328 0.15179,-0.13847 z"
         style="font-weight:normal;-inkscape-font-specification:Ubuntu"
         id="path7916" /><path
         d="m -185.63944,280.18637 q -0.0773,-0.0439 -0.12223,-0.10193 -0.0437,-0.0573 -0.0591,-0.12449 -0.0142,-0.0665 3.8e-4,-0.13774 0.0152,-0.0725 0.0571,-0.14611 0.0418,-0.0736 0.0976,-0.12309 0.0569,-0.0488 0.1213,-0.0706 0.0651,-0.0231 0.13544,-0.0156 0.0723,0.007 0.14223,0.0468 0.0429,0.0244 0.0817,0.0562 0.0387,0.0318 0.069,0.07 l -0.0808,0.0823 q -0.0188,-0.0269 -0.049,-0.0538 -0.0289,-0.0262 -0.067,-0.0478 -0.0957,-0.0544 -0.18138,-0.0236 -0.0845,0.0315 -0.15001,0.14685 -0.0293,0.0515 -0.0427,0.10074 -0.0121,0.0499 -0.005,0.0945 0.008,0.0453 0.0378,0.0848 0.0302,0.0383 0.0866,0.0703 0.0454,0.0258 0.0871,0.0381 0.0417,0.0123 0.0681,0.0144 l -0.0384,0.10475 q -0.0133,5.6e-4 -0.0352,-0.004 -0.0212,-0.006 -0.0466,-0.0151 -0.0261,-0.008 -0.0545,-0.0212 -0.0279,-0.011 -0.0524,-0.0249 z"
         style="font-weight:normal;-inkscape-font-specification:Ubuntu"
         id="path7918" /><path
         d="m -185.33645,280.3361 0.49297,-0.95243 0.12692,0.0403 -0.17254,0.33335 q 0.0391,0.004 0.0787,0.0169 0.0415,0.0119 0.0778,0.0307 0.0777,0.0402 0.1174,0.0894 0.0404,0.0479 0.0497,0.10357 0.0112,0.0551 -0.005,0.11669 -0.016,0.0616 -0.0504,0.12805 l -0.1894,0.36593 -0.11655,-0.0603 0.17643,-0.34087 q 0.0311,-0.0602 0.0444,-0.1073 0.0145,-0.0465 0.009,-0.0825 -0.005,-0.036 -0.0307,-0.0635 -0.0248,-0.0288 -0.0712,-0.0528 -0.0188,-0.01 -0.0402,-0.0176 -0.0213,-0.008 -0.0421,-0.0138 -0.0188,-0.007 -0.0358,-0.0106 -0.0157,-0.003 -0.0233,-0.004 l -0.28021,0.54139 z"
         style="font-weight:normal;-inkscape-font-specification:Ubuntu"
         id="path7920" /><path
         d="m -183.87216,280.95618 q -0.02,0.004 -0.0726,8.2e-4 -0.0508,-0.004 -0.11032,-0.0293 -0.0609,-0.0264 -0.10681,-0.0694 -0.0447,-0.0424 -0.0674,-0.1 -0.0222,-0.0588 -0.0191,-0.12978 0.003,-0.0709 0.0395,-0.15511 0.032,-0.0738 0.0804,-0.12512 0.0489,-0.0526 0.10945,-0.0787 0.0624,-0.0268 0.13388,-0.025 0.0721,4.7e-4 0.14847,0.0336 0.0842,0.0365 0.1407,0.0763 0.0584,0.0391 0.0966,0.068 l -0.26034,0.60078 q -0.0673,0.15537 -0.1779,0.1905 -0.11057,0.0351 -0.27372,-0.0356 -0.0634,-0.0275 -0.11592,-0.0625 -0.0512,-0.0345 -0.0865,-0.0667 l 0.0675,-0.0953 q 0.0301,0.03 0.0774,0.0628 0.048,0.0347 0.10501,0.0593 0.10747,0.0466 0.17259,0.024 0.0664,-0.022 0.10682,-0.11519 z m 0.21527,-0.50034 q -0.0159,-0.013 -0.0453,-0.0304 -0.0275,-0.0181 -0.0793,-0.0405 -0.0971,-0.0421 -0.17768,-0.002 -0.0793,0.041 -0.12473,0.14588 -0.0252,0.0583 -0.029,0.10587 -0.002,0.0482 0.0104,0.086 0.0141,0.0384 0.0409,0.0654 0.0281,0.0275 0.063,0.0427 0.0479,0.0208 0.0937,0.0252 0.0463,0.003 0.0775,-0.005 z"
         style="font-weight:normal;-inkscape-font-specification:Ubuntu"
         id="path7922" /><path
         d="m -183.01738,281.34188 q -0.0463,-0.005 -0.12083,-0.019 -0.0732,-0.0135 -0.16459,-0.0472 -0.0794,-0.0293 -0.12541,-0.0718 -0.0455,-0.0439 -0.063,-0.0984 -0.0175,-0.0546 -0.011,-0.11688 0.007,-0.0636 0.0328,-0.13379 l 0.14261,-0.38658 0.12312,0.0454 -0.13284,0.36011 q -0.0464,0.12577 -0.0267,0.1947 0.0197,0.0689 0.11369,0.1036 0.0199,0.007 0.0415,0.0138 0.0217,0.006 0.0407,0.012 0.0195,0.004 0.0346,0.008 0.0169,0.003 0.0245,0.003 l 0.2144,-0.5812 0.12312,0.0454 z"
         style="font-weight:normal;-inkscape-font-specification:Ubuntu"
         id="path7924" /><path
         d="m -182.60442,281.51138 q -0.11474,-0.0396 -0.14811,-0.10212 -0.0334,-0.0625 -0.002,-0.16197 l 0.26793,-0.83879 0.13188,0.0184 -0.26836,0.84012 q -0.01,0.0309 -0.0109,0.0528 -0.001,0.0219 0.007,0.0378 0.008,0.016 0.0263,0.0291 0.0185,0.0118 0.0467,0.0253 z"
         style="font-weight:normal;-inkscape-font-specification:Ubuntu"
         id="path7926" /><path
         d="m -182.12687,280.87195 0.26781,0.0745 -0.0295,0.10604 -0.26781,-0.0746 -0.0908,0.32626 q -0.0148,0.053 -0.0164,0.0906 -0.001,0.0363 0.009,0.0612 0.011,0.0236 0.0332,0.0385 0.0222,0.015 0.0548,0.024 0.0571,0.0159 0.0945,0.0131 0.0391,-0.004 0.0542,-0.005 l -0.005,0.11149 q -0.0217,0.004 -0.073,0.005 -0.0517,0.002 -0.11291,-0.0153 -0.072,-0.0201 -0.11471,-0.051 -0.0409,-0.0319 -0.0593,-0.0765 -0.0183,-0.0446 -0.0158,-0.10107 0.004,-0.0574 0.0239,-0.12809 l 0.17558,-0.63078 0.13249,0.0135 z"
         style="font-weight:normal;-inkscape-font-specification:Ubuntu"
         id="path7928" /><path
         d="m -181.39073,281.70627 q 0.0789,0.0154 0.12039,0.002 0.0428,-0.0132 0.0518,-0.0589 0.009,-0.0471 -0.0228,-0.0821 -0.032,-0.035 -0.11108,-0.0864 -0.0383,-0.0247 -0.0738,-0.0489 -0.0339,-0.0253 -0.057,-0.0543 -0.0231,-0.029 -0.0332,-0.0654 -0.0101,-0.0365 -6.6e-4,-0.085 0.0187,-0.0956 0.10012,-0.13716 0.0817,-0.043 0.2036,-0.0192 0.0305,0.006 0.0601,0.0161 0.0299,0.009 0.0552,0.0194 0.0255,0.009 0.0438,0.0186 0.0197,0.01 0.03,0.0159 l -0.0452,0.1062 q -0.0186,-0.0151 -0.0608,-0.0349 -0.0419,-0.0211 -0.1042,-0.0333 -0.054,-0.0105 -0.0985,0.004 -0.0442,0.0129 -0.0531,0.0586 -0.005,0.0236 2e-4,0.0432 0.006,0.0199 0.0212,0.0387 0.0167,0.0176 0.0419,0.0355 0.0253,0.0179 0.0613,0.0393 0.0474,0.0294 0.0838,0.0566 0.0367,0.0258 0.0595,0.0562 0.0242,0.0306 0.0324,0.0696 0.008,0.0376 -0.002,0.0888 -0.0195,0.0997 -0.10427,0.13635 -0.0834,0.0369 -0.22052,0.0101 -0.0956,-0.0187 -0.14633,-0.0458 -0.051,-0.0258 -0.0688,-0.0379 l 0.0452,-0.1062 q 0.0205,0.0126 0.0658,0.0387 0.0452,0.0261 0.12555,0.0418 z"
         style="font-weight:normal;-inkscape-font-specification:Ubuntu"
         id="path7930" /><path
         d="m -180.27359,281.59627 q -0.0104,0.0869 -0.0441,0.15389 -0.0336,0.067 -0.0859,0.11191 -0.0509,0.0451 -0.1173,0.0655 -0.0662,0.0191 -0.1405,0.0101 -0.0743,-0.009 -0.13411,-0.0431 -0.0597,-0.0356 -0.0999,-0.0916 -0.0388,-0.0558 -0.0556,-0.12891 -0.0168,-0.0731 -0.006,-0.15994 0.0103,-0.0855 0.0439,-0.15249 0.0338,-0.0684 0.0847,-0.11348 0.0523,-0.0449 0.11854,-0.0639 0.0664,-0.0205 0.14066,-0.0115 0.0743,0.009 0.13394,0.0445 0.0598,0.0342 0.0986,0.09 0.0402,0.056 0.0568,0.13047 0.0168,0.0731 0.007,0.15855 z m -0.13591,-0.0163 q 0.0148,-0.12329 -0.0327,-0.20147 -0.0459,-0.0794 -0.14116,-0.0909 -0.0953,-0.0114 -0.16006,0.0547 -0.0632,0.0649 -0.078,0.18819 -0.0148,0.12329 0.0311,0.2027 0.0475,0.0782 0.14273,0.0896 0.0953,0.0114 0.15849,-0.0534 0.0648,-0.0661 0.0796,-0.18942 z"
         style="font-weight:normal;-inkscape-font-specification:Ubuntu"
         id="path7932" /><path
         d="m -180.09874,281.26172 q 0.0456,-0.009 0.11949,-0.0187 0.0753,-0.009 0.17255,-0.005 0.0705,0.003 0.11753,0.025 0.0471,0.0205 0.0779,0.0586 0.0102,-0.007 0.0319,-0.0183 0.0217,-0.0117 0.0532,-0.0216 0.0316,-0.0113 0.07,-0.0181 0.0385,-0.008 0.0822,-0.006 0.0846,0.004 0.13701,0.0316 0.0525,0.0264 0.0801,0.0728 0.029,0.0465 0.0361,0.10897 0.008,0.0625 0.005,0.13583 l -0.0184,0.41164 -0.13111,-0.006 0.0172,-0.38344 q 0.003,-0.0648 -0.002,-0.11168 -0.004,-0.0468 -0.0205,-0.0786 -0.0155,-0.0318 -0.0459,-0.0472 -0.0289,-0.0168 -0.0768,-0.019 -0.0663,-0.003 -0.11078,0.0134 -0.043,0.015 -0.0592,0.0284 0.01,0.0372 0.0133,0.0811 0.004,0.0439 0.002,0.0919 l -0.0184,0.41163 -0.1311,-0.006 0.0172,-0.38344 q 0.003,-0.0649 -0.002,-0.11168 -0.005,-0.0468 -0.0219,-0.0787 -0.0155,-0.0318 -0.0459,-0.0473 -0.0289,-0.0168 -0.0754,-0.0189 -0.0197,-8.9e-4 -0.0423,-4.9e-4 -0.0226,4e-4 -0.0439,0.002 -0.0198,5.2e-4 -0.0368,0.003 -0.0171,0.002 -0.0228,0.003 l -0.0277,0.61885 -0.1311,-0.006 z"
         style="font-weight:normal;-inkscape-font-specification:Ubuntu"
         id="path7934" /><path
         d="m -178.33613,281.9493 q 0.0465,0.002 0.0818,0.003 0.0368,-8.9e-4 0.061,-0.005 l 0.0115,-0.21842 q -0.0137,-0.008 -0.0459,-0.0137 -0.0307,-0.007 -0.0758,-0.01 -0.0296,-0.002 -0.0636,8.9e-4 -0.0326,0.003 -0.0616,0.0151 -0.0274,0.0113 -0.047,0.0343 -0.0195,0.0216 -0.0215,0.0596 -0.004,0.0705 0.0399,0.10101 0.0437,0.0291 0.12119,0.0332 z m 0.0232,-0.65727 q 0.0789,0.004 0.13135,0.0281 0.0539,0.0226 0.0843,0.0624 0.0319,0.0384 0.0433,0.0913 0.0114,0.0515 0.008,0.11347 l -0.0241,0.45798 q -0.0171,0.002 -0.0484,0.006 -0.0298,0.003 -0.0681,0.005 -0.0383,0.002 -0.0835,0.003 -0.0439,0.002 -0.0876,-3.6e-4 -0.062,-0.003 -0.11348,-0.0187 -0.0515,-0.0154 -0.0881,-0.0442 -0.0366,-0.0302 -0.0553,-0.0764 -0.0188,-0.0462 -0.0154,-0.10962 0.003,-0.0606 0.0294,-0.10301 0.0277,-0.0424 0.0713,-0.0669 0.0437,-0.0245 0.10072,-0.0343 0.057,-0.01 0.11903,-0.006 0.0197,0.001 0.0407,0.005 0.0211,0.003 0.0392,0.008 0.0196,0.004 0.0335,0.007 0.0139,0.004 0.0195,0.005 l 0.002,-0.0366 q 0.002,-0.0324 -0.004,-0.0638 -0.005,-0.0328 -0.0224,-0.0577 -0.017,-0.0263 -0.0486,-0.0421 -0.0302,-0.0171 -0.0809,-0.0198 -0.0648,-0.003 -0.11466,0.004 -0.0484,0.006 -0.0728,0.0145 l -0.01,-0.10932 q 0.026,-0.01 0.0857,-0.0167 0.0598,-0.008 0.12883,-0.005 z"
         style="font-weight:normal;-inkscape-font-specification:Ubuntu"
         id="path7936" /><path
         d="m -177.63478,282.09865 q -0.12095,-0.0103 -0.16863,-0.0627 -0.0477,-0.0524 -0.0413,-0.15663 l 0.0539,-0.87888 0.13237,-0.0145 -0.054,0.88029 q -0.002,0.0324 0.002,0.0539 0.004,0.0215 0.0162,0.0349 0.0119,0.0135 0.0326,0.0218 0.0208,0.007 0.0515,0.0131 z"
         style="font-weight:normal;-inkscape-font-specification:Ubuntu"
         id="path7938" /><path
         d="m -177.2512,282.12419 q -0.12089,-0.011 -0.16825,-0.0637 -0.0474,-0.0527 -0.0403,-0.15688 l 0.0592,-0.87854 0.13245,-0.0137 -0.0593,0.87995 q -0.002,0.0324 0.002,0.0539 0.004,0.0215 0.016,0.035 0.0118,0.0135 0.0325,0.022 0.0207,0.007 0.0514,0.0134 z"
         style="font-weight:normal;-inkscape-font-specification:Ubuntu"
         id="path7940" /><path
         d="m -176.83,282.04616 q 0.0464,0.004 0.0817,0.005 0.0368,-2e-5 0.0611,-0.004 l 0.0167,-0.21809 q -0.0135,-0.008 -0.0456,-0.0148 -0.0305,-0.008 -0.0755,-0.0114 -0.0296,-0.002 -0.0636,-6.2e-4 -0.0327,0.002 -0.0619,0.0137 -0.0277,0.0106 -0.0478,0.0331 -0.02,0.0211 -0.0229,0.0591 -0.005,0.0703 0.0375,0.10193 0.043,0.0302 0.12037,0.0361 z m 0.0389,-0.65653 q 0.0788,0.006 0.13064,0.0312 0.0534,0.0239 0.0828,0.0644 0.031,0.0392 0.0411,0.0923 0.0102,0.0517 0.005,0.11364 l -0.035,0.45727 q -0.0171,0.002 -0.0485,0.005 -0.0299,0.002 -0.0682,0.003 -0.0383,0.001 -0.0836,6.9e-4 -0.0439,8.9e-4 -0.0876,-0.002 -0.0619,-0.005 -0.113,-0.0214 -0.0511,-0.0166 -0.087,-0.0463 -0.0358,-0.031 -0.0535,-0.0777 -0.0177,-0.0466 -0.0128,-0.10995 0.005,-0.0605 0.0319,-0.10229 0.0287,-0.0417 0.0729,-0.0652 0.0443,-0.0235 0.1015,-0.0319 0.0572,-0.008 0.11916,-0.004 0.0197,0.002 0.0406,0.006 0.021,0.003 0.039,0.009 0.0195,0.004 0.0333,0.008 0.0139,0.004 0.0194,0.006 l 0.003,-0.0366 q 0.002,-0.0324 -0.002,-0.0639 -0.005,-0.0329 -0.021,-0.0582 -0.0164,-0.0267 -0.0476,-0.0433 -0.0298,-0.0178 -0.0804,-0.0217 -0.0647,-0.005 -0.11472,10e-4 -0.0485,0.005 -0.0732,0.0128 l -0.007,-0.10952 q 0.0262,-0.009 0.086,-0.0147 0.06,-0.007 0.1289,-0.001 z"
         style="font-weight:normal;-inkscape-font-specification:Ubuntu"
         id="path7942" /><path
         d="m -175.84689,282.12916 q 0.0801,0.007 0.11999,-0.0101 0.0413,-0.0174 0.0456,-0.0638 0.004,-0.0478 -0.0309,-0.0794 -0.0353,-0.0316 -0.11915,-0.0749 -0.0406,-0.0208 -0.0784,-0.0413 -0.0362,-0.0218 -0.0621,-0.0483 -0.0259,-0.0265 -0.0396,-0.0618 -0.0137,-0.0353 -0.009,-0.0845 0.009,-0.0969 0.0859,-0.14646 0.077,-0.0509 0.20067,-0.0394 0.0309,0.003 0.0614,0.01 0.0306,0.006 0.0568,0.0138 0.0263,0.007 0.0454,0.0142 0.0206,0.008 0.0314,0.0128 l -0.0344,0.11018 q -0.02,-0.0132 -0.0639,-0.0286 -0.0438,-0.0168 -0.107,-0.0227 -0.0548,-0.005 -0.0976,0.0136 -0.0427,0.0173 -0.047,0.0636 -0.002,0.0239 0.005,0.0429 0.008,0.0192 0.025,0.0363 0.0184,0.0159 0.0453,0.0312 0.0269,0.0153 0.0649,0.033 0.0502,0.0245 0.0891,0.048 0.039,0.0221 0.0648,0.05 0.0271,0.028 0.0392,0.066 0.0122,0.0366 0.007,0.0885 -0.009,0.10116 -0.0902,0.14607 -0.0793,0.045 -0.21841,0.0321 -0.097,-0.009 -0.15017,-0.031 -0.0533,-0.0206 -0.0722,-0.0308 l 0.0344,-0.11018 q 0.0217,0.0105 0.0693,0.032 0.0476,0.0214 0.12909,0.029 z"
         style="font-weight:normal;-inkscape-font-specification:Ubuntu"
         id="path7944" /><path
         d="m -175.40101,281.89902 q 0.0102,-0.0968 0.0459,-0.16543 0.0358,-0.07 0.0871,-0.11282 0.0514,-0.0428 0.11421,-0.0603 0.0629,-0.0175 0.12601,-0.0108 0.14735,0.0156 0.21614,0.11649 0.069,0.0995 0.0491,0.28756 -8.9e-4,0.008 -0.002,0.0225 -10e-4,0.0126 -0.004,0.0237 l -0.49957,-0.0528 q -0.004,0.11456 0.0477,0.17958 0.0513,0.065 0.1734,0.0779 0.0688,0.007 0.11626,9.3e-4 0.049,-0.008 0.0741,-0.0163 l 0.007,0.11138 q -0.0252,0.0101 -0.087,0.0178 -0.0604,0.008 -0.1362,-2e-4 -0.0954,-0.0101 -0.16263,-0.0456 -0.0656,-0.0367 -0.10521,-0.092 -0.0396,-0.0553 -0.0548,-0.12639 -0.0136,-0.0724 -0.005,-0.15519 z m 0.50854,-0.0186 q 0.0107,-0.0883 -0.0296,-0.14928 -0.0388,-0.0623 -0.11882,-0.0707 -0.0449,-0.005 -0.0819,0.01 -0.0355,0.0133 -0.0623,0.0388 -0.0268,0.0256 -0.0447,0.0606 -0.0165,0.0351 -0.0247,0.0726 z"
         style="font-weight:normal;-inkscape-font-specification:Ubuntu"
         id="path7946" /><path
         d="m -174.25812,281.63915 q 0.0168,0.002 0.0375,0.007 0.0223,0.004 0.0428,0.0107 0.0207,0.005 0.037,0.0114 0.0179,0.005 0.026,0.009 l -0.0357,0.11089 q -0.0148,-0.007 -0.0504,-0.0187 -0.0341,-0.0125 -0.0901,-0.0191 -0.0364,-0.004 -0.0739,-1.3e-4 -0.0359,0.003 -0.0474,0.004 l -0.0718,0.61246 -0.13035,-0.0153 0.0818,-0.69795 q 0.0482,-0.0114 0.11854,-0.0174 0.0705,-0.007 0.15597,0.003 z"
         style="font-weight:normal;-inkscape-font-specification:Ubuntu"
         id="path7948" /><path
         d="m -173.98876,282.35072 q -0.005,0.0378 -0.0334,0.0627 -0.0287,0.0248 -0.0721,0.0194 -0.0434,-0.005 -0.0651,-0.0366 -0.0217,-0.0312 -0.017,-0.069 0.005,-0.0378 0.0334,-0.0627 0.0287,-0.0248 0.0721,-0.0194 0.0434,0.005 0.0651,0.0366 0.0217,0.0311 0.017,0.069 z"
         style="font-weight:normal;-inkscape-font-specification:Ubuntu"
         id="path7950" /><path
         d="m -173.21426,282.54069 q -0.0293,-0.004 -0.064,-0.0107 -0.0333,-0.006 -0.0678,-0.0141 -0.0331,-0.008 -0.066,-0.0167 -0.0329,-0.009 -0.0598,-0.0201 l 0.13596,-0.93847 q 0.0289,-0.003 0.0631,-0.002 0.0341,6.7e-4 0.068,0.003 0.0353,0.002 0.069,0.006 0.0337,0.003 0.063,0.008 0.0838,0.0121 0.15459,0.0352 0.0722,0.0233 0.12081,0.0617 0.0502,0.0372 0.0739,0.0906 0.0237,0.0533 0.0133,0.12455 -0.0115,0.0796 -0.0567,0.12582 -0.045,0.0448 -0.11147,0.0608 0.0815,0.0375 0.12393,0.0992 0.0424,0.0617 0.028,0.1609 -0.021,0.14524 -0.1393,0.20368 -0.11666,0.0572 -0.34848,0.0236 z m -0.0605,-0.47787 -0.0494,0.34076 q 0.0152,0.004 0.0359,0.008 0.018,0.004 0.0415,0.009 0.0251,0.004 0.0573,0.008 0.0601,0.009 0.11413,0.009 0.0557,-4.8e-4 0.099,-0.0142 0.0433,-0.0137 0.0721,-0.0452 0.0302,-0.0313 0.0379,-0.0843 0.007,-0.0475 -0.007,-0.0822 -0.0133,-0.0362 -0.0454,-0.0607 -0.0307,-0.0244 -0.077,-0.0397 -0.0463,-0.0153 -0.10492,-0.0238 z m 0.0158,-0.10892 0.14245,0.0206 q 0.0503,0.007 0.096,0.007 0.0457,-5.1e-4 0.0804,-0.014 0.0362,-0.0133 0.0585,-0.04 0.0238,-0.0265 0.0303,-0.0712 0.006,-0.0419 -0.009,-0.0727 -0.0153,-0.0322 -0.0478,-0.054 -0.0309,-0.023 -0.0757,-0.0381 -0.0449,-0.0151 -0.0965,-0.0225 -0.0517,-0.007 -0.0812,-0.0103 -0.0295,-0.003 -0.0537,-0.004 z"
         style="font-weight:normal;-inkscape-font-specification:Ubuntu"
         id="path7952" /><path
         d="m -172.32676,282.57257 q 0.046,0.008 0.081,0.0119 0.0367,0.003 0.0613,10e-4 l 0.0354,-0.21584 q -0.0128,-0.009 -0.0441,-0.0187 -0.0297,-0.0106 -0.0743,-0.0179 -0.0292,-0.005 -0.0634,-0.006 -0.0327,-10e-4 -0.0628,0.008 -0.0285,0.008 -0.0505,0.0289 -0.0218,0.0193 -0.0279,0.0569 -0.0114,0.0696 0.0286,0.10478 0.0402,0.0338 0.11681,0.0463 z m 0.0953,-0.65073 q 0.078,0.0128 0.12747,0.0424 0.0511,0.0284 0.077,0.0713 0.0275,0.0417 0.0329,0.0955 0.006,0.0524 -0.004,0.11369 l -0.0742,0.45256 q -0.0172,4e-5 -0.0487,5.9e-4 -0.0299,-6.2e-4 -0.0682,-0.003 -0.0383,-0.002 -0.0833,-0.007 -0.0439,-0.003 -0.087,-0.01 -0.0613,-0.0101 -0.11073,-0.031 -0.0495,-0.021 -0.0827,-0.0536 -0.033,-0.034 -0.0466,-0.082 -0.0136,-0.048 -0.003,-0.11065 0.01,-0.0599 0.0406,-0.0992 0.0322,-0.0391 0.0783,-0.0587 0.0461,-0.0196 0.10387,-0.023 0.0577,-0.003 0.11902,0.007 0.0195,0.003 0.0399,0.009 0.0207,0.005 0.0381,0.012 0.019,0.006 0.0325,0.0111 0.0135,0.005 0.0188,0.007 l 0.006,-0.0362 q 0.005,-0.032 0.003,-0.0638 -0.002,-0.0332 -0.0159,-0.0598 -0.014,-0.028 -0.0437,-0.0472 -0.0281,-0.0203 -0.0783,-0.0286 -0.064,-0.0105 -0.11439,-0.009 -0.0487,5.9e-4 -0.074,0.006 l 0.002,-0.10973 q 0.0269,-0.007 0.087,-0.007 0.0603,-0.002 0.12855,0.01 z"
         style="font-weight:normal;-inkscape-font-specification:Ubuntu"
         id="path7954" /><path
         d="m -171.72855,282.0462 q 0.0465,-0.003 0.12231,-0.002 0.0759,0.001 0.1716,0.0188 0.086,0.0159 0.13831,0.0514 0.0525,0.0341 0.0776,0.0847 0.0267,0.0494 0.0293,0.11305 0.003,0.0636 -0.011,0.13716 l -0.0749,0.40519 -0.12905,-0.0238 0.0697,-0.37743 q 0.0123,-0.0666 0.0113,-0.11558 3.9e-4,-0.0487 -0.015,-0.0817 -0.0154,-0.033 -0.0478,-0.0519 -0.0321,-0.0203 -0.0835,-0.0298 -0.0208,-0.004 -0.0433,-0.007 -0.0225,-0.003 -0.0438,-0.004 -0.0197,-0.002 -0.0368,-0.003 -0.0158,-4e-5 -0.023,7e-5 l -0.11255,0.60916 -0.12904,-0.0238 z"
         style="font-weight:normal;-inkscape-font-specification:Ubuntu"
         id="path7956" /><path
         d="m -170.80118,282.85471 q 0.0456,0.01 0.0804,0.0154 0.0365,0.005 0.0611,0.004 l 0.0448,-0.21409 q -0.0124,-0.01 -0.0433,-0.0206 -0.0292,-0.0119 -0.0734,-0.0211 -0.029,-0.006 -0.063,-0.009 -0.0326,-0.003 -0.0632,0.006 -0.0288,0.007 -0.0517,0.0267 -0.0226,0.0183 -0.0304,0.0556 -0.0144,0.0691 0.024,0.10593 0.0387,0.0355 0.11468,0.0514 z m 0.12358,-0.64596 q 0.0774,0.0162 0.1255,0.0479 0.0498,0.0306 0.0738,0.0745 0.0256,0.0428 0.0288,0.0968 0.003,0.0526 -0.009,0.11339 l -0.0939,0.44889 q -0.0171,-7e-4 -0.0487,-0.002 -0.0299,-0.002 -0.068,-0.006 -0.0382,-0.004 -0.0829,-0.0101 -0.0437,-0.005 -0.0865,-0.0138 -0.0608,-0.0127 -0.10928,-0.0358 -0.0485,-0.0231 -0.0803,-0.0572 -0.0315,-0.0354 -0.043,-0.084 -0.0115,-0.0485 0.002,-0.11068 0.0124,-0.0594 0.0449,-0.0973 0.0338,-0.0376 0.0807,-0.0552 0.0469,-0.0176 0.10478,-0.0185 0.0579,-8.7e-4 0.11862,0.0118 0.0193,0.004 0.0395,0.0111 0.0204,0.006 0.0375,0.0136 0.0188,0.007 0.032,0.0125 0.0132,0.006 0.0185,0.008 l 0.008,-0.0359 q 0.007,-0.0318 0.006,-0.0636 -2.6e-4,-0.0332 -0.0133,-0.0605 -0.0128,-0.0286 -0.0416,-0.0491 -0.0272,-0.0215 -0.0769,-0.0319 -0.0635,-0.0133 -0.11391,-0.0137 -0.0487,-0.002 -0.0742,0.003 l 0.007,-0.10954 q 0.0272,-0.006 0.0872,-0.003 0.0603,10e-4 0.128,0.0152 z"
         style="font-weight:normal;-inkscape-font-specification:Ubuntu"
         id="path7958" /><path
         d="m -170.175,282.35672 q 0.0465,-4.6e-4 0.12223,0.005 0.0757,0.005 0.17038,0.0277 0.0851,0.0204 0.13543,0.0586 0.0507,0.0368 0.0731,0.0886 0.0241,0.0508 0.0234,0.11443 -7.4e-4,0.0637 -0.0182,0.1364 l -0.096,0.40071 -0.12762,-0.0306 0.0894,-0.37326 q 0.0158,-0.0659 0.0173,-0.11483 0.003,-0.0486 -0.0107,-0.0824 -0.0137,-0.0337 -0.045,-0.0543 -0.031,-0.0219 -0.0818,-0.0341 -0.0206,-0.005 -0.0429,-0.009 -0.0223,-0.004 -0.0435,-0.006 -0.0195,-0.003 -0.0367,-0.004 -0.0157,-8.7e-4 -0.0229,-10e-4 l -0.14428,0.60244 -0.12763,-0.0306 z"
         style="font-weight:normal;-inkscape-font-specification:Ubuntu"
         id="path7960" /><path
         d="m -169.20551,282.92088 q 0.0319,0.0427 0.0637,0.10155 0.0332,0.0592 0.0613,0.12578 0.0299,0.0656 0.0536,0.13239 0.0241,0.0654 0.0378,0.12063 l -0.14803,-0.0417 q -0.0151,-0.0556 -0.0394,-0.11519 -0.0225,-0.0606 -0.0506,-0.1169 -0.0277,-0.0577 -0.0591,-0.10757 -0.0314,-0.0499 -0.0621,-0.0864 l -0.0958,0.33953 -0.12631,-0.0356 0.29108,-1.03219 0.13244,0.0139 -0.18155,0.64376 q 0.0418,-0.0234 0.0923,-0.0517 0.0505,-0.0283 0.10002,-0.0583 0.0495,-0.03 0.0938,-0.0571 0.0447,-0.0285 0.0772,-0.0501 l 0.14804,0.0417 q -0.0408,0.0251 -0.089,0.0555 -0.0482,0.0304 -0.0994,0.0614 -0.0509,0.0296 -0.10349,0.0602 -0.0509,0.0296 -0.0965,0.0564 z"
         style="font-weight:normal;-inkscape-font-specification:Ubuntu"
         id="path7962" /><path
         d="m -168.15163,283.29362 q -0.0279,0.0829 -0.0744,0.14172 -0.0465,0.0588 -0.10688,0.0921 -0.059,0.0338 -0.12816,0.0403 -0.0687,0.005 -0.13963,-0.0186 -0.0709,-0.0238 -0.12254,-0.0695 -0.0512,-0.047 -0.0792,-0.10997 -0.0266,-0.0625 -0.0282,-0.13751 -0.002,-0.075 0.0263,-0.1579 0.0274,-0.0816 0.074,-0.14038 0.047,-0.0601 0.10599,-0.0939 0.0603,-0.0333 0.12906,-0.0385 0.0692,-0.007 0.14007,0.0173 0.0709,0.0238 0.1221,0.0708 0.0516,0.0456 0.0783,0.10818 0.028,0.063 0.0291,0.1393 0.002,0.075 -0.0258,0.15656 z m -0.12974,-0.0436 q 0.0396,-0.11771 0.009,-0.20391 -0.0288,-0.0871 -0.11974,-0.11766 -0.091,-0.0306 -0.16784,0.021 -0.0751,0.0507 -0.11465,0.16839 -0.0396,0.11771 -0.0108,0.2048 0.0306,0.0862 0.12153,0.11677 0.091,0.0306 0.16605,-0.0201 0.0769,-0.0516 0.11645,-0.16927 z"
         style="font-weight:normal;-inkscape-font-specification:Ubuntu"
         id="path7964" /><path
         d="m -167.86904,283.0345 q 0.0463,0.005 0.12079,0.0193 0.0745,0.0142 0.16579,0.0481 0.082,0.0305 0.12738,0.0745 0.0459,0.0426 0.0619,0.0968 0.0178,0.0533 0.009,0.11641 -0.008,0.0631 -0.0345,0.13321 l -0.14357,0.38622 -0.12301,-0.0457 0.13374,-0.35977 q 0.0236,-0.0635 0.0311,-0.1119 0.009,-0.0479 -7.3e-4,-0.0831 -0.01,-0.0351 -0.0382,-0.0593 -0.0282,-0.0255 -0.0771,-0.0437 -0.0198,-0.007 -0.0415,-0.0139 -0.0217,-0.007 -0.0425,-0.0113 -0.019,-0.006 -0.0359,-0.009 -0.0155,-0.003 -0.0226,-0.004 l -0.21586,0.58065 -0.12301,-0.0457 z"
         style="font-weight:normal;-inkscape-font-specification:Ubuntu"
         id="path7966" /><path
         d="m -166.95869,283.35065 0.26072,0.0964 -0.0382,0.10323 -0.26072,-0.0964 -0.11748,0.31764 q -0.0191,0.0516 -0.0239,0.089 -0.004,0.036 0.004,0.0617 0.009,0.0244 0.0299,0.0412 0.0209,0.0168 0.0526,0.0285 0.0556,0.0206 0.0931,0.0209 0.0393,-5e-4 0.0545,-9e-4 l -0.0139,0.11072 q -0.022,0.002 -0.0732,-10e-4 -0.0517,-0.003 -0.11126,-0.0246 -0.0702,-0.0259 -0.11011,-0.0603 -0.0381,-0.0352 -0.0527,-0.0812 -0.0146,-0.046 -0.007,-0.10203 0.009,-0.0569 0.0344,-0.12568 l 0.22712,-0.6141 0.13091,0.0243 z"
         style="font-weight:normal;-inkscape-font-specification:Ubuntu"
         id="path7968" /><path
         d="m -166.5453,284.18257 q 0.0438,0.0159 0.0774,0.0265 0.0355,0.01 0.0599,0.0127 l 0.0744,-0.20568 q -0.0109,-0.0114 -0.04,-0.0265 -0.0273,-0.0159 -0.0697,-0.0312 -0.0279,-0.0101 -0.0612,-0.0176 -0.032,-0.007 -0.0633,-0.003 -0.0295,0.003 -0.0549,0.0191 -0.0249,0.015 -0.0379,0.0508 -0.024,0.0663 0.009,0.10825 0.0333,0.0406 0.10632,0.067 z m 0.21308,-0.62219 q 0.0743,0.0269 0.11754,0.065 0.045,0.0373 0.0626,0.0842 0.0194,0.046 0.0149,0.0999 -0.004,0.0526 -0.0251,0.11096 l -0.15602,0.43125 q -0.0169,-0.003 -0.048,-0.008 -0.0293,-0.006 -0.0666,-0.0151 -0.0373,-0.009 -0.0807,-0.0217 -0.0426,-0.0109 -0.0837,-0.0258 -0.0584,-0.0211 -0.10316,-0.0508 -0.0448,-0.0297 -0.0715,-0.0679 -0.0262,-0.0395 -0.0308,-0.0892 -0.005,-0.0497 0.0171,-0.10938 0.0206,-0.0571 0.0581,-0.09 0.0388,-0.0325 0.0877,-0.0433 0.0489,-0.0108 0.10633,-0.004 0.0574,0.007 0.11578,0.0284 0.0186,0.007 0.0375,0.0166 0.0194,0.009 0.0352,0.0188 0.0176,0.009 0.0299,0.0168 0.0123,0.007 0.0171,0.0107 l 0.0125,-0.0345 q 0.011,-0.0305 0.015,-0.0621 0.004,-0.0329 -0.005,-0.0617 -0.009,-0.0301 -0.0343,-0.0544 -0.0239,-0.0252 -0.0717,-0.0424 -0.061,-0.0221 -0.11085,-0.0296 -0.048,-0.008 -0.0739,-0.007 l 0.0224,-0.10746 q 0.0277,-0.002 0.0868,0.009 0.0596,0.01 0.12459,0.0331 z"
         style="font-weight:normal;-inkscape-font-specification:Ubuntu"
         id="path7970" /><path
         d="m -165.73333,284.14489 q 0.0291,0.0447 0.057,0.10549 0.0292,0.0612 0.053,0.12951 0.0255,0.0674 0.0448,0.13561 0.0197,0.0669 0.0299,0.12284 l -0.145,-0.0513 q -0.0114,-0.0564 -0.0317,-0.11752 -0.0185,-0.0619 -0.0429,-0.11995 -0.0239,-0.0593 -0.052,-0.1112 -0.0281,-0.0518 -0.0564,-0.0903 l -0.1177,0.33257 -0.12372,-0.0438 0.35781,-1.01099 0.13125,0.0225 -0.22316,0.63054 q 0.0432,-0.0206 0.0954,-0.0456 0.0522,-0.0249 0.10361,-0.0516 0.0514,-0.0267 0.0973,-0.0509 0.0464,-0.0255 0.0803,-0.0449 l 0.145,0.0513 q -0.0424,0.0224 -0.0924,0.0496 -0.05,0.0272 -0.10322,0.0548 -0.0527,0.0263 -0.1072,0.0534 -0.0527,0.0263 -0.1,0.0499 z"
         style="font-weight:normal;-inkscape-font-specification:Ubuntu"
         id="path7972" /><path
         d="m -165.06681,284.02872 0.26262,0.0911 -0.0361,0.10398 -0.26262,-0.0911 -0.11103,0.31994 q -0.018,0.052 -0.0221,0.0894 -0.004,0.0361 0.005,0.0616 0.01,0.0242 0.0307,0.0405 0.0212,0.0163 0.0532,0.0274 0.056,0.0194 0.0935,0.019 0.0393,-10e-4 0.0545,-0.002 l -0.0116,0.11098 q -0.0219,0.003 -0.0732,0 -0.0517,-0.002 -0.11174,-0.0224 -0.0707,-0.0245 -0.1113,-0.058 -0.0389,-0.0344 -0.0543,-0.0801 -0.0155,-0.0457 -0.009,-0.10186 0.008,-0.057 0.0319,-0.12635 l 0.21466,-0.61856 0.13138,0.0217 z"
         style="font-weight:normal;-inkscape-font-specification:Ubuntu"
         id="path7974" /><path
         d="m -164.31324,284.96221 q 0.0441,0.0149 0.078,0.0248 0.0357,0.009 0.0602,0.0113 l 0.0698,-0.20727 q -0.0111,-0.0112 -0.0405,-0.0256 -0.0276,-0.0153 -0.0704,-0.0297 -0.0281,-0.009 -0.0615,-0.0163 -0.0321,-0.006 -0.0634,-0.002 -0.0295,0.003 -0.0545,0.0204 -0.0246,0.0155 -0.0368,0.0516 -0.0225,0.0669 0.0112,0.10802 0.0342,0.0398 0.10778,0.0646 z m 0.19926,-0.62677 q 0.0749,0.0252 0.11894,0.0624 0.0459,0.0363 0.0644,0.0828 0.0204,0.0456 0.0171,0.0996 -0.003,0.0527 -0.0227,0.11149 l -0.14643,0.4346 q -0.017,-0.003 -0.0482,-0.007 -0.0294,-0.005 -0.0669,-0.0136 -0.0375,-0.008 -0.0812,-0.0199 -0.0428,-0.01 -0.0843,-0.0239 -0.0588,-0.0198 -0.10426,-0.0485 -0.0454,-0.0287 -0.073,-0.0663 -0.0271,-0.0389 -0.0327,-0.0885 -0.006,-0.0496 0.0146,-0.10973 0.0194,-0.0575 0.0561,-0.0913 0.038,-0.0333 0.0867,-0.0452 0.0487,-0.0119 0.10622,-0.006 0.0575,0.006 0.11638,0.0258 0.0187,0.006 0.0379,0.0157 0.0196,0.008 0.0356,0.018 0.0178,0.009 0.0303,0.0162 0.0125,0.007 0.0174,0.0103 l 0.0117,-0.0348 q 0.0104,-0.0308 0.0136,-0.0624 0.004,-0.033 -0.006,-0.0616 -0.009,-0.0299 -0.0355,-0.0537 -0.0245,-0.0246 -0.0726,-0.0408 -0.0615,-0.0207 -0.11147,-0.0271 -0.0482,-0.007 -0.0741,-0.006 l 0.02,-0.10792 q 0.0277,-0.003 0.087,0.007 0.0598,0.008 0.12529,0.0303 z"
         style="font-weight:normal;-inkscape-font-specification:Ubuntu"
         id="path7976" /><path
         d="m -163.12675,284.6826 q -0.11676,0.17845 -0.24697,0.33463 -0.12888,0.15662 -0.24137,0.27704 l -0.11257,-0.0371 q -0.0189,-0.16371 -0.0307,-0.3667 -0.0105,-0.20256 0.002,-0.41545 l 0.13402,0.0442 q -0.006,0.071 -0.009,0.15309 -0.002,0.0812 -0.002,0.16288 0.002,0.0808 0.005,0.15751 0.003,0.0767 0.008,0.13786 0.0405,-0.0461 0.0884,-0.10606 0.048,-0.06 0.096,-0.12438 0.0498,-0.0653 0.0955,-0.13196 0.0475,-0.0675 0.0853,-0.12792 z"
         style="font-weight:normal;-inkscape-font-specification:Ubuntu"
         id="path7978" /><path
         d="m -162.57695,284.85974 0.26479,0.0847 -0.0335,0.10484 -0.26479,-0.0847 -0.10312,0.32258 q -0.0168,0.0524 -0.0199,0.0899 -0.003,0.0362 0.007,0.0615 0.0101,0.024 0.0317,0.0398 0.0216,0.0158 0.0539,0.0261 0.0565,0.0181 0.0939,0.0167 0.0392,-0.002 0.0544,-0.003 l -0.009,0.11123 q -0.0218,0.003 -0.0732,0.002 -0.0518,-2.6e-4 -0.11226,-0.0196 -0.0712,-0.0228 -0.11269,-0.0553 -0.0397,-0.0334 -0.0563,-0.0787 -0.0166,-0.0453 -0.012,-0.1016 0.006,-0.0572 0.0288,-0.1271 l 0.19938,-0.62366 0.13187,0.0185 z"
         style="font-weight:normal;-inkscape-font-specification:Ubuntu"
         id="path7980" /><path
         d="m -161.89381,285.05977 q 0.0162,0.005 0.0355,0.0141 0.0211,0.008 0.04,0.0185 0.0194,0.009 0.0342,0.0181 0.0166,0.008 0.0239,0.0134 l -0.0558,0.10229 q -0.0131,-0.01 -0.046,-0.0278 -0.0311,-0.0187 -0.085,-0.0356 -0.035,-0.011 -0.0725,-0.0139 -0.0358,-0.004 -0.0474,-0.005 l -0.18477,0.58832 -0.1252,-0.0393 0.21056,-0.67044 q 0.0495,-0.002 0.11969,0.005 0.0706,0.006 0.15275,0.0317 z"
         style="font-weight:normal;-inkscape-font-specification:Ubuntu"
         id="path7982" /><path
         d="m -161.78882,285.49497 q 0.0286,-0.0931 0.0767,-0.15357 0.0485,-0.0618 0.10714,-0.094 0.0586,-0.0322 0.12365,-0.0373 0.0651,-0.005 0.12575,0.0136 0.14162,0.0435 0.1898,0.15577 0.0486,0.11089 -0.007,0.29164 -0.002,0.008 -0.007,0.0216 -0.004,0.0121 -0.008,0.0225 l -0.48019,-0.14758 q -0.0255,0.11174 0.0124,0.18539 0.0379,0.0736 0.15524,0.10972 0.0661,0.0203 0.11393,0.0232 0.0496,0.002 0.0758,-0.002 l -0.0148,0.1106 q -0.0267,0.005 -0.0888,7.5e-4 -0.0608,-0.004 -0.13364,-0.0263 -0.0917,-0.0282 -0.15087,-0.0759 -0.0574,-0.0486 -0.0856,-0.11046 -0.0282,-0.0618 -0.0295,-0.13455 4.9e-4,-0.0737 0.025,-0.15325 z m 0.50268,0.0792 q 0.0275,-0.0846 -4.6e-4,-0.1522 -0.0262,-0.0686 -0.10305,-0.0922 -0.0432,-0.0133 -0.0823,-0.006 -0.0373,0.006 -0.0686,0.0262 -0.0312,0.0199 -0.0555,0.0509 -0.0229,0.0313 -0.0382,0.0665 z"
         style="font-weight:normal;-inkscape-font-specification:Ubuntu"
         id="path7984" /><path
         d="m -160.48273,285.66903 q -0.0173,-0.0258 -0.0553,-0.0563 -0.038,-0.0305 -0.0894,-0.0459 -0.0541,-0.0162 -0.0993,-0.008 -0.0435,0.008 -0.0784,0.0355 -0.0344,0.0265 -0.0594,0.0706 -0.025,0.0441 -0.0412,0.0981 -0.0368,0.12302 0.004,0.20882 0.041,0.0845 0.1424,0.11479 0.0514,0.0154 0.0864,0.0214 0.0368,0.005 0.0573,0.005 z m 0.1416,-0.47316 0.1322,0.016 -0.30788,1.02877 q -0.0469,-7.8e-4 -0.11814,-0.009 -0.0712,-0.008 -0.1591,-0.0344 -0.0811,-0.0243 -0.13832,-0.0694 -0.0572,-0.0451 -0.089,-0.10617 -0.0318,-0.0611 -0.0373,-0.13635 -0.004,-0.0762 0.0218,-0.1614 0.0243,-0.0811 0.0648,-0.14264 0.0419,-0.0611 0.097,-0.0976 0.0551,-0.0365 0.12134,-0.0462 0.0676,-0.009 0.14328,0.0134 0.0608,0.0182 0.10195,0.0482 0.0425,0.0304 0.061,0.0521 z"
         style="font-weight:normal;-inkscape-font-specification:Ubuntu"
         id="path7986" /><path
         d="m -160.49566,286.54388 q -0.0162,-0.005 -0.0408,-0.0164 -0.0245,-0.0116 -0.0402,-0.0235 l 0.0464,-0.0981 q 0.0123,0.008 0.0292,0.0159 0.0168,0.008 0.0317,0.0122 0.065,0.0191 0.10399,-0.0136 0.04,-0.0309 0.0626,-0.1081 l 0.203,-0.69191 0.12593,0.0369 -0.20261,0.69056 q -0.0397,0.1354 -0.12108,0.18212 -0.0804,0.0485 -0.1982,0.0139 z m 0.49559,-1.03254 q -0.0339,-0.01 -0.0519,-0.0387 -0.0163,-0.0298 -0.005,-0.0677 0.0111,-0.0379 0.0405,-0.0528 0.0311,-0.0159 0.065,-0.006 0.0339,0.01 0.0501,0.0397 0.018,0.0288 0.007,0.0667 -0.0111,0.0379 -0.0422,0.0538 -0.0294,0.0149 -0.0632,0.005 z"
         style="font-weight:normal;-inkscape-font-specification:Ubuntu"
         id="path7988" /><path
         d="m -159.9019,286.06242 q 0.0269,-0.0936 0.074,-0.15493 0.0474,-0.0627 0.10544,-0.0959 0.058,-0.0332 0.12296,-0.0395 0.0649,-0.006 0.12597,0.0113 0.14239,0.041 0.19257,0.15233 0.0506,0.11 -0.002,0.29171 -0.002,0.008 -0.006,0.0217 -0.004,0.0122 -0.008,0.0227 l -0.48276,-0.13892 q -0.0235,0.11218 0.0157,0.18513 0.0392,0.073 0.15719,0.10691 0.0665,0.0191 0.11432,0.0211 0.0496,10e-4 0.0758,-0.003 l -0.0128,0.11085 q -0.0266,0.006 -0.0888,0.002 -0.0609,-0.003 -0.13409,-0.0239 -0.0922,-0.0265 -0.15221,-0.0732 -0.0582,-0.0476 -0.0876,-0.10891 -0.0293,-0.0613 -0.0319,-0.134 -8.3e-4,-0.0737 0.0222,-0.15366 z m 0.50403,0.0702 q 0.0259,-0.085 -0.003,-0.15216 -0.0274,-0.0681 -0.1047,-0.0903 -0.0434,-0.0125 -0.0824,-0.005 -0.0372,0.007 -0.0681,0.0274 -0.0309,0.0205 -0.0546,0.0518 -0.0223,0.0317 -0.0369,0.0672 z"
         style="font-weight:normal;-inkscape-font-specification:Ubuntu"
         id="path7990" /><path
         d="m -158.42867,286.78259 q -0.0193,0.006 -0.0718,0.0109 -0.0508,0.004 -0.11331,-0.0138 -0.0639,-0.0177 -0.11539,-0.0539 -0.0501,-0.0358 -0.0806,-0.0897 -0.0301,-0.0552 -0.0369,-0.12588 -0.007,-0.0707 0.0177,-0.15909 0.0215,-0.0775 0.0623,-0.13504 0.0412,-0.0589 0.0975,-0.0931 0.0581,-0.0352 0.12913,-0.0433 0.0714,-0.01 0.15168,0.0127 0.0884,0.0245 0.14991,0.0561 0.0632,0.0307 0.10512,0.054 l -0.17467,0.63103 q -0.0452,0.16319 -0.14983,0.21329 -0.10464,0.0501 -0.276,0.003 -0.0666,-0.0184 -0.12346,-0.0459 -0.0555,-0.0271 -0.0949,-0.0541 l 0.0536,-0.10376 q 0.0339,0.0255 0.0853,0.0514 0.0524,0.0277 0.11221,0.0442 0.11288,0.0312 0.17426,-8e-5 0.0627,-0.0309 0.0898,-0.12887 z m 0.14395,-0.52532 q -0.0175,-0.0107 -0.049,-0.0238 -0.0298,-0.0141 -0.0842,-0.0291 -0.102,-0.0282 -0.1762,0.023 -0.0728,0.0516 -0.10334,0.16173 -0.0169,0.0612 -0.014,0.10886 0.004,0.048 0.0222,0.0837 0.0193,0.0361 0.0495,0.0591 0.0316,0.0234 0.0683,0.0335 0.0503,0.0139 0.0962,0.012 0.0463,-0.003 0.0761,-0.0155 z"
         style="font-weight:normal;-inkscape-font-specification:Ubuntu"
         id="path7992" /><path
         d="m -157.64822,286.29446 q 0.0164,0.004 0.0361,0.0127 0.0214,0.007 0.0408,0.0169 0.0197,0.008 0.0349,0.0168 0.017,0.008 0.0244,0.0125 l -0.0516,0.10445 q -0.0135,-0.01 -0.0471,-0.0259 -0.0318,-0.0174 -0.0863,-0.0321 -0.0354,-0.01 -0.073,-0.011 -0.0359,-0.002 -0.0475,-0.003 l -0.16089,0.5953 -0.12669,-0.0342 0.18335,-0.67839 q 0.0494,-0.004 0.11981,2.2e-4 0.0708,0.003 0.15389,0.0255 z"
         style="font-weight:normal;-inkscape-font-specification:Ubuntu"
         id="path7994" /><path
         d="m -157.31507,287.06092 q 0.045,0.0119 0.0795,0.0195 0.0362,0.007 0.0608,0.007 l 0.0559,-0.21147 q -0.0119,-0.0104 -0.0421,-0.0228 -0.0286,-0.0134 -0.0722,-0.0249 -0.0286,-0.008 -0.0625,-0.0121 -0.0325,-0.004 -0.0634,0.002 -0.0292,0.005 -0.053,0.0239 -0.0235,0.0172 -0.0332,0.054 -0.018,0.0682 0.0184,0.10704 0.0368,0.0374 0.11184,0.0573 z m 0.15704,-0.63866 q 0.0764,0.0202 0.12284,0.0543 0.0482,0.0332 0.0698,0.0783 0.0234,0.0441 0.0237,0.0982 6.7e-4,0.0527 -0.0152,0.11274 l -0.11713,0.4434 q -0.0171,-0.002 -0.0486,-0.004 -0.0297,-0.003 -0.0677,-0.009 -0.0379,-0.006 -0.0823,-0.0144 -0.0434,-0.007 -0.0857,-0.0183 -0.06,-0.0159 -0.10726,-0.0415 -0.0472,-0.0256 -0.0772,-0.0613 -0.0296,-0.037 -0.0386,-0.0861 -0.009,-0.0491 0.007,-0.11046 0.0155,-0.0587 0.0499,-0.0948 0.0357,-0.0358 0.0835,-0.0509 0.0478,-0.0151 0.1056,-0.013 0.0578,0.002 0.11784,0.018 0.0191,0.005 0.0388,0.0132 0.0201,0.007 0.0368,0.0155 0.0184,0.008 0.0313,0.0141 0.0129,0.006 0.018,0.009 l 0.009,-0.0355 q 0.008,-0.0314 0.009,-0.0632 10e-4,-0.0332 -0.0101,-0.0611 -0.0113,-0.0292 -0.039,-0.0512 -0.026,-0.0229 -0.0752,-0.0359 -0.0627,-0.0166 -0.11303,-0.0197 -0.0486,-0.004 -0.0743,-6.4e-4 l 0.0127,-0.10902 q 0.0274,-0.004 0.0873,0.001 0.0602,0.004 0.12703,0.0219 z"
         style="font-weight:normal;-inkscape-font-specification:Ubuntu"
         id="path7996" /><path
         d="m -156.26388,286.83397 q -0.0183,-0.0251 -0.0575,-0.0541 -0.0392,-0.029 -0.0911,-0.0423 -0.0547,-0.014 -0.0996,-0.004 -0.0432,0.009 -0.0769,0.0385 -0.0334,0.0279 -0.0566,0.0729 -0.0232,0.045 -0.0373,0.0997 -0.0319,0.12438 0.012,0.20851 0.0443,0.0828 0.14682,0.10908 0.0519,0.0133 0.0872,0.018 0.0369,0.004 0.0575,0.003 z m 0.12282,-0.47837 0.13273,0.0108 -0.26707,1.04012 q -0.0469,10e-4 -0.11839,-0.004 -0.0715,-0.005 -0.16034,-0.0281 -0.082,-0.0211 -0.14094,-0.0639 -0.0589,-0.0428 -0.0931,-0.10259 -0.0342,-0.0598 -0.0426,-0.13477 -0.007,-0.076 0.0154,-0.16213 0.0211,-0.082 0.0591,-0.14508 0.0394,-0.0627 0.0931,-0.1014 0.0536,-0.0387 0.11943,-0.0509 0.0671,-0.0119 0.14369,0.008 0.0615,0.0158 0.10377,0.0441 0.0436,0.0287 0.063,0.0497 z"
         style="font-weight:normal;-inkscape-font-specification:Ubuntu"
         id="path7998" /><path
         d="m -156.01309,287.11772 q 0.0235,-0.0945 0.0683,-0.15748 0.0451,-0.0644 0.10192,-0.0997 0.0568,-0.0353 0.12146,-0.0439 0.0647,-0.009 0.12629,0.007 0.14377,0.0358 0.19793,0.1453 0.0545,0.10811 0.009,0.29158 -0.002,0.008 -0.005,0.0219 -0.003,0.0123 -0.007,0.0229 l -0.48745,-0.12147 q -0.0194,0.11296 0.0224,0.18445 0.0418,0.0715 0.16093,0.10119 0.0671,0.0167 0.11501,0.017 0.0496,-7.2e-4 0.0756,-0.006 l -0.009,0.11124 q -0.0263,0.007 -0.0886,0.006 -0.0609,-6.3e-4 -0.13486,-0.0191 -0.0931,-0.0232 -0.15474,-0.0676 -0.0599,-0.0455 -0.0915,-0.10569 -0.0315,-0.0602 -0.0367,-0.13276 -0.003,-0.0736 0.0167,-0.15437 z m 0.50622,0.052 q 0.0229,-0.0859 -0.009,-0.15195 -0.0298,-0.0671 -0.10787,-0.0865 -0.0438,-0.0109 -0.0825,-0.002 -0.037,0.008 -0.0671,0.0298 -0.0301,0.0216 -0.0527,0.0538 -0.0212,0.0325 -0.0345,0.0685 z"
         style="font-weight:normal;-inkscape-font-specification:Ubuntu"
         id="path8000" /><path
         d="m -155.1287,286.9796 q 0.0465,-3.6e-4 0.12222,0.005 0.0757,0.005 0.17032,0.0281 0.085,0.0206 0.1353,0.0589 0.0506,0.0369 0.0729,0.0888 0.024,0.0508 0.0231,0.11448 -8.7e-4,0.0637 -0.0185,0.13636 l -0.0968,0.4005 -0.12756,-0.0308 0.0902,-0.37307 q 0.0159,-0.0658 0.0176,-0.11479 0.003,-0.0486 -0.0106,-0.0824 -0.0136,-0.0338 -0.0449,-0.0544 -0.031,-0.022 -0.0817,-0.0343 -0.0206,-0.005 -0.0428,-0.009 -0.0223,-0.004 -0.0435,-0.006 -0.0195,-0.003 -0.0367,-0.005 -0.0157,-9e-4 -0.0229,-0.001 l -0.14558,0.60213 -0.12756,-0.0308 z"
         style="font-weight:normal;-inkscape-font-specification:Ubuntu"
         id="path8002" /><path
         d="m -154.337,287.73676 q -0.001,0.0113 -0.004,0.0223 -0.002,0.01 -0.005,0.0206 -0.0205,0.0865 -0.0664,0.16411 -0.0448,0.0793 -0.10698,0.1458 l -0.0914,-0.055 q 0.0509,-0.0619 0.0791,-0.1321 0.0279,-0.0688 0.0428,-0.13198 0.004,-0.0179 0.007,-0.0347 0.004,-0.0165 0.006,-0.0319 z"
         style="font-weight:normal;-inkscape-font-specification:Ubuntu"
         id="path8004" /><path
         d="m -153.81182,287.6497 q 0.0217,-0.0949 0.0652,-0.1588 0.0438,-0.0653 0.0999,-0.10167 0.0561,-0.0364 0.12057,-0.0463 0.0645,-0.01 0.12641,0.004 0.14444,0.033 0.20075,0.14136 0.0566,0.10701 0.0145,0.29136 -0.002,0.008 -0.005,0.022 -0.003,0.0124 -0.007,0.0231 l -0.48976,-0.11181 q -0.0172,0.11331 0.026,0.18397 0.0432,0.0707 0.1629,0.098 0.0674,0.0154 0.11532,0.0147 0.0496,-0.002 0.0755,-0.007 l -0.007,0.11139 q -0.0262,0.007 -0.0885,0.007 -0.0609,5.6e-4 -0.13521,-0.0164 -0.0935,-0.0214 -0.15605,-0.0646 -0.0608,-0.0443 -0.0935,-0.10385 -0.0327,-0.0596 -0.0393,-0.13202 -0.005,-0.0735 0.0136,-0.15466 z m 0.50715,0.042 q 0.0212,-0.0863 -0.0117,-0.15175 -0.0311,-0.0664 -0.10956,-0.0844 -0.044,-0.01 -0.0825,-1e-5 -0.0368,0.009 -0.0665,0.0311 -0.0297,0.0222 -0.0516,0.0548 -0.0205,0.0329 -0.0332,0.0691 z"
         style="font-weight:normal;-inkscape-font-specification:Ubuntu"
         id="path8006" /><path
         d="m -152.93023,287.49419 q 0.0465,-10e-4 0.12229,0.002 0.0758,0.004 0.17084,0.0248 0.0854,0.0189 0.13643,0.0562 0.0513,0.0359 0.0746,0.0873 0.025,0.0503 0.0254,0.114 3.7e-4,0.0637 -0.0158,0.1367 l -0.089,0.40232 -0.12814,-0.0283 0.0829,-0.37477 q 0.0146,-0.0661 0.0153,-0.11511 0.002,-0.0487 -0.0122,-0.0822 -0.0143,-0.0335 -0.046,-0.0535 -0.0314,-0.0214 -0.0824,-0.0327 -0.0207,-0.005 -0.043,-0.008 -0.0223,-0.003 -0.0436,-0.005 -0.0196,-0.003 -0.0367,-0.004 -0.0158,-6e-4 -0.023,-7.4e-4 l -0.13374,0.60486 -0.12814,-0.0283 z"
         style="font-weight:normal;-inkscape-font-specification:Ubuntu"
         id="path8008" /><path
         d="m -151.46683,287.42063 q 0.0566,0.012 0.0949,0.0288 0.0397,0.0171 0.0548,0.0275 l -0.0469,0.10545 q -0.0148,-0.0118 -0.0437,-0.0251 -0.0286,-0.0147 -0.0728,-0.0241 -0.0897,-0.019 -0.13616,0.023 -0.0461,0.0407 -0.0637,0.12352 l -0.0132,0.0621 0.27608,0.0586 -0.0229,0.10767 -0.27607,-0.0586 -0.12945,0.61013 -0.12837,-0.0272 0.16605,-0.78267 q 0.0293,-0.13804 0.11274,-0.19823 0.0837,-0.0616 0.22868,-0.0308 z"
         style="font-weight:normal;-inkscape-font-specification:Ubuntu"
         id="path8010" /><path
         d="m -151.02394,287.8662 q 0.0166,0.003 0.0367,0.0105 0.0218,0.006 0.0417,0.0144 0.0202,0.007 0.0359,0.0146 0.0174,0.006 0.0251,0.011 l -0.0453,0.10734 q -0.0141,-0.009 -0.0486,-0.023 -0.0328,-0.0154 -0.0881,-0.0269 -0.0359,-0.007 -0.0736,-0.007 -0.036,-2.5e-4 -0.0476,2.2e-4 l -0.1252,0.60381 -0.1285,-0.0266 0.14267,-0.6881 q 0.049,-0.007 0.11961,-0.007 0.0709,-10e-4 0.15514,0.0163 z"
         style="font-weight:normal;-inkscape-font-specification:Ubuntu"
         id="path8012" /><path
         d="m -150.33107,288.74981 q -0.0465,0.002 -0.12232,-1.6e-4 -0.0744,-0.002 -0.16989,-0.0213 -0.083,-0.0167 -0.13498,-0.0517 -0.0517,-0.0363 -0.0774,-0.0876 -0.0257,-0.0512 -0.0289,-0.11378 -0.003,-0.0639 0.0118,-0.13725 l 0.0814,-0.40393 0.12865,0.0259 -0.0758,0.37626 q -0.0265,0.13142 0.004,0.1965 0.0301,0.0651 0.1283,0.0849 0.0207,0.004 0.0432,0.007 0.0224,0.003 0.0421,0.006 0.0199,10e-4 0.0354,0.003 0.0171,5.8e-4 0.0246,-8e-4 l 0.1223,-0.60728 0.12865,0.0259 z"
         style="font-weight:normal;-inkscape-font-specification:Ubuntu"
         id="path8014" /><path
         d="m -149.77624,288.46885 q 0.0353,0.0399 0.0719,0.0959 0.0379,0.0563 0.0715,0.1203 0.0352,0.0629 0.0643,0.12752 0.0294,0.0632 0.0477,0.1171 l -0.15097,-0.0294 q -0.0197,-0.0541 -0.0487,-0.11156 -0.0274,-0.0585 -0.0601,-0.11232 -0.0324,-0.0552 -0.0678,-0.10233 -0.0354,-0.0471 -0.0691,-0.081 l -0.0674,0.34628 -0.12881,-0.0251 0.20492,-1.05269 0.13313,0.003 -0.12781,0.65654 q 0.0397,-0.0268 0.0877,-0.0591 0.048,-0.0323 0.0949,-0.0663 0.0469,-0.034 0.0888,-0.0647 0.0422,-0.032 0.0728,-0.0563 l 0.15098,0.0294 q -0.0386,0.0284 -0.0841,0.0627 -0.0455,0.0343 -0.094,0.0694 -0.0483,0.0337 -0.0982,0.0686 -0.0483,0.0337 -0.0916,0.0641 z"
         style="font-weight:normal;-inkscape-font-specification:Ubuntu"
         id="path8016" /><path
         d="m -149.13363,288.25602 0.27315,0.0516 -0.0204,0.10815 -0.27315,-0.0516 -0.0629,0.33277 q -0.0102,0.0541 -0.009,0.0917 0.002,0.0362 0.0145,0.0602 0.013,0.0225 0.0363,0.0356 0.0234,0.013 0.0567,0.0193 0.0582,0.011 0.0953,0.005 0.0387,-0.007 0.0536,-0.01 l 0.005,0.11148 q -0.0212,0.006 -0.0724,0.0107 -0.0514,0.006 -0.1138,-0.006 -0.0735,-0.0139 -0.11861,-0.0411 -0.0435,-0.0283 -0.0655,-0.0713 -0.022,-0.0429 -0.0243,-0.0994 -6.1e-4,-0.0576 0.013,-0.12966 l 0.12162,-0.64336 0.13314,0.002 z"
         style="font-weight:normal;-inkscape-font-specification:Ubuntu"
         id="path8018" /><path
         d="m -148.43079,288.37127 q 0.0166,0.003 0.037,0.01 0.022,0.005 0.042,0.0135 0.0203,0.007 0.0362,0.0138 0.0175,0.006 0.0253,0.0104 l -0.0429,0.10832 q -0.0142,-0.008 -0.049,-0.022 -0.0332,-0.0147 -0.0887,-0.0249 -0.0361,-0.007 -0.0737,-0.005 -0.036,5.4e-4 -0.0476,10e-4 l -0.11176,0.60645 -0.12906,-0.0238 0.12736,-0.69109 q 0.0489,-0.008 0.11942,-0.01 0.0708,-0.003 0.15546,0.0129 z"
         style="font-weight:normal;-inkscape-font-specification:Ubuntu"
         id="path8020" /><path
         d="m -148.03608,289.1081 q 0.0458,0.008 0.0808,0.013 0.0366,0.004 0.0612,0.002 l 0.0385,-0.21531 q -0.0127,-0.009 -0.0439,-0.0193 -0.0296,-0.011 -0.074,-0.019 -0.0292,-0.005 -0.0633,-0.007 -0.0327,-0.002 -0.063,0.007 -0.0286,0.008 -0.0509,0.0282 -0.022,0.019 -0.0287,0.0565 -0.0124,0.0695 0.0271,0.10518 0.0397,0.0343 0.11613,0.048 z m 0.10464,-0.6493 q 0.0778,0.0139 0.12685,0.0442 0.0507,0.0291 0.0759,0.0723 0.0269,0.0421 0.0316,0.096 0.005,0.0525 -0.006,0.11361 l -0.0807,0.45145 q -0.0172,-2.1e-4 -0.0487,-1.2e-4 -0.0299,-0.001 -0.0682,-0.004 -0.0383,-0.003 -0.0832,-0.008 -0.0438,-0.004 -0.0869,-0.0112 -0.0611,-0.0109 -0.11028,-0.0326 -0.0492,-0.0217 -0.082,-0.0548 -0.0325,-0.0345 -0.0454,-0.0827 -0.0129,-0.0482 -0.002,-0.11068 0.0107,-0.0597 0.042,-0.0986 0.0327,-0.0386 0.0791,-0.0575 0.0464,-0.0189 0.10419,-0.0215 0.0578,-0.003 0.11892,0.008 0.0194,0.003 0.0398,0.01 0.0206,0.005 0.0379,0.0125 0.0189,0.006 0.0323,0.0115 0.0134,0.005 0.0187,0.008 l 0.006,-0.0361 q 0.006,-0.0319 0.004,-0.0638 -0.001,-0.0332 -0.0151,-0.06 -0.0136,-0.0282 -0.043,-0.0478 -0.0278,-0.0207 -0.0778,-0.0297 -0.0639,-0.0114 -0.11426,-0.0104 -0.0487,-1.1e-4 -0.0741,0.005 l 0.004,-0.10969 q 0.027,-0.007 0.0871,-0.006 0.0603,-6.8e-4 0.12839,0.0115 z"
         style="font-weight:normal;-inkscape-font-specification:Ubuntu"
         id="path8022" /><path
         d="m -147.242,288.93385 q 0.0362,0.0392 0.0739,0.0944 0.0391,0.0554 0.074,0.11875 0.0365,0.0622 0.067,0.12614 0.0307,0.0626 0.0501,0.11606 l -0.15157,-0.0262 q -0.0208,-0.0537 -0.0511,-0.1105 -0.0287,-0.0579 -0.0624,-0.11103 -0.0335,-0.0545 -0.0699,-0.10086 -0.0364,-0.0464 -0.0707,-0.0795 l -0.0601,0.34763 -0.12931,-0.0223 0.18257,-1.05679 0.13316,9e-5 -0.11387,0.65911 q 0.0391,-0.0276 0.0864,-0.061 0.0473,-0.0334 0.0934,-0.0684 0.0461,-0.035 0.0874,-0.0665 0.0415,-0.0329 0.0716,-0.0578 l 0.15156,0.0262 q -0.038,0.0292 -0.0827,0.0645 -0.0448,0.0352 -0.0925,0.0714 -0.0475,0.0348 -0.0967,0.0707 -0.0475,0.0348 -0.0902,0.0661 z"
         style="font-weight:normal;-inkscape-font-specification:Ubuntu"
         id="path8024" /><path
         d="m -146.86252,289.03778 q 0.016,-0.096 0.0556,-0.16239 0.0399,-0.0677 0.0937,-0.10742 0.0538,-0.0397 0.11761,-0.0534 0.0638,-0.0137 0.12643,-0.003 0.14616,0.0243 0.20881,0.12919 0.0629,0.10345 0.0318,0.28997 -0.001,0.008 -0.004,0.0223 -0.002,0.0125 -0.005,0.0234 l -0.49554,-0.0825 q -0.0104,0.11414 0.0369,0.18211 0.0473,0.068 0.16844,0.0881 0.0682,0.0114 0.11599,0.008 0.0494,-0.005 0.0749,-0.0118 l 2e-5,0.11159 q -0.0257,0.009 -0.0879,0.0125 -0.0608,0.004 -0.13594,-0.008 -0.0947,-0.0158 -0.15961,-0.0552 -0.0633,-0.0406 -0.0995,-0.0981 -0.0362,-0.0575 -0.0471,-0.12944 -0.009,-0.0731 0.004,-0.1552 z m 0.50874,0.0118 q 0.016,-0.0875 -0.0207,-0.15079 -0.035,-0.0645 -0.11438,-0.0777 -0.0445,-0.007 -0.0824,0.005 -0.0362,0.0111 -0.0645,0.035 -0.0283,0.0239 -0.0482,0.0578 -0.0186,0.0341 -0.029,0.071 z"
         style="font-weight:normal;-inkscape-font-specification:Ubuntu"
         id="path8026" /><path
         d="m -145.86627,288.82869 0.27446,0.0442 -0.0175,0.10867 -0.27446,-0.0442 -0.0538,0.33437 q -0.009,0.0543 -0.006,0.0919 0.003,0.0362 0.0161,0.0598 0.0136,0.0222 0.0373,0.0346 0.0237,0.0124 0.0572,0.0178 0.0585,0.009 0.0954,0.002 0.0385,-0.008 0.0533,-0.0114 l 0.008,0.11131 q -0.0211,0.007 -0.0721,0.0127 -0.0512,0.007 -0.11392,-0.003 -0.0738,-0.0119 -0.11969,-0.0378 -0.0442,-0.0271 -0.0674,-0.0694 -0.0232,-0.0423 -0.027,-0.0987 -0.002,-0.0575 0.009,-0.12997 l 0.10402,-0.64644 0.13315,-10e-4 z"
         style="font-weight:normal;-inkscape-font-specification:Ubuntu"
         id="path8028" /><path
         d="m -145.03864,289.60608 q 0.0795,0.0122 0.12037,-0.003 0.0423,-0.0149 0.0493,-0.061 0.007,-0.0474 -0.0261,-0.0811 -0.0334,-0.0337 -0.11451,-0.0818 -0.0393,-0.0231 -0.0758,-0.0459 -0.0349,-0.0239 -0.0591,-0.0519 -0.0243,-0.028 -0.0359,-0.064 -0.0116,-0.036 -0.004,-0.0849 0.0148,-0.0962 0.0944,-0.14113 0.0799,-0.0463 0.20264,-0.0275 0.0307,0.005 0.0607,0.0136 0.0303,0.007 0.0559,0.0171 0.0259,0.008 0.0445,0.0168 0.0201,0.009 0.0306,0.0147 l -0.0408,0.10795 q -0.0192,-0.0144 -0.0621,-0.0324 -0.0427,-0.0194 -0.10547,-0.029 -0.0544,-0.008 -0.0983,0.008 -0.0437,0.0147 -0.0507,0.0607 -0.004,0.0237 0.002,0.0431 0.007,0.0196 0.0228,0.0378 0.0174,0.0169 0.0434,0.0338 0.026,0.0168 0.0629,0.0368 0.0486,0.0274 0.0861,0.0532 0.0377,0.0243 0.0617,0.0537 0.0254,0.0296 0.0352,0.0682 0.01,0.0372 0.002,0.0888 -0.0154,0.10043 -0.0986,0.14049 -0.0818,0.0403 -0.21993,0.0191 -0.0962,-0.0147 -0.14807,-0.0398 -0.0521,-0.0237 -0.0703,-0.035 l 0.0408,-0.10795 q 0.021,0.0118 0.0673,0.036 0.0463,0.0242 0.12716,0.0366 z"
         style="font-weight:normal;-inkscape-font-specification:Ubuntu"
         id="path8030" /><path
         d="m -143.90547,289.5001 q -0.0127,0.0866 -0.0482,0.15265 -0.0354,0.0661 -0.0889,0.10957 -0.0521,0.0437 -0.11901,0.0623 -0.0667,0.0173 -0.14072,0.006 -0.074,-0.0109 -0.13291,-0.0467 -0.0587,-0.0372 -0.0974,-0.0942 -0.0373,-0.0568 -0.0521,-0.13034 -0.0148,-0.0735 -0.002,-0.16006 0.0125,-0.0852 0.048,-0.15126 0.0356,-0.0675 0.0877,-0.11117 0.0535,-0.0435 0.1202,-0.0607 0.0669,-0.0187 0.14092,-0.008 0.074,0.0109 0.1327,0.0481 0.0589,0.0358 0.0962,0.0926 0.0387,0.057 0.0533,0.13194 0.0148,0.0735 0.002,0.15867 z m -0.13541,-0.02 q 0.0181,-0.12285 -0.0273,-0.20227 -0.0438,-0.0806 -0.13868,-0.0946 -0.0949,-0.014 -0.16147,0.0504 -0.0649,0.0632 -0.083,0.18603 -0.0181,0.12285 0.0257,0.20347 0.0453,0.0794 0.14028,0.0934 0.0949,0.014 0.15987,-0.0492 0.0665,-0.0644 0.0846,-0.18722 z"
         style="font-weight:normal;-inkscape-font-specification:Ubuntu"
         id="path8032" /><path
         d="m -143.67775,289.18406 q 0.0463,-0.005 0.12071,-0.007 0.0758,-0.002 0.17227,0.0111 0.0699,0.01 0.11468,0.0359 0.045,0.0248 0.0721,0.0656 0.0108,-0.006 0.0335,-0.0153 0.0227,-0.01 0.055,-0.0166 0.0325,-0.008 0.0714,-0.0114 0.0391,-0.005 0.0824,0.001 0.0839,0.0117 0.13347,0.0442 0.0498,0.0311 0.0729,0.08 0.0245,0.049 0.0258,0.11186 0.003,0.063 -0.007,0.13573 l -0.0568,0.40811 -0.12998,-0.0181 0.0529,-0.38017 q 0.009,-0.0643 0.008,-0.11138 8.2e-4,-0.0469 -0.0131,-0.0802 -0.0125,-0.0331 -0.0413,-0.0513 -0.0272,-0.0195 -0.0747,-0.0261 -0.0657,-0.009 -0.11155,0.003 -0.0443,0.0109 -0.0616,0.0228 0.006,0.0379 0.006,0.082 -4.4e-4,0.0441 -0.007,0.0916 l -0.0568,0.40812 -0.12998,-0.0181 0.0529,-0.38017 q 0.009,-0.0643 0.008,-0.11138 -5.7e-4,-0.0471 -0.0145,-0.0804 -0.0125,-0.0331 -0.0413,-0.0513 -0.0272,-0.0195 -0.0733,-0.0259 -0.0196,-0.003 -0.0421,-0.004 -0.0225,-0.002 -0.0439,-0.002 -0.0198,-0.001 -0.0369,-8.7e-4 -0.0172,4.7e-4 -0.0229,0.001 l -0.0853,0.61357 -0.12998,-0.0181 z"
         style="font-weight:normal;-inkscape-font-specification:Ubuntu"
         id="path8034" /><path
         d="m -141.93441,289.73175 q 0.0378,0.0376 0.0779,0.0911 0.0414,0.0537 0.079,0.11547 0.0392,0.0605 0.0724,0.12314 0.0334,0.0612 0.055,0.1138 l -0.15255,-0.0197 q -0.0231,-0.0528 -0.0558,-0.10821 -0.0311,-0.0566 -0.0671,-0.10825 -0.0359,-0.053 -0.0742,-0.0978 -0.0383,-0.0448 -0.0741,-0.0764 l -0.0451,0.34988 -0.13016,-0.0168 0.13708,-1.06365 0.13304,-0.006 -0.0855,0.66338 q 0.0379,-0.0293 0.0837,-0.0646 0.0458,-0.0354 0.0904,-0.0723 0.0446,-0.0369 0.0845,-0.0702 0.04,-0.0347 0.069,-0.0608 l 0.15254,0.0197 q -0.0367,0.0308 -0.0799,0.068 -0.0432,0.0371 -0.0894,0.0753 -0.046,0.0367 -0.0936,0.0747 -0.046,0.0367 -0.0873,0.0698 z"
         style="font-weight:normal;-inkscape-font-specification:Ubuntu"
         id="path8036" /><path
         d="m -140.87158,289.90136 q -0.0107,0.0868 -0.0445,0.15377 -0.0338,0.0669 -0.0862,0.11167 -0.051,0.0449 -0.11748,0.0652 -0.0663,0.0189 -0.14053,0.01 -0.0742,-0.009 -0.13399,-0.0435 -0.0596,-0.0358 -0.0996,-0.0919 -0.0386,-0.0559 -0.0552,-0.12905 -0.0166,-0.0731 -0.006,-0.15996 0.0105,-0.0854 0.0443,-0.15237 0.034,-0.0683 0.085,-0.11325 0.0524,-0.0447 0.1187,-0.0636 0.0665,-0.0203 0.1407,-0.0111 0.0742,0.009 0.13382,0.0449 0.0598,0.0344 0.0984,0.0903 0.04,0.0561 0.0565,0.13063 0.0166,0.0731 0.006,0.15856 z m -0.13586,-0.0167 q 0.0151,-0.12325 -0.0321,-0.20157 -0.0457,-0.0795 -0.14092,-0.0912 -0.0952,-0.0117 -0.16021,0.0543 -0.0634,0.0647 -0.0785,0.18797 -0.0151,0.12325 0.0305,0.20279 0.0472,0.0783 0.14249,0.09 0.0952,0.0117 0.15864,-0.053 0.065,-0.0659 0.0801,-0.18919 z"
         style="font-weight:normal;-inkscape-font-specification:Ubuntu"
         id="path8038" /><path
         d="m -140.65138,289.57999 q 0.0461,-0.006 0.1205,-0.0103 0.0757,-0.004 0.17248,0.007 0.0701,0.008 0.1155,0.0332 0.0456,0.0237 0.0736,0.0639 0.0106,-0.006 0.0331,-0.0161 0.0225,-0.0102 0.0546,-0.0179 0.0323,-0.009 0.0711,-0.0131 0.039,-0.005 0.0824,-4.7e-4 0.0841,0.01 0.13448,0.041 0.0505,0.03 0.0748,0.0782 0.0257,0.0484 0.0284,0.11121 0.004,0.063 -0.004,0.13587 l -0.047,0.40935 -0.13037,-0.015 0.0438,-0.38132 q 0.007,-0.0645 0.006,-0.11155 -3e-4,-0.0469 -0.015,-0.0798 -0.0133,-0.0328 -0.0425,-0.0503 -0.0277,-0.0188 -0.0753,-0.0243 -0.0659,-0.008 -0.11144,0.006 -0.044,0.012 -0.061,0.0242 0.007,0.0377 0.008,0.0818 6.2e-4,0.0441 -0.005,0.0918 l -0.047,0.40935 -0.13037,-0.015 0.0438,-0.38131 q 0.007,-0.0645 0.006,-0.11156 -0.002,-0.0471 -0.0164,-0.08 -0.0133,-0.0328 -0.0425,-0.0503 -0.0277,-0.0188 -0.0739,-0.0241 -0.0196,-0.002 -0.0422,-0.003 -0.0226,-10e-4 -0.0439,-7.9e-4 -0.0198,-8.5e-4 -0.0369,2e-5 -0.0171,8.7e-4 -0.0229,0.002 l -0.0707,0.61543 -0.13037,-0.015 z"
         style="font-weight:normal;-inkscape-font-specification:Ubuntu"
         id="path8040" /><path
         d="m -139.45077,289.71687 q 0.0461,-0.006 0.1204,-0.0114 0.0757,-0.005 0.17254,0.005 0.0702,0.007 0.1158,0.0321 0.0458,0.0233 0.0742,0.0632 0.0106,-0.006 0.0329,-0.0164 0.0224,-0.0104 0.0544,-0.0184 0.0322,-0.009 0.071,-0.0138 0.0389,-0.006 0.0824,-10e-4 0.0842,0.009 0.13486,0.0398 0.0508,0.0295 0.0755,0.0775 0.0261,0.0482 0.0294,0.11094 0.005,0.0629 -0.003,0.13591 l -0.0433,0.40976 -0.1305,-0.0138 0.0403,-0.3817 q 0.007,-0.0645 0.005,-0.1116 -7.3e-4,-0.0469 -0.0157,-0.0797 -0.0136,-0.0326 -0.043,-0.0499 -0.0278,-0.0186 -0.0755,-0.0236 -0.066,-0.007 -0.11138,0.007 -0.0439,0.0124 -0.0608,0.0248 0.007,0.0377 0.008,0.0818 0.001,0.0441 -0.004,0.0918 l -0.0432,0.40977 -0.13051,-0.0138 0.0403,-0.3817 q 0.007,-0.0646 0.005,-0.11161 -0.002,-0.0471 -0.0171,-0.0799 -0.0136,-0.0326 -0.043,-0.0499 -0.0278,-0.0185 -0.0742,-0.0234 -0.0197,-0.002 -0.0422,-0.003 -0.0226,-9.7e-4 -0.0439,-3.8e-4 -0.0198,-6.7e-4 -0.0369,3.6e-4 -0.0171,10e-4 -0.0229,0.002 l -0.065,0.61606 -0.13051,-0.0138 z"
         style="font-weight:normal;-inkscape-font-specification:Ubuntu"
         id="path8042" /><path
         d="m -138.32233,290.18365 q 0.009,-0.0969 0.0446,-0.16578 0.0352,-0.0703 0.0863,-0.11349 0.051,-0.0432 0.11374,-0.0612 0.0627,-0.018 0.12593,-0.0118 0.14746,0.0144 0.21703,0.11483 0.0697,0.099 0.0513,0.28717 -8.2e-4,0.008 -0.002,0.0225 -0.001,0.0126 -0.004,0.0237 l -0.49996,-0.0489 q -0.003,0.11458 0.0491,0.1792 0.0518,0.0646 0.17399,0.0766 0.0688,0.007 0.11626,4e-5 0.049,-0.008 0.074,-0.0169 l 0.008,0.11133 q -0.0251,0.0103 -0.0869,0.0184 -0.0604,0.008 -0.1362,8.4e-4 -0.0955,-0.009 -0.16297,-0.0443 -0.0659,-0.0362 -0.10592,-0.0912 -0.04,-0.055 -0.0557,-0.12597 -0.0142,-0.0723 -0.006,-0.15514 z m 0.50838,-0.0225 q 0.0101,-0.0883 -0.0308,-0.14905 -0.0393,-0.062 -0.11935,-0.0698 -0.0449,-0.004 -0.0818,0.0104 -0.0353,0.0136 -0.062,0.0393 -0.0266,0.0258 -0.0442,0.0609 -0.0162,0.0353 -0.0241,0.0728 z"
         style="font-weight:normal;-inkscape-font-specification:Ubuntu"
         id="path8044" /><path
         d="m -137.19289,289.90635 q 0.0169,0.002 0.0377,0.006 0.0224,0.003 0.043,0.01 0.0208,0.005 0.0373,0.0106 0.018,0.005 0.0262,0.008 l -0.0331,0.11172 q -0.0149,-0.007 -0.0508,-0.0175 -0.0344,-0.0117 -0.0906,-0.0169 -0.0365,-0.003 -0.0738,0.002 -0.0358,0.004 -0.0473,0.006 l -0.057,0.61401 -0.13067,-0.0121 0.065,-0.69972 q 0.0479,-0.0125 0.11809,-0.0202 0.0703,-0.009 0.15599,-10e-4 z"
         style="font-weight:normal;-inkscape-font-specification:Ubuntu"
         id="path8046" /><path
         d="m -136.60433,289.99632 q 0.046,-0.007 0.12155,-0.0137 0.0756,-0.006 0.17262,0.002 0.0872,0.007 0.14265,0.0377 0.0556,0.0288 0.0855,0.0767 0.0314,0.0466 0.0402,0.10965 0.009,0.0631 0.002,0.13759 l -0.0351,0.41055 -0.13076,-0.0112 0.0327,-0.38243 q 0.006,-0.0675 0,-0.11613 -0.004,-0.0485 -0.0229,-0.0799 -0.0186,-0.0313 -0.0526,-0.047 -0.034,-0.0171 -0.086,-0.0215 -0.0211,-0.002 -0.0437,-0.002 -0.0226,-5.2e-4 -0.0439,4.9e-4 -0.0198,-2.7e-4 -0.0369,10e-4 -0.0157,10e-4 -0.0229,0.002 l -0.0527,0.61723 -0.13076,-0.0112 z"
         style="font-weight:normal;-inkscape-font-specification:Ubuntu"
         id="path8048" /><path
         d="m -135.86963,290.407 q 0.008,-0.0971 0.0416,-0.16657 0.034,-0.0709 0.0842,-0.11505 0.0502,-0.0441 0.11261,-0.0632 0.0624,-0.0191 0.12569,-0.0141 0.1477,0.0117 0.2191,0.11084 0.0715,0.0977 0.0565,0.28618 -6.7e-4,0.008 -0.002,0.0225 -0.001,0.0127 -0.003,0.0238 l -0.50077,-0.0398 q -6.2e-4,0.11461 0.0524,0.17828 0.053,0.0637 0.17536,0.0734 0.0689,0.005 0.11624,-0.002 0.0488,-0.009 0.0736,-0.0182 l 0.01,0.11118 q -0.0249,0.0107 -0.0865,0.02 -0.0602,0.009 -0.13615,0.003 -0.0957,-0.008 -0.16376,-0.0413 -0.0666,-0.035 -0.10756,-0.0892 -0.041,-0.0542 -0.058,-0.12494 -0.0155,-0.072 -0.009,-0.155 z m 0.50789,-0.0318 q 0.008,-0.0885 -0.0335,-0.14847 -0.0404,-0.0612 -0.12061,-0.0676 -0.045,-0.004 -0.0816,0.0119 -0.0351,0.0142 -0.0613,0.0404 -0.0262,0.0262 -0.0431,0.0617 -0.0156,0.0356 -0.0228,0.0732 z"
         style="font-weight:normal;-inkscape-font-specification:Ubuntu"
         id="path8050" /><path
         d="m -134.74536,290.10921 q 0.0169,10e-4 0.0378,0.006 0.0224,0.003 0.0432,0.009 0.0209,0.004 0.0375,0.01 0.0181,0.004 0.0263,0.008 l -0.031,0.1123 q -0.0151,-0.007 -0.0511,-0.0166 -0.0345,-0.0111 -0.0908,-0.0153 -0.0366,-0.003 -0.0738,0.003 -0.0357,0.004 -0.0472,0.006 l -0.046,0.61493 -0.13087,-0.01 0.0525,-0.70077 q 0.0477,-0.0134 0.1177,-0.0223 0.0701,-0.0103 0.15595,-0.004 z"
         style="font-weight:normal;-inkscape-font-specification:Ubuntu"
         id="path8052" /><path
         d="m -134.4453,290.80577 q -0.003,0.038 -0.0301,0.0643 -0.0274,0.0263 -0.071,0.0232 -0.0436,-0.003 -0.0669,-0.0331 -0.0233,-0.03 -0.0206,-0.068 0.003,-0.038 0.0301,-0.0643 0.0274,-0.0263 0.071,-0.0232 0.0436,0.003 0.0669,0.0331 0.0233,0.03 0.0206,0.068 z"
         style="font-weight:normal;-inkscape-font-specification:Ubuntu"
         id="path8054" /><path
         d="m -134.09919,290.82996 q -0.003,0.038 -0.0299,0.0644 -0.0273,0.0264 -0.0709,0.0234 -0.0436,-0.003 -0.067,-0.0329 -0.0234,-0.0299 -0.0208,-0.0679 0.003,-0.038 0.0299,-0.0644 0.0273,-0.0264 0.0709,-0.0234 0.0436,0.003 0.067,0.0329 0.0234,0.0299 0.0208,0.0679 z"
         style="font-weight:normal;-inkscape-font-specification:Ubuntu"
         id="path8056" /><path
         d="m -133.75307,290.85332 q -0.003,0.038 -0.0298,0.0645 -0.0272,0.0265 -0.0709,0.0236 -0.0436,-0.003 -0.0671,-0.0328 -0.0235,-0.0299 -0.0209,-0.0679 0.003,-0.038 0.0298,-0.0645 0.0272,-0.0265 0.0709,-0.0236 0.0437,0.003 0.0671,0.0328 0.0235,0.0299 0.0209,0.0679 z"
         style="font-weight:normal;-inkscape-font-specification:Ubuntu"
         id="path8058" /></g></g></svg>
