<?xml version="1.0" encoding="UTF-8" standalone="no"?>
<!-- Created with Inkscape (http://www.inkscape.org/) -->

<svg
   width="72.955566mm"
   height="30.660004mm"
   viewBox="0 0 72.955566 30.660004"
   version="1.1"
   id="svg5"
   xml:space="preserve"
   sodipodi:docname="drawing - utkantt_USB.svg"
   inkscape:version="1.2.2 (732a01da63, 2022-12-09)"
   xmlns:inkscape="http://www.inkscape.org/namespaces/inkscape"
   xmlns:sodipodi="http://sodipodi.sourceforge.net/DTD/sodipodi-0.dtd"
   xmlns="http://www.w3.org/2000/svg"
   xmlns:svg="http://www.w3.org/2000/svg"><sodipodi:namedview
     id="namedview7"
     pagecolor="#ffffff"
     bordercolor="#000000"
     borderopacity="0.25"
     inkscape:showpageshadow="2"
     inkscape:pageopacity="0.0"
     inkscape:pagecheckerboard="0"
     inkscape:deskcolor="#d1d1d1"
     inkscape:document-units="mm"
     showgrid="false"
     inkscape:zoom="2.2753006"
     inkscape:cx="-224.80546"
     inkscape:cy="1293.4555"
     inkscape:window-width="1920"
     inkscape:window-height="1057"
     inkscape:window-x="-8"
     inkscape:window-y="-8"
     inkscape:window-maximized="1"
     inkscape:current-layer="layer2" /><defs
     id="defs2" /><g
     inkscape:groupmode="layer"
     id="layer2"
     inkscape:label="Layer 2"
     transform="translate(37.970158,-307.14052)"><g
       aria-label="Det är ett skimmer över staden, Ett klokt och vackert guldgult ljus. Banankontakt av tredje graden, med frid och glädje i vart hus..."
       transform="translate(166.87017,46.746571)"
       id="text2703-4-8-9-8-90-1"
       style="font-weight:bold;font-size:1.41111px;font-family:Ubuntu;-inkscape-font-specification:'Ubuntu Bold';stroke-width:0.1;stroke-linecap:round;stroke-linejoin:round"
       inkscape:export-filename="banankontakt8.svg"
       inkscape:export-xdpi="96"
       inkscape:export-ydpi="96"><path
         d="m -203.94054,261.30005 q -0.091,0.0886 -0.18631,0.12621 -0.0943,0.0367 -0.18899,0.0284 -0.0937,-0.009 -0.18581,-0.0594 -0.0911,-0.0511 -0.17478,-0.13707 -0.0413,-0.0425 -0.0875,-0.098 -0.0462,-0.0535 -0.0764,-0.10481 l 0.6795,-0.66143 q 0.0505,0.0316 0.10271,0.0792 0.0542,0.0476 0.0956,0.0901 0.0837,0.0859 0.1313,0.1794 0.0487,0.0925 0.0544,0.18734 0.007,0.0939 -0.0335,0.18815 -0.0392,0.0933 -0.13018,0.18186 z m -0.64206,-0.11743 q 0.13583,0.13954 0.27354,0.1394 0.13872,-0.001 0.26714,-0.12612 0.12842,-0.125 0.13227,-0.26266 0.005,-0.13864 -0.13097,-0.27818 -0.0404,-0.0415 -0.064,-0.0637 -0.0227,-0.0213 -0.0325,-0.0294 l -0.53591,0.52166 q 0.008,0.0101 0.0285,0.0333 0.0216,0.0242 0.062,0.0657 z"
         style="font-weight:normal;-inkscape-font-specification:Ubuntu"
         id="path1048" /><path
         d="m -203.92713,261.51623 q 0.0717,-0.0658 0.14383,-0.0937 0.0731,-0.0288 0.13998,-0.027 0.0668,0.002 0.12554,0.0303 0.0587,0.0285 0.10164,0.0753 0.1002,0.10916 0.085,0.23035 -0.0141,0.12024 -0.15344,0.24811 -0.006,0.006 -0.0166,0.0153 -0.009,0.009 -0.0186,0.0152 l -0.3397,-0.37009 q -0.0785,0.0835 -0.083,0.16623 -0.005,0.0827 0.0785,0.17314 0.0468,0.0509 0.0866,0.0776 0.0418,0.0268 0.0663,0.0368 l -0.0687,0.0879 q -0.0256,-0.009 -0.077,-0.0442 -0.0505,-0.0341 -0.10201,-0.0903 -0.0649,-0.0707 -0.0918,-0.14175 -0.0249,-0.071 -0.018,-0.1386 0.007,-0.0676 0.0426,-0.131 0.0377,-0.0633 0.099,-0.11961 z m 0.39368,0.32246 q 0.0664,-0.0591 0.0765,-0.13155 0.0121,-0.0724 -0.0423,-0.13164 -0.0305,-0.0333 -0.0679,-0.0468 -0.0354,-0.0135 -0.0724,-0.0121 -0.037,0.001 -0.0736,0.0158 -0.0356,0.0154 -0.0666,0.0381 z"
         style="font-weight:normal;-inkscape-font-specification:Ubuntu"
         id="path1050" /><path
         d="m -203.01171,261.96889 0.18798,0.20479 -0.0811,0.0744 -0.18798,-0.20479 -0.24949,0.22901 q -0.0405,0.0372 -0.0619,0.0683 -0.0203,0.0301 -0.0244,0.0569 -0.003,0.0258 0.008,0.0503 0.0109,0.0244 0.0338,0.0494 0.0401,0.0437 0.0733,0.0611 0.0352,0.0175 0.0489,0.0241 l -0.0629,0.0922 q -0.0206,-0.008 -0.0644,-0.0347 -0.0448,-0.0259 -0.0878,-0.0727 -0.0506,-0.0551 -0.0705,-0.10389 -0.0179,-0.0487 -0.01,-0.0963 0.008,-0.0476 0.04,-0.0942 0.034,-0.0465 0.088,-0.0961 l 0.48235,-0.44275 0.10538,0.0814 z"
         style="font-weight:normal;-inkscape-font-specification:Ubuntu"
         id="path1052" /><path
         d="m -202.79369,263.15172 q 0.0315,0.0343 0.0564,0.0593 0.0269,0.0251 0.0473,0.039 l 0.16114,-0.14791 q -0.004,-0.0152 -0.0232,-0.0419 -0.0168,-0.0267 -0.0474,-0.0599 -0.02,-0.0218 -0.0461,-0.0439 -0.0251,-0.0211 -0.0546,-0.0323 -0.0275,-0.0112 -0.0576,-0.008 -0.029,0.002 -0.0571,0.0275 -0.052,0.0477 -0.0422,0.10006 0.0108,0.0514 0.0633,0.10857 z m 0.4768,-0.45298 q 0.0534,0.0582 0.0741,0.11203 0.0227,0.0539 0.0165,0.10358 -0.004,0.0498 -0.0331,0.0955 -0.0279,0.0447 -0.0736,0.0867 l -0.33785,0.31012 q -0.0135,-0.0106 -0.0387,-0.0296 -0.0232,-0.019 -0.052,-0.0442 -0.0289,-0.0252 -0.0615,-0.0566 -0.0327,-0.0294 -0.0623,-0.0616 -0.042,-0.0457 -0.0679,-0.0928 -0.0259,-0.0471 -0.032,-0.0933 -0.005,-0.0471 0.014,-0.0933 0.019,-0.0461 0.0657,-0.0891 0.0447,-0.041 0.0932,-0.0529 0.0494,-0.0109 0.0978,0.002 0.0484,0.0131 0.0959,0.046 0.0475,0.033 0.0895,0.0787 0.0134,0.0145 0.0256,0.032 0.0133,0.0165 0.0226,0.0329 0.0113,0.0165 0.0187,0.0288 0.007,0.0123 0.0102,0.0174 l 0.027,-0.0248 q 0.0239,-0.022 0.042,-0.0481 0.0191,-0.0271 0.0244,-0.0569 0.006,-0.0307 -0.005,-0.0641 -0.01,-0.0334 -0.0439,-0.0708 -0.0439,-0.0478 -0.0846,-0.0775 -0.0387,-0.0296 -0.0622,-0.0406 l 0.0695,-0.0849 q 0.0255,0.0111 0.0728,0.0481 0.0484,0.036 0.0951,0.087 z m 0.01,-0.16237 q -0.022,-0.0239 -0.0225,-0.0579 10e-4,-0.0339 0.0285,-0.0587 0.027,-0.0248 0.0599,-0.0224 0.0349,0.002 0.0568,0.0264 0.022,0.0239 0.0205,0.0578 5.4e-4,0.034 -0.0265,0.0588 -0.027,0.0248 -0.0619,0.0223 -0.0328,-0.002 -0.0548,-0.0263 z m 0.1813,0.19752 q -0.0219,-0.0239 -0.0225,-0.0579 0.001,-0.0339 0.0285,-0.0587 0.027,-0.0248 0.0599,-0.0224 0.0348,0.002 0.0568,0.0264 0.022,0.0239 0.0205,0.0578 5.4e-4,0.034 -0.0265,0.0588 -0.027,0.0248 -0.0619,0.0223 -0.0328,-0.002 -0.0548,-0.0263 z"
         style="font-weight:normal;-inkscape-font-specification:Ubuntu"
         id="path1054" /><path
         d="m -201.79796,263.26826 q 0.0115,0.0125 0.0237,0.03 0.0142,0.0176 0.0254,0.036 0.0122,0.0175 0.0206,0.0328 0.0103,0.0154 0.014,0.0236 l -0.0995,0.0607 q -0.006,-0.0153 -0.0259,-0.0471 -0.0176,-0.0317 -0.0558,-0.0733 -0.0248,-0.027 -0.0559,-0.0483 -0.0291,-0.0212 -0.0388,-0.0276 l -0.45429,0.41699 -0.0887,-0.0967 0.5177,-0.4752 q 0.044,0.0229 0.10112,0.0643 0.0582,0.0405 0.11639,0.10386 z"
         style="font-weight:normal;-inkscape-font-specification:Ubuntu"
         id="path1056" /><path
         d="m -201.70285,263.93948 q 0.0717,-0.0658 0.14383,-0.0937 0.0731,-0.0288 0.13997,-0.027 0.0668,0.002 0.12554,0.0303 0.0587,0.0285 0.10165,0.0753 0.10019,0.10916 0.085,0.23035 -0.0141,0.12024 -0.15343,0.24811 -0.006,0.006 -0.0166,0.0153 -0.009,0.009 -0.0186,0.0152 l -0.3397,-0.37009 q -0.0785,0.0835 -0.083,0.16623 -0.005,0.0827 0.0785,0.17314 0.0468,0.0509 0.0866,0.0776 0.0418,0.0268 0.0663,0.0368 l -0.0687,0.0879 q -0.0256,-0.009 -0.077,-0.0442 -0.0505,-0.0341 -0.102,-0.0903 -0.0649,-0.0707 -0.0918,-0.14175 -0.0249,-0.071 -0.018,-0.1386 0.007,-0.0676 0.0426,-0.13101 0.0377,-0.0633 0.099,-0.1196 z m 0.39367,0.32246 q 0.0665,-0.0591 0.0765,-0.13155 0.0121,-0.0724 -0.0423,-0.13164 -0.0305,-0.0333 -0.0679,-0.0468 -0.0354,-0.0135 -0.0724,-0.0121 -0.037,0.001 -0.0736,0.0158 -0.0356,0.0155 -0.0666,0.0381 z"
         style="font-weight:normal;-inkscape-font-specification:Ubuntu"
         id="path1058" /><path
         d="m -200.78742,264.39214 0.18798,0.20479 -0.0811,0.0744 -0.18798,-0.2048 -0.24949,0.22902 q -0.0405,0.0372 -0.0618,0.0683 -0.0203,0.0301 -0.0244,0.0569 -0.003,0.0258 0.008,0.0503 0.0109,0.0244 0.0338,0.0494 0.0401,0.0437 0.0733,0.0611 0.0352,0.0175 0.0489,0.0241 l -0.0629,0.0922 q -0.0206,-0.008 -0.0644,-0.0347 -0.0448,-0.0259 -0.0878,-0.0727 -0.0506,-0.0551 -0.0705,-0.10389 -0.0179,-0.0487 -0.01,-0.0963 0.008,-0.0476 0.04,-0.0942 0.034,-0.0465 0.088,-0.0961 l 0.48236,-0.44276 0.10538,0.0814 z"
         style="font-weight:normal;-inkscape-font-specification:Ubuntu"
         id="path1060" /><path
         d="m -200.40383,264.81004 0.18798,0.2048 -0.0811,0.0744 -0.18798,-0.2048 -0.24949,0.22901 q -0.0405,0.0372 -0.0618,0.0683 -0.0203,0.0301 -0.0244,0.0569 -0.003,0.0258 0.008,0.0503 0.0109,0.0244 0.0338,0.0494 0.0401,0.0437 0.0733,0.0611 0.0352,0.0175 0.0489,0.0241 l -0.0629,0.0922 q -0.0206,-0.008 -0.0644,-0.0347 -0.0448,-0.0259 -0.0878,-0.0727 -0.0506,-0.0551 -0.0705,-0.10389 -0.0179,-0.0487 -0.01,-0.0963 0.008,-0.0476 0.04,-0.0942 0.034,-0.0465 0.088,-0.0961 l 0.48235,-0.44276 0.10538,0.0814 z"
         style="font-weight:normal;-inkscape-font-specification:Ubuntu"
         id="path1062" /><path
         d="m -200.23829,265.93567 q 0.0544,0.0592 0.0958,0.073 0.0423,0.0148 0.0766,-0.0167 0.0354,-0.0324 0.0304,-0.0796 -0.005,-0.0472 -0.0382,-0.13546 -0.0162,-0.0426 -0.0304,-0.0832 -0.0122,-0.0405 -0.0137,-0.0775 -10e-4,-0.037 0.0121,-0.0724 0.0135,-0.0354 0.0499,-0.0688 0.0717,-0.0658 0.16197,-0.051 0.0913,0.0139 0.17526,0.10538 0.021,0.0229 0.0389,0.0486 0.0189,0.0248 0.0329,0.0483 0.015,0.0226 0.0242,0.041 0.0102,0.0194 0.0147,0.0306 l -0.0994,0.0587 q -0.006,-0.0232 -0.0282,-0.0641 -0.0212,-0.0418 -0.0641,-0.0886 -0.0372,-0.0405 -0.0815,-0.0554 -0.0433,-0.0158 -0.0776,0.0157 -0.0177,0.0162 -0.0255,0.0349 -0.007,0.0197 -0.006,0.0437 0.003,0.0241 0.0127,0.0535 0.01,0.0294 0.026,0.068 0.0207,0.0518 0.0339,0.0953 0.0142,0.0426 0.0145,0.0805 0.001,0.039 -0.0152,0.0752 -0.0155,0.0353 -0.054,0.0706 -0.0748,0.0687 -0.16484,0.0479 -0.089,-0.0198 -0.18351,-0.12271 -0.0658,-0.0717 -0.0906,-0.12372 -0.0258,-0.051 -0.0329,-0.0713 l 0.0994,-0.0587 q 0.009,0.0224 0.03,0.0702 0.0209,0.0478 0.0763,0.10813 z"
         style="font-weight:normal;-inkscape-font-specification:Ubuntu"
         id="path1064" /><path
         d="m -199.52086,266.26028 q 0.005,0.0531 7.5e-4,0.11988 -0.003,0.0678 -0.0141,0.13921 -0.009,0.0715 -0.0241,0.14077 -0.014,0.0683 -0.0313,0.12248 l -0.10391,-0.11342 q 0.0164,-0.0552 0.0272,-0.11866 0.0128,-0.0634 0.0185,-0.12603 0.007,-0.0636 0.006,-0.12257 -4.2e-4,-0.0589 -0.007,-0.10619 l -0.26012,0.23831 -0.0887,-0.0968 0.79075,-0.72447 0.1053,0.0815 -0.49318,0.45183 q 0.0479,0.002 0.10567,0.005 0.0578,0.003 0.11572,0.003 0.0579,5.4e-4 0.10983,8.1e-4 0.053,-6.8e-4 0.092,-0.002 l 0.1039,0.11341 q -0.0479,-1e-4 -0.10488,4.1e-4 -0.057,5e-4 -0.11685,-1.2e-4 -0.0589,-0.002 -0.11971,-0.003 -0.0589,-0.002 -0.11174,-0.003 z"
         style="font-weight:normal;-inkscape-font-specification:Ubuntu"
         id="path1066" /><path
         d="m -199.42283,266.96914 -0.0874,-0.0979 0.54723,-0.48885 0.0874,0.0979 z m 0.60196,-0.62668 q -0.0235,-0.0263 -0.0236,-0.0603 0.002,-0.0339 0.0314,-0.0602 0.0295,-0.0263 0.0623,-0.0235 0.0348,0.003 0.0583,0.0293 0.0235,0.0263 0.0216,0.0602 8e-5,0.034 -0.0294,0.0603 -0.0295,0.0263 -0.0643,0.0234 -0.0328,-0.003 -0.0563,-0.0292 z"
         style="font-weight:normal;-inkscape-font-specification:Ubuntu"
         id="path1068" /><path
         d="m -198.72282,266.68293 q 0.038,0.0269 0.0954,0.0744 0.0583,0.0485 0.12171,0.12241 0.0459,0.0536 0.0622,0.10284 0.0173,0.0484 0.0106,0.0969 0.0118,0.003 0.0352,0.0107 0.0234,0.008 0.0522,0.024 0.0298,0.0153 0.0611,0.0387 0.0323,0.0225 0.0608,0.0557 0.0551,0.0643 0.0707,0.12151 0.0167,0.0563 0.002,0.10821 -0.0141,0.053 -0.0548,0.10087 -0.0398,0.049 -0.0955,0.0968 l -0.31278,0.26823 -0.0854,-0.0996 0.29136,-0.24986 q 0.0493,-0.0423 0.08,-0.0779 0.0317,-0.0346 0.0433,-0.0687 0.0125,-0.0331 0.003,-0.0658 -0.008,-0.0326 -0.0387,-0.069 -0.0432,-0.0504 -0.0856,-0.0716 -0.0404,-0.0211 -0.0612,-0.0237 -0.0205,0.0324 -0.05,0.0652 -0.0295,0.0328 -0.0659,0.064 l -0.31279,0.26822 -0.0854,-0.0996 0.29136,-0.24985 q 0.0493,-0.0423 0.08,-0.0779 0.0307,-0.0357 0.0424,-0.0698 0.0125,-0.0331 0.003,-0.0658 -0.008,-0.0326 -0.0378,-0.0679 -0.0129,-0.015 -0.0286,-0.0312 -0.0158,-0.0162 -0.0317,-0.0305 -0.0139,-0.0141 -0.0271,-0.0251 -0.0132,-0.011 -0.0179,-0.0144 l -0.47024,0.40326 -0.0854,-0.0996 z"
         style="font-weight:normal;-inkscape-font-specification:Ubuntu"
         id="path1070" /><path
         d="m -197.93391,267.60877 q 0.0379,0.027 0.0951,0.0747 0.0582,0.0487 0.12133,0.12279 0.0458,0.0537 0.0619,0.10303 0.0172,0.0484 0.0103,0.0969 0.0118,0.003 0.0352,0.0108 0.0234,0.008 0.0521,0.0242 0.0298,0.0154 0.061,0.0389 0.0322,0.0226 0.0606,0.0559 0.0549,0.0644 0.0704,0.12173 0.0165,0.0564 0.001,0.10822 -0.0142,0.0529 -0.0551,0.1007 -0.0399,0.0489 -0.0958,0.0965 l -0.3136,0.26726 -0.0851,-0.0999 0.29213,-0.24896 q 0.0494,-0.0421 0.0803,-0.0777 0.0318,-0.0345 0.0435,-0.0686 0.0127,-0.033 0.003,-0.0658 -0.007,-0.0326 -0.0385,-0.0691 -0.043,-0.0505 -0.0854,-0.0719 -0.0403,-0.0212 -0.0612,-0.0239 -0.0206,0.0324 -0.0502,0.0651 -0.0296,0.0327 -0.0661,0.0638 l -0.3136,0.26727 -0.0851,-0.0999 0.29213,-0.24896 q 0.0494,-0.0421 0.0803,-0.0777 0.0309,-0.0356 0.0426,-0.0697 0.0126,-0.033 0.003,-0.0658 -0.007,-0.0326 -0.0376,-0.0681 -0.0128,-0.015 -0.0285,-0.0313 -0.0157,-0.0163 -0.0316,-0.0306 -0.0139,-0.0141 -0.027,-0.0252 -0.0131,-0.0111 -0.0179,-0.0144 l -0.47148,0.40182 -0.0851,-0.0999 z"
         style="font-weight:normal;-inkscape-font-specification:Ubuntu"
         id="path1072" /><path
         d="m -197.43765,268.72561 q 0.0739,-0.0634 0.14688,-0.0889 0.0741,-0.0264 0.1408,-0.0223 0.0667,0.004 0.12445,0.0345 0.0577,0.0304 0.0991,0.0786 0.0965,0.11243 0.0773,0.23305 -0.0181,0.1197 -0.16162,0.24285 -0.006,0.006 -0.0171,0.0147 -0.01,0.008 -0.0191,0.0145 l -0.32717,-0.38121 q -0.0812,0.0809 -0.0885,0.16337 -0.007,0.0825 0.0727,0.17566 0.045,0.0525 0.0839,0.0805 0.0409,0.0281 0.0651,0.039 l -0.0716,0.0856 q -0.0253,-0.01 -0.0755,-0.0468 -0.0493,-0.0358 -0.0989,-0.0936 -0.0625,-0.0728 -0.087,-0.14474 -0.0225,-0.0718 -0.0134,-0.13912 0.009,-0.0673 0.0469,-0.12951 0.0397,-0.062 0.10293,-0.11624 z m 0.38271,0.33541 q 0.0684,-0.0568 0.0809,-0.12893 0.0145,-0.072 -0.0379,-0.13298 -0.0294,-0.0343 -0.0663,-0.0491 -0.0349,-0.0147 -0.0719,-0.0145 -0.037,1.7e-4 -0.0741,0.0134 -0.0361,0.0143 -0.0678,0.0359 z"
         style="font-weight:normal;-inkscape-font-specification:Ubuntu"
         id="path1074" /><path
         d="m -196.42881,269.30964 q 0.0111,0.0128 0.0228,0.0307 0.0137,0.018 0.0243,0.0368 0.0117,0.0179 0.0196,0.0334 0.01,0.0157 0.0133,0.024 l -0.10126,0.0576 q -0.006,-0.0154 -0.0245,-0.0478 -0.0166,-0.0322 -0.0536,-0.0749 -0.024,-0.0278 -0.0544,-0.05 -0.0284,-0.0221 -0.0379,-0.0288 l -0.46666,0.40311 -0.0858,-0.0993 0.53179,-0.45938 q 0.0433,0.0242 0.0991,0.0673 0.057,0.0422 0.11322,0.10732 z"
         style="font-weight:normal;-inkscape-font-specification:Ubuntu"
         id="path1076" /><path
         d="m -195.90089,270.49791 q -0.0659,0.0576 -0.13569,0.0849 -0.0698,0.0273 -0.13872,0.0257 -0.068,-5.4e-4 -0.13102,-0.0298 -0.062,-0.0301 -0.11122,-0.0864 -0.0492,-0.0563 -0.0709,-0.12174 -0.0206,-0.0664 -0.013,-0.13487 0.009,-0.0674 0.0449,-0.13301 0.0364,-0.0656 0.10224,-0.12316 0.0648,-0.0567 0.13462,-0.084 0.0709,-0.0283 0.13886,-0.0277 0.0689,0.002 0.13088,0.0318 0.0631,0.0292 0.11229,0.0855 0.0492,0.0563 0.0698,0.12268 0.0216,0.0654 0.0131,0.13288 -0.008,0.0685 -0.045,0.13499 -0.0364,0.0656 -0.10117,0.12224 z m -0.0901,-0.10303 q 0.0935,-0.0817 0.11048,-0.17162 0.019,-0.0897 -0.0442,-0.16196 -0.0632,-0.0722 -0.15556,-0.0664 -0.0904,0.006 -0.18387,0.0877 -0.0935,0.0818 -0.11247,0.17149 -0.017,0.0899 0.0462,0.16209 0.0632,0.0722 0.15358,0.0663 0.0924,-0.006 0.18586,-0.0876 z m 0.1533,-0.58777 q -0.0214,-0.0244 -0.0211,-0.0584 0.002,-0.0338 0.0299,-0.058 0.0276,-0.0242 0.0604,-0.021 0.0348,0.003 0.0561,0.0278 0.0214,0.0244 0.0191,0.0583 -2.8e-4,0.034 -0.0279,0.0581 -0.0276,0.0242 -0.0624,0.0208 -0.0328,-0.003 -0.0541,-0.0276 z m 0.17651,0.20181 q -0.0214,-0.0244 -0.0211,-0.0584 0.002,-0.0339 0.0299,-0.058 0.0276,-0.0241 0.0604,-0.021 0.0348,0.003 0.0561,0.0278 0.0214,0.0244 0.0191,0.0583 -2.7e-4,0.034 -0.0279,0.0581 -0.0276,0.0242 -0.0624,0.0208 -0.0328,-0.003 -0.0542,-0.0276 z"
         style="font-weight:normal;-inkscape-font-specification:Ubuntu"
         id="path1078" /><path
         d="m -195.13767,270.80727 q -0.19078,0.0953 -0.38196,0.16455 -0.19024,0.0703 -0.34809,0.11764 l -0.0785,-0.0888 q 0.0662,-0.15089 0.1583,-0.33219 0.093,-0.18025 0.21086,-0.35797 l 0.0935,0.10569 q -0.0406,0.0585 -0.0848,0.12777 -0.0422,0.0694 -0.0835,0.13983 -0.0393,0.0706 -0.0755,0.13834 -0.0361,0.0678 -0.0625,0.12313 0.0582,-0.0194 0.12983,-0.047 0.0717,-0.0276 0.14557,-0.0591 0.0759,-0.0313 0.14899,-0.0659 0.0751,-0.0344 0.13809,-0.0675 z"
         style="font-weight:normal;-inkscape-font-specification:Ubuntu"
         id="path1080" /><path
         d="m -195.36533,271.10545 q 0.0725,-0.065 0.14495,-0.092 0.0735,-0.028 0.14028,-0.0253 0.0668,0.003 0.12517,0.0318 0.0584,0.0292 0.10074,0.0765 0.0989,0.11035 0.0822,0.23135 -0.0156,0.12007 -0.1564,0.24625 -0.006,0.006 -0.0168,0.0151 -0.009,0.008 -0.0188,0.015 l -0.33524,-0.37413 q -0.0795,0.0826 -0.085,0.16522 -0.006,0.0826 0.0764,0.17407 0.0461,0.0515 0.0856,0.0786 0.0415,0.0273 0.0659,0.0376 l -0.0697,0.0871 q -0.0255,-0.009 -0.0765,-0.0452 -0.0501,-0.0347 -0.10091,-0.0915 -0.064,-0.0715 -0.0901,-0.14285 -0.0241,-0.0713 -0.0164,-0.1388 0.008,-0.0675 0.0441,-0.13049 0.0384,-0.0628 0.10043,-0.1184 z m 0.38978,0.32715 q 0.0671,-0.0583 0.0781,-0.13062 0.013,-0.0722 -0.0407,-0.13214 -0.0301,-0.0336 -0.0673,-0.0477 -0.0352,-0.0139 -0.0722,-0.0129 -0.037,9.7e-4 -0.0738,0.0149 -0.0358,0.015 -0.067,0.0373 z"
         style="font-weight:normal;-inkscape-font-specification:Ubuntu"
         id="path1082" /><path
         d="m -194.34613,271.66354 q 0.0114,0.0125 0.0235,0.0301 0.0141,0.0177 0.0252,0.0362 0.0121,0.0176 0.0204,0.033 0.0102,0.0155 0.0138,0.0236 l -0.0998,0.0601 q -0.006,-0.0153 -0.0257,-0.0472 -0.0174,-0.0318 -0.0554,-0.0736 -0.0247,-0.0272 -0.0556,-0.0486 -0.0289,-0.0214 -0.0386,-0.0278 l -0.45658,0.41449 -0.0882,-0.0972 0.52032,-0.47234 q 0.0438,0.0231 0.10076,0.0648 0.058,0.0408 0.11582,0.1045 z"
         style="font-weight:normal;-inkscape-font-specification:Ubuntu"
         id="path1084" /><path
         d="m -194.31058,272.67058 q 0.0547,0.059 0.0961,0.0726 0.0424,0.0146 0.0765,-0.0171 0.0352,-0.0326 0.03,-0.0797 -0.005,-0.0471 -0.0388,-0.13529 -0.0164,-0.0426 -0.0308,-0.0831 -0.0124,-0.0404 -0.014,-0.0774 -0.002,-0.037 0.0118,-0.0724 0.0133,-0.0354 0.0496,-0.069 0.0714,-0.0662 0.16174,-0.0517 0.0913,0.0135 0.17574,0.10457 0.0211,0.0228 0.0391,0.0484 0.019,0.0247 0.0331,0.0482 0.0151,0.0226 0.0244,0.0409 0.0102,0.0194 0.0148,0.0305 l -0.0991,0.0591 q -0.006,-0.0232 -0.0285,-0.064 -0.0214,-0.0418 -0.0645,-0.0883 -0.0374,-0.0404 -0.0818,-0.055 -0.0433,-0.0156 -0.0775,0.016 -0.0176,0.0163 -0.0253,0.035 -0.007,0.0197 -0.006,0.0437 0.003,0.0241 0.0129,0.0534 0.01,0.0293 0.0264,0.0679 0.021,0.0517 0.0343,0.0952 0.0144,0.0425 0.0149,0.0805 0.002,0.039 -0.0149,0.0753 -0.0153,0.0354 -0.0536,0.0708 -0.0745,0.0691 -0.16462,0.0486 -0.0891,-0.0194 -0.18407,-0.12186 -0.0662,-0.0714 -0.0911,-0.12331 -0.026,-0.0509 -0.0332,-0.0712 l 0.0991,-0.0591 q 0.009,0.0223 0.0303,0.07 0.0211,0.0477 0.0768,0.10778 z"
         style="font-weight:normal;-inkscape-font-specification:Ubuntu"
         id="path1086" /><path
         d="m -193.44883,272.65757 0.19043,0.20253 -0.0802,0.0754 -0.19042,-0.20252 -0.24674,0.23198 q -0.0401,0.0377 -0.061,0.069 -0.0199,0.0303 -0.0237,0.0572 -0.003,0.0259 0.008,0.0502 0.0112,0.0243 0.0344,0.049 0.0406,0.0432 0.074,0.0602 0.0354,0.0171 0.0492,0.0235 l -0.0618,0.0929 q -0.0207,-0.008 -0.0648,-0.0339 -0.0451,-0.0254 -0.0886,-0.0716 -0.0512,-0.0545 -0.0717,-0.10303 -0.0185,-0.0485 -0.011,-0.0962 0.007,-0.0477 0.0388,-0.0946 0.0334,-0.0469 0.0868,-0.0971 l 0.47702,-0.44851 0.10634,0.0801 z"
         style="font-weight:normal;-inkscape-font-specification:Ubuntu"
         id="path1088" /><path
         d="m -193.43839,273.59784 q 0.0322,0.0336 0.0576,0.0582 0.0274,0.0245 0.0481,0.038 l 0.15802,-0.15122 q -0.005,-0.0151 -0.024,-0.0414 -0.0174,-0.0263 -0.0486,-0.0589 -0.0205,-0.0214 -0.047,-0.043 -0.0255,-0.0205 -0.0552,-0.0312 -0.0277,-0.0106 -0.0577,-0.007 -0.029,0.002 -0.0565,0.0287 -0.051,0.0488 -0.0401,0.10092 0.0118,0.0512 0.0655,0.10723 z m 0.46728,-0.4628 q 0.0546,0.0571 0.0764,0.11047 0.0238,0.0534 0.0187,0.10321 -0.003,0.0498 -0.0311,0.0961 -0.0269,0.0453 -0.0718,0.0882 l -0.33133,0.31708 q -0.0137,-0.0103 -0.0393,-0.0288 -0.0236,-0.0185 -0.053,-0.0431 -0.0294,-0.0246 -0.0627,-0.0553 -0.0333,-0.0287 -0.0635,-0.0603 -0.0429,-0.0449 -0.0699,-0.0914 -0.0269,-0.0465 -0.0339,-0.0926 -0.006,-0.047 0.012,-0.0935 0.018,-0.0465 0.0639,-0.0904 0.0438,-0.042 0.092,-0.0549 0.0492,-0.0119 0.0978,1.5e-4 0.0486,0.012 0.0968,0.0441 0.0482,0.032 0.0911,0.0769 0.0137,0.0143 0.0263,0.0315 0.0136,0.0163 0.0232,0.0324 0.0116,0.0162 0.0193,0.0284 0.008,0.0122 0.0106,0.0172 l 0.0265,-0.0254 q 0.0234,-0.0224 0.041,-0.049 0.0186,-0.0275 0.0232,-0.0574 0.006,-0.0308 -0.007,-0.064 -0.0103,-0.0332 -0.0454,-0.0699 -0.0449,-0.0469 -0.0862,-0.0758 -0.0393,-0.0288 -0.063,-0.0393 l 0.0678,-0.0863 q 0.0257,0.0105 0.0738,0.0465 0.0491,0.035 0.0969,0.085 z"
         style="font-weight:normal;-inkscape-font-specification:Ubuntu"
         id="path1090" /><path
         d="m -192.42329,273.94924 q -0.003,-0.031 -0.0212,-0.0761 -0.0185,-0.0451 -0.056,-0.0834 -0.0395,-0.0403 -0.0833,-0.0547 -0.0418,-0.0144 -0.0857,-0.007 -0.043,0.007 -0.0862,0.033 -0.0432,0.0265 -0.0835,0.066 -0.0917,0.0899 -0.0977,0.1846 -0.005,0.0937 0.0691,0.16935 0.0375,0.0383 0.0652,0.0605 0.0297,0.0223 0.0476,0.0324 z m 0.35281,-0.34561 0.10796,0.0779 -0.76712,0.75146 q -0.0407,-0.0234 -0.0991,-0.0649 -0.0584,-0.0415 -0.12263,-0.10704 -0.0592,-0.0605 -0.0875,-0.12763 -0.0282,-0.0672 -0.0265,-0.13598 0.002,-0.0688 0.0333,-0.13736 0.0336,-0.0685 0.0971,-0.13072 0.0605,-0.0592 0.12569,-0.0935 0.0662,-0.0332 0.13212,-0.0385 0.0659,-0.005 0.12853,0.0183 0.0636,0.0246 0.11891,0.0811 0.0444,0.0454 0.0659,0.0915 0.0225,0.0471 0.0282,0.0751 z"
         style="font-weight:normal;-inkscape-font-specification:Ubuntu"
         id="path1092" /><path
         d="m -192.35698,274.32011 q 0.0686,-0.0691 0.13939,-0.1002 0.0718,-0.0322 0.1386,-0.0334 0.0669,-10e-4 0.12679,0.0246 0.06,0.0258 0.10499,0.0705 0.10508,0.10445 0.0955,0.22621 -0.009,0.12076 -0.14192,0.25487 -0.006,0.006 -0.0159,0.016 -0.009,0.009 -0.0179,0.016 l -0.3563,-0.35413 q -0.0746,0.087 -0.0753,0.16985 -7.4e-4,0.0828 0.0863,0.16937 0.049,0.0487 0.09,0.0736 0.043,0.0248 0.068,0.0337 l -0.0646,0.091 q -0.026,-0.008 -0.0789,-0.0407 -0.052,-0.0318 -0.10603,-0.0855 -0.0681,-0.0677 -0.0982,-0.1374 -0.0282,-0.0698 -0.0244,-0.13763 0.004,-0.0679 0.0365,-0.13281 0.0347,-0.065 0.0934,-0.12402 z m 0.40803,0.30409 q 0.0637,-0.062 0.0704,-0.13491 0.009,-0.0729 -0.0483,-0.12957 -0.032,-0.0318 -0.07,-0.0437 -0.036,-0.0119 -0.0729,-0.009 -0.0369,0.003 -0.0728,0.0192 -0.0349,0.0171 -0.0647,0.0411 z"
         style="font-weight:normal;-inkscape-font-specification:Ubuntu"
         id="path1094" /><path
         d="m -191.53013,274.6506 q 0.0403,0.0232 0.10296,0.0661 0.0626,0.0428 0.13268,0.11043 0.0629,0.0608 0.0869,0.11922 0.025,0.0574 0.018,0.11345 -0.005,0.056 -0.038,0.11044 -0.033,0.0545 -0.0849,0.10828 l -0.28617,0.29646 -0.0944,-0.0911 0.26657,-0.27615 q 0.0471,-0.0487 0.0733,-0.0901 0.0272,-0.0404 0.0326,-0.0764 0.005,-0.036 -0.0112,-0.0697 -0.0156,-0.0346 -0.0531,-0.0709 -0.0152,-0.0147 -0.0325,-0.0294 -0.0172,-0.0147 -0.0344,-0.0273 -0.0152,-0.0127 -0.0293,-0.0224 -0.0131,-0.009 -0.0192,-0.0126 l -0.43024,0.4457 -0.0944,-0.0912 z"
         style="font-weight:normal;-inkscape-font-specification:Ubuntu"
         id="path1096" /><path
         d="m -191.22949,275.70193 q -0.007,0.009 -0.0145,0.0174 -0.007,0.007 -0.0145,0.0154 -0.061,0.0647 -0.13958,0.10888 -0.0785,0.0462 -0.16559,0.0727 l -0.0516,-0.0933 q 0.0751,-0.0281 0.13459,-0.0748 0.0586,-0.0456 0.1031,-0.0928 0.0126,-0.0133 0.0232,-0.0266 0.0116,-0.0123 0.0212,-0.0246 z"
         style="font-weight:normal;-inkscape-font-specification:Ubuntu"
         id="path1098" /><path
         d="m -190.94239,276.18954 0.65707,-0.72425 0.44207,0.40107 -0.0787,0.0867 -0.34071,-0.3091 -0.19531,0.21529 0.30307,0.27497 -0.0768,0.0847 -0.30308,-0.27496 -0.22755,0.25082 0.36683,0.3328 -0.0787,0.0867 z"
         style="font-weight:normal;-inkscape-font-specification:Ubuntu"
         id="path1100" /><path
         d="m -189.78833,276.2397 0.20889,0.18343 -0.0726,0.0827 -0.20889,-0.18342 -0.22345,0.25448 q -0.0363,0.0414 -0.0542,0.0745 -0.0169,0.0321 -0.0182,0.0592 -3.1e-4,0.026 0.0132,0.0491 0.0135,0.0231 0.0389,0.0455 0.0445,0.0391 0.0794,0.0528 0.0369,0.0136 0.0512,0.0187 l -0.0526,0.0984 q -0.0214,-0.006 -0.0678,-0.0276 -0.0473,-0.0209 -0.0951,-0.0628 -0.0562,-0.0494 -0.0812,-0.0957 -0.023,-0.0465 -0.0202,-0.0947 0.003,-0.0482 0.0297,-0.0979 0.0288,-0.0499 0.0772,-0.105 l 0.43202,-0.492 0.11351,0.0696 z"
         style="font-weight:normal;-inkscape-font-specification:Ubuntu"
         id="path1102" /><path
         d="m -189.36831,276.6041 0.21156,0.18033 -0.0714,0.0838 -0.21156,-0.18033 -0.21969,0.25775 q -0.0357,0.0419 -0.0531,0.0753 -0.0164,0.0324 -0.0173,0.0594 7e-5,0.026 0.0139,0.0489 0.0138,0.0229 0.0396,0.0449 0.0451,0.0384 0.0802,0.0517 0.0371,0.0131 0.0515,0.0179 l -0.0512,0.0992 q -0.0214,-0.005 -0.0682,-0.0266 -0.0477,-0.0202 -0.096,-0.0614 -0.0569,-0.0485 -0.0826,-0.0945 -0.0237,-0.0462 -0.0215,-0.0944 0.002,-0.0482 0.0282,-0.0983 0.028,-0.0503 0.0756,-0.10613 l 0.42473,-0.4983 0.11452,0.0679 z"
         style="font-weight:normal;-inkscape-font-specification:Ubuntu"
         id="path1104" /><path
         d="m -188.79373,277.51004 q 0.0126,0.0518 0.0188,0.1184 0.007,0.0675 0.007,0.13974 0.002,0.0721 -0.003,0.1428 -0.004,0.0696 -0.0125,0.1258 l -0.1198,-0.0965 q 0.008,-0.0571 0.009,-0.1214 0.003,-0.0646 -6.9e-4,-0.12738 -0.003,-0.0639 -0.0122,-0.12213 -0.009,-0.0582 -0.0233,-0.10387 l -0.22125,0.27477 -0.10221,-0.0823 0.67261,-0.8353 0.11637,0.0647 -0.41949,0.52096 q 0.0476,-0.005 0.10515,-0.0113 0.0575,-0.006 0.11487,-0.0144 0.0573,-0.008 0.10869,-0.0157 0.0523,-0.009 0.0906,-0.0158 l 0.1198,0.0965 q -0.0474,0.007 -0.10363,0.0162 -0.0562,0.009 -0.11553,0.0175 -0.0584,0.007 -0.11884,0.0148 -0.0584,0.007 -0.11089,0.014 z"
         style="font-weight:normal;-inkscape-font-specification:Ubuntu"
         id="path1106" /><path
         d="m -188.51266,278.26327 q -0.0941,-0.0767 -0.10393,-0.14683 -0.01,-0.0702 0.0542,-0.15264 l 0.54011,-0.69543 0.1175,0.0627 -0.54098,0.69654 q -0.0199,0.0256 -0.0284,0.0458 -0.009,0.0202 -0.006,0.038 0.002,0.0178 0.0146,0.0364 0.0132,0.0174 0.0352,0.0398 z"
         style="font-weight:normal;-inkscape-font-specification:Ubuntu"
         id="path1108" /><path
         d="m -187.63546,278.44541 q -0.0522,0.0702 -0.11472,0.11163 -0.0625,0.0415 -0.13018,0.0544 -0.0666,0.0138 -0.13434,-0.001 -0.0669,-0.0164 -0.12696,-0.061 -0.06,-0.0446 -0.0949,-0.10405 -0.0341,-0.0605 -0.0411,-0.1291 -0.006,-0.0677 0.0158,-0.13948 0.0217,-0.0718 0.074,-0.14197 0.0514,-0.0691 0.11387,-0.1105 0.0633,-0.0426 0.12989,-0.0564 0.0677,-0.013 0.13463,0.003 0.0678,0.0153 0.1278,0.0599 0.06,0.0446 0.0941,0.10519 0.035,0.0594 0.0409,0.12712 0.007,0.0686 -0.0155,0.14145 -0.0217,0.0718 -0.0731,0.14084 z m -0.10982,-0.0817 q 0.0741,-0.0996 0.0718,-0.19106 -3.5e-4,-0.0917 -0.0773,-0.149 -0.077,-0.0573 -0.16607,-0.0321 -0.0871,0.0249 -0.16124,0.12452 -0.0741,0.0996 -0.0738,0.19135 0.002,0.0914 0.0793,0.14871 0.077,0.0573 0.1641,0.0324 0.0891,-0.0252 0.16321,-0.12481 z"
         style="font-weight:normal;-inkscape-font-specification:Ubuntu"
         id="path1110" /><path
         d="m -187.25514,278.66869 q 0.0161,0.0509 0.0267,0.11687 0.0118,0.0668 0.0164,0.13895 0.007,0.0718 0.007,0.14266 0.001,0.0697 -0.004,0.12635 l -0.12601,-0.0882 q 0.004,-0.0575 8e-4,-0.12173 -0.001,-0.0646 -0.009,-0.12704 -0.007,-0.0636 -0.0204,-0.12104 -0.0132,-0.0574 -0.0302,-0.10207 l -0.20229,0.28901 -0.10751,-0.0753 0.61495,-0.87861 0.12046,0.0568 -0.38353,0.54798 q 0.0472,-0.008 0.10415,-0.0184 0.057,-0.0101 0.11364,-0.0221 0.0566,-0.012 0.10739,-0.023 0.0516,-0.0121 0.0894,-0.0219 l 0.12602,0.0882 q -0.0468,0.0103 -0.10231,0.0231 -0.0555,0.0128 -0.1141,0.0252 -0.0578,0.0112 -0.11757,0.0228 -0.0578,0.0112 -0.1097,0.0214 z"
         style="font-weight:normal;-inkscape-font-specification:Ubuntu"
         id="path1112" /><path
         d="m -186.59117,278.72196 0.23187,0.15334 -0.0607,0.0918 -0.23187,-0.15334 -0.18681,0.28248 q -0.0304,0.0459 -0.0435,0.0812 -0.0124,0.0341 -0.01,0.0611 0.003,0.0258 0.0197,0.0469 0.0165,0.0211 0.0448,0.0397 0.0494,0.0327 0.0859,0.0416 0.0384,0.008 0.0533,0.0115 l -0.0388,0.10464 q -0.0219,-0.003 -0.0709,-0.0181 -0.0498,-0.0143 -0.10273,-0.0493 -0.0624,-0.0413 -0.0934,-0.0838 -0.0291,-0.043 -0.0328,-0.0911 -0.004,-0.0481 0.0161,-0.10103 0.0217,-0.0533 0.0622,-0.11452 l 0.36117,-0.54613 0.12192,0.0536 z"
         style="font-weight:normal;-inkscape-font-specification:Ubuntu"
         id="path1114" /><path
         d="m -185.60408,279.76813 q -0.0448,0.0751 -0.10277,0.12273 -0.058,0.0476 -0.12398,0.0674 -0.0648,0.0205 -0.13379,0.0122 -0.0683,-0.01 -0.1325,-0.0478 -0.0642,-0.0383 -0.10504,-0.0939 -0.0401,-0.0568 -0.054,-0.12425 -0.0128,-0.0668 0.002,-0.14037 0.0143,-0.0736 0.0591,-0.14874 0.0441,-0.0739 0.10205,-0.12151 0.0587,-0.0488 0.12348,-0.0693 0.066,-0.0198 0.13429,-0.0103 0.069,0.008 0.13322,0.0466 0.0642,0.0383 0.10431,0.0951 0.0408,0.0555 0.0536,0.12231 0.014,0.0675 -0.001,0.1423 -0.0143,0.0736 -0.0584,0.14753 z m -0.11755,-0.0701 q 0.0636,-0.10665 0.052,-0.19737 -0.01,-0.0912 -0.0921,-0.14037 -0.0824,-0.0491 -0.16848,-0.015 -0.0841,0.0336 -0.14774,0.14026 -0.0636,0.10665 -0.0539,0.19786 0.0116,0.0907 0.094,0.13988 0.0824,0.0491 0.16654,0.0155 0.0861,-0.0341 0.14968,-0.14075 z"
         style="font-weight:normal;-inkscape-font-specification:Ubuntu"
         id="path1116" /><path
         d="m -185.35863,280.34098 q -0.078,-0.0426 -0.12391,-0.0999 -0.0447,-0.0566 -0.0612,-0.12348 -0.0153,-0.0662 -0.002,-0.13773 0.014,-0.0727 0.0546,-0.14704 0.0406,-0.0743 0.0955,-0.12471 0.0561,-0.0497 0.12011,-0.0727 0.0647,-0.0242 0.13515,-0.0178 0.0724,0.006 0.14299,0.0444 0.0433,0.0237 0.0826,0.0548 0.0393,0.0311 0.0701,0.0689 l -0.0795,0.0836 q -0.0192,-0.0266 -0.0498,-0.053 -0.0294,-0.0257 -0.0678,-0.0467 -0.0966,-0.0528 -0.18175,-0.0205 -0.0839,0.0329 -0.14754,0.14933 -0.0284,0.052 -0.041,0.10143 -0.0113,0.0501 -0.003,0.0946 0.009,0.0452 0.0392,0.0842 0.0308,0.0378 0.0878,0.0689 0.0458,0.025 0.0877,0.0367 0.0419,0.0116 0.0684,0.0132 l -0.0367,0.10538 q -0.0133,7.8e-4 -0.0352,-0.003 -0.0213,-0.005 -0.0468,-0.0143 -0.0262,-0.008 -0.0548,-0.0203 -0.028,-0.0105 -0.0528,-0.024 z"
         style="font-weight:normal;-inkscape-font-specification:Ubuntu"
         id="path1118" /><path
         d="m -185.05311,280.48553 0.4754,-0.96132 0.12765,0.0379 -0.16639,0.33646 q 0.0391,0.004 0.0789,0.0154 0.0417,0.0112 0.0784,0.0293 0.0784,0.0388 0.11903,0.0872 0.0412,0.0471 0.0516,0.10264 0.0122,0.0548 -0.003,0.11676 -0.0149,0.0619 -0.048,0.12895 l -0.18265,0.36935 -0.11764,-0.0582 0.17015,-0.34405 q 0.03,-0.0607 0.0424,-0.1081 0.0137,-0.0468 0.008,-0.0827 -0.006,-0.036 -0.0318,-0.063 -0.0254,-0.0283 -0.0722,-0.0514 -0.019,-0.009 -0.0405,-0.0169 -0.0215,-0.007 -0.0423,-0.0131 -0.019,-0.006 -0.036,-0.01 -0.0158,-0.003 -0.0234,-0.004 l -0.27023,0.54643 z"
         style="font-weight:normal;-inkscape-font-specification:Ubuntu"
         id="path1120" /><path
         d="m -183.22076,280.51002 q -0.12945,0.16946 -0.27071,0.31572 -0.13996,0.1468 -0.26093,0.2587 l -0.10957,-0.0452 q -0.007,-0.16464 -0.004,-0.36796 0.004,-0.20278 0.032,-0.41422 l 0.13044,0.0538 q -0.0107,0.0704 -0.02,0.15203 -0.007,0.0809 -0.0136,0.16233 -0.004,0.0807 -0.007,0.15742 -0.003,0.0768 -0.002,0.13807 0.0437,-0.043 0.0959,-0.0993 0.0522,-0.0563 0.10478,-0.11705 0.0544,-0.0615 0.10486,-0.12465 0.0523,-0.0639 0.0943,-0.12135 z"
         style="font-weight:normal;-inkscape-font-specification:Ubuntu"
         id="path1122" /><path
         d="m -183.10788,281.22925 q 0.0439,0.0156 0.0776,0.026 0.0355,0.01 0.06,0.0123 l 0.0731,-0.20615 q -0.0109,-0.0114 -0.0401,-0.0262 -0.0274,-0.0157 -0.0699,-0.0308 -0.0279,-0.01 -0.0613,-0.0172 -0.032,-0.007 -0.0633,-0.003 -0.0295,0.003 -0.0548,0.0195 -0.0248,0.0152 -0.0376,0.0511 -0.0236,0.0665 0.01,0.10819 0.0336,0.0404 0.10675,0.0663 z m 0.20906,-0.62357 q 0.0745,0.0264 0.11795,0.0643 0.0453,0.037 0.0631,0.0838 0.0197,0.0459 0.0155,0.0998 -0.004,0.0526 -0.0244,0.11112 l -0.15323,0.43226 q -0.0169,-0.003 -0.048,-0.008 -0.0293,-0.006 -0.0667,-0.0147 -0.0373,-0.009 -0.0808,-0.0212 -0.0426,-0.0106 -0.0839,-0.0252 -0.0585,-0.0207 -0.10349,-0.0502 -0.045,-0.0294 -0.0719,-0.0674 -0.0265,-0.0393 -0.0313,-0.089 -0.005,-0.0496 0.0163,-0.10949 0.0203,-0.0572 0.0575,-0.0904 0.0386,-0.0328 0.0874,-0.0439 0.0489,-0.0111 0.1063,-0.004 0.0574,0.007 0.11597,0.0276 0.0186,0.007 0.0376,0.0163 0.0195,0.008 0.0354,0.0185 0.0177,0.009 0.03,0.0166 0.0124,0.007 0.0172,0.0106 l 0.0123,-0.0346 q 0.0108,-0.0306 0.0146,-0.0622 0.004,-0.033 -0.005,-0.0617 -0.009,-0.0301 -0.0347,-0.0542 -0.0241,-0.025 -0.0719,-0.042 -0.0612,-0.0217 -0.11103,-0.0289 -0.048,-0.008 -0.074,-0.007 l 0.0217,-0.1076 q 0.0277,-0.002 0.0869,0.008 0.0596,0.009 0.1248,0.0323 z"
         style="font-weight:normal;-inkscape-font-specification:Ubuntu"
         id="path1124" /><path
         d="m -182.37614,281.58183 q -0.0853,-0.0252 -0.14219,-0.0715 -0.0556,-0.0459 -0.0858,-0.1078 -0.0289,-0.0615 -0.0309,-0.13423 -0.002,-0.0741 0.0224,-0.15525 0.024,-0.0812 0.067,-0.14204 0.0444,-0.0605 0.10208,-0.0964 0.0581,-0.0373 0.12836,-0.0459 0.072,-0.01 0.14913,0.0132 0.0474,0.014 0.0923,0.0361 0.045,0.0221 0.0831,0.0525 l -0.06,0.0985 q -0.0244,-0.0219 -0.0599,-0.0413 -0.0341,-0.0189 -0.0761,-0.0313 -0.10555,-0.0312 -0.18199,0.0183 -0.0751,0.0499 -0.11272,0.17709 -0.0168,0.0568 -0.0186,0.1078 -4.8e-4,0.0514 0.0166,0.0932 0.0184,0.0422 0.0561,0.074 0.0381,0.0304 0.10034,0.0488 0.0501,0.0148 0.0935,0.0174 0.0434,0.003 0.0696,-10e-4 l -0.0136,0.11075 q -0.0128,0.004 -0.0351,0.004 -0.0219,-5.9e-4 -0.0488,-0.004 -0.0273,-0.002 -0.0579,-0.008 -0.0296,-0.004 -0.0567,-0.0123 z"
         style="font-weight:normal;-inkscape-font-specification:Ubuntu"
         id="path1126" /><path
         d="m -181.69555,281.32428 q 0.0337,0.0413 0.068,0.0987 0.0357,0.0577 0.0667,0.12302 0.0327,0.0643 0.0592,0.12997 0.0269,0.0643 0.043,0.11889 l -0.14969,-0.0353 q -0.0175,-0.0549 -0.0443,-0.1134 -0.0251,-0.0596 -0.0556,-0.11461 -0.0302,-0.0564 -0.0637,-0.10493 -0.0335,-0.0485 -0.0658,-0.0837 l -0.081,0.34334 -0.12773,-0.0301 0.24638,-1.04376 0.13291,0.008 -0.15366,0.65097 q 0.0407,-0.0252 0.09,-0.0556 0.0492,-0.0304 0.0974,-0.0625 0.0482,-0.0321 0.0913,-0.0611 0.0434,-0.0303 0.0749,-0.0534 l 0.1497,0.0353 q -0.0397,0.0269 -0.0865,0.0593 -0.0468,0.0325 -0.0967,0.0656 -0.0495,0.0318 -0.10081,0.0646 -0.0496,0.0318 -0.094,0.0605 z"
         style="font-weight:normal;-inkscape-font-specification:Ubuntu"
         id="path1128" /><path
         d="m -181.34425,281.44465 q 0.016,-0.096 0.0556,-0.1624 0.0399,-0.0677 0.0937,-0.10744 0.0538,-0.0397 0.1176,-0.0534 0.0638,-0.0137 0.12643,-0.003 0.14616,0.0243 0.20883,0.12915 0.0629,0.10345 0.0319,0.28997 -10e-4,0.008 -0.004,0.0223 -0.002,0.0125 -0.005,0.0234 l -0.49555,-0.0824 q -0.0104,0.11414 0.0369,0.1821 0.0473,0.068 0.16845,0.0881 0.0682,0.0113 0.11599,0.008 0.0494,-0.005 0.0749,-0.0118 l 3e-5,0.11158 q -0.0257,0.009 -0.0879,0.0126 -0.0608,0.004 -0.13595,-0.008 -0.0947,-0.0157 -0.15962,-0.0552 -0.0633,-0.0406 -0.0995,-0.0981 -0.0362,-0.0575 -0.0471,-0.12944 -0.009,-0.0731 0.004,-0.1552 z m 0.50875,0.0117 q 0.016,-0.0875 -0.0207,-0.15079 -0.0351,-0.0645 -0.1144,-0.0777 -0.0445,-0.007 -0.0824,0.005 -0.0362,0.0111 -0.0645,0.035 -0.0283,0.0239 -0.0482,0.0578 -0.0185,0.0341 -0.029,0.071 z"
         style="font-weight:normal;-inkscape-font-specification:Ubuntu"
         id="path1130" /><path
         d="m -180.2437,281.20881 q 0.0168,0.002 0.0376,0.006 0.0223,0.004 0.043,0.01 0.0208,0.005 0.0373,0.0107 0.018,0.005 0.0262,0.008 l -0.0334,0.11161 q -0.0149,-0.007 -0.0508,-0.0176 -0.0343,-0.0118 -0.0905,-0.0172 -0.0365,-0.004 -0.0739,0.001 -0.0358,0.004 -0.0473,0.005 l -0.0591,0.61382 -0.13063,-0.0126 0.0673,-0.6995 q 0.048,-0.0124 0.11815,-0.0198 0.0703,-0.009 0.156,-5.9e-4 z"
         style="font-weight:normal;-inkscape-font-specification:Ubuntu"
         id="path1132" /><path
         d="m -179.8742,281.25063 0.27759,0.0149 -0.006,0.10991 -0.27759,-0.0149 -0.0181,0.33818 q -0.003,0.055 0.004,0.092 0.007,0.0357 0.0223,0.0577 0.0159,0.0206 0.0408,0.0305 0.0249,0.01 0.0587,0.0116 0.0592,0.003 0.0951,-0.008 0.0374,-0.0121 0.0518,-0.017 l 0.0196,0.10986 q -0.0203,0.009 -0.0703,0.0202 -0.0502,0.0129 -0.11356,0.009 -0.0747,-0.004 -0.12302,-0.025 -0.0469,-0.0223 -0.0744,-0.0619 -0.0275,-0.0396 -0.0373,-0.0953 -0.008,-0.057 -0.004,-0.13024 l 0.0351,-0.65382 0.13225,-0.0155 z"
         style="font-weight:normal;-inkscape-font-specification:Ubuntu"
         id="path1134" /><path
         d="m -178.59129,281.95658 q -0.0173,0.0107 -0.0673,0.0273 -0.0486,0.0152 -0.11342,0.0129 -0.0663,-0.002 -0.12476,-0.0256 -0.0571,-0.0232 -0.0992,-0.0685 -0.0421,-0.0467 -0.0651,-0.11388 -0.023,-0.0672 -0.0198,-0.15885 0.003,-0.0804 0.0292,-0.1458 0.0264,-0.0668 0.0732,-0.11317 0.0483,-0.0477 0.11553,-0.0721 0.0673,-0.0258 0.15049,-0.0229 0.0917,0.003 0.15885,0.0198 0.0687,0.0152 0.11478,0.0281 l -0.0234,0.65434 q -0.006,0.16922 -0.0962,0.24225 -0.0901,0.073 -0.26784,0.0667 -0.0691,-0.002 -0.13074,-0.016 -0.0602,-0.0135 -0.10481,-0.0306 l 0.028,-0.11337 q 0.0389,0.0169 0.0949,0.0302 0.0574,0.0148 0.11941,0.017 0.11705,0.004 0.16948,-0.0405 0.0538,-0.0447 0.0575,-0.1462 z m 0.018,-0.54439 q -0.0195,-0.006 -0.0532,-0.0118 -0.0322,-0.007 -0.0886,-0.009 -0.10576,-0.004 -0.16605,0.0633 -0.0589,0.0671 -0.063,0.18131 -0.002,0.0635 0.0116,0.10914 0.0153,0.0457 0.041,0.0763 0.0272,0.0306 0.0619,0.046 0.0362,0.0154 0.0742,0.0168 0.0522,0.002 0.0964,-0.0107 0.0443,-0.0139 0.0704,-0.0328 z"
         style="font-weight:normal;-inkscape-font-specification:Ubuntu"
         id="path1136" /><path
         d="m -177.74916,282.05563 q -0.0457,0.009 -0.12112,0.0171 -0.074,0.008 -0.17119,0.003 -0.0845,-0.005 -0.14092,-0.0321 -0.0563,-0.0287 -0.089,-0.0757 -0.0326,-0.0471 -0.0447,-0.10856 -0.012,-0.0629 -0.008,-0.13754 l 0.0235,-0.41138 0.13102,0.007 -0.0219,0.3832 q -0.008,0.13384 0.0313,0.19401 0.039,0.0602 0.13899,0.0659 0.0211,0.001 0.0438,0.001 0.0226,-1.3e-4 0.0424,-4.1e-4 0.0199,-0.002 0.0355,-0.002 0.0171,-0.002 0.0243,-0.004 l 0.0354,-0.61846 0.13101,0.007 z"
         style="font-weight:normal;-inkscape-font-specification:Ubuntu"
         id="path1138" /><path
         d="m -177.30578,282.1204 q -0.1209,-0.0109 -0.16831,-0.0635 -0.0474,-0.0527 -0.0405,-0.15685 l 0.0585,-0.87859 0.13244,-0.0138 -0.0586,0.88 q -0.002,0.0324 0.002,0.0539 0.004,0.0215 0.0161,0.035 0.0118,0.0135 0.0325,0.022 0.0208,0.007 0.0514,0.0133 z"
         style="font-weight:normal;-inkscape-font-specification:Ubuntu"
         id="path1140" /><path
         d="m -176.62288,281.57654 q -0.0224,-0.0215 -0.066,-0.0433 -0.0436,-0.0217 -0.0971,-0.0258 -0.0563,-0.004 -0.0987,0.0137 -0.0409,0.0167 -0.069,0.0513 -0.028,0.0332 -0.043,0.0816 -0.015,0.0484 -0.0193,0.10467 -0.01,0.12804 0.0482,0.20322 0.0581,0.0738 0.16358,0.0818 0.0535,0.004 0.089,0.003 0.037,-0.003 0.0571,-0.007 z m 0.0376,-0.49245 0.13257,-0.0125 -0.0817,1.07074 q -0.046,0.009 -0.11731,0.0165 -0.0713,0.007 -0.16277,3.1e-4 -0.0844,-0.006 -0.14992,-0.0383 -0.0655,-0.0319 -0.10957,-0.0848 -0.0441,-0.0529 -0.0654,-0.12529 -0.0198,-0.0737 -0.0131,-0.16233 0.006,-0.0844 0.0329,-0.15316 0.0279,-0.0686 0.074,-0.11606 0.0461,-0.0474 0.10873,-0.071 0.0641,-0.0234 0.14285,-0.0174 0.0633,0.005 0.10987,0.0254 0.048,0.0206 0.0707,0.0379 z"
         style="font-weight:normal;-inkscape-font-specification:Ubuntu"
         id="path1142" /><path
         d="m -175.8472,282.15017 q -0.0179,0.01 -0.0687,0.0236 -0.0493,0.0126 -0.11395,0.007 -0.066,-0.006 -0.12319,-0.0323 -0.0557,-0.0263 -0.0954,-0.0738 -0.0395,-0.0489 -0.0589,-0.11722 -0.0194,-0.0683 -0.0111,-0.15969 0.007,-0.0801 0.037,-0.14401 0.03,-0.0653 0.0792,-0.10905 0.0508,-0.045 0.11926,-0.0658 0.0686,-0.0222 0.15151,-0.0147 0.0913,0.008 0.15754,0.0284 0.0677,0.0188 0.1131,0.0343 l -0.0587,0.65212 q -0.0152,0.16865 -0.10915,0.23671 -0.094,0.068 -0.27105,0.0521 -0.0689,-0.006 -0.12969,-0.023 -0.0594,-0.0167 -0.10301,-0.0362 l 0.0341,-0.11169 q 0.038,0.019 0.0932,0.0353 0.0565,0.0178 0.11832,0.0234 0.11665,0.0105 0.17142,-0.0313 0.0562,-0.0417 0.0653,-0.14289 z m 0.0474,-0.54262 q -0.0192,-0.007 -0.0525,-0.0147 -0.0318,-0.009 -0.088,-0.0136 -0.10541,-0.009 -0.16923,0.0542 -0.0624,0.0638 -0.0727,0.17765 -0.006,0.0632 0.006,0.10961 0.0128,0.0465 0.0369,0.0784 0.0255,0.0321 0.0593,0.0493 0.0353,0.0174 0.0732,0.0208 0.052,0.005 0.0968,-0.005 0.045,-0.0115 0.072,-0.0289 z"
         style="font-weight:normal;-inkscape-font-specification:Ubuntu"
         id="path1144" /><path
         d="m -174.91566,282.29613 q -0.0461,0.007 -0.12178,0.0114 -0.0743,0.005 -0.17114,-0.005 -0.0842,-0.009 -0.13927,-0.0386 -0.0549,-0.0312 -0.0853,-0.0798 -0.0304,-0.0486 -0.0396,-0.11052 -0.009,-0.0634 -0.001,-0.13775 l 0.0427,-0.40983 0.13053,0.0136 -0.0397,0.38176 q -0.0139,0.13333 0.0222,0.19526 0.0361,0.0619 0.13577,0.0723 0.0211,0.002 0.0437,0.003 0.0226,9.3e-4 0.0424,0.002 0.0199,-7.7e-4 0.0355,-5.6e-4 0.0171,-0.001 0.0245,-0.003 l 0.0641,-0.61615 0.13053,0.0136 z"
         style="font-weight:normal;-inkscape-font-specification:Ubuntu"
         id="path1146" /><path
         d="m -174.47668,282.382 q -0.12024,-0.0167 -0.16506,-0.0715 -0.0448,-0.0549 -0.0329,-0.15861 l 0.10056,-0.87477 0.13295,-0.007 -0.10071,0.87618 q -0.004,0.0322 -5.2e-4,0.0539 0.003,0.0217 0.0144,0.0357 0.0112,0.0141 0.0314,0.0235 0.0204,0.008 0.0507,0.0158 z"
         style="font-weight:normal;-inkscape-font-specification:Ubuntu"
         id="path1148" /><path
         d="m -174.09914,281.67429 0.27588,0.0342 -0.0136,0.10923 -0.27588,-0.0342 -0.0417,0.33609 q -0.007,0.0546 -0.003,0.0921 0.004,0.036 0.0183,0.0591 0.0144,0.0217 0.0385,0.0332 0.0242,0.0115 0.0578,0.0157 0.0588,0.007 0.0954,-9.6e-4 0.0382,-0.009 0.0528,-0.0134 l 0.0118,0.11095 q -0.0208,0.007 -0.0716,0.0153 -0.0509,0.009 -0.11395,0.002 -0.0742,-0.009 -0.12097,-0.0335 -0.0452,-0.0255 -0.0699,-0.067 -0.0247,-0.0415 -0.0305,-0.0976 -0.004,-0.0574 0.005,-0.13022 l 0.0806,-0.64978 0.13302,-0.006 z"
         style="font-weight:normal;-inkscape-font-specification:Ubuntu"
         id="path1150" /><path
         d="m -173.20864,282.54707 q -0.11979,-0.0197 -0.16323,-0.0756 -0.0434,-0.056 -0.0289,-0.15938 l 0.12244,-0.87197 0.1331,-0.004 -0.12263,0.87337 q -0.005,0.0321 -0.002,0.0539 0.003,0.0217 0.0135,0.0361 0.0108,0.0143 0.0308,0.0243 0.0202,0.009 0.0503,0.017 z"
         style="font-weight:normal;-inkscape-font-specification:Ubuntu"
         id="path1152" /><path
         d="m -173.20118,282.80029 q -0.0168,-0.002 -0.0427,-0.0106 -0.0259,-0.008 -0.043,-0.0178 l 0.0325,-0.10359 q 0.0133,0.006 0.0311,0.0118 0.0177,0.005 0.0331,0.008 0.067,0.01 0.10113,-0.0278 0.0353,-0.0361 0.0471,-0.11568 l 0.10596,-0.71325 0.12981,0.0193 -0.10575,0.71186 q -0.0207,0.13958 -0.0949,0.19704 -0.073,0.0591 -0.19441,0.041 z m 0.34894,-1.09087 q -0.0349,-0.005 -0.0567,-0.0312 -0.0202,-0.0273 -0.0144,-0.0663 0.006,-0.0391 0.0328,-0.0579 0.0286,-0.02 0.0635,-0.0148 0.0349,0.005 0.0551,0.0324 0.0218,0.0261 0.016,0.0652 -0.006,0.0391 -0.0344,0.0591 -0.0271,0.0188 -0.0619,0.0136 z"
         style="font-weight:normal;-inkscape-font-specification:Ubuntu"
         id="path1154" /><path
         d="m -172.11062,282.68197 q -0.0464,0.004 -0.12224,0.004 -0.0745,7.7e-4 -0.17057,-0.0148 -0.0836,-0.0136 -0.13684,-0.0465 -0.053,-0.0343 -0.0806,-0.0846 -0.0276,-0.0502 -0.0332,-0.11261 -0.005,-0.0638 0.007,-0.1376 l 0.066,-0.40672 0.12953,0.021 -0.0615,0.37887 q -0.0215,0.13232 0.011,0.19621 0.0325,0.0639 0.13141,0.0799 0.0209,0.003 0.0434,0.006 0.0225,0.002 0.0422,0.004 0.02,3.8e-4 0.0355,10e-4 0.0172,-7e-5 0.0246,-0.002 l 0.0993,-0.61147 0.12953,0.021 z"
         style="font-weight:normal;-inkscape-font-specification:Ubuntu"
         id="path1156" /><path
         d="m -171.70619,282.67919 q 0.0791,0.0143 0.12041,3.1e-4 0.0427,-0.0138 0.051,-0.0596 0.009,-0.0472 -0.0239,-0.0818 -0.0325,-0.0346 -0.11226,-0.0849 -0.0386,-0.0242 -0.0745,-0.0479 -0.0342,-0.0248 -0.0577,-0.0535 -0.0235,-0.0286 -0.0341,-0.065 -0.0106,-0.0363 -0.002,-0.0849 0.0174,-0.0958 0.0982,-0.13851 0.0811,-0.0441 0.20332,-0.022 0.0305,0.006 0.0603,0.0152 0.03,0.008 0.0554,0.0186 0.0256,0.009 0.0441,0.018 0.0198,0.009 0.0302,0.0155 l -0.0437,0.1068 q -0.0188,-0.0149 -0.0612,-0.034 -0.0422,-0.0205 -0.10465,-0.0319 -0.0541,-0.01 -0.0984,0.005 -0.044,0.0135 -0.0523,0.0593 -0.004,0.0236 7.8e-4,0.0432 0.006,0.0198 0.0217,0.0384 0.0169,0.0174 0.0424,0.0349 0.0255,0.0175 0.0619,0.0385 0.0478,0.0287 0.0846,0.0555 0.037,0.0254 0.0602,0.0554 0.0246,0.0303 0.0334,0.0692 0.009,0.0375 -3.2e-4,0.0888 -0.0181,0.1 -0.10241,0.13776 -0.0829,0.038 -0.22036,0.0131 -0.0958,-0.0174 -0.14694,-0.0438 -0.0514,-0.0251 -0.0693,-0.0369 l 0.0437,-0.1068 q 0.0207,0.0123 0.0663,0.0378 0.0456,0.0255 0.12611,0.0401 z"
         style="font-weight:normal;-inkscape-font-specification:Ubuntu"
         id="path1158" /><path
         d="m -171.10575,282.81134 q -0.007,0.0374 -0.0377,0.0602 -0.0303,0.0228 -0.0733,0.0144 -0.0429,-0.008 -0.0624,-0.041 -0.0195,-0.0326 -0.0122,-0.07 0.007,-0.0374 0.0377,-0.0602 0.0303,-0.0228 0.0733,-0.0144 0.0429,0.008 0.0624,0.041 0.0195,0.0326 0.0122,0.07 z"
         style="font-weight:normal;-inkscape-font-specification:Ubuntu"
         id="path1160" /><path
         d="m -170.34994,283.05812 q -0.0289,-0.007 -0.063,-0.0159 -0.0327,-0.009 -0.0664,-0.0196 -0.0324,-0.0103 -0.0644,-0.0221 -0.0321,-0.0117 -0.058,-0.0249 l 0.21237,-0.92418 q 0.0291,-5.5e-4 0.063,0.003 0.034,0.003 0.0676,0.008 0.035,0.005 0.0683,0.0114 0.0333,0.006 0.0622,0.0128 0.0825,0.019 0.15118,0.0478 0.0701,0.0291 0.11535,0.0714 0.047,0.0412 0.0662,0.0963 0.0192,0.0551 0.003,0.12523 -0.018,0.0784 -0.0668,0.12074 -0.0485,0.041 -0.11609,0.0515 0.0782,0.044 0.11539,0.10905 0.0372,0.065 0.0147,0.16265 -0.0329,0.14303 -0.15552,0.19158 -0.12095,0.0475 -0.34924,-0.005 z m -0.0212,-0.48122 -0.0771,0.33556 q 0.0148,0.005 0.0351,0.011 0.0176,0.005 0.0406,0.0122 0.0247,0.006 0.0564,0.013 0.0591,0.0136 0.11297,0.0187 0.0555,0.004 0.0998,-0.006 0.0443,-0.0101 0.0756,-0.0391 0.0327,-0.0287 0.0447,-0.081 0.0108,-0.0468 1.4e-4,-0.0825 -0.0103,-0.0371 -0.0403,-0.0643 -0.0286,-0.0268 -0.0734,-0.0458 -0.0449,-0.019 -0.10262,-0.0323 z m 0.0246,-0.10727 0.14028,0.0322 q 0.0495,0.0114 0.0951,0.0146 0.0456,0.003 0.0813,-0.007 0.0371,-0.0103 0.0616,-0.0351 0.0259,-0.0245 0.036,-0.0685 0.009,-0.0413 -0.003,-0.0732 -0.0126,-0.0333 -0.0432,-0.0577 -0.0289,-0.0255 -0.0724,-0.0442 -0.0435,-0.0187 -0.0944,-0.0304 -0.0509,-0.0117 -0.0801,-0.017 -0.0292,-0.005 -0.0532,-0.008 z"
         style="font-weight:normal;-inkscape-font-specification:Ubuntu"
         id="path1162" /><path
         d="m -169.46449,283.17009 q 0.045,0.0122 0.0794,0.02 0.0361,0.007 0.0608,0.008 l 0.0572,-0.21112 q -0.0118,-0.0105 -0.042,-0.0231 -0.0285,-0.0136 -0.0721,-0.0254 -0.0286,-0.008 -0.0624,-0.0125 -0.0324,-0.004 -0.0634,0.002 -0.0292,0.005 -0.0532,0.0236 -0.0236,0.017 -0.0336,0.0538 -0.0184,0.0681 0.0178,0.10714 0.0366,0.0377 0.11149,0.058 z m 0.16096,-0.63767 q 0.0763,0.0206 0.12251,0.0551 0.0479,0.0335 0.0693,0.0787 0.0231,0.0443 0.0231,0.0983 3.4e-4,0.0527 -0.0159,0.11266 l -0.11986,0.44267 q -0.0171,-0.002 -0.0485,-0.004 -0.0297,-0.004 -0.0676,-0.01 -0.0379,-0.006 -0.0822,-0.0149 -0.0433,-0.007 -0.0856,-0.0188 -0.0599,-0.0162 -0.10701,-0.0421 -0.0471,-0.0259 -0.0769,-0.0617 -0.0294,-0.0372 -0.038,-0.0863 -0.009,-0.0491 0.008,-0.11041 0.0159,-0.0586 0.0505,-0.0945 0.0359,-0.0356 0.0838,-0.0504 0.0479,-0.0148 0.10567,-0.0123 0.0578,0.002 0.11773,0.0187 0.0191,0.005 0.0388,0.0134 0.0201,0.007 0.0367,0.0158 0.0183,0.008 0.0312,0.0143 0.0129,0.006 0.018,0.009 l 0.01,-0.0354 q 0.008,-0.0313 0.01,-0.0631 0.002,-0.0332 -0.01,-0.0611 -0.0111,-0.0293 -0.0387,-0.0514 -0.0259,-0.0231 -0.075,-0.0364 -0.0626,-0.017 -0.1129,-0.0203 -0.0485,-0.004 -0.0743,-10e-4 l 0.0134,-0.10894 q 0.0275,-0.004 0.0873,0.002 0.0601,0.005 0.12689,0.0227 z"
         style="font-weight:normal;-inkscape-font-specification:Ubuntu"
         id="path1164" /><path
         d="m -168.7986,282.71605 q 0.0464,0.003 0.12149,0.0142 0.0751,0.011 0.16768,0.041 0.0832,0.027 0.13042,0.069 0.0476,0.0407 0.0659,0.0941 0.0201,0.0525 0.0143,0.11591 -0.006,0.0634 -0.0288,0.13455 l -0.12712,0.39195 -0.12483,-0.0405 0.11841,-0.3651 q 0.0209,-0.0644 0.0263,-0.11311 0.007,-0.0482 -0.004,-0.083 -0.011,-0.0347 -0.0406,-0.0577 -0.0292,-0.0243 -0.0789,-0.0404 -0.0201,-0.007 -0.042,-0.0122 -0.0219,-0.006 -0.0429,-0.009 -0.0192,-0.005 -0.0362,-0.007 -0.0156,-0.002 -0.0228,-0.003 l -0.19113,0.58926 -0.12483,-0.0405 z"
         style="font-weight:normal;-inkscape-font-specification:Ubuntu"
         id="path1166" /><path
         d="m -167.98726,283.64997 q 0.0437,0.0161 0.0772,0.0271 0.0354,0.0101 0.0598,0.0131 l 0.0759,-0.20514 q -0.0108,-0.0115 -0.0398,-0.0267 -0.0272,-0.0161 -0.0695,-0.0317 -0.0278,-0.0103 -0.061,-0.0181 -0.0319,-0.007 -0.0633,-0.004 -0.0296,0.003 -0.0551,0.0188 -0.025,0.0148 -0.0383,0.0505 -0.0245,0.0662 0.008,0.10831 0.0331,0.0408 0.10584,0.0677 z m 0.21755,-0.62065 q 0.0741,0.0274 0.11706,0.0659 0.0448,0.0376 0.062,0.0846 0.019,0.0462 0.0142,0.10003 -0.004,0.0525 -0.0259,0.11077 l -0.15911,0.43013 q -0.0169,-0.003 -0.0479,-0.009 -0.0293,-0.006 -0.0665,-0.0156 -0.0372,-0.009 -0.0805,-0.0223 -0.0425,-0.0112 -0.0835,-0.0264 -0.0582,-0.0215 -0.10279,-0.0516 -0.0446,-0.03 -0.071,-0.0684 -0.0259,-0.0397 -0.0301,-0.0894 -0.004,-0.0497 0.0178,-0.10925 0.0211,-0.0569 0.0587,-0.0896 0.039,-0.0322 0.088,-0.0427 0.049,-0.0105 0.10635,-0.003 0.0574,0.008 0.11558,0.0292 0.0185,0.007 0.0374,0.0169 0.0194,0.009 0.0351,0.019 0.0175,0.01 0.0298,0.017 0.0123,0.008 0.0171,0.0108 l 0.0127,-0.0344 q 0.0113,-0.0304 0.0154,-0.062 0.005,-0.0329 -0.004,-0.0618 -0.008,-0.0302 -0.0339,-0.0547 -0.0237,-0.0253 -0.0714,-0.043 -0.0609,-0.0225 -0.11063,-0.0304 -0.0479,-0.009 -0.0739,-0.008 l 0.0231,-0.10729 q 0.0277,-0.002 0.0867,0.01 0.0595,0.01 0.12436,0.034 z"
         style="font-weight:normal;-inkscape-font-specification:Ubuntu"
         id="path1168" /><path
         d="m -167.30403,283.24518 q 0.0463,0.005 0.1208,0.0192 0.0745,0.0141 0.16584,0.0479 0.082,0.0304 0.12746,0.0743 0.0459,0.0426 0.062,0.0967 0.0179,0.0533 0.01,0.11641 -0.008,0.0631 -0.0343,0.13325 l -0.14319,0.38636 -0.12306,-0.0456 0.13339,-0.3599 q 0.0235,-0.0635 0.031,-0.11193 0.009,-0.0479 -8.2e-4,-0.0831 -0.01,-0.0351 -0.0382,-0.0593 -0.0282,-0.0255 -0.0771,-0.0436 -0.0198,-0.007 -0.0415,-0.0139 -0.0217,-0.007 -0.0425,-0.0112 -0.019,-0.006 -0.0359,-0.009 -0.0155,-0.003 -0.0226,-0.004 l -0.21527,0.58087 -0.12306,-0.0456 z"
         style="font-weight:normal;-inkscape-font-specification:Ubuntu"
         id="path1170" /><path
         d="m -166.41624,283.90063 q 0.0288,0.0449 0.0562,0.10588 0.0288,0.0614 0.052,0.12988 0.0251,0.0676 0.0439,0.13593 0.0193,0.067 0.029,0.12304 l -0.14463,-0.0523 q -0.0111,-0.0565 -0.0309,-0.11774 -0.0181,-0.0621 -0.042,-0.12025 -0.0235,-0.0595 -0.0512,-0.11156 -0.0277,-0.052 -0.0557,-0.0907 l -0.12005,0.33172 -0.1234,-0.0447 0.36495,-1.00844 0.13108,0.0234 -0.22761,0.62895 q 0.0434,-0.0203 0.0958,-0.0449 0.0524,-0.0246 0.10396,-0.0509 0.0516,-0.0264 0.0977,-0.0502 0.0466,-0.0251 0.0806,-0.0444 l 0.14463,0.0523 q -0.0425,0.0221 -0.0928,0.049 -0.0502,0.0269 -0.1036,0.0541 -0.0529,0.0259 -0.10758,0.0526 -0.0529,0.0259 -0.10035,0.0492 z"
         style="font-weight:normal;-inkscape-font-specification:Ubuntu"
         id="path1172" /><path
         d="m -165.41569,284.29617 q -0.0292,0.0825 -0.0767,0.14052 -0.0475,0.058 -0.10832,0.0904 -0.0595,0.0328 -0.12879,0.0383 -0.0688,0.004 -0.13931,-0.0208 -0.0705,-0.0249 -0.12143,-0.0714 -0.0505,-0.0478 -0.0774,-0.1112 -0.0256,-0.063 -0.026,-0.13794 -4.2e-4,-0.075 0.0288,-0.15747 0.0287,-0.0811 0.0762,-0.13919 0.0479,-0.0594 0.10746,-0.0922 0.0608,-0.0324 0.12965,-0.0365 0.0693,-0.005 0.13978,0.0195 0.0705,0.0249 0.12096,0.0727 0.0509,0.0464 0.0765,0.1094 0.027,0.0634 0.0269,0.13974 4.1e-4,0.075 -0.0283,0.15614 z m -0.12905,-0.0457 q 0.0414,-0.11707 0.0122,-0.20374 -0.0274,-0.0875 -0.11788,-0.11953 -0.0905,-0.032 -0.16814,0.0183 -0.0759,0.0495 -0.1173,0.16656 -0.0414,0.11707 -0.014,0.2046 0.0292,0.0867 0.11967,0.11867 0.0905,0.032 0.16635,-0.0175 0.0777,-0.0503 0.11909,-0.16742 z"
         style="font-weight:normal;-inkscape-font-specification:Ubuntu"
         id="path1174" /><path
         d="m -165.13101,284.02921 q 0.0464,0.004 0.12121,0.0165 0.0748,0.0124 0.16688,0.0442 0.0827,0.0285 0.12911,0.0714 0.0469,0.0415 0.0641,0.0953 0.0191,0.0528 0.0122,0.11615 -0.007,0.0633 -0.0313,0.13399 l -0.13442,0.38951 -0.12405,-0.0428 0.12521,-0.36283 q 0.0221,-0.064 0.0284,-0.1126 0.008,-0.0481 -0.003,-0.083 -0.0103,-0.0349 -0.0395,-0.0584 -0.0288,-0.0248 -0.0781,-0.0419 -0.02,-0.007 -0.0418,-0.0129 -0.0218,-0.006 -0.0427,-0.0103 -0.0191,-0.005 -0.0361,-0.008 -0.0156,-0.002 -0.0227,-0.003 l -0.20209,0.58559 -0.12405,-0.0428 z"
         style="font-weight:normal;-inkscape-font-specification:Ubuntu"
         id="path1176" /><path
         d="m -164.24624,284.31014 0.26336,0.089 -0.0352,0.10428 -0.26336,-0.089 -0.10841,0.32084 q -0.0176,0.0521 -0.0213,0.0896 -0.003,0.0361 0.006,0.0616 0.01,0.0241 0.0311,0.0403 0.0213,0.0161 0.0534,0.027 0.0562,0.019 0.0936,0.0182 0.0393,-0.002 0.0545,-0.002 l -0.0107,0.11106 q -0.0219,0.003 -0.0732,6e-4 -0.0517,-10e-4 -0.11191,-0.0214 -0.0709,-0.0239 -0.11177,-0.0571 -0.0391,-0.0341 -0.055,-0.0797 -0.0159,-0.0456 -0.0103,-0.10179 0.007,-0.0571 0.0309,-0.1266 l 0.2096,-0.6203 0.13155,0.0206 z"
         style="font-weight:normal;-inkscape-font-specification:Ubuntu"
         id="path1178" /><path
         d="m -163.79443,285.1355 q 0.0442,0.0146 0.0781,0.0244 0.0357,0.009 0.0603,0.011 l 0.0688,-0.20764 q -0.0112,-0.0111 -0.0407,-0.0253 -0.0277,-0.0151 -0.0706,-0.0293 -0.0281,-0.009 -0.0616,-0.016 -0.0322,-0.006 -0.0634,-0.002 -0.0295,0.004 -0.0544,0.0206 -0.0245,0.0157 -0.0365,0.0518 -0.0222,0.067 0.0118,0.10797 0.0344,0.0396 0.10812,0.064 z m 0.196,-0.62779 q 0.075,0.0248 0.11926,0.0618 0.046,0.0361 0.0649,0.0824 0.0206,0.0455 0.0176,0.0995 -0.003,0.0527 -0.0221,0.11161 l -0.14416,0.43536 q -0.017,-0.003 -0.0482,-0.007 -0.0295,-0.005 -0.067,-0.0132 -0.0375,-0.008 -0.0812,-0.0195 -0.0429,-0.01 -0.0844,-0.0235 -0.0589,-0.0195 -0.10451,-0.048 -0.0456,-0.0285 -0.0733,-0.0659 -0.0273,-0.0388 -0.0332,-0.0883 -0.006,-0.0495 0.0141,-0.10981 0.0191,-0.0576 0.0556,-0.0916 0.0379,-0.0335 0.0865,-0.0457 0.0486,-0.0121 0.10619,-0.006 0.0576,0.006 0.11652,0.0252 0.0187,0.006 0.038,0.0155 0.0197,0.008 0.0357,0.0178 0.0179,0.009 0.0304,0.016 0.0125,0.007 0.0174,0.0102 l 0.0115,-0.0348 q 0.0102,-0.0308 0.0133,-0.0625 0.004,-0.033 -0.006,-0.0616 -0.009,-0.0299 -0.0358,-0.0535 -0.0246,-0.0245 -0.0728,-0.0405 -0.0616,-0.0204 -0.11161,-0.0265 -0.0482,-0.007 -0.0741,-0.005 l 0.0194,-0.10803 q 0.0277,-0.003 0.087,0.007 0.0598,0.008 0.12545,0.0296 z"
         style="font-weight:normal;-inkscape-font-specification:Ubuntu"
         id="path1180" /><path
         d="m -162.98378,285.07568 q 0.0303,0.0439 0.0598,0.1039 0.0309,0.0604 0.0565,0.12802 0.0274,0.0667 0.0485,0.13434 0.0216,0.0663 0.0332,0.12198 l -0.14634,-0.0473 q -0.013,-0.0561 -0.0349,-0.11661 -0.0202,-0.0614 -0.0461,-0.11874 -0.0255,-0.0587 -0.055,-0.10974 -0.0294,-0.0511 -0.0588,-0.0887 l -0.10861,0.33565 -0.12486,-0.0404 0.33017,-1.02036 0.13181,0.0189 -0.20592,0.63638 q 0.0426,-0.0218 0.0942,-0.0481 0.0515,-0.0263 0.10216,-0.0545 0.0506,-0.0281 0.0959,-0.0535 0.0457,-0.0267 0.079,-0.0471 l 0.14634,0.0474 q -0.0417,0.0236 -0.091,0.0521 -0.0493,0.0286 -0.10168,0.0576 -0.052,0.0277 -0.10571,0.0563 -0.052,0.0277 -0.0986,0.0526 z"
         style="font-weight:normal;-inkscape-font-specification:Ubuntu"
         id="path1182" /><path
         d="m -162.32063,284.94148 0.265,0.084 -0.0333,0.10493 -0.26499,-0.084 -0.10233,0.32284 q -0.0166,0.0525 -0.0196,0.09 -0.003,0.0362 0.007,0.0615 0.0102,0.024 0.0318,0.0397 0.0217,0.0157 0.0539,0.026 0.0565,0.0179 0.094,0.0165 0.0392,-0.002 0.0544,-0.003 l -0.009,0.11125 q -0.0218,0.003 -0.0732,0.002 -0.0518,-1.3e-4 -0.1123,-0.0193 -0.0713,-0.0226 -0.11283,-0.055 -0.0398,-0.0333 -0.0565,-0.0786 -0.0167,-0.0453 -0.0122,-0.10157 0.006,-0.0572 0.0285,-0.12717 l 0.19782,-0.62415 0.13192,0.0181 z"
         style="font-weight:normal;-inkscape-font-specification:Ubuntu"
         id="path1184" /><path
         d="m -161.542,285.85426 q 0.0445,0.0137 0.0787,0.0227 0.0359,0.008 0.0605,0.01 l 0.0642,-0.20908 q -0.0114,-0.0109 -0.0412,-0.0245 -0.028,-0.0145 -0.0712,-0.0278 -0.0283,-0.009 -0.0619,-0.0146 -0.0323,-0.005 -0.0634,-2.9e-4 -0.0294,0.004 -0.0539,0.0218 -0.0242,0.0162 -0.0353,0.0526 -0.0207,0.0674 0.0142,0.10768 0.0353,0.0389 0.10949,0.0617 z m 0.1823,-0.6319 q 0.0755,0.0232 0.12058,0.0592 0.0468,0.035 0.0666,0.081 0.0216,0.045 0.0198,0.0991 -0.001,0.0527 -0.0197,0.11206 l -0.13467,0.43839 q -0.017,-0.002 -0.0483,-0.006 -0.0296,-0.005 -0.0672,-0.0118 -0.0377,-0.007 -0.0817,-0.0177 -0.0431,-0.009 -0.0849,-0.0216 -0.0593,-0.0182 -0.10553,-0.0457 -0.0462,-0.0275 -0.0747,-0.0643 -0.0281,-0.0382 -0.0351,-0.0875 -0.007,-0.0494 0.0117,-0.11008 0.0178,-0.058 0.0536,-0.0928 0.0371,-0.0344 0.0855,-0.0476 0.0483,-0.0132 0.10602,-0.009 0.0577,0.004 0.11704,0.0227 0.0189,0.006 0.0383,0.0147 0.0198,0.008 0.0361,0.017 0.0181,0.008 0.0307,0.0153 0.0127,0.007 0.0176,0.01 l 0.0108,-0.0351 q 0.01,-0.031 0.0119,-0.0628 0.003,-0.0331 -0.008,-0.0614 -0.0101,-0.0297 -0.037,-0.0527 -0.0251,-0.024 -0.0737,-0.0389 -0.062,-0.0191 -0.11216,-0.0241 -0.0483,-0.006 -0.0742,-0.004 l 0.0171,-0.10842 q 0.0276,-0.003 0.0872,0.005 0.06,0.007 0.12606,0.0269 z"
         style="font-weight:normal;-inkscape-font-specification:Ubuntu"
         id="path1186" /><path
         d="m -160.36343,285.54295 q -0.11193,0.18151 -0.23791,0.34112 -0.12463,0.16002 -0.23385,0.28341 l -0.11353,-0.0341 q -0.0232,-0.16314 -0.0405,-0.36574 -0.0159,-0.2022 -0.009,-0.41535 l 0.13516,0.0406 q -0.004,0.0711 -0.005,0.15327 6.7e-4,0.0812 0.003,0.16287 0.004,0.0807 0.009,0.15732 0.005,0.0766 0.0117,0.1376 0.0392,-0.0472 0.0856,-0.10839 0.0464,-0.0612 0.0926,-0.12691 0.048,-0.0666 0.0919,-0.13448 0.0457,-0.0688 0.0818,-0.13015 z"
         style="font-weight:normal;-inkscape-font-specification:Ubuntu"
         id="path1188" /><path
         d="m -159.80893,285.70539 0.26694,0.0776 -0.0307,0.10569 -0.26695,-0.0776 -0.0945,0.32521 q -0.0154,0.0528 -0.0175,0.0904 -0.002,0.0362 0.009,0.0613 0.0107,0.0237 0.0328,0.0389 0.022,0.0152 0.0546,0.0247 0.0569,0.0165 0.0943,0.0142 0.0392,-0.003 0.0543,-0.005 l -0.006,0.11143 q -0.0217,0.004 -0.0731,0.004 -0.0518,10e-4 -0.11273,-0.0166 -0.0718,-0.0209 -0.11413,-0.0523 -0.0406,-0.0324 -0.0584,-0.0772 -0.0178,-0.0449 -0.0147,-0.10125 0.005,-0.0574 0.0254,-0.12781 l 0.1827,-0.62875 0.13232,0.0149 z"
         style="font-weight:normal;-inkscape-font-specification:Ubuntu"
         id="path1190" /><path
         d="m -159.1207,285.8872 q 0.0163,0.005 0.0359,0.0132 0.0213,0.008 0.0405,0.0174 0.0196,0.009 0.0347,0.0172 0.0169,0.008 0.0242,0.0128 l -0.0531,0.10373 q -0.0134,-0.01 -0.0467,-0.0265 -0.0316,-0.0178 -0.0859,-0.0333 -0.0353,-0.0101 -0.0729,-0.012 -0.0359,-0.003 -0.0475,-0.003 l -0.16909,0.59302 -0.1262,-0.036 0.19269,-0.6758 q 0.0494,-0.004 0.11979,0.002 0.0708,0.004 0.15352,0.0276 z"
         style="font-weight:normal;-inkscape-font-specification:Ubuntu"
         id="path1192" /><path
         d="m -159.00412,286.31948 q 0.0261,-0.0938 0.0726,-0.15555 0.0469,-0.0631 0.10462,-0.0968 0.0577,-0.0337 0.12262,-0.0405 0.0649,-0.007 0.12606,0.0102 0.14273,0.0398 0.19385,0.1507 0.0515,0.10957 7.5e-4,0.29172 -0.002,0.008 -0.006,0.0217 -0.003,0.0122 -0.008,0.0227 l -0.48392,-0.13485 q -0.0225,0.11238 0.0173,0.185 0.0398,0.0726 0.15808,0.10558 0.0666,0.0186 0.1145,0.0202 0.0496,6.5e-4 0.0758,-0.004 l -0.0119,0.11095 q -0.0265,0.006 -0.0888,0.003 -0.0609,-0.002 -0.13428,-0.0228 -0.0924,-0.0257 -0.15283,-0.0719 -0.0587,-0.0471 -0.0885,-0.10816 -0.0299,-0.0611 -0.0331,-0.13373 -0.001,-0.0736 0.0209,-0.15384 z m 0.50459,0.0659 q 0.0252,-0.0853 -0.004,-0.15213 -0.028,-0.0679 -0.10545,-0.0894 -0.0435,-0.0121 -0.0824,-0.004 -0.0372,0.007 -0.0678,0.028 -0.0307,0.0208 -0.0541,0.0523 -0.0221,0.0319 -0.0364,0.0675 z"
         style="font-weight:normal;-inkscape-font-specification:Ubuntu"
         id="path1194" /><path
         d="m -157.69385,286.45909 q -0.018,-0.0253 -0.0568,-0.0549 -0.0388,-0.0295 -0.0905,-0.0435 -0.0545,-0.0147 -0.0995,-0.005 -0.0433,0.009 -0.0774,0.0375 -0.0337,0.0274 -0.0575,0.0721 -0.0238,0.0447 -0.0386,0.0992 -0.0336,0.12394 0.009,0.20865 0.0432,0.0833 0.14537,0.11101 0.0518,0.014 0.0869,0.0191 0.0369,0.004 0.0574,0.004 z m 0.12913,-0.47671 0.13257,0.0125 -0.28076,1.03651 q -0.0469,4.5e-4 -0.11832,-0.006 -0.0714,-0.006 -0.15996,-0.0302 -0.0817,-0.0221 -0.14009,-0.0657 -0.0584,-0.0436 -0.0918,-0.1038 -0.0334,-0.0602 -0.0408,-0.13533 -0.006,-0.0761 0.0175,-0.16191 0.0221,-0.0817 0.061,-0.14429 0.0402,-0.0622 0.0944,-0.10016 0.0541,-0.038 0.12008,-0.0493 0.0673,-0.011 0.14358,0.01 0.0613,0.0166 0.10318,0.0455 0.0432,0.0292 0.0623,0.0505 z"
         style="font-weight:normal;-inkscape-font-specification:Ubuntu"
         id="path1196" /><path
         d="m -157.68373,287.334 q -0.0164,-0.004 -0.0412,-0.0153 -0.0248,-0.011 -0.0408,-0.0225 l 0.0439,-0.0993 q 0.0126,0.008 0.0296,0.0151 0.017,0.007 0.032,0.0114 0.0655,0.0174 0.1036,-0.0163 0.0391,-0.032 0.0597,-0.10971 l 0.18484,-0.69698 0.12685,0.0336 -0.18448,0.69562 q -0.0362,0.13639 -0.11627,0.18522 -0.0791,0.0506 -0.19777,0.0191 z m 0.46842,-1.04515 q -0.0341,-0.009 -0.0529,-0.0374 -0.017,-0.0293 -0.007,-0.0675 0.0101,-0.0382 0.0391,-0.0539 0.0307,-0.0167 0.0648,-0.008 0.0341,0.009 0.0511,0.0384 0.0188,0.0283 0.009,0.0665 -0.0101,0.0382 -0.0408,0.0549 -0.029,0.0157 -0.0631,0.007 z"
         style="font-weight:normal;-inkscape-font-specification:Ubuntu"
         id="path1198" /><path
         d="m -157.10277,286.83715 q 0.0245,-0.0942 0.0699,-0.1568 0.0458,-0.0639 0.1029,-0.0986 0.0571,-0.0347 0.12189,-0.0427 0.0648,-0.008 0.12623,0.008 0.1434,0.0372 0.19647,0.14726 0.0534,0.10865 0.006,0.29166 -0.002,0.008 -0.006,0.0219 -0.003,0.0123 -0.007,0.0229 l -0.48622,-0.12631 q -0.0205,0.11276 0.0206,0.18467 0.0411,0.0719 0.15992,0.10277 0.0669,0.0174 0.11483,0.0182 0.0496,-2.3e-4 0.0757,-0.005 l -0.01,0.11114 q -0.0264,0.006 -0.0887,0.005 -0.0609,-10e-4 -0.13466,-0.0204 -0.0929,-0.0241 -0.15407,-0.0692 -0.0595,-0.0461 -0.0904,-0.10659 -0.0309,-0.0605 -0.0354,-0.13312 -0.003,-0.0736 0.0182,-0.15419 z m 0.50568,0.057 q 0.0237,-0.0857 -0.007,-0.15203 -0.0292,-0.0673 -0.10701,-0.0876 -0.0437,-0.0113 -0.0825,-0.002 -0.037,0.008 -0.0674,0.0292 -0.0303,0.0213 -0.0532,0.0532 -0.0215,0.0323 -0.0352,0.0681 z"
         style="font-weight:normal;-inkscape-font-specification:Ubuntu"
         id="path1200" /><path
         d="m -155.61133,287.51887 q -0.0192,0.007 -0.0715,0.0127 -0.0506,0.005 -0.11363,-0.0109 -0.0644,-0.016 -0.11675,-0.0509 -0.051,-0.0345 -0.0829,-0.0876 -0.0315,-0.0544 -0.0401,-0.12489 -0.009,-0.0705 0.0136,-0.15949 0.0194,-0.078 0.0588,-0.1366 0.0396,-0.0599 0.0951,-0.0956 0.0571,-0.0367 0.12796,-0.0466 0.0712,-0.0113 0.15197,0.009 0.089,0.0222 0.15131,0.0523 0.064,0.029 0.10647,0.0512 l -0.15831,0.63533 q -0.0409,0.16431 -0.14427,0.21709 -0.10331,0.0528 -0.27584,0.01 -0.0671,-0.0167 -0.12461,-0.0427 -0.0561,-0.0256 -0.0962,-0.0516 l 0.0509,-0.10511 q 0.0346,0.0246 0.0866,0.0492 0.0531,0.0263 0.11332,0.0413 0.11364,0.0283 0.1742,-0.005 0.0619,-0.0326 0.0865,-0.13115 z m 0.13034,-0.52887 q -0.0178,-0.0102 -0.0497,-0.0226 -0.0301,-0.0133 -0.0849,-0.027 -0.1027,-0.0256 -0.17555,0.0275 -0.0715,0.0534 -0.0991,0.16435 -0.0154,0.0616 -0.0112,0.10919 0.006,0.0479 0.0244,0.0831 0.0202,0.0356 0.051,0.0578 0.0322,0.0226 0.0692,0.0318 0.0507,0.0126 0.0965,0.01 0.0462,-0.004 0.0756,-0.0175 z"
         style="font-weight:normal;-inkscape-font-specification:Ubuntu"
         id="path1202" /><path
         d="m -154.84362,287.01084 q 0.0165,0.004 0.0364,0.0117 0.0216,0.007 0.0412,0.0158 0.0199,0.008 0.0353,0.0159 0.0172,0.007 0.0247,0.0118 l -0.0489,0.10575 q -0.0137,-0.009 -0.0477,-0.0247 -0.0323,-0.0165 -0.0871,-0.0299 -0.0357,-0.009 -0.0733,-0.009 -0.0359,-10e-4 -0.0476,-10e-4 l -0.14554,0.59923 -0.12753,-0.031 0.16586,-0.68288 q 0.0493,-0.005 0.11977,-0.003 0.0709,0.001 0.1545,0.0216 z"
         style="font-weight:normal;-inkscape-font-specification:Ubuntu"
         id="path1204" /><path
         d="m -154.4909,287.7685 q 0.0453,0.0107 0.08,0.0175 0.0363,0.006 0.061,0.006 l 0.0504,-0.21282 q -0.0121,-0.0101 -0.0427,-0.0217 -0.0289,-0.0127 -0.0729,-0.0231 -0.0288,-0.007 -0.0628,-0.0105 -0.0326,-0.003 -0.0633,0.004 -0.029,0.006 -0.0524,0.0253 -0.0231,0.0177 -0.0318,0.0548 -0.0163,0.0687 0.0212,0.10653 0.0378,0.0365 0.11328,0.0544 z m 0.14065,-0.64246 q 0.0769,0.0182 0.12419,0.0512 0.049,0.0319 0.0718,0.0765 0.0245,0.0435 0.0262,0.0976 0.002,0.0527 -0.0123,0.1131 l -0.10575,0.44625 q -0.0171,-10e-4 -0.0486,-0.003 -0.0298,-0.003 -0.0679,-0.007 -0.038,-0.005 -0.0826,-0.0123 -0.0435,-0.006 -0.0861,-0.0161 -0.0604,-0.0143 -0.10829,-0.0387 -0.0479,-0.0244 -0.0788,-0.0593 -0.0306,-0.0362 -0.0408,-0.0851 -0.0102,-0.0488 0.004,-0.1106 0.014,-0.059 0.0474,-0.0961 0.0348,-0.0367 0.0822,-0.053 0.0474,-0.0163 0.10523,-0.0157 0.0579,6.6e-4 0.11826,0.015 0.0192,0.005 0.0392,0.0122 0.0203,0.006 0.0371,0.0146 0.0186,0.007 0.0317,0.0133 0.0131,0.006 0.0182,0.009 l 0.008,-0.0357 q 0.007,-0.0316 0.008,-0.0634 6.2e-4,-0.0332 -0.0117,-0.0608 -0.012,-0.0289 -0.0403,-0.0502 -0.0266,-0.0223 -0.0761,-0.034 -0.0632,-0.015 -0.1135,-0.0167 -0.0486,-0.003 -0.0743,0.001 l 0.01,-0.1093 q 0.0273,-0.005 0.0873,-10e-4 0.0603,0.003 0.12755,0.0186 z"
         style="font-weight:normal;-inkscape-font-specification:Ubuntu"
         id="path1206" /><path
         d="m -153.44579,287.51484 q -0.019,-0.0246 -0.0589,-0.0526 -0.0399,-0.028 -0.0922,-0.04 -0.055,-0.0126 -0.0996,-10e-4 -0.0429,0.0104 -0.0759,0.0405 -0.0327,0.0287 -0.0547,0.0743 -0.0221,0.0456 -0.0347,0.10062 -0.0288,0.12515 0.0173,0.20813 0.0464,0.0816 0.14954,0.10532 0.0523,0.012 0.0876,0.0158 0.037,0.003 0.0575,0.002 z m 0.11063,-0.48133 0.13296,0.007 -0.24055,1.04657 q -0.0469,0.002 -0.11846,-0.001 -0.0716,-0.003 -0.161,-0.024 -0.0825,-0.019 -0.14252,-0.0603 -0.06,-0.0413 -0.0957,-0.10018 -0.0357,-0.0589 -0.046,-0.13365 -0.009,-0.0758 0.0113,-0.16247 0.019,-0.0825 0.0554,-0.14654 0.0378,-0.0637 0.0904,-0.10373 0.0526,-0.04 0.1181,-0.0539 0.0668,-0.0136 0.14384,0.004 0.0619,0.0142 0.10486,0.0415 0.0443,0.0276 0.0642,0.0481 z"
         style="font-weight:normal;-inkscape-font-specification:Ubuntu"
         id="path1208" /><path
         d="m -153.18781,287.79218 q 0.0211,-0.095 0.0643,-0.15916 0.0435,-0.0655 0.0994,-0.10221 0.0559,-0.0367 0.12031,-0.047 0.0644,-0.0102 0.12643,0.004 0.14463,0.0322 0.20153,0.14026 0.0572,0.10669 0.0161,0.29127 -0.002,0.008 -0.005,0.022 -0.003,0.0124 -0.007,0.0231 l -0.49036,-0.10912 q -0.0166,0.11341 0.027,0.18383 0.0436,0.0704 0.16343,0.0971 0.0675,0.015 0.1154,0.0141 0.0496,-0.002 0.0755,-0.008 l -0.006,0.11143 q -0.0262,0.007 -0.0885,0.008 -0.0609,9e-4 -0.13529,-0.0156 -0.0937,-0.0208 -0.15641,-0.0637 -0.0611,-0.0439 -0.0941,-0.10334 -0.033,-0.0594 -0.0401,-0.13179 -0.005,-0.0735 0.0127,-0.15474 z m 0.50737,0.0392 q 0.0207,-0.0865 -0.0125,-0.15168 -0.0315,-0.0663 -0.11002,-0.0838 -0.0441,-0.01 -0.0825,4.3e-4 -0.0367,0.009 -0.0663,0.0315 -0.0296,0.0223 -0.0513,0.0551 -0.0204,0.0331 -0.0328,0.0693 z"
         style="font-weight:normal;-inkscape-font-specification:Ubuntu"
         id="path1210" /><path
         d="m -152.30708,287.63182 q 0.0465,-0.002 0.1223,0.002 0.0758,0.003 0.17097,0.0238 0.0855,0.0184 0.13674,0.0554 0.0515,0.0356 0.0751,0.0869 0.0253,0.0502 0.026,0.11386 7.2e-4,0.0637 -0.015,0.13678 l -0.0868,0.40281 -0.1283,-0.0276 0.0808,-0.37522 q 0.0143,-0.0662 0.0147,-0.1152 0.002,-0.0487 -0.0126,-0.0821 -0.0145,-0.0334 -0.0463,-0.0533 -0.0315,-0.0212 -0.0825,-0.0322 -0.0207,-0.004 -0.0431,-0.008 -0.0224,-0.003 -0.0437,-0.005 -0.0196,-0.003 -0.0368,-0.004 -0.0158,-5.1e-4 -0.023,-6.2e-4 l -0.13042,0.60559 -0.1283,-0.0276 z"
         style="font-weight:normal;-inkscape-font-specification:Ubuntu"
         id="path1212" /><path
         d="m -151.49663,288.36892 q -9.4e-4,0.0113 -0.003,0.0224 -0.002,0.01 -0.004,0.0207 -0.0183,0.087 -0.0622,0.16572 -0.0429,0.0804 -0.10331,0.14843 l -0.0927,-0.0527 q 0.0493,-0.0632 0.0758,-0.13404 0.0261,-0.0695 0.0395,-0.13301 0.004,-0.0179 0.006,-0.0348 0.003,-0.0166 0.005,-0.032 z"
         style="font-weight:normal;-inkscape-font-specification:Ubuntu"
         id="path1214" /><path
         d="m -150.86615,287.93711 q 0.0465,-0.002 0.12094,-2.2e-4 0.0758,0.002 0.17129,0.0214 0.0692,0.0139 0.11234,0.0427 0.0434,0.0274 0.068,0.0698 0.0111,-0.005 0.0343,-0.0133 0.0232,-0.008 0.0559,-0.0133 0.0329,-0.006 0.072,-0.007 0.0393,-0.002 0.0822,0.006 0.083,0.0166 0.13059,0.0521 0.0479,0.0341 0.068,0.0842 0.0216,0.0504 0.019,0.1132 -0.001,0.0631 -0.0156,0.13504 l -0.081,0.404 -0.12867,-0.0258 0.0755,-0.37633 q 0.0128,-0.0636 0.015,-0.11069 0.004,-0.0468 -0.008,-0.0808 -0.0105,-0.0338 -0.0382,-0.0537 -0.026,-0.021 -0.0731,-0.0305 -0.065,-0.013 -0.11152,-0.004 -0.0448,0.008 -0.0628,0.0191 0.004,0.0382 7.9e-4,0.0822 -0.003,0.044 -0.0125,0.091 l -0.081,0.40401 -0.12868,-0.0258 0.0755,-0.37634 q 0.0128,-0.0636 0.015,-0.11068 0.002,-0.0471 -0.01,-0.0811 -0.0105,-0.0338 -0.0382,-0.0537 -0.026,-0.0211 -0.0717,-0.0302 -0.0194,-0.004 -0.0418,-0.007 -0.0224,-0.003 -0.0437,-0.004 -0.0197,-0.002 -0.0368,-0.003 -0.0171,-5.6e-4 -0.023,-2.9e-4 l -0.12178,0.60739 -0.12867,-0.0258 z"
         style="font-weight:normal;-inkscape-font-specification:Ubuntu"
         id="path1216" /><path
         d="m -149.78598,288.50621 q 0.0183,-0.0956 0.0596,-0.16098 0.0415,-0.0668 0.0963,-0.1051 0.0548,-0.0383 0.11888,-0.0505 0.0641,-0.0121 0.12648,-1.7e-4 0.14551,0.0279 0.20557,0.13426 0.0603,0.10497 0.0247,0.29067 -0.002,0.008 -0.004,0.0222 -0.002,0.0125 -0.006,0.0233 l -0.49336,-0.0946 q -0.0132,0.11385 0.0324,0.18295 0.0457,0.0691 0.16623,0.0922 0.0679,0.013 0.11577,0.0107 0.0495,-0.003 0.0752,-0.01 l -0.003,0.11155 q -0.0259,0.008 -0.0882,0.0104 -0.0609,0.003 -0.1357,-0.0117 -0.0942,-0.0181 -0.15821,-0.0591 -0.0623,-0.0421 -0.0971,-0.10052 -0.0348,-0.0584 -0.0439,-0.13056 -0.007,-0.0733 0.008,-0.15505 z m 0.5083,0.0242 q 0.0181,-0.087 -0.017,-0.15125 -0.0335,-0.0653 -0.11244,-0.0805 -0.0443,-0.009 -0.0824,0.003 -0.0365,0.0102 -0.0653,0.0334 -0.0289,0.0232 -0.0497,0.0566 -0.0194,0.0336 -0.0307,0.0703 z"
         style="font-weight:normal;-inkscape-font-specification:Ubuntu"
         id="path1218" /><path
         d="m -148.46838,288.53803 q -0.02,-0.0238 -0.0611,-0.05 -0.0411,-0.0263 -0.0938,-0.036 -0.0555,-0.0103 -0.0996,0.003 -0.0424,0.0122 -0.0741,0.0437 -0.0314,0.0301 -0.0515,0.0766 -0.0201,0.0465 -0.0303,0.10202 -0.0233,0.12627 0.0263,0.20719 0.0499,0.0795 0.15395,0.0988 0.0527,0.01 0.0882,0.012 0.0371,10e-4 0.0575,-8.4e-4 z m 0.0898,-0.48566 0.13315,0.002 -0.19519,1.05597 q -0.0467,0.004 -0.1184,0.004 -0.0717,-3.3e-4 -0.16188,-0.017 -0.0833,-0.0154 -0.14499,-0.0541 -0.0617,-0.0387 -0.0999,-0.096 -0.0382,-0.0573 -0.0517,-0.13154 -0.0119,-0.0754 0.004,-0.1628 0.0154,-0.0833 0.049,-0.14879 0.035,-0.0653 0.0859,-0.10753 0.0509,-0.0423 0.11566,-0.059 0.0662,-0.0165 0.14389,-0.002 0.0624,0.0115 0.10654,0.0369 0.0455,0.0256 0.0662,0.0453 z"
         style="font-weight:normal;-inkscape-font-specification:Ubuntu"
         id="path1220" /><path
         d="m -147.42919,288.19956 q 0.057,0.01 0.0958,0.0255 0.0402,0.0157 0.0557,0.0256 l -0.0432,0.10701 q -0.0152,-0.0113 -0.0445,-0.0236 -0.0291,-0.0137 -0.0736,-0.0216 -0.0903,-0.0159 -0.13528,0.0277 -0.0447,0.0423 -0.0594,0.12565 l -0.011,0.0625 0.27794,0.049 -0.0191,0.1084 -0.27794,-0.049 -0.10825,0.61425 -0.12924,-0.0228 0.13886,-0.78796 q 0.0245,-0.13896 0.10581,-0.20201 0.0816,-0.0644 0.22749,-0.0387 z"
         style="font-weight:normal;-inkscape-font-specification:Ubuntu"
         id="path1222" /><path
         d="m -146.97113,288.62962 q 0.0167,0.003 0.0371,0.009 0.022,0.005 0.0422,0.013 0.0204,0.006 0.0364,0.0134 0.0176,0.006 0.0255,0.0101 l -0.0416,0.10884 q -0.0143,-0.008 -0.0493,-0.0213 -0.0333,-0.0143 -0.089,-0.0239 -0.0362,-0.006 -0.0737,-0.004 -0.036,9.8e-4 -0.0476,0.002 l -0.10432,0.60777 -0.12934,-0.0222 0.11888,-0.6926 q 0.0488,-0.009 0.1193,-0.011 0.0708,-0.004 0.15561,0.011 z"
         style="font-weight:normal;-inkscape-font-specification:Ubuntu"
         id="path1224" /><path
         d="m -146.69846,289.43559 -0.12942,-0.0217 0.12148,-0.72365 0.12942,0.0217 z m 0.078,-0.86545 q -0.0348,-0.006 -0.0561,-0.0323 -0.0197,-0.0276 -0.0131,-0.0666 0.007,-0.039 0.0339,-0.0573 0.029,-0.0195 0.0638,-0.0136 0.0348,0.006 0.0545,0.0335 0.0213,0.0265 0.0148,0.0654 -0.007,0.039 -0.0356,0.0584 -0.0274,0.0183 -0.0622,0.0125 z"
         style="font-weight:normal;-inkscape-font-specification:Ubuntu"
         id="path1226" /><path
         d="m -145.91482,288.97821 q -0.0205,-0.0234 -0.0621,-0.0487 -0.0416,-0.0254 -0.0945,-0.034 -0.0557,-0.009 -0.0995,0.005 -0.0422,0.0131 -0.0731,0.0453 -0.0307,0.0307 -0.0498,0.0777 -0.0191,0.0469 -0.0282,0.10264 -0.0206,0.12674 0.0307,0.20659 0.0515,0.0785 0.15601,0.0955 0.0529,0.009 0.0884,0.0101 0.0371,3.3e-4 0.0575,-0.002 z m 0.0794,-0.48746 0.13315,-10e-4 -0.17268,1.05988 q -0.0466,0.005 -0.11829,0.006 -0.0717,10e-4 -0.16221,-0.0136 -0.0836,-0.0136 -0.14611,-0.051 -0.0625,-0.0374 -0.10195,-0.0938 -0.0394,-0.0565 -0.0545,-0.13041 -0.0135,-0.0751 8e-4,-0.16286 0.0136,-0.0836 0.0459,-0.1498 0.0336,-0.066 0.0836,-0.10933 0.0499,-0.0433 0.11438,-0.0614 0.0658,-0.0179 0.14381,-0.005 0.0627,0.0102 0.1073,0.0346 0.046,0.0247 0.0672,0.0438 z"
         style="font-weight:normal;-inkscape-font-specification:Ubuntu"
         id="path1228" /><path
         d="m -144.63748,289.39207 q -0.0133,0.0865 -0.0491,0.15237 -0.0358,0.0659 -0.0895,0.10904 -0.0523,0.0434 -0.11938,0.0616 -0.0668,0.0169 -0.14076,0.006 -0.0739,-0.0113 -0.13262,-0.0475 -0.0585,-0.0375 -0.0968,-0.0948 -0.0369,-0.0571 -0.0514,-0.13065 -0.0144,-0.0736 -0.001,-0.16007 0.013,-0.0851 0.0488,-0.15097 0.036,-0.0673 0.0884,-0.11065 0.0537,-0.0432 0.12056,-0.06 0.067,-0.0183 0.14097,-0.007 0.0739,0.0113 0.13241,0.0489 0.0587,0.0361 0.0956,0.0932 0.0383,0.0573 0.0525,0.13226 0.0144,0.0736 0.001,0.15867 z m -0.13529,-0.0207 q 0.0188,-0.12274 -0.0261,-0.20243 -0.0433,-0.0809 -0.13812,-0.0954 -0.0948,-0.0145 -0.16176,0.0494 -0.0653,0.0628 -0.0841,0.18553 -0.0188,0.12274 0.0244,0.20362 0.0449,0.0797 0.13973,0.0942 0.0948,0.0145 0.16015,-0.0482 0.0669,-0.064 0.0857,-0.18672 z"
         style="font-weight:normal;-inkscape-font-specification:Ubuntu"
         id="path1230" /><path
         d="m -144.19733,289.84504 q -0.088,-0.013 -0.15085,-0.0507 -0.0615,-0.0376 -0.10017,-0.0946 -0.0373,-0.0568 -0.0495,-0.12854 -0.012,-0.0731 2.9e-4,-0.15686 0.0123,-0.0838 0.0464,-0.15006 0.0354,-0.0661 0.0875,-0.10978 0.0523,-0.0451 0.12061,-0.0635 0.0699,-0.0197 0.14951,-0.008 0.0489,0.007 0.0965,0.0228 0.0476,0.0156 0.0896,0.0403 l -0.0456,0.10597 q -0.0273,-0.0183 -0.0651,-0.0324 -0.0365,-0.0139 -0.0797,-0.0203 -0.10889,-0.0161 -0.1776,0.0437 -0.0673,0.06 -0.0866,0.1912 -0.009,0.0586 -0.003,0.10935 0.007,0.0509 0.0295,0.0899 0.0242,0.0392 0.066,0.0654 0.042,0.0247 0.10621,0.0342 0.0517,0.008 0.095,0.004 0.0433,-0.004 0.0687,-0.0113 l 0.002,0.11157 q -0.0122,0.005 -0.0342,0.009 -0.0218,0.002 -0.0489,0.003 -0.0274,0.002 -0.0585,-6e-5 -0.0299,-1.3e-4 -0.0579,-0.004 z"
         style="font-weight:normal;-inkscape-font-specification:Ubuntu"
         id="path1232" /><path
         d="m -143.86102,289.87701 0.15017,-1.06188 0.1331,-0.004 -0.0526,0.37165 q 0.0383,-0.009 0.0798,-0.0101 0.0431,-0.002 0.0836,0.003 0.0866,0.0122 0.14036,0.0455 0.0539,0.0319 0.0811,0.0813 0.0288,0.0483 0.0341,0.11171 0.005,0.0634 -0.005,0.1375 l -0.0577,0.40799 -0.12994,-0.0184 0.0537,-0.38004 q 0.009,-0.0671 0.006,-0.11595 -0.002,-0.0487 -0.0185,-0.081 -0.0168,-0.0323 -0.05,-0.0498 -0.0329,-0.0189 -0.0847,-0.0262 -0.021,-0.003 -0.0437,-0.003 -0.0228,-3.7e-4 -0.0443,8.6e-4 -0.02,3e-5 -0.0373,0.002 -0.016,0.002 -0.0233,0.004 l -0.0854,0.6036 z"
         style="font-weight:normal;-inkscape-font-specification:Ubuntu"
         id="path1234" /><path
         d="m -142.2745,290.02066 q -0.0183,0.009 -0.0696,0.0207 -0.0498,0.0105 -0.11414,0.002 -0.0658,-0.009 -0.12172,-0.0375 -0.0546,-0.0286 -0.0922,-0.0777 -0.0374,-0.0505 -0.0539,-0.11959 -0.0165,-0.0691 -0.004,-0.16001 0.0105,-0.0797 0.043,-0.14234 0.0327,-0.064 0.0837,-0.10564 0.0526,-0.0428 0.12191,-0.0607 0.0694,-0.0193 0.15199,-0.008 0.0909,0.012 0.15622,0.0349 0.0669,0.0217 0.11157,0.039 l -0.0859,0.6491 q -0.0222,0.16787 -0.11894,0.23193 -0.0967,0.0641 -0.27299,0.0407 -0.0685,-0.009 -0.12862,-0.0284 -0.0587,-0.0191 -0.1014,-0.0405 l 0.0388,-0.11016 q 0.0371,0.0206 0.0916,0.0392 0.0557,0.0202 0.11725,0.0283 0.11611,0.0154 0.17258,-0.0241 0.0579,-0.0393 0.0712,-0.14004 z m 0.0701,-0.54016 q -0.0188,-0.008 -0.0519,-0.0168 -0.0314,-0.01 -0.0874,-0.0173 -0.10491,-0.0139 -0.17134,0.0471 -0.065,0.0611 -0.08,0.17446 -0.008,0.063 0.001,0.10975 0.0109,0.047 0.0336,0.0799 0.0241,0.0331 0.0572,0.0517 0.0345,0.0188 0.0723,0.0238 0.0518,0.007 0.097,-10e-4 0.0454,-0.01 0.0732,-0.0259 z"
         style="font-weight:normal;-inkscape-font-specification:Ubuntu"
         id="path1236" /><path
         d="m -141.71482,290.1809 q -0.12002,-0.0182 -0.16417,-0.0736 -0.0441,-0.0554 -0.0309,-0.159 l 0.11142,-0.87346 0.13304,-0.006 -0.11161,0.87486 q -0.004,0.0322 -0.001,0.0539 0.003,0.0217 0.0139,0.0359 0.011,0.0142 0.0311,0.0239 0.0203,0.008 0.0505,0.0164 z"
         style="font-weight:normal;-inkscape-font-specification:Ubuntu"
         id="path1238" /><path
         d="m -141.2913,290.12418 q 0.0462,0.006 0.0814,0.009 0.0368,0.002 0.0613,-9.8e-4 l 0.0267,-0.21708 q -0.0131,-0.009 -0.0448,-0.0169 -0.0301,-0.009 -0.0749,-0.0149 -0.0294,-0.004 -0.0635,-0.004 -0.0327,2.4e-4 -0.0625,0.0108 -0.0282,0.009 -0.0493,0.0309 -0.021,0.0202 -0.0256,0.058 -0.009,0.07 0.0327,0.10355 0.0415,0.0321 0.11857,0.0416 z m 0.0692,-0.65403 q 0.0784,0.01 0.12907,0.0372 0.0522,0.0263 0.0798,0.0681 0.0291,0.0405 0.0367,0.0941 0.008,0.0521 2.1e-4,0.11377 l -0.0561,0.45517 q -0.0172,7.3e-4 -0.0487,0.003 -0.0299,5.8e-4 -0.0683,1.2e-4 -0.0383,-4.6e-4 -0.0835,-0.003 -0.0439,-10e-4 -0.0873,-0.007 -0.0616,-0.008 -0.11189,-0.0266 -0.0503,-0.019 -0.0848,-0.0503 -0.0344,-0.0327 -0.0499,-0.0801 -0.0155,-0.0474 -0.008,-0.11043 0.007,-0.0602 0.0366,-0.1007 0.0306,-0.0403 0.0759,-0.0618 0.0453,-0.0214 0.10287,-0.0271 0.0576,-0.006 0.11919,0.002 0.0196,0.002 0.0403,0.008 0.0208,0.004 0.0385,0.0104 0.0193,0.005 0.0329,0.01 0.0137,0.005 0.0191,0.007 l 0.004,-0.0364 q 0.004,-0.0322 7.6e-4,-0.0639 -0.003,-0.0331 -0.0183,-0.0591 -0.0151,-0.0275 -0.0456,-0.0454 -0.0289,-0.0192 -0.0793,-0.0254 -0.0644,-0.008 -0.11465,-0.004 -0.0486,0.003 -0.0737,0.009 l -0.002,-0.10974 q 0.0266,-0.008 0.0866,-0.0107 0.0602,-0.004 0.12882,0.004 z m -0.0977,-0.13004 q -0.0322,-0.004 -0.0547,-0.0295 -0.0209,-0.0267 -0.0164,-0.0632 0.004,-0.0364 0.0311,-0.0559 0.0281,-0.0207 0.0603,-0.0167 0.0322,0.004 0.0531,0.0307 0.0224,0.0255 0.018,0.0619 -0.004,0.0364 -0.0326,0.0571 -0.0266,0.0195 -0.0588,0.0155 z m 0.2661,0.0328 q -0.0322,-0.004 -0.0547,-0.0295 -0.0209,-0.0267 -0.0164,-0.0631 0.004,-0.0364 0.0311,-0.0559 0.0281,-0.0207 0.0603,-0.0167 0.0322,0.004 0.0531,0.0307 0.0224,0.0255 0.018,0.0619 -0.004,0.0364 -0.0326,0.0571 -0.0266,0.0195 -0.0588,0.0155 z"
         style="font-weight:normal;-inkscape-font-specification:Ubuntu"
         id="path1240" /><path
         d="m -140.27993,289.75767 q -0.0215,-0.0224 -0.0642,-0.0459 -0.0427,-0.0235 -0.096,-0.0297 -0.0561,-0.007 -0.0992,0.01 -0.0415,0.015 -0.071,0.0485 -0.0293,0.0321 -0.0463,0.0798 -0.0169,0.0477 -0.0235,0.1038 -0.0149,0.12754 0.0399,0.205 0.055,0.0761 0.16014,0.0884 0.0533,0.006 0.0888,0.006 0.0371,-10e-4 0.0574,-0.005 z m 0.0574,-0.49054 0.13296,-0.007 -0.12483,1.06658 q -0.0463,0.007 -0.11787,0.0118 -0.0716,0.004 -0.16266,-0.006 -0.0841,-0.01 -0.14825,-0.0444 -0.0642,-0.0345 -0.10607,-0.0891 -0.0419,-0.0546 -0.0603,-0.12783 -0.0169,-0.0744 -0.007,-0.16273 0.01,-0.0841 0.0391,-0.15171 0.0306,-0.0675 0.0786,-0.11298 0.048,-0.0455 0.1115,-0.0665 0.065,-0.0208 0.14343,-0.0116 0.0631,0.007 0.10876,0.0298 0.0471,0.0226 0.0691,0.0408 z"
         style="font-weight:normal;-inkscape-font-specification:Ubuntu"
         id="path1242" /><path
         d="m -140.1412,290.62157 q -0.0168,-0.002 -0.043,-0.009 -0.0262,-0.007 -0.0436,-0.0163 l 0.0288,-0.10468 q 0.0136,0.006 0.0315,0.0106 0.0179,0.005 0.0333,0.007 0.0673,0.008 0.10009,-0.0313 0.034,-0.0374 0.043,-0.11729 l 0.0806,-0.71656 0.13041,0.0147 -0.0804,0.71516 q -0.0158,0.14023 -0.0878,0.20028 -0.0708,0.0616 -0.19283,0.0479 z m 0.30999,-1.10256 q -0.0351,-0.004 -0.0578,-0.0292 -0.0212,-0.0265 -0.0167,-0.0658 0.004,-0.0393 0.0308,-0.059 0.0279,-0.021 0.063,-0.0171 0.0351,0.004 0.0562,0.0305 0.0227,0.0253 0.0183,0.0645 -0.004,0.0393 -0.0323,0.0603 -0.0264,0.0198 -0.0614,0.0158 z"
         style="font-weight:normal;-inkscape-font-specification:Ubuntu"
         id="path1244" /><path
         d="m -139.63917,290.04485 q 0.0105,-0.0968 0.0463,-0.16533 0.0359,-0.0699 0.0874,-0.11262 0.0514,-0.0427 0.11435,-0.06 0.0629,-0.0173 0.12604,-0.0105 0.14731,0.0159 0.21587,0.11699 0.0687,0.0997 0.0484,0.28768 -9.1e-4,0.008 -0.002,0.0224 -10e-4,0.0126 -0.004,0.0237 l -0.49945,-0.054 q -0.004,0.11455 0.0473,0.17968 0.0512,0.0651 0.17321,0.0783 0.0688,0.007 0.11626,10e-4 0.0491,-0.007 0.0741,-0.0161 l 0.006,0.1114 q -0.0252,0.0101 -0.0871,0.0176 -0.0604,0.008 -0.1362,-5.2e-4 -0.0954,-0.0103 -0.16251,-0.0459 -0.0656,-0.0369 -0.105,-0.0922 -0.0394,-0.0554 -0.0545,-0.12653 -0.0135,-0.0724 -0.005,-0.15519 z m 0.50858,-0.0174 q 0.011,-0.0882 -0.0293,-0.14935 -0.0387,-0.0624 -0.11865,-0.071 -0.0449,-0.005 -0.0819,0.01 -0.0355,0.0132 -0.0624,0.0387 -0.0269,0.0255 -0.0448,0.0604 -0.0166,0.0351 -0.0249,0.0725 z"
         style="font-weight:normal;-inkscape-font-specification:Ubuntu"
         id="path1246" /><path
         d="m -138.39855,290.54294 -0.13057,-0.0132 0.0738,-0.73005 0.13057,0.0132 z m 0.0212,-0.8687 q -0.0351,-0.004 -0.0581,-0.0286 -0.0215,-0.0263 -0.0175,-0.0656 0.004,-0.0393 0.0301,-0.0594 0.0277,-0.0213 0.0628,-0.0178 0.0351,0.004 0.0565,0.0298 0.023,0.025 0.019,0.0643 -0.004,0.0393 -0.0317,0.0606 -0.0261,0.02 -0.0612,0.0165 z"
         style="font-weight:normal;-inkscape-font-specification:Ubuntu"
         id="path1248" /><path
         d="m -137.20994,289.92076 q -0.0742,0.19992 -0.16648,0.38112 -0.0909,0.18133 -0.1738,0.32372 l -0.11801,-0.0112 q -0.0547,-0.15542 -0.11137,-0.35072 -0.0552,-0.19516 -0.0906,-0.40545 l 0.14049,0.0133 q 0.0103,0.0704 0.0254,0.15124 0.0166,0.0795 0.0345,0.15918 0.0195,0.0784 0.0394,0.15256 0.0199,0.0742 0.0385,0.13263 0.0292,-0.0539 0.0627,-0.12305 0.0335,-0.0691 0.0659,-0.14259 0.034,-0.0747 0.0638,-0.14988 0.0313,-0.0764 0.0547,-0.14365 z"
         style="font-weight:normal;-inkscape-font-specification:Ubuntu"
         id="path1250" /><path
         d="m -136.88842,290.59135 q 0.0464,0.004 0.0816,0.006 0.0368,4.5e-4 0.0612,-0.003 l 0.0194,-0.21785 q -0.0134,-0.008 -0.0454,-0.0154 -0.0304,-0.008 -0.0754,-0.0124 -0.0295,-0.003 -0.0636,-0.001 -0.0327,0.001 -0.0621,0.0129 -0.0278,0.0103 -0.0482,0.0325 -0.0203,0.0209 -0.0237,0.0588 -0.006,0.0703 0.0362,0.1024 0.0426,0.0307 0.1199,0.0376 z m 0.0472,-0.65597 q 0.0787,0.007 0.13024,0.0329 0.0531,0.0246 0.082,0.0654 0.0305,0.0396 0.0399,0.0928 0.01,0.0519 0.004,0.11369 l -0.0408,0.4568 q -0.0171,10e-4 -0.0485,0.004 -0.0299,0.002 -0.0682,0.002 -0.0383,8.3e-4 -0.0836,-3.7e-4 -0.0439,3.2e-4 -0.0875,-0.004 -0.0619,-0.006 -0.11272,-0.0228 -0.0509,-0.0173 -0.0864,-0.0474 -0.0354,-0.0315 -0.0525,-0.0784 -0.0171,-0.0469 -0.0114,-0.11011 0.005,-0.0604 0.0332,-0.10188 0.0292,-0.0413 0.0737,-0.0643 0.0445,-0.0229 0.1019,-0.0306 0.0573,-0.008 0.11919,-0.002 0.0197,0.002 0.0405,0.006 0.0209,0.003 0.0389,0.009 0.0194,0.005 0.0332,0.009 0.0138,0.004 0.0193,0.006 l 0.003,-0.0365 q 0.003,-0.0323 -0.001,-0.0639 -0.004,-0.0329 -0.0203,-0.0585 -0.016,-0.0269 -0.0471,-0.0439 -0.0295,-0.0182 -0.0801,-0.0227 -0.0647,-0.006 -0.11472,-3.2e-4 -0.0485,0.004 -0.0733,0.0119 l -0.006,-0.10961 q 0.0263,-0.009 0.0862,-0.0136 0.06,-0.006 0.12891,1.7e-4 z"
         style="font-weight:normal;-inkscape-font-specification:Ubuntu"
         id="path1252" /><path
         d="m -136.07738,290.00433 q 0.0169,0.001 0.0377,0.006 0.0224,0.003 0.0431,0.009 0.0209,0.005 0.0374,0.0102 0.018,0.004 0.0262,0.008 l -0.0321,0.112 q -0.015,-0.007 -0.051,-0.017 -0.0344,-0.0114 -0.0907,-0.0162 -0.0366,-0.003 -0.0738,0.002 -0.0358,0.004 -0.0472,0.006 l -0.0519,0.61447 -0.13077,-0.0111 0.0591,-0.70024 q 0.0478,-0.0129 0.11792,-0.0212 0.0702,-0.01 0.15598,-0.002 z"
         style="font-weight:normal;-inkscape-font-specification:Ubuntu"
         id="path1254" /><path
         d="m -135.68645,290.05202 0.27709,0.0223 -0.009,0.10972 -0.27709,-0.0223 -0.0271,0.33758 q -0.004,0.0549 0.001,0.0921 0.006,0.0358 0.0208,0.0583 0.0153,0.021 0.0399,0.0315 0.0246,0.0105 0.0584,0.0132 0.0591,0.005 0.0953,-0.005 0.0377,-0.0111 0.0522,-0.0156 l 0.0166,0.11034 q -0.0205,0.008 -0.0708,0.0184 -0.0505,0.0115 -0.11377,0.006 -0.0745,-0.006 -0.12231,-0.0282 -0.0462,-0.0235 -0.0727,-0.0639 -0.0265,-0.0403 -0.0347,-0.0962 -0.007,-0.0572 -8.6e-4,-0.13031 l 0.0524,-0.65265 0.13263,-0.012 z"
         style="font-weight:normal;-inkscape-font-specification:Ubuntu"
         id="path1256" /><path
         d="m -134.97715,290.84354 0.078,-1.0696 0.13253,-0.013 -0.0273,0.37436 q 0.0376,-0.0114 0.079,-0.0155 0.0428,-0.005 0.0836,-0.002 0.0873,0.006 0.14311,0.0359 0.056,0.0281 0.0865,0.0756 0.032,0.0462 0.0416,0.10914 0.01,0.063 0.004,0.13754 l -0.03,0.41095 -0.13089,-0.01 0.0279,-0.38281 q 0.005,-0.0675 -0.001,-0.11612 -0.005,-0.0485 -0.0239,-0.0796 -0.0189,-0.0311 -0.0532,-0.0463 -0.0342,-0.0166 -0.0862,-0.0204 -0.0211,-0.002 -0.0438,-3.6e-4 -0.0227,0.001 -0.0441,0.004 -0.0199,10e-4 -0.0371,0.004 -0.0158,0.003 -0.023,0.005 l -0.0444,0.60799 z"
         style="font-weight:normal;-inkscape-font-specification:Ubuntu"
         id="path1258" /><path
         d="m -133.58918,290.91948 q -0.0458,0.008 -0.12128,0.0159 -0.0741,0.008 -0.17121,10e-4 -0.0845,-0.006 -0.14059,-0.0335 -0.056,-0.0292 -0.0882,-0.0766 -0.0322,-0.0474 -0.0436,-0.10899 -0.0113,-0.063 -0.006,-0.13761 l 0.0276,-0.41112 0.13094,0.009 -0.0257,0.38296 q -0.009,0.13376 0.0294,0.19432 0.0384,0.0606 0.13834,0.0673 0.0211,0.001 0.0437,0.002 0.0226,10e-5 0.0424,2e-5 0.0199,-0.001 0.0355,-0.002 0.0171,-0.002 0.0243,-0.004 l 0.0415,-0.61809 0.13094,0.009 z"
         style="font-weight:normal;-inkscape-font-specification:Ubuntu"
         id="path1260" /><path
         d="m -133.189,290.87106 q 0.0803,0.005 0.11961,-0.0138 0.0407,-0.0187 0.0436,-0.0652 0.003,-0.0479 -0.0333,-0.0784 -0.0363,-0.0305 -0.12143,-0.0711 -0.0412,-0.0195 -0.0796,-0.0389 -0.0369,-0.0207 -0.0636,-0.0463 -0.0267,-0.0257 -0.0415,-0.0605 -0.0148,-0.0349 -0.0118,-0.0841 0.006,-0.0972 0.0813,-0.14907 0.0754,-0.0533 0.19935,-0.0456 0.031,0.002 0.0617,0.008 0.0308,0.005 0.0572,0.012 0.0265,0.006 0.0459,0.0127 0.0208,0.007 0.0318,0.0119 l -0.0309,0.11119 q -0.0204,-0.0126 -0.0648,-0.0266 -0.0443,-0.0155 -0.10766,-0.0194 -0.0549,-0.003 -0.0972,0.0166 -0.0421,0.0186 -0.045,0.0651 -0.001,0.0239 0.006,0.0428 0.009,0.0189 0.0261,0.0356 0.0188,0.0153 0.0462,0.0297 0.0274,0.0144 0.0659,0.0309 0.0509,0.0229 0.0905,0.0452 0.0397,0.0208 0.0663,0.0479 0.028,0.0272 0.0412,0.0648 0.0133,0.0362 0.0101,0.0883 -0.006,0.1014 -0.0856,0.14881 -0.0779,0.0475 -0.2173,0.0389 -0.0972,-0.006 -0.15106,-0.0263 -0.054,-0.0189 -0.0732,-0.0286 l 0.0309,-0.11119 q 0.022,0.01 0.0703,0.0298 0.0482,0.0199 0.12994,0.025 z"
         style="font-weight:normal;-inkscape-font-specification:Ubuntu"
         id="path1262" /><path
         d="m -132.57762,290.9261 q -0.002,0.038 -0.0292,0.0647 -0.027,0.0267 -0.0707,0.0241 -0.0437,-0.003 -0.0674,-0.0322 -0.0237,-0.0297 -0.0215,-0.0677 0.002,-0.038 0.0292,-0.0647 0.027,-0.0267 0.0707,-0.0241 0.0437,0.003 0.0674,0.0322 0.0237,0.0297 0.0215,0.0677 z"
         style="font-weight:normal;-inkscape-font-specification:Ubuntu"
         id="path1264" /><path
         d="m -132.23127,290.94566 q -0.002,0.038 -0.0291,0.0648 -0.0269,0.0268 -0.0706,0.0243 -0.0437,-0.002 -0.0675,-0.032 -0.0238,-0.0296 -0.0217,-0.0676 0.002,-0.038 0.0291,-0.0648 0.0269,-0.0268 0.0706,-0.0243 0.0437,0.002 0.0675,0.032 0.0238,0.0296 0.0217,0.0676 z"
         style="font-weight:normal;-inkscape-font-specification:Ubuntu"
         id="path1266" /><path
         d="m -131.88493,290.96437 q -0.002,0.038 -0.0289,0.0649 -0.0269,0.0268 -0.0705,0.0245 -0.0437,-0.002 -0.0675,-0.0319 -0.0239,-0.0295 -0.0218,-0.0676 0.002,-0.038 0.0289,-0.0649 0.0269,-0.0268 0.0705,-0.0245 0.0437,0.002 0.0675,0.0319 0.0239,0.0295 0.0218,0.0676 z"
         style="font-weight:normal;-inkscape-font-specification:Ubuntu"
         id="path1268" /></g></g></svg>
