<?xml version="1.0" encoding="UTF-8" standalone="no"?>
<!-- Created with Inkscape (http://www.inkscape.org/) -->

<svg
   width="210mm"
   height="297mm"
   viewBox="0 0 210 297"
   version="1.1"
   id="svg5"
   xml:space="preserve"
   sodipodi:docname="drawing - utkantt.svg"
   inkscape:version="1.2.2 (732a01da63, 2022-12-09)"
   xmlns:inkscape="http://www.inkscape.org/namespaces/inkscape"
   xmlns:sodipodi="http://sodipodi.sourceforge.net/DTD/sodipodi-0.dtd"
   xmlns="http://www.w3.org/2000/svg"
   xmlns:svg="http://www.w3.org/2000/svg"><sodipodi:namedview
     id="namedview7"
     pagecolor="#ffffff"
     bordercolor="#000000"
     borderopacity="0.25"
     inkscape:showpageshadow="2"
     inkscape:pageopacity="0.0"
     inkscape:pagecheckerboard="0"
     inkscape:deskcolor="#d1d1d1"
     inkscape:document-units="mm"
     showgrid="false"
     inkscape:zoom="1.1376503"
     inkscape:cx="346.32787"
     inkscape:cy="763.85511"
     inkscape:window-width="1920"
     inkscape:window-height="1057"
     inkscape:window-x="-8"
     inkscape:window-y="-8"
     inkscape:window-maximized="1"
     inkscape:current-layer="layer2" /><defs
     id="defs2"><inkscape:path-effect
       effect="fillet_chamfer"
       id="path-effect36851"
       is_visible="true"
       lpeversion="1"
       nodesatellites_param="F,0,0,1,0,0.79375,0,1 @ F,0,0,1,0,0.79375,0,1 @ F,0,0,1,0,0.79375,0,1 @ F,0,0,1,0,0.79375,0,1 @ F,0,0,1,0,0.79375,0,1 @ F,0,0,1,0,0.79375,0,1 @ F,0,0,1,0,0.79375,0,1 @ F,0,0,1,0,0.79375,0,1 @ F,0,0,1,0,0.79375,0,1 @ F,0,0,1,0,0.79375,0,1 @ F,0,0,1,0,0.79375,0,1 @ F,0,0,1,0,0.79375,0,1"
       unit="px"
       method="auto"
       mode="F"
       radius="3"
       chamfer_steps="1"
       flexible="false"
       use_knot_distance="true"
       apply_no_radius="true"
       apply_with_radius="true"
       only_selected="false"
       hide_knots="false" /><inkscape:path-effect
       effect="fillet_chamfer"
       id="path-effect36851-3"
       is_visible="true"
       lpeversion="1"
       nodesatellites_param="F,0,0,1,0,0.79375,0,1 @ F,0,0,1,0,0.79375,0,1 @ F,0,0,1,0,0.79375,0,1 @ F,0,0,1,0,0.79375,0,1 @ F,0,0,1,0,0.79375,0,1 @ F,0,0,1,0,0.79375,0,1 @ F,0,0,1,0,0.79375,0,1 @ F,0,0,1,0,0.79375,0,1 @ F,0,0,1,0,0.79375,0,1 @ F,0,0,1,0,0.79375,0,1 @ F,0,0,1,0,0.79375,0,1 @ F,0,0,1,0,0.79375,0,1"
       unit="px"
       method="auto"
       mode="F"
       radius="3"
       chamfer_steps="1"
       flexible="false"
       use_knot_distance="true"
       apply_no_radius="true"
       apply_with_radius="true"
       only_selected="false"
       hide_knots="false" /></defs><g
     inkscape:label="Layer 1"
     inkscape:groupmode="layer"
     id="layer1" /><g
     inkscape:groupmode="layer"
     id="layer2"
     inkscape:label="Layer 2"><path
       style="fill:#ffffff;stroke:#000000;stroke-width:0.5;stroke-linecap:round;stroke-linejoin:round;stroke-dasharray:none;stroke-opacity:1;fill-opacity:1"
       d="m 156.74191,207.49672 c -3.67297,0.13369 -7.57201,0.70374 -9.91208,1.41753 -0.41914,0.12785 -1.08343,0.38153 -1.4943,0.53437 -16.05406,5.97182 -33.07465,7.81574 -49.650976,7.12935 -0.437998,-0.0181 -1.147988,-0.051 -1.585796,-0.0733 -33.113167,-1.68534 -62.789171,-12.66416 -78.391244,-6.77581 -0.409718,0.15463 -1.079347,0.3868 -1.502799,0.50021 l -3.488776,0.9344 A 1.3309883,1.3309883 134.19619 0 0 9.765451,212.141 l -1.6018282,6.73107 a 1.4981321,1.4981321 75.470151 0 0 0.3519337,1.35791 l 2.5547705,2.79336 c 0.295856,0.32348 0.708003,0.89698 0.945853,1.26514 10.802502,16.72073 73.429411,33.05644 117.54492,25.31486 0.43177,-0.0758 1.13095,-0.20355 1.56145,-0.28628 17.62758,-3.38757 31.38024,-11.62464 36.91447,-22.38356 0.20051,-0.38981 0.50613,-1.03184 0.67624,-1.43582 0.91932,-2.18328 1.4323,-4.53315 2.29067,-6.74416 0.15835,-0.40789 0.44121,-1.05948 0.6281,-1.456 4.08174,-8.6599 14.48055,-18.89433 17.19241,-21.05824 0.32998,-0.26331 0.45571,-0.68956 0.21056,-1.05298 l -5.31232,-7.87503 c -0.24515,-0.36342 -0.62951,-0.35494 -0.86624,0.014 -4.81216,7.49984 -15.57882,19.27357 -24.5288,20.10469 -0.43639,0.0405 -1.14765,0.0508 -1.58573,0.0668 z"
       id="path2426-6-2"
       sodipodi:nodetypes="sssccccsssccs" /></g></svg>
