<?xml version="1.0" encoding="UTF-8" standalone="no"?>
<!-- Created with Inkscape (http://www.inkscape.org/) -->

<svg
   width="4.4344254mm"
   height="1.5282288mm"
   viewBox="0 0 4.4344254 1.5282288"
   version="1.1"
   id="svg5"
   xml:space="preserve"
   sodipodi:docname="drawing - kopia.svg"
   inkscape:version="1.2.2 (732a01da63, 2022-12-09)"
   xmlns:inkscape="http://www.inkscape.org/namespaces/inkscape"
   xmlns:sodipodi="http://sodipodi.sourceforge.net/DTD/sodipodi-0.dtd"
   xmlns="http://www.w3.org/2000/svg"
   xmlns:svg="http://www.w3.org/2000/svg"><sodipodi:namedview
     id="namedview7"
     pagecolor="#ffffff"
     bordercolor="#000000"
     borderopacity="0.25"
     inkscape:showpageshadow="2"
     inkscape:pageopacity="0.0"
     inkscape:pagecheckerboard="0"
     inkscape:deskcolor="#d1d1d1"
     inkscape:document-units="mm"
     showgrid="false"
     inkscape:zoom="4.5506012"
     inkscape:cx="377.2029"
     inkscape:cy="1053.7069"
     inkscape:window-width="1920"
     inkscape:window-height="1057"
     inkscape:window-x="-8"
     inkscape:window-y="-8"
     inkscape:window-maximized="1"
     inkscape:current-layer="layer2" /><defs
     id="defs2" /><g
     inkscape:groupmode="layer"
     id="layer2"
     inkscape:label="Layer 2"
     transform="translate(-68.171243,-282.46786)"><g
       aria-label="GND"
       id="text2963"
       style="font-weight:bold;font-size:2.11667px;font-family:Ubuntu;-inkscape-font-specification:'Ubuntu Bold';stroke-width:0.2;stroke-linecap:round;stroke-linejoin:round"><path
         d="m 68.950182,282.7551 q -0.230717,0 -0.334433,0.12912 -0.101601,0.127 -0.101601,0.34925 0,0.10795 0.0254,0.19685 0.0254,0.0868 0.0762,0.15029 0.0508,0.0635 0.127,0.0995 0.0762,0.0339 0.1778,0.0339 0.05503,0 0.09313,-0.002 0.04022,-0.002 0.06985,-0.008 v -0.51011 h 0.3302 v 0.72601 q -0.05927,0.0233 -0.1905,0.0487 -0.131234,0.0275 -0.323851,0.0275 -0.1651,0 -0.300567,-0.0508 -0.13335,-0.0508 -0.2286,-0.14816 -0.09525,-0.0974 -0.148167,-0.23919 -0.0508,-0.14181 -0.0508,-0.32385 0,-0.18415 0.05715,-0.32597 0.05715,-0.14181 0.156634,-0.23918 0.09948,-0.0995 0.232833,-0.15028 0.135467,-0.0508 0.287867,-0.0508 0.103717,0 0.186267,0.0148 0.08467,0.0127 0.143934,0.0317 0.06138,0.0169 0.09948,0.036 0.04022,0.0191 0.05715,0.0296 l -0.09525,0.26458 q -0.06773,-0.036 -0.156633,-0.0614 -0.08678,-0.0275 -0.190501,-0.0275 z"
         id="path2965" /><path
         d="m 70.704901,283.96796 q -0.141817,-0.25189 -0.306917,-0.49742 -0.1651,-0.24553 -0.351367,-0.46355 v 0.96097 H 69.72065 v -1.46686 h 0.268817 q 0.06985,0.0698 0.154517,0.17145 0.08467,0.1016 0.17145,0.21802 0.0889,0.1143 0.175683,0.23919 0.08678,0.12276 0.162984,0.23706 v -0.86572 h 0.328084 v 1.46686 z"
         id="path2967" /><path
         d="m 71.651054,283.69914 q 0.02328,0.002 0.05292,0.004 0.03175,0 0.07408,0 0.24765,0 0.366184,-0.12488 0.12065,-0.12488 0.12065,-0.34502 0,-0.23071 -0.1143,-0.34925 -0.1143,-0.11853 -0.361951,-0.11853 -0.03387,0 -0.06985,0.002 -0.03598,0 -0.06773,0.004 z m 0.954618,-0.46567 q 0,0.1905 -0.05927,0.33232 -0.05927,0.14182 -0.169334,0.23495 -0.10795,0.0931 -0.264583,0.1397 -0.156634,0.0466 -0.351368,0.0466 -0.0889,0 -0.207433,-0.008 -0.118534,-0.006 -0.232834,-0.0296 v -1.42876 q 0.1143,-0.0212 0.237067,-0.0275 0.124884,-0.008 0.213784,-0.008 0.188383,0 0.340784,0.0423 0.154517,0.0423 0.264583,0.13335 0.110067,0.091 0.169334,0.23284 0.05927,0.14182 0.05927,0.34078 z"
         id="path2969" /></g></g></svg>
