M48
; DRILL file {KiCad 7.0.6} date Sun Oct 29 15:43:53 2023
; FORMAT={-:-/ absolute / inch / decimal}
; #@! TF.CreationDate,2023-10-29T15:43:53+01:00
; #@! TF.GenerationSoftware,Kicad,Pcbnew,7.0.6
; #@! TF.FileFunction,Plated,1,2,PTH
FMAT,2
INCH
; #@! TA.AperFunction,Plated,PTH,ViaDrill
T1C0.0079
; #@! TA.AperFunction,Plated,PTH,ComponentDrill
T2C0.0236
; #@! TA.AperFunction,Plated,PTH,ComponentDrill
T3C0.0315
; #@! TA.AperFunction,Plated,PTH,ComponentDrill
T4C0.0354
%
G90
G05
T1
X2.8967Y-3.708
X2.9526Y-3.9446
X3.0689Y-3.6529
X3.1127Y-3.3921
X3.1723Y-4.1141
X3.2248Y-3.4804
X3.2823Y-3.9163
X3.4573Y-4.1232
X3.6283Y-3.5324
X3.7473Y-3.5317
X3.7898Y-4.2716
X3.8364Y-4.1556
X4.1599Y-4.4016
X4.2479Y-4.283
X4.4063Y-4.3202
X4.4187Y-3.7858
X4.5289Y-3.898
X4.5359Y-4.5098
X4.6051Y-3.9718
X4.614Y-4.4513
X4.6759Y-4.1981
X4.8748Y-4.2021
X4.9729Y-4.6043
X5.0775Y-4.0958
X5.0827Y-4.2372
X5.0874Y-3.9934
X5.204Y-4.6501
X5.2341Y-4.6866
X5.2659Y-4.3797
X5.2702Y-4.1977
X5.2809Y-4.7049
X5.3039Y-4.1155
X5.3044Y-4.5761
X5.3078Y-4.5288
X5.3214Y-4.6752
X5.3338Y-4.579
X5.3825Y-4.3568
X5.3913Y-3.8716
X5.4123Y-4.3596
X5.4413Y-4.0858
X5.4625Y-4.4399
X5.4679Y-4.6302
X5.4807Y-4.5144
X5.4948Y-4.2569
X5.5064Y-4.6419
X5.512Y-4.0491
X5.5191Y-3.9168
X5.5224Y-4.2291
X5.5325Y-4.5037
X5.5344Y-4.3337
X5.5458Y-4.3983
X5.5691Y-4.2212
X5.5926Y-4.2408
X5.5949Y-4.3516
X5.6052Y-3.8623
X5.616Y-4.2147
X5.6259Y-4.643
X5.6405Y-4.4128
X5.6465Y-4.2154
X5.647Y-4.054
X5.6496Y-3.9139
X5.65Y-4.2455
X5.6554Y-4.646
X5.6581Y-4.3531
X5.6779Y-4.4013
X5.6807Y-4.5491
X5.6833Y-4.6789
X5.6841Y-4.5138
X5.6848Y-4.6483
X5.7009Y-4.3354
X5.7095Y-4.538
X5.7318Y-4.2347
X5.7344Y-4.2053
X5.7376Y-4.5546
X5.741Y-4.5193
X5.7667Y-4.1282
X5.7766Y-4.2245
X5.7842Y-4.6706
X5.7896Y-4.5136
X5.7915Y-4.4735
X5.7975Y-4.161
X5.7992Y-4.5442
X5.8412Y-4.0741
X5.8471Y-4.5656
X5.861Y-4.4585
X5.8619Y-4.2331
X5.884Y-4.3672
X5.8876Y-4.33
X5.891Y-4.2947
X5.9004Y-4.2301
X5.9024Y-4.2
X5.994Y-4.3973
X6.0059Y-4.7518
X6.024Y-4.3889
X6.034Y-4.4743
X6.0376Y-4.4436
X6.056Y-3.8955
X6.1306Y-4.7527
X6.1464Y-4.6469
X6.211Y-4.7309
X6.252Y-4.2032
X6.274Y-4.7998
X6.2774Y-4.2882
X6.3235Y-4.7244
X6.3469Y-4.4051
X6.3525Y-4.3508
X6.3536Y-4.7229
X6.3815Y-4.6907
X6.383Y-4.7202
X6.4301Y-3.9434
X6.5054Y-4.7587
X6.5072Y-4.802
X6.5215Y-4.7078
X6.5423Y-4.7288
X6.646Y-4.65
X6.7398Y-4.3461
X6.7544Y-4.3726
X6.7772Y-4.6013
X6.7806Y-4.4579
X6.7921Y-4.1973
X6.8172Y-4.5557
X6.8207Y-4.643
X6.8248Y-3.8918
X6.8646Y-4.5978
X6.9251Y-3.8866
X6.9719Y-4.5478
X6.9928Y-4.5162
X6.9965Y-3.8597
X7.0016Y-4.3626
X7.0315Y-4.3611
X7.0615Y-4.3595
X7.0708Y-4.7977
X7.2393Y-4.0934
X7.2518Y-4.3203
X7.2887Y-4.4816
X7.3008Y-4.6638
X7.3678Y-4.4797
X7.3973Y-4.4782
X7.4267Y-4.4766
X7.7024Y-4.1738
X7.7312Y-4.3264
X9.447Y-2.7703
X9.4915Y-2.8123
X9.5834Y-2.8832
T2
X5.0536Y-4.5159
X5.1311Y-4.5296
T3
X4.7696Y-4.4659
X4.8666Y-4.483
T4
X3.1396Y-3.7953
X3.168Y-3.6994
X3.3588Y-3.8186
X3.3872Y-3.7227
X3.6837Y-3.8532
X3.7121Y-3.7573
X8.5035Y-4.0534
X8.7753Y-3.9266
T0
M30
