%TF.GenerationSoftware,KiCad,Pcbnew,7.0.6*%
%TF.CreationDate,2023-10-29T15:43:53+01:00*%
%TF.ProjectId,nana,6e616e61-2e6b-4696-9361-645f70636258,rev?*%
%TF.SameCoordinates,Original*%
%TF.FileFunction,Drillmap*%
%TF.FilePolarity,Positive*%
%FSLAX45Y45*%
G04 Gerber Fmt 4.5, Leading zero omitted, Abs format (unit mm)*
G04 Created by KiCad (PCBNEW 7.0.6) date 2023-10-29 15:43:53*
%MOMM*%
%LPD*%
G01*
G04 APERTURE LIST*
%ADD10C,0.250000*%
%ADD11C,0.200000*%
%ADD12C,0.020000*%
%ADD13C,0.060000*%
%ADD14C,0.080000*%
%ADD15C,0.090000*%
G04 APERTURE END LIST*
D10*
X7452433Y-8349150D02*
X7441234Y-8352657D01*
X22852419Y-9891138D02*
X22863274Y-9865158D01*
X7088040Y-9644055D02*
X7097445Y-9654815D01*
X6809909Y-9177184D02*
X6804182Y-9201374D01*
X9878848Y-8229806D02*
X9433706Y-8180212D01*
X7097445Y-9654815D02*
X7106454Y-9665346D01*
X6979869Y-8507826D02*
X6976734Y-8512489D01*
X24242238Y-6001394D02*
X24240334Y-6003182D01*
X6820407Y-9346929D02*
X6824533Y-9352543D01*
X20664369Y-8233196D02*
X20637548Y-8241753D01*
X24290706Y-5989620D02*
X24288187Y-5989036D01*
X7441234Y-8352657D02*
X7428769Y-8356386D01*
X7167201Y-9746954D02*
X7182865Y-9770344D01*
X25112394Y-6786507D02*
X25113454Y-6784152D01*
X11843510Y-11960888D02*
X12696012Y-12137960D01*
X24240334Y-6003182D02*
X24238511Y-6005071D01*
X6795339Y-9286197D02*
X6796188Y-9291142D01*
X23683328Y-6610672D02*
X23664781Y-6631855D01*
X22784867Y-10034742D02*
X22797592Y-10009620D01*
X6798443Y-9229039D02*
X6796173Y-9243114D01*
X7000377Y-8485594D02*
X6998626Y-8487132D01*
X23156759Y-9045858D02*
X23167689Y-9023648D01*
X7159875Y-9736205D02*
X7167201Y-9746954D01*
X8909337Y-11005254D02*
X9551674Y-11274583D01*
X22872509Y-9842193D02*
X22898958Y-9771306D01*
X22797813Y-7561418D02*
X22684408Y-7658581D01*
X23538225Y-8466366D02*
X23627909Y-8357772D01*
X6833355Y-9363743D02*
X6842586Y-9374692D01*
X7910674Y-8212381D02*
X7601727Y-8296323D01*
X21842036Y-8081257D02*
X21828251Y-8082715D01*
X24267449Y-5988903D02*
X24264915Y-5989458D01*
X25107425Y-6732394D02*
X25105843Y-6730335D01*
X23063100Y-9266295D02*
X23071739Y-9243118D01*
X21814025Y-8084062D02*
X21785961Y-8086300D01*
X7601727Y-8296323D02*
X7502294Y-8332360D01*
X14135453Y-8886637D02*
X12976187Y-8730222D01*
X25112672Y-6741285D02*
X25111526Y-6738973D01*
X6982690Y-8504107D02*
X6981263Y-8505954D01*
X6794657Y-9281220D02*
X6795339Y-9286197D01*
X17132994Y-8983300D02*
X16826156Y-8999676D01*
X22017245Y-10981039D02*
X22198700Y-10814457D01*
X7866576Y-10425791D02*
X8344333Y-10721209D01*
X24283063Y-5988236D02*
X24280468Y-5988026D01*
X21127636Y-8138394D02*
X21011643Y-8155830D01*
X19093541Y-12273121D02*
X19145484Y-12263021D01*
X22819948Y-9963548D02*
X22831138Y-9939579D01*
X7153159Y-9726586D02*
X7159875Y-9736205D01*
X20066651Y-12024864D02*
X20353471Y-11925422D01*
X24304944Y-5995621D02*
X24302697Y-5994332D01*
X25113703Y-6743652D02*
X25112672Y-6741285D01*
X7663513Y-10274862D02*
X7866576Y-10425791D01*
X6851807Y-9385137D02*
X6868564Y-9403502D01*
X23228431Y-8911194D02*
X23296750Y-8798966D01*
X22797592Y-10009620D02*
X22808540Y-9987417D01*
X15338327Y-8989151D02*
X14732181Y-8946458D01*
X23144645Y-9071277D02*
X23156759Y-9045858D01*
X23014517Y-9409950D02*
X23038097Y-9337838D01*
X21785961Y-8086300D02*
X21772974Y-8087129D01*
X22162105Y-7991460D02*
X22103197Y-8015284D01*
X25117525Y-6766582D02*
X25117606Y-6763970D01*
X24272612Y-5988169D02*
X24270018Y-5988473D01*
X23648644Y-6650628D02*
X23447206Y-6885880D01*
X23371751Y-8687237D02*
X23452540Y-8576279D01*
X22645724Y-10274169D02*
X22760314Y-10081615D01*
X21761250Y-8087725D02*
X21734809Y-8088706D01*
X23038097Y-9337838D02*
X23063100Y-9266295D01*
X18885265Y-12310812D02*
X18937400Y-12301756D01*
X7145580Y-9716017D02*
X7153159Y-9726586D01*
X7489934Y-8336643D02*
X7477411Y-8340903D01*
X7010370Y-8477897D02*
X7005795Y-8481161D01*
X21011643Y-8155830D02*
X20903679Y-8175093D01*
X22684408Y-7658581D02*
X22569879Y-7748534D01*
X25117382Y-6758727D02*
X25117079Y-6756131D01*
X6988706Y-8496982D02*
X6987157Y-8498723D01*
X20589230Y-8258679D02*
X20564409Y-8267825D01*
X24250604Y-5995282D02*
X24248408Y-5996649D01*
X17746463Y-8929864D02*
X17439829Y-8960102D01*
X6954890Y-8569330D02*
X6951389Y-8582834D01*
X6987157Y-8498723D02*
X6985636Y-8500491D01*
X22946889Y-9627487D02*
X22969456Y-9554994D01*
X7464865Y-8345090D02*
X7452433Y-8349150D01*
X6794623Y-9256784D02*
X6794195Y-9263335D01*
X20691312Y-8225036D02*
X20664369Y-8233196D01*
X6796188Y-9291142D02*
X6797202Y-9296057D01*
X20637548Y-8241753D02*
X20614112Y-8249710D01*
X6807011Y-9325108D02*
X6809789Y-9330405D01*
X25117560Y-6761345D02*
X25117382Y-6758727D01*
X24295636Y-5991152D02*
X24293190Y-5990326D01*
X24285638Y-5988574D02*
X24283063Y-5988236D01*
X12696012Y-12137960D02*
X13576264Y-12283618D01*
X20629188Y-11816479D02*
X20893211Y-11698352D01*
X23101669Y-9167812D02*
X23112032Y-9143554D01*
X21515581Y-8099157D02*
X21380424Y-8109847D01*
X24244222Y-5999708D02*
X24242238Y-6001394D01*
X23092253Y-9190701D02*
X23101669Y-9167812D01*
X6794037Y-9269628D02*
X6794182Y-9275606D01*
X21828251Y-8082715D02*
X21814025Y-8084062D01*
X20715116Y-8218265D02*
X20691312Y-8225036D01*
X6985636Y-8500491D02*
X6984147Y-8502286D01*
X18046738Y-12423784D02*
X18885265Y-12310812D01*
X18358359Y-8847387D02*
X18052704Y-8892366D01*
X24548024Y-7404576D02*
X25103671Y-6799391D01*
X21925847Y-8067545D02*
X21866580Y-8078126D01*
X15602626Y-9001364D02*
X15496884Y-8996963D01*
X24307129Y-5997021D02*
X24304944Y-5995621D01*
X7401701Y-8364129D02*
X7350651Y-8378054D01*
X7026851Y-8468932D02*
X7020961Y-8471784D01*
X6991898Y-8493584D02*
X6990287Y-8495269D01*
X25115930Y-6776821D02*
X25116515Y-6774302D01*
X17439829Y-8960102D02*
X17132994Y-8983300D01*
X25105397Y-6797414D02*
X25107018Y-6795363D01*
X23129961Y-7237188D02*
X23020723Y-7349674D01*
X9012831Y-8150021D02*
X8617710Y-8142883D01*
X6995204Y-8490300D02*
X6993536Y-8491927D01*
X22841265Y-9916993D02*
X22852419Y-9891138D01*
X24252858Y-5994024D02*
X24250604Y-5995282D01*
X24259953Y-5990931D02*
X24257538Y-5991847D01*
X6945589Y-8607035D02*
X6809909Y-9177184D01*
X7122069Y-9684536D02*
X7129956Y-9694868D01*
X7106454Y-9665346D02*
X7114766Y-9675354D01*
X22513530Y-10460706D02*
X22645724Y-10274169D01*
X6970921Y-8523248D02*
X6968234Y-8529215D01*
X25104157Y-6728352D02*
X25102369Y-6726446D01*
X19871033Y-8502609D02*
X19571226Y-8588282D01*
X21609212Y-11292034D02*
X21820551Y-11140337D01*
X6794182Y-9275606D02*
X6794657Y-9281220D01*
X9433706Y-8180212D02*
X9012831Y-8150021D01*
X7052918Y-8458801D02*
X7046151Y-8461148D01*
X18663232Y-8794711D02*
X18358359Y-8847387D01*
X6993536Y-8491927D02*
X6991898Y-8493584D01*
X20804564Y-8195975D02*
X20715116Y-8218265D01*
X21380424Y-8109847D02*
X21250836Y-8122996D01*
X7003962Y-8482609D02*
X7002155Y-8484085D01*
X6801219Y-9310553D02*
X6802880Y-9315291D01*
X22909963Y-7458101D02*
X22797813Y-7561418D01*
X21734809Y-8088706D02*
X21708356Y-8089535D01*
X23112032Y-9143554D02*
X23122601Y-9119379D01*
X25108902Y-6734524D02*
X25107425Y-6732394D01*
X23296750Y-8798966D02*
X23371751Y-8687237D01*
X21250836Y-8122996D02*
X21127636Y-8138394D01*
X6998626Y-8487132D02*
X6996900Y-8488700D01*
X6968234Y-8529215D02*
X6965689Y-8535494D01*
X7182865Y-9770344D02*
X7198503Y-9793757D01*
X7198503Y-9793757D02*
X7212464Y-9814197D01*
X7002155Y-8484085D02*
X7000377Y-8485594D01*
X24309249Y-5998533D02*
X24307129Y-5997021D01*
X22103197Y-8015284D02*
X22044173Y-8035993D01*
X19041545Y-12282946D02*
X19093541Y-12273121D01*
X16826156Y-8999676D02*
X16213238Y-9012844D01*
X25102369Y-6726446D02*
X25100479Y-6724625D01*
X25107018Y-6795363D02*
X25108528Y-6793243D01*
X13576264Y-12283618D02*
X14474352Y-12394523D01*
X6951389Y-8582834D02*
X6945589Y-8607035D01*
X6816540Y-9341346D02*
X6820407Y-9346929D01*
X25117606Y-6763970D02*
X25117560Y-6761345D01*
X25116092Y-6751028D02*
X25115416Y-6748527D01*
X6802880Y-9315291D02*
X6804700Y-9319972D01*
X20564409Y-8267825D02*
X20465206Y-8304650D01*
X7502294Y-8332360D02*
X7489934Y-8336643D01*
X8617710Y-8142883D02*
X8249829Y-8162453D01*
X7033056Y-8466210D02*
X7026851Y-8468932D01*
X25113454Y-6784152D02*
X25114397Y-6781750D01*
X25116515Y-6774302D02*
X25116977Y-6771751D01*
X23718655Y-6571285D02*
X23702036Y-6589631D01*
X21866580Y-8078126D02*
X21854955Y-8079716D01*
X7114766Y-9675354D02*
X7122069Y-9684536D01*
X18937400Y-12301756D02*
X18989496Y-12292476D01*
X6981263Y-8505954D02*
X6979869Y-8507826D01*
X24257538Y-5991847D02*
X24255172Y-5992879D01*
X6842586Y-9374692D02*
X6851807Y-9385137D01*
X6809789Y-9330405D02*
X6812983Y-9335827D01*
X7428769Y-8356386D02*
X7401701Y-8364129D01*
X9551674Y-11274583D02*
X10261425Y-11525858D01*
X7015446Y-8474772D02*
X7010370Y-8477897D01*
X22923570Y-9699664D02*
X22946889Y-9627487D01*
X15496884Y-8996963D02*
X15444025Y-8994512D01*
X22220885Y-7964655D02*
X22162105Y-7991460D01*
X21655487Y-8091135D02*
X21515581Y-8099157D01*
X6868564Y-9403502D02*
X7052615Y-9604741D01*
X23627909Y-8357772D02*
X23720699Y-8250770D01*
X23815702Y-8145635D02*
X24008763Y-7942059D01*
X10261425Y-11525858D02*
X11028676Y-11755740D01*
X8249829Y-8162453D02*
X7910674Y-8212381D01*
X16213238Y-9012844D02*
X15602626Y-9001364D01*
X22969456Y-9554994D02*
X23014517Y-9409950D01*
X7335217Y-9968646D02*
X7485979Y-10122341D01*
X7485979Y-10122341D02*
X7663513Y-10274862D01*
X22771922Y-10059749D02*
X22784867Y-10034742D01*
X25116977Y-6771751D02*
X25117313Y-6769177D01*
X25117313Y-6769177D02*
X25117525Y-6766582D01*
X21144950Y-11571359D02*
X21383814Y-11435814D01*
X6798378Y-9300932D02*
X6799719Y-9305767D01*
X6799719Y-9305767D02*
X6801219Y-9310553D01*
X7052615Y-9604741D02*
X7069276Y-9623056D01*
X24288187Y-5989036D02*
X24285638Y-5988574D01*
X6828868Y-9358158D02*
X6833355Y-9363743D01*
X25117079Y-6756131D02*
X25116646Y-6753563D01*
X25100479Y-6724625D02*
X24313276Y-6001880D01*
X23167689Y-9023648D02*
X23228431Y-8911194D01*
X6797202Y-9296057D02*
X6798378Y-9300932D01*
X7020961Y-8471784D02*
X7015446Y-8474772D01*
X19571226Y-8588282D02*
X19269860Y-8665377D01*
X6984147Y-8502286D02*
X6982690Y-8504107D01*
X25111526Y-6738973D02*
X25110267Y-6736717D01*
X21820551Y-11140337D02*
X22017245Y-10981039D01*
X18967130Y-8734112D02*
X18663232Y-8794711D01*
X22831138Y-9939579D02*
X22841265Y-9916993D01*
X21985051Y-8053459D02*
X21925847Y-8067545D01*
X17176468Y-12485300D02*
X18046738Y-12423784D01*
X24277856Y-5987945D02*
X24275231Y-5987991D01*
X22808540Y-9987417D02*
X22819948Y-9963548D01*
X24313276Y-6001880D02*
X24311300Y-6000153D01*
X23447206Y-6885880D02*
X23237542Y-7121695D01*
X21383814Y-11435814D02*
X21609212Y-11292034D01*
X14732181Y-8946458D02*
X14135453Y-8886637D01*
X19769320Y-12114490D02*
X20066651Y-12024864D01*
X6804182Y-9201374D02*
X6801194Y-9214986D01*
X24238511Y-6005071D02*
X23718655Y-6571285D01*
X24275231Y-5987991D02*
X24272612Y-5988169D01*
X6990287Y-8495269D02*
X6988706Y-8496982D01*
X14474352Y-12394523D02*
X15380359Y-12467331D01*
X24199941Y-7749231D02*
X24548024Y-7404576D01*
X6794195Y-9263335D02*
X6794037Y-9269628D01*
X23132782Y-9096815D02*
X23144645Y-9071277D01*
X20169091Y-8408138D02*
X19871033Y-8502609D01*
X25111217Y-6788811D02*
X25112394Y-6786507D01*
X22898958Y-9771306D02*
X22923570Y-9699664D01*
X24246280Y-5998126D02*
X24244222Y-5999708D01*
X24280468Y-5988026D02*
X24277856Y-5987945D01*
X21854955Y-8079716D02*
X21842036Y-8081257D01*
X7129956Y-9694868D02*
X7137819Y-9705403D01*
X16284370Y-12498703D02*
X17176468Y-12485300D01*
X25108528Y-6793243D02*
X25109929Y-6791057D01*
X7069276Y-9623056D02*
X7088040Y-9644055D01*
X20893211Y-11698352D02*
X21144950Y-11571359D01*
X24008763Y-7942059D02*
X24199941Y-7749231D01*
X15444025Y-8994512D02*
X15338327Y-8989151D01*
X22044173Y-8035993D02*
X21985051Y-8053459D01*
X6801194Y-9214986D02*
X6798443Y-9229039D01*
X7005795Y-8481161D02*
X7003962Y-8482609D01*
X22760314Y-10081615D02*
X22771922Y-10059749D01*
X22198700Y-10814457D02*
X22364324Y-10640907D01*
X18052704Y-8892366D02*
X17746463Y-8929864D01*
X6958840Y-8555558D02*
X6954890Y-8569330D01*
X24300394Y-5993156D02*
X24298039Y-5992096D01*
X20465206Y-8304650D02*
X20169091Y-8408138D01*
X25114619Y-6746067D02*
X25113703Y-6743652D01*
X24248408Y-5996649D02*
X24246280Y-5998126D01*
X25110267Y-6736717D02*
X25108902Y-6734524D01*
X7079976Y-8450590D02*
X7066575Y-8454467D01*
X8344333Y-10721209D02*
X8909337Y-11005254D01*
X22337985Y-7902622D02*
X22220885Y-7964655D01*
X24293190Y-5990326D02*
X24290706Y-5989620D01*
X24262414Y-5990135D02*
X24259953Y-5990931D01*
X25114397Y-6781750D02*
X25115224Y-6779304D01*
X23452540Y-8576279D02*
X23538225Y-8466366D01*
X6973754Y-8517652D02*
X6970921Y-8523248D01*
X6976734Y-8512489D02*
X6973754Y-8517652D01*
X22569879Y-7748534D02*
X22454360Y-7830231D01*
X25115224Y-6779304D02*
X25115930Y-6776821D01*
X6965689Y-8535494D02*
X6963276Y-8542019D01*
X25109929Y-6791057D02*
X25111217Y-6788811D01*
X7104004Y-8444114D02*
X7079976Y-8450590D01*
X7477411Y-8340903D02*
X7464865Y-8345090D01*
X24264915Y-5989458D02*
X24262414Y-5990135D01*
X6996900Y-8488700D02*
X6995204Y-8490300D01*
X23071739Y-9243118D02*
X23081865Y-9216861D01*
X20614112Y-8249710D02*
X20589230Y-8258679D01*
X25116646Y-6753563D02*
X25116092Y-6751028D01*
X7039511Y-8463617D02*
X7033056Y-8466210D01*
X12976187Y-8730222D02*
X10836003Y-8372583D01*
X23720699Y-8250770D02*
X23815702Y-8145635D01*
X18989496Y-12292476D02*
X19041545Y-12282946D01*
X6960995Y-8548726D02*
X6958840Y-8555558D01*
X7137819Y-9705403D02*
X7145580Y-9716017D01*
X19269860Y-8665377D02*
X18967130Y-8734112D01*
X20353471Y-11925422D02*
X20629188Y-11816479D01*
X6795293Y-9250026D02*
X6794623Y-9256784D01*
X19145484Y-12263021D02*
X19462067Y-12193981D01*
X25103671Y-6799391D02*
X25105397Y-6797414D01*
X6963276Y-8542019D02*
X6960995Y-8548726D01*
X23702036Y-6589631D02*
X23683328Y-6610672D01*
X11028676Y-11755740D02*
X11843510Y-11960888D01*
X22863274Y-9865158D02*
X22872509Y-9842193D01*
X6804700Y-9319972D02*
X6807011Y-9325108D01*
X22454360Y-7830231D02*
X22337985Y-7902622D01*
X25105843Y-6730335D02*
X25104157Y-6728352D01*
X23237542Y-7121695D02*
X23129961Y-7237188D01*
X23122601Y-9119379D02*
X23132782Y-9096815D01*
X6812983Y-9335827D02*
X6816540Y-9341346D01*
X24255172Y-5992879D02*
X24252858Y-5994024D01*
X7212464Y-9814197D02*
X7335217Y-9968646D01*
X7046151Y-8461148D02*
X7039511Y-8463617D01*
X24302697Y-5994332D02*
X24300394Y-5993156D01*
X24298039Y-5992096D02*
X24295636Y-5991152D01*
X6796173Y-9243114D02*
X6795293Y-9250026D01*
X25115416Y-6748527D02*
X25114619Y-6746067D01*
X7350651Y-8378054D02*
X7104004Y-8444114D01*
X20903679Y-8175093D02*
X20804564Y-8195975D01*
X6824533Y-9352543D02*
X6828868Y-9358158D01*
X24311300Y-6000153D02*
X24309249Y-5998533D01*
X15380359Y-12467331D02*
X16284370Y-12498703D01*
X23664781Y-6631855D02*
X23648644Y-6650628D01*
X19462067Y-12193981D02*
X19769320Y-12114490D01*
X7066575Y-8454467D02*
X7052918Y-8458801D01*
X22364324Y-10640907D02*
X22513530Y-10460706D01*
X21772974Y-8087129D02*
X21761250Y-8087725D01*
X21708356Y-8089535D02*
X21655487Y-8091135D01*
X23020723Y-7349674D02*
X22909963Y-7458101D01*
X10836003Y-8372583D02*
X9878848Y-8229806D01*
X23081865Y-9216861D02*
X23092253Y-9190701D01*
X24270018Y-5988473D02*
X24267449Y-5988903D01*
D11*
D12*
X7347502Y-9408257D02*
X7367502Y-9428257D01*
X7367502Y-9408257D02*
X7347502Y-9428257D01*
X7489557Y-10009254D02*
X7509557Y-10029254D01*
X7509557Y-10009254D02*
X7489557Y-10029254D01*
X7784935Y-9268418D02*
X7804935Y-9288418D01*
X7804935Y-9268418D02*
X7784935Y-9288418D01*
X7896195Y-8605831D02*
X7916195Y-8625831D01*
X7916195Y-8605831D02*
X7896195Y-8625831D01*
X8047580Y-10439898D02*
X8067580Y-10459898D01*
X8067580Y-10439898D02*
X8047580Y-10459898D01*
X8180890Y-8830217D02*
X8200890Y-8850217D01*
X8200890Y-8830217D02*
X8180890Y-8850217D01*
X8327154Y-9937414D02*
X8347154Y-9957414D01*
X8347154Y-9937414D02*
X8327154Y-9957414D01*
X8771508Y-10463042D02*
X8791508Y-10483042D01*
X8791508Y-10463042D02*
X8771508Y-10483042D01*
X9205868Y-8962309D02*
X9225868Y-8982309D01*
X9225868Y-8962309D02*
X9205868Y-8982309D01*
X9508108Y-8960566D02*
X9528108Y-8980566D01*
X9528108Y-8960566D02*
X9508108Y-8980566D01*
X9616081Y-10839942D02*
X9636081Y-10859942D01*
X9636081Y-10839942D02*
X9616081Y-10859942D01*
X9734489Y-10545145D02*
X9754489Y-10565145D01*
X9754489Y-10545145D02*
X9734489Y-10565145D01*
X10556082Y-11169943D02*
X10576082Y-11189942D01*
X10576082Y-11169943D02*
X10556082Y-11189942D01*
X10779599Y-10868946D02*
X10799599Y-10888946D01*
X10799599Y-10868946D02*
X10779599Y-10888946D01*
X11181878Y-10963251D02*
X11201878Y-10983251D01*
X11201878Y-10963251D02*
X11181878Y-10983251D01*
X11213384Y-9605960D02*
X11233384Y-9625960D01*
X11233384Y-9605960D02*
X11213384Y-9625960D01*
X11493477Y-9891000D02*
X11513477Y-9911000D01*
X11513477Y-9891000D02*
X11493477Y-9911000D01*
X11511082Y-11444943D02*
X11531082Y-11464943D01*
X11531082Y-11444943D02*
X11511082Y-11464943D01*
X11686878Y-10078251D02*
X11706878Y-10098251D01*
X11706878Y-10078251D02*
X11686878Y-10098251D01*
X11709622Y-11296361D02*
X11729622Y-11316361D01*
X11729622Y-11296361D02*
X11709622Y-11316361D01*
X11866878Y-10653252D02*
X11886878Y-10673252D01*
X11886878Y-10653252D02*
X11866878Y-10673252D01*
X12371878Y-10663251D02*
X12391878Y-10683251D01*
X12391878Y-10663251D02*
X12371878Y-10683251D01*
X12621082Y-11684943D02*
X12641082Y-11704943D01*
X12641082Y-11684943D02*
X12621082Y-11704943D01*
X12886878Y-10393251D02*
X12906878Y-10413251D01*
X12906878Y-10393251D02*
X12886878Y-10413251D01*
X12900083Y-10752578D02*
X12920083Y-10772578D01*
X12920083Y-10752578D02*
X12900083Y-10772578D01*
X12911877Y-10133251D02*
X12931877Y-10153251D01*
X12931877Y-10133251D02*
X12911877Y-10153251D01*
X13208102Y-11801201D02*
X13228102Y-11821201D01*
X13228102Y-11801201D02*
X13208102Y-11821201D01*
X13284565Y-11893957D02*
X13304565Y-11913957D01*
X13304565Y-11893957D02*
X13284565Y-11913957D01*
X13365462Y-11114411D02*
X13385462Y-11134411D01*
X13385462Y-11114411D02*
X13365462Y-11134411D01*
X13376282Y-10652082D02*
X13396282Y-10672082D01*
X13396282Y-10652082D02*
X13376282Y-10672082D01*
X13403600Y-11940476D02*
X13423600Y-11960476D01*
X13423600Y-11940476D02*
X13403600Y-11960476D01*
X13461879Y-10443251D02*
X13481879Y-10463251D01*
X13481879Y-10443251D02*
X13461879Y-10463251D01*
X13463088Y-11613376D02*
X13483088Y-11633376D01*
X13483088Y-11613376D02*
X13463088Y-11633376D01*
X13471878Y-11493252D02*
X13491878Y-11513252D01*
X13491878Y-11493252D02*
X13471878Y-11513252D01*
X13506309Y-11864973D02*
X13526309Y-11884973D01*
X13526309Y-11864973D02*
X13506309Y-11884973D01*
X13537742Y-11620566D02*
X13557742Y-11640566D01*
X13557742Y-11620566D02*
X13537742Y-11640566D01*
X13661593Y-11056237D02*
X13681593Y-11076237D01*
X13681593Y-11056237D02*
X13661593Y-11076237D01*
X13683851Y-9823944D02*
X13703851Y-9843944D01*
X13703851Y-9823944D02*
X13683851Y-9843944D01*
X13737190Y-11063337D02*
X13757190Y-11083337D01*
X13757190Y-11063337D02*
X13737190Y-11083337D01*
X13810789Y-10367964D02*
X13830789Y-10387964D01*
X13830789Y-10367964D02*
X13810789Y-10387964D01*
X13864841Y-11267284D02*
X13884841Y-11287284D01*
X13884841Y-11267284D02*
X13864841Y-11287284D01*
X13878497Y-11750750D02*
X13898497Y-11770750D01*
X13898497Y-11750750D02*
X13878497Y-11770750D01*
X13910900Y-11456516D02*
X13930900Y-11476516D01*
X13930900Y-11456516D02*
X13910900Y-11476516D01*
X13946867Y-10802528D02*
X13966867Y-10822528D01*
X13966867Y-10802528D02*
X13946867Y-10822528D01*
X13976182Y-11780318D02*
X13996182Y-11800318D01*
X13996182Y-11780318D02*
X13976182Y-11800318D01*
X13990549Y-10274764D02*
X14010549Y-10294764D01*
X14010549Y-10274764D02*
X13990549Y-10294764D01*
X14008625Y-9938794D02*
X14028625Y-9958794D01*
X14028625Y-9938794D02*
X14008625Y-9958794D01*
X14016855Y-10731906D02*
X14036855Y-10751906D01*
X14036855Y-10731906D02*
X14016855Y-10751906D01*
X14042573Y-11429471D02*
X14062573Y-11449471D01*
X14062573Y-11429471D02*
X14042573Y-11449471D01*
X14047500Y-10997500D02*
X14067500Y-11017500D01*
X14067500Y-10997500D02*
X14047500Y-11017500D01*
X14076327Y-11161566D02*
X14096327Y-11181566D01*
X14096327Y-11161566D02*
X14076327Y-11181566D01*
X14135532Y-10711884D02*
X14155532Y-10731884D01*
X14155532Y-10711884D02*
X14135532Y-10731884D01*
X14195111Y-10761517D02*
X14215111Y-10781517D01*
X14215111Y-10761517D02*
X14195111Y-10781517D01*
X14200978Y-11043004D02*
X14220978Y-11063004D01*
X14220978Y-11043004D02*
X14200978Y-11063004D01*
X14227118Y-9800253D02*
X14247118Y-9820253D01*
X14247118Y-9800253D02*
X14227118Y-9820253D01*
X14254720Y-10695363D02*
X14274720Y-10715363D01*
X14274720Y-10695363D02*
X14254720Y-10715363D01*
X14279755Y-11783263D02*
X14299755Y-11803263D01*
X14299755Y-11783263D02*
X14279755Y-11803263D01*
X14316784Y-11198479D02*
X14336784Y-11218479D01*
X14336784Y-11198479D02*
X14316784Y-11218479D01*
X14332190Y-10697190D02*
X14352190Y-10717190D01*
X14352190Y-10697190D02*
X14332190Y-10717190D01*
X14333404Y-10287086D02*
X14353404Y-10307086D01*
X14353404Y-10287086D02*
X14333404Y-10307086D01*
X14339873Y-9931268D02*
X14359873Y-9951268D01*
X14359873Y-9931268D02*
X14339873Y-9951268D01*
X14340900Y-10773645D02*
X14360900Y-10793645D01*
X14360900Y-10773645D02*
X14340900Y-10793645D01*
X14354774Y-11790950D02*
X14374774Y-11810950D01*
X14374774Y-11790950D02*
X14354774Y-11810950D01*
X14361520Y-11046879D02*
X14381520Y-11066879D01*
X14381520Y-11046879D02*
X14361520Y-11066879D01*
X14411755Y-11169253D02*
X14431755Y-11189253D01*
X14431755Y-11169253D02*
X14411755Y-11189253D01*
X14419072Y-11544688D02*
X14439072Y-11564688D01*
X14439072Y-11544688D02*
X14419072Y-11564688D01*
X14425697Y-11874440D02*
X14445697Y-11894440D01*
X14445697Y-11874440D02*
X14425697Y-11894440D01*
X14427698Y-11455102D02*
X14447698Y-11475102D01*
X14447698Y-11455102D02*
X14427698Y-11475102D01*
X14429510Y-11796607D02*
X14449510Y-11816607D01*
X14449510Y-11796607D02*
X14429510Y-11816607D01*
X14470312Y-11001906D02*
X14490312Y-11021906D01*
X14490312Y-11001906D02*
X14470312Y-11021906D01*
X14492104Y-11516559D02*
X14512104Y-11536559D01*
X14512104Y-11516559D02*
X14492104Y-11536559D01*
X14548797Y-10746024D02*
X14568797Y-10766024D01*
X14568797Y-10746024D02*
X14548797Y-10766024D01*
X14555490Y-10671372D02*
X14575490Y-10691372D01*
X14575490Y-10671372D02*
X14555490Y-10691372D01*
X14563405Y-11558585D02*
X14583405Y-11578585D01*
X14583405Y-11558585D02*
X14563405Y-11578585D01*
X14572032Y-11468999D02*
X14592032Y-11488999D01*
X14592032Y-11468999D02*
X14572032Y-11488999D01*
X14637536Y-10475705D02*
X14657536Y-10495705D01*
X14657536Y-10475705D02*
X14637536Y-10495705D01*
X14662583Y-10720199D02*
X14682583Y-10740199D01*
X14682583Y-10720199D02*
X14662583Y-10740199D01*
X14681877Y-11853252D02*
X14701877Y-11873252D01*
X14701877Y-11853252D02*
X14681877Y-11873252D01*
X14695709Y-11454639D02*
X14715709Y-11474639D01*
X14715709Y-11454639D02*
X14695709Y-11474639D01*
X14700495Y-11352772D02*
X14720495Y-11372772D01*
X14720495Y-11352772D02*
X14700495Y-11372772D01*
X14715755Y-10558901D02*
X14735755Y-10578901D01*
X14735755Y-10558901D02*
X14715755Y-10578901D01*
X14719883Y-11532262D02*
X14739883Y-11552262D01*
X14739883Y-11532262D02*
X14719883Y-11552262D01*
X14826586Y-10338192D02*
X14846586Y-10358192D01*
X14846586Y-10338192D02*
X14826586Y-10358192D01*
X14841745Y-11586629D02*
X14861745Y-11606629D01*
X14861745Y-11586629D02*
X14841745Y-11606629D01*
X14876843Y-11314574D02*
X14896843Y-11334574D01*
X14896843Y-11314574D02*
X14876843Y-11334574D01*
X14879276Y-10742071D02*
X14899276Y-10762071D01*
X14899276Y-10742071D02*
X14879276Y-10762071D01*
X14935320Y-11082741D02*
X14955320Y-11102741D01*
X14955320Y-11082741D02*
X14935320Y-11102741D01*
X14944426Y-10988177D02*
X14964426Y-11008177D01*
X14964426Y-10988177D02*
X14944426Y-11008177D01*
X14953051Y-10898593D02*
X14973051Y-10918593D01*
X14973051Y-10898593D02*
X14953051Y-10918593D01*
X14976953Y-10734428D02*
X14996953Y-10754428D01*
X14996953Y-10734428D02*
X14976953Y-10754428D01*
X14981977Y-10658063D02*
X15001977Y-10678063D01*
X15001977Y-10658063D02*
X14981977Y-10678063D01*
X15214686Y-11159168D02*
X15234686Y-11179168D01*
X15234686Y-11159168D02*
X15214686Y-11179168D01*
X15245080Y-12059536D02*
X15265080Y-12079536D01*
X15265080Y-12059536D02*
X15245080Y-12079536D01*
X15290917Y-11137821D02*
X15310917Y-11157821D01*
X15310917Y-11137821D02*
X15290917Y-11157821D01*
X15316402Y-11354817D02*
X15336402Y-11374817D01*
X15336402Y-11354817D02*
X15316402Y-11374817D01*
X15325467Y-11276672D02*
X15345467Y-11296672D01*
X15345467Y-11276672D02*
X15325467Y-11296672D01*
X15372316Y-9884647D02*
X15392316Y-9904647D01*
X15392316Y-9884647D02*
X15372316Y-9904647D01*
X15561679Y-12061906D02*
X15581679Y-12081906D01*
X15581679Y-12061906D02*
X15561679Y-12081906D01*
X15601877Y-11793252D02*
X15621877Y-11813252D01*
X15621877Y-11793252D02*
X15601877Y-11813252D01*
X15765900Y-12006516D02*
X15785900Y-12026516D01*
X15785900Y-12006516D02*
X15765900Y-12026516D01*
X15870104Y-10666013D02*
X15890104Y-10686013D01*
X15890104Y-10666013D02*
X15870104Y-10686013D01*
X15925900Y-12181516D02*
X15945900Y-12201516D01*
X15945900Y-12181516D02*
X15925900Y-12201516D01*
X15934704Y-10881951D02*
X15954704Y-10901951D01*
X15954704Y-10881951D02*
X15934704Y-10901951D01*
X16051580Y-11989920D02*
X16071580Y-12009920D01*
X16071580Y-11989920D02*
X16051580Y-12009920D01*
X16111140Y-11178985D02*
X16131140Y-11198985D01*
X16131140Y-11178985D02*
X16111140Y-11198985D01*
X16125342Y-11040955D02*
X16145342Y-11060955D01*
X16145342Y-11040955D02*
X16125342Y-11060955D01*
X16128205Y-11986247D02*
X16148205Y-12006247D01*
X16148205Y-11986247D02*
X16128205Y-12006247D01*
X16198905Y-11904398D02*
X16218905Y-11924398D01*
X16218905Y-11904398D02*
X16198905Y-11924398D01*
X16202828Y-11979246D02*
X16222828Y-11999246D01*
X16222828Y-11979246D02*
X16202828Y-11999246D01*
X16322418Y-10006328D02*
X16342418Y-10026328D01*
X16342418Y-10006328D02*
X16322418Y-10026328D01*
X16513779Y-12077099D02*
X16533779Y-12097099D01*
X16533779Y-12077099D02*
X16513779Y-12097099D01*
X16518345Y-12187009D02*
X16538345Y-12207009D01*
X16538345Y-12187009D02*
X16518345Y-12207009D01*
X16554723Y-11947806D02*
X16574723Y-11967806D01*
X16574723Y-11947806D02*
X16554723Y-11967806D01*
X16607450Y-12001074D02*
X16627450Y-12021074D01*
X16627450Y-12001074D02*
X16607450Y-12021074D01*
X16870935Y-11800916D02*
X16890935Y-11820916D01*
X16890935Y-11800916D02*
X16870935Y-11820916D01*
X17109025Y-11029042D02*
X17129025Y-11049042D01*
X17129025Y-11029042D02*
X17109025Y-11049042D01*
X17146181Y-11096362D02*
X17166181Y-11116362D01*
X17166181Y-11096362D02*
X17146181Y-11116362D01*
X17204190Y-11677239D02*
X17224190Y-11697239D01*
X17224190Y-11677239D02*
X17204190Y-11697239D01*
X17212620Y-11313181D02*
X17232620Y-11333181D01*
X17232620Y-11313181D02*
X17212620Y-11333181D01*
X17241878Y-10651252D02*
X17261878Y-10671252D01*
X17261878Y-10651252D02*
X17241878Y-10671252D01*
X17305756Y-11561441D02*
X17325756Y-11581441D01*
X17325756Y-11561441D02*
X17305756Y-11581441D01*
X17314532Y-11783304D02*
X17334532Y-11803304D01*
X17334532Y-11783304D02*
X17314532Y-11803304D01*
X17325062Y-9875236D02*
X17345062Y-9895236D01*
X17345062Y-9875236D02*
X17325062Y-9895236D01*
X17426052Y-11668464D02*
X17446052Y-11688464D01*
X17446052Y-11668464D02*
X17426052Y-11688464D01*
X17579713Y-9861891D02*
X17599713Y-9881891D01*
X17599713Y-9861891D02*
X17579713Y-9881891D01*
X17698678Y-11541345D02*
X17718678Y-11561345D01*
X17718678Y-11541345D02*
X17698678Y-11561345D01*
X17751800Y-11461169D02*
X17771800Y-11481169D01*
X17771800Y-11461169D02*
X17751800Y-11481169D01*
X17760985Y-9793694D02*
X17780985Y-9813694D01*
X17780985Y-9793694D02*
X17760985Y-9813694D01*
X17774128Y-11071049D02*
X17794128Y-11091049D01*
X17794128Y-11071049D02*
X17774128Y-11091049D01*
X17849977Y-11067074D02*
X17869977Y-11087074D01*
X17869977Y-11067074D02*
X17849977Y-11087074D01*
X17926298Y-11063074D02*
X17946298Y-11083074D01*
X17946298Y-11063074D02*
X17926298Y-11083074D01*
X17949745Y-12176270D02*
X17969745Y-12196270D01*
X17969745Y-12176270D02*
X17949745Y-12196270D01*
X18377893Y-10387222D02*
X18397893Y-10407222D01*
X18397893Y-10387222D02*
X18377893Y-10407222D01*
X18409583Y-10963462D02*
X18429583Y-10983462D01*
X18429583Y-10963462D02*
X18409583Y-10983462D01*
X18503341Y-11373252D02*
X18523341Y-11393252D01*
X18523341Y-11373252D02*
X18503341Y-11393252D01*
X18533932Y-11836041D02*
X18553932Y-11856041D01*
X18553932Y-11836041D02*
X18533932Y-11856041D01*
X18704110Y-11368508D02*
X18724110Y-11388508D01*
X18724110Y-11368508D02*
X18704110Y-11388508D01*
X18779057Y-11364579D02*
X18799057Y-11384579D01*
X18799057Y-11364579D02*
X18779057Y-11384579D01*
X18853904Y-11360658D02*
X18873904Y-11380658D01*
X18873904Y-11360658D02*
X18853904Y-11380658D01*
X19554166Y-10591502D02*
X19574166Y-10611502D01*
X19574166Y-10591502D02*
X19554166Y-10611502D01*
X19627204Y-10979133D02*
X19647204Y-10999133D01*
X19647204Y-10979133D02*
X19627204Y-10999133D01*
X23985308Y-7026682D02*
X24005308Y-7046682D01*
X24005308Y-7026682D02*
X23985308Y-7046682D01*
X24098446Y-7133251D02*
X24118446Y-7153251D01*
X24118446Y-7133251D02*
X24098446Y-7153251D01*
X24331878Y-7313252D02*
X24351878Y-7333252D01*
X24351878Y-7313252D02*
X24331878Y-7333252D01*
D13*
X12866032Y-11470473D02*
G75*
G03*
X12866032Y-11470473I-30000J0D01*
G01*
X13062994Y-11505203D02*
G75*
G03*
X13062994Y-11505203I-30000J0D01*
G01*
D14*
X12114908Y-11303320D02*
X12114908Y-11383320D01*
X12074908Y-11343320D02*
X12154908Y-11343320D01*
X12361109Y-11346732D02*
X12361109Y-11426732D01*
X12321109Y-11386732D02*
X12401109Y-11386732D01*
D15*
X8006370Y-9671892D02*
X8006370Y-9608251D01*
X7942730Y-9608251D01*
X7942730Y-9671892D01*
X8006370Y-9671892D01*
X8078510Y-9428351D02*
X8078510Y-9364711D01*
X8014870Y-9364711D01*
X8014870Y-9428351D01*
X8078510Y-9428351D01*
X8563238Y-9731042D02*
X8563238Y-9667402D01*
X8499598Y-9667402D01*
X8499598Y-9731042D01*
X8563238Y-9731042D01*
X8635378Y-9487502D02*
X8635378Y-9423862D01*
X8571738Y-9423862D01*
X8571738Y-9487502D01*
X8635378Y-9487502D01*
X9388402Y-9818856D02*
X9388402Y-9755216D01*
X9324762Y-9755216D01*
X9324762Y-9818856D01*
X9388402Y-9818856D01*
X9460542Y-9575316D02*
X9460542Y-9511676D01*
X9396902Y-9511676D01*
X9396902Y-9575316D01*
X9460542Y-9575316D01*
X21630596Y-10327370D02*
X21630596Y-10263730D01*
X21566956Y-10263730D01*
X21566956Y-10327370D01*
X21630596Y-10327370D01*
X22321203Y-10005335D02*
X22321203Y-9941695D01*
X22257563Y-9941695D01*
X22257563Y-10005335D01*
X22321203Y-10005335D01*
D11*
X7042314Y-12822687D02*
X7042314Y-12622687D01*
X7042314Y-12622687D02*
X7089933Y-12622687D01*
X7089933Y-12622687D02*
X7118505Y-12632210D01*
X7118505Y-12632210D02*
X7137552Y-12651258D01*
X7137552Y-12651258D02*
X7147076Y-12670306D01*
X7147076Y-12670306D02*
X7156600Y-12708401D01*
X7156600Y-12708401D02*
X7156600Y-12736972D01*
X7156600Y-12736972D02*
X7147076Y-12775068D01*
X7147076Y-12775068D02*
X7137552Y-12794115D01*
X7137552Y-12794115D02*
X7118505Y-12813163D01*
X7118505Y-12813163D02*
X7089933Y-12822687D01*
X7089933Y-12822687D02*
X7042314Y-12822687D01*
X7242314Y-12822687D02*
X7242314Y-12689353D01*
X7242314Y-12727449D02*
X7251838Y-12708401D01*
X7251838Y-12708401D02*
X7261362Y-12698877D01*
X7261362Y-12698877D02*
X7280409Y-12689353D01*
X7280409Y-12689353D02*
X7299457Y-12689353D01*
X7366124Y-12822687D02*
X7366124Y-12689353D01*
X7366124Y-12622687D02*
X7356600Y-12632210D01*
X7356600Y-12632210D02*
X7366124Y-12641734D01*
X7366124Y-12641734D02*
X7375648Y-12632210D01*
X7375648Y-12632210D02*
X7366124Y-12622687D01*
X7366124Y-12622687D02*
X7366124Y-12641734D01*
X7489933Y-12822687D02*
X7470886Y-12813163D01*
X7470886Y-12813163D02*
X7461362Y-12794115D01*
X7461362Y-12794115D02*
X7461362Y-12622687D01*
X7594695Y-12822687D02*
X7575648Y-12813163D01*
X7575648Y-12813163D02*
X7566124Y-12794115D01*
X7566124Y-12794115D02*
X7566124Y-12622687D01*
X7823267Y-12822687D02*
X7823267Y-12622687D01*
X7823267Y-12622687D02*
X7889933Y-12765544D01*
X7889933Y-12765544D02*
X7956600Y-12622687D01*
X7956600Y-12622687D02*
X7956600Y-12822687D01*
X8137552Y-12822687D02*
X8137552Y-12717925D01*
X8137552Y-12717925D02*
X8128029Y-12698877D01*
X8128029Y-12698877D02*
X8108981Y-12689353D01*
X8108981Y-12689353D02*
X8070886Y-12689353D01*
X8070886Y-12689353D02*
X8051838Y-12698877D01*
X8137552Y-12813163D02*
X8118505Y-12822687D01*
X8118505Y-12822687D02*
X8070886Y-12822687D01*
X8070886Y-12822687D02*
X8051838Y-12813163D01*
X8051838Y-12813163D02*
X8042314Y-12794115D01*
X8042314Y-12794115D02*
X8042314Y-12775068D01*
X8042314Y-12775068D02*
X8051838Y-12756020D01*
X8051838Y-12756020D02*
X8070886Y-12746496D01*
X8070886Y-12746496D02*
X8118505Y-12746496D01*
X8118505Y-12746496D02*
X8137552Y-12736972D01*
X8232790Y-12689353D02*
X8232790Y-12889353D01*
X8232790Y-12698877D02*
X8251838Y-12689353D01*
X8251838Y-12689353D02*
X8289933Y-12689353D01*
X8289933Y-12689353D02*
X8308981Y-12698877D01*
X8308981Y-12698877D02*
X8318505Y-12708401D01*
X8318505Y-12708401D02*
X8328029Y-12727449D01*
X8328029Y-12727449D02*
X8328029Y-12784591D01*
X8328029Y-12784591D02*
X8318505Y-12803639D01*
X8318505Y-12803639D02*
X8308981Y-12813163D01*
X8308981Y-12813163D02*
X8289933Y-12822687D01*
X8289933Y-12822687D02*
X8251838Y-12822687D01*
X8251838Y-12822687D02*
X8232790Y-12813163D01*
X8413743Y-12803639D02*
X8423267Y-12813163D01*
X8423267Y-12813163D02*
X8413743Y-12822687D01*
X8413743Y-12822687D02*
X8404219Y-12813163D01*
X8404219Y-12813163D02*
X8413743Y-12803639D01*
X8413743Y-12803639D02*
X8413743Y-12822687D01*
X8413743Y-12698877D02*
X8423267Y-12708401D01*
X8423267Y-12708401D02*
X8413743Y-12717925D01*
X8413743Y-12717925D02*
X8404219Y-12708401D01*
X8404219Y-12708401D02*
X8413743Y-12698877D01*
X8413743Y-12698877D02*
X8413743Y-12717925D01*
D12*
X6761537Y-13141203D02*
X6781537Y-13161203D01*
X6781537Y-13141203D02*
X6761537Y-13161203D01*
D11*
X7080409Y-13042687D02*
X7099457Y-13042687D01*
X7099457Y-13042687D02*
X7118505Y-13052210D01*
X7118505Y-13052210D02*
X7128029Y-13061734D01*
X7128029Y-13061734D02*
X7137552Y-13080782D01*
X7137552Y-13080782D02*
X7147076Y-13118877D01*
X7147076Y-13118877D02*
X7147076Y-13166496D01*
X7147076Y-13166496D02*
X7137552Y-13204591D01*
X7137552Y-13204591D02*
X7128029Y-13223639D01*
X7128029Y-13223639D02*
X7118505Y-13233163D01*
X7118505Y-13233163D02*
X7099457Y-13242687D01*
X7099457Y-13242687D02*
X7080409Y-13242687D01*
X7080409Y-13242687D02*
X7061362Y-13233163D01*
X7061362Y-13233163D02*
X7051838Y-13223639D01*
X7051838Y-13223639D02*
X7042314Y-13204591D01*
X7042314Y-13204591D02*
X7032790Y-13166496D01*
X7032790Y-13166496D02*
X7032790Y-13118877D01*
X7032790Y-13118877D02*
X7042314Y-13080782D01*
X7042314Y-13080782D02*
X7051838Y-13061734D01*
X7051838Y-13061734D02*
X7061362Y-13052210D01*
X7061362Y-13052210D02*
X7080409Y-13042687D01*
X7232790Y-13223639D02*
X7242314Y-13233163D01*
X7242314Y-13233163D02*
X7232790Y-13242687D01*
X7232790Y-13242687D02*
X7223267Y-13233163D01*
X7223267Y-13233163D02*
X7232790Y-13223639D01*
X7232790Y-13223639D02*
X7232790Y-13242687D01*
X7318505Y-13061734D02*
X7328029Y-13052210D01*
X7328029Y-13052210D02*
X7347076Y-13042687D01*
X7347076Y-13042687D02*
X7394695Y-13042687D01*
X7394695Y-13042687D02*
X7413743Y-13052210D01*
X7413743Y-13052210D02*
X7423267Y-13061734D01*
X7423267Y-13061734D02*
X7432790Y-13080782D01*
X7432790Y-13080782D02*
X7432790Y-13099829D01*
X7432790Y-13099829D02*
X7423267Y-13128401D01*
X7423267Y-13128401D02*
X7308981Y-13242687D01*
X7308981Y-13242687D02*
X7432790Y-13242687D01*
X7556600Y-13042687D02*
X7575648Y-13042687D01*
X7575648Y-13042687D02*
X7594695Y-13052210D01*
X7594695Y-13052210D02*
X7604219Y-13061734D01*
X7604219Y-13061734D02*
X7613743Y-13080782D01*
X7613743Y-13080782D02*
X7623267Y-13118877D01*
X7623267Y-13118877D02*
X7623267Y-13166496D01*
X7623267Y-13166496D02*
X7613743Y-13204591D01*
X7613743Y-13204591D02*
X7604219Y-13223639D01*
X7604219Y-13223639D02*
X7594695Y-13233163D01*
X7594695Y-13233163D02*
X7575648Y-13242687D01*
X7575648Y-13242687D02*
X7556600Y-13242687D01*
X7556600Y-13242687D02*
X7537552Y-13233163D01*
X7537552Y-13233163D02*
X7528029Y-13223639D01*
X7528029Y-13223639D02*
X7518505Y-13204591D01*
X7518505Y-13204591D02*
X7508981Y-13166496D01*
X7508981Y-13166496D02*
X7508981Y-13118877D01*
X7508981Y-13118877D02*
X7518505Y-13080782D01*
X7518505Y-13080782D02*
X7528029Y-13061734D01*
X7528029Y-13061734D02*
X7537552Y-13052210D01*
X7537552Y-13052210D02*
X7556600Y-13042687D01*
X7747076Y-13042687D02*
X7766124Y-13042687D01*
X7766124Y-13042687D02*
X7785171Y-13052210D01*
X7785171Y-13052210D02*
X7794695Y-13061734D01*
X7794695Y-13061734D02*
X7804219Y-13080782D01*
X7804219Y-13080782D02*
X7813743Y-13118877D01*
X7813743Y-13118877D02*
X7813743Y-13166496D01*
X7813743Y-13166496D02*
X7804219Y-13204591D01*
X7804219Y-13204591D02*
X7794695Y-13223639D01*
X7794695Y-13223639D02*
X7785171Y-13233163D01*
X7785171Y-13233163D02*
X7766124Y-13242687D01*
X7766124Y-13242687D02*
X7747076Y-13242687D01*
X7747076Y-13242687D02*
X7728029Y-13233163D01*
X7728029Y-13233163D02*
X7718505Y-13223639D01*
X7718505Y-13223639D02*
X7708981Y-13204591D01*
X7708981Y-13204591D02*
X7699457Y-13166496D01*
X7699457Y-13166496D02*
X7699457Y-13118877D01*
X7699457Y-13118877D02*
X7708981Y-13080782D01*
X7708981Y-13080782D02*
X7718505Y-13061734D01*
X7718505Y-13061734D02*
X7728029Y-13052210D01*
X7728029Y-13052210D02*
X7747076Y-13042687D01*
X7899457Y-13242687D02*
X7899457Y-13109353D01*
X7899457Y-13128401D02*
X7908981Y-13118877D01*
X7908981Y-13118877D02*
X7928029Y-13109353D01*
X7928029Y-13109353D02*
X7956600Y-13109353D01*
X7956600Y-13109353D02*
X7975648Y-13118877D01*
X7975648Y-13118877D02*
X7985171Y-13137925D01*
X7985171Y-13137925D02*
X7985171Y-13242687D01*
X7985171Y-13137925D02*
X7994695Y-13118877D01*
X7994695Y-13118877D02*
X8013743Y-13109353D01*
X8013743Y-13109353D02*
X8042314Y-13109353D01*
X8042314Y-13109353D02*
X8061362Y-13118877D01*
X8061362Y-13118877D02*
X8070886Y-13137925D01*
X8070886Y-13137925D02*
X8070886Y-13242687D01*
X8166124Y-13242687D02*
X8166124Y-13109353D01*
X8166124Y-13128401D02*
X8175648Y-13118877D01*
X8175648Y-13118877D02*
X8194695Y-13109353D01*
X8194695Y-13109353D02*
X8223267Y-13109353D01*
X8223267Y-13109353D02*
X8242314Y-13118877D01*
X8242314Y-13118877D02*
X8251838Y-13137925D01*
X8251838Y-13137925D02*
X8251838Y-13242687D01*
X8251838Y-13137925D02*
X8261362Y-13118877D01*
X8261362Y-13118877D02*
X8280410Y-13109353D01*
X8280410Y-13109353D02*
X8308981Y-13109353D01*
X8308981Y-13109353D02*
X8328029Y-13118877D01*
X8328029Y-13118877D02*
X8337552Y-13137925D01*
X8337552Y-13137925D02*
X8337552Y-13242687D01*
X8728029Y-13033163D02*
X8556600Y-13290306D01*
X8985172Y-13042687D02*
X9004219Y-13042687D01*
X9004219Y-13042687D02*
X9023267Y-13052210D01*
X9023267Y-13052210D02*
X9032791Y-13061734D01*
X9032791Y-13061734D02*
X9042315Y-13080782D01*
X9042315Y-13080782D02*
X9051838Y-13118877D01*
X9051838Y-13118877D02*
X9051838Y-13166496D01*
X9051838Y-13166496D02*
X9042315Y-13204591D01*
X9042315Y-13204591D02*
X9032791Y-13223639D01*
X9032791Y-13223639D02*
X9023267Y-13233163D01*
X9023267Y-13233163D02*
X9004219Y-13242687D01*
X9004219Y-13242687D02*
X8985172Y-13242687D01*
X8985172Y-13242687D02*
X8966124Y-13233163D01*
X8966124Y-13233163D02*
X8956600Y-13223639D01*
X8956600Y-13223639D02*
X8947076Y-13204591D01*
X8947076Y-13204591D02*
X8937553Y-13166496D01*
X8937553Y-13166496D02*
X8937553Y-13118877D01*
X8937553Y-13118877D02*
X8947076Y-13080782D01*
X8947076Y-13080782D02*
X8956600Y-13061734D01*
X8956600Y-13061734D02*
X8966124Y-13052210D01*
X8966124Y-13052210D02*
X8985172Y-13042687D01*
X9137553Y-13223639D02*
X9147076Y-13233163D01*
X9147076Y-13233163D02*
X9137553Y-13242687D01*
X9137553Y-13242687D02*
X9128029Y-13233163D01*
X9128029Y-13233163D02*
X9137553Y-13223639D01*
X9137553Y-13223639D02*
X9137553Y-13242687D01*
X9270886Y-13042687D02*
X9289934Y-13042687D01*
X9289934Y-13042687D02*
X9308981Y-13052210D01*
X9308981Y-13052210D02*
X9318505Y-13061734D01*
X9318505Y-13061734D02*
X9328029Y-13080782D01*
X9328029Y-13080782D02*
X9337553Y-13118877D01*
X9337553Y-13118877D02*
X9337553Y-13166496D01*
X9337553Y-13166496D02*
X9328029Y-13204591D01*
X9328029Y-13204591D02*
X9318505Y-13223639D01*
X9318505Y-13223639D02*
X9308981Y-13233163D01*
X9308981Y-13233163D02*
X9289934Y-13242687D01*
X9289934Y-13242687D02*
X9270886Y-13242687D01*
X9270886Y-13242687D02*
X9251838Y-13233163D01*
X9251838Y-13233163D02*
X9242315Y-13223639D01*
X9242315Y-13223639D02*
X9232791Y-13204591D01*
X9232791Y-13204591D02*
X9223267Y-13166496D01*
X9223267Y-13166496D02*
X9223267Y-13118877D01*
X9223267Y-13118877D02*
X9232791Y-13080782D01*
X9232791Y-13080782D02*
X9242315Y-13061734D01*
X9242315Y-13061734D02*
X9251838Y-13052210D01*
X9251838Y-13052210D02*
X9270886Y-13042687D01*
X9461362Y-13042687D02*
X9480410Y-13042687D01*
X9480410Y-13042687D02*
X9499457Y-13052210D01*
X9499457Y-13052210D02*
X9508981Y-13061734D01*
X9508981Y-13061734D02*
X9518505Y-13080782D01*
X9518505Y-13080782D02*
X9528029Y-13118877D01*
X9528029Y-13118877D02*
X9528029Y-13166496D01*
X9528029Y-13166496D02*
X9518505Y-13204591D01*
X9518505Y-13204591D02*
X9508981Y-13223639D01*
X9508981Y-13223639D02*
X9499457Y-13233163D01*
X9499457Y-13233163D02*
X9480410Y-13242687D01*
X9480410Y-13242687D02*
X9461362Y-13242687D01*
X9461362Y-13242687D02*
X9442315Y-13233163D01*
X9442315Y-13233163D02*
X9432791Y-13223639D01*
X9432791Y-13223639D02*
X9423267Y-13204591D01*
X9423267Y-13204591D02*
X9413743Y-13166496D01*
X9413743Y-13166496D02*
X9413743Y-13118877D01*
X9413743Y-13118877D02*
X9423267Y-13080782D01*
X9423267Y-13080782D02*
X9432791Y-13061734D01*
X9432791Y-13061734D02*
X9442315Y-13052210D01*
X9442315Y-13052210D02*
X9461362Y-13042687D01*
X9594696Y-13042687D02*
X9728029Y-13042687D01*
X9728029Y-13042687D02*
X9642315Y-13242687D01*
X9813743Y-13242687D02*
X9851838Y-13242687D01*
X9851838Y-13242687D02*
X9870886Y-13233163D01*
X9870886Y-13233163D02*
X9880410Y-13223639D01*
X9880410Y-13223639D02*
X9899457Y-13195068D01*
X9899457Y-13195068D02*
X9908981Y-13156972D01*
X9908981Y-13156972D02*
X9908981Y-13080782D01*
X9908981Y-13080782D02*
X9899457Y-13061734D01*
X9899457Y-13061734D02*
X9889934Y-13052210D01*
X9889934Y-13052210D02*
X9870886Y-13042687D01*
X9870886Y-13042687D02*
X9832791Y-13042687D01*
X9832791Y-13042687D02*
X9813743Y-13052210D01*
X9813743Y-13052210D02*
X9804219Y-13061734D01*
X9804219Y-13061734D02*
X9794696Y-13080782D01*
X9794696Y-13080782D02*
X9794696Y-13128401D01*
X9794696Y-13128401D02*
X9804219Y-13147449D01*
X9804219Y-13147449D02*
X9813743Y-13156972D01*
X9813743Y-13156972D02*
X9832791Y-13166496D01*
X9832791Y-13166496D02*
X9870886Y-13166496D01*
X9870886Y-13166496D02*
X9889934Y-13156972D01*
X9889934Y-13156972D02*
X9899457Y-13147449D01*
X9899457Y-13147449D02*
X9908981Y-13128401D01*
X9985172Y-13042687D02*
X9985172Y-13080782D01*
X10061362Y-13042687D02*
X10061362Y-13080782D01*
X10356600Y-13318877D02*
X10347077Y-13309353D01*
X10347077Y-13309353D02*
X10328029Y-13280782D01*
X10328029Y-13280782D02*
X10318505Y-13261734D01*
X10318505Y-13261734D02*
X10308981Y-13233163D01*
X10308981Y-13233163D02*
X10299458Y-13185544D01*
X10299458Y-13185544D02*
X10299458Y-13147449D01*
X10299458Y-13147449D02*
X10308981Y-13099829D01*
X10308981Y-13099829D02*
X10318505Y-13071258D01*
X10318505Y-13071258D02*
X10328029Y-13052210D01*
X10328029Y-13052210D02*
X10347077Y-13023639D01*
X10347077Y-13023639D02*
X10356600Y-13014115D01*
X10537553Y-13242687D02*
X10423267Y-13242687D01*
X10480410Y-13242687D02*
X10480410Y-13042687D01*
X10480410Y-13042687D02*
X10461362Y-13071258D01*
X10461362Y-13071258D02*
X10442315Y-13090306D01*
X10442315Y-13090306D02*
X10423267Y-13099829D01*
X10708981Y-13109353D02*
X10708981Y-13242687D01*
X10661362Y-13033163D02*
X10613743Y-13176020D01*
X10613743Y-13176020D02*
X10737553Y-13176020D01*
X10899458Y-13109353D02*
X10899458Y-13242687D01*
X10851838Y-13033163D02*
X10804219Y-13176020D01*
X10804219Y-13176020D02*
X10928029Y-13176020D01*
X11156600Y-13242687D02*
X11156600Y-13042687D01*
X11242315Y-13242687D02*
X11242315Y-13137925D01*
X11242315Y-13137925D02*
X11232791Y-13118877D01*
X11232791Y-13118877D02*
X11213743Y-13109353D01*
X11213743Y-13109353D02*
X11185172Y-13109353D01*
X11185172Y-13109353D02*
X11166124Y-13118877D01*
X11166124Y-13118877D02*
X11156600Y-13128401D01*
X11366124Y-13242687D02*
X11347077Y-13233163D01*
X11347077Y-13233163D02*
X11337553Y-13223639D01*
X11337553Y-13223639D02*
X11328029Y-13204591D01*
X11328029Y-13204591D02*
X11328029Y-13147449D01*
X11328029Y-13147449D02*
X11337553Y-13128401D01*
X11337553Y-13128401D02*
X11347077Y-13118877D01*
X11347077Y-13118877D02*
X11366124Y-13109353D01*
X11366124Y-13109353D02*
X11394696Y-13109353D01*
X11394696Y-13109353D02*
X11413743Y-13118877D01*
X11413743Y-13118877D02*
X11423267Y-13128401D01*
X11423267Y-13128401D02*
X11432791Y-13147449D01*
X11432791Y-13147449D02*
X11432791Y-13204591D01*
X11432791Y-13204591D02*
X11423267Y-13223639D01*
X11423267Y-13223639D02*
X11413743Y-13233163D01*
X11413743Y-13233163D02*
X11394696Y-13242687D01*
X11394696Y-13242687D02*
X11366124Y-13242687D01*
X11547077Y-13242687D02*
X11528029Y-13233163D01*
X11528029Y-13233163D02*
X11518505Y-13214115D01*
X11518505Y-13214115D02*
X11518505Y-13042687D01*
X11699458Y-13233163D02*
X11680410Y-13242687D01*
X11680410Y-13242687D02*
X11642315Y-13242687D01*
X11642315Y-13242687D02*
X11623267Y-13233163D01*
X11623267Y-13233163D02*
X11613743Y-13214115D01*
X11613743Y-13214115D02*
X11613743Y-13137925D01*
X11613743Y-13137925D02*
X11623267Y-13118877D01*
X11623267Y-13118877D02*
X11642315Y-13109353D01*
X11642315Y-13109353D02*
X11680410Y-13109353D01*
X11680410Y-13109353D02*
X11699458Y-13118877D01*
X11699458Y-13118877D02*
X11708981Y-13137925D01*
X11708981Y-13137925D02*
X11708981Y-13156972D01*
X11708981Y-13156972D02*
X11613743Y-13176020D01*
X11785172Y-13233163D02*
X11804219Y-13242687D01*
X11804219Y-13242687D02*
X11842315Y-13242687D01*
X11842315Y-13242687D02*
X11861362Y-13233163D01*
X11861362Y-13233163D02*
X11870886Y-13214115D01*
X11870886Y-13214115D02*
X11870886Y-13204591D01*
X11870886Y-13204591D02*
X11861362Y-13185544D01*
X11861362Y-13185544D02*
X11842315Y-13176020D01*
X11842315Y-13176020D02*
X11813743Y-13176020D01*
X11813743Y-13176020D02*
X11794696Y-13166496D01*
X11794696Y-13166496D02*
X11785172Y-13147449D01*
X11785172Y-13147449D02*
X11785172Y-13137925D01*
X11785172Y-13137925D02*
X11794696Y-13118877D01*
X11794696Y-13118877D02*
X11813743Y-13109353D01*
X11813743Y-13109353D02*
X11842315Y-13109353D01*
X11842315Y-13109353D02*
X11861362Y-13118877D01*
X11937553Y-13318877D02*
X11947077Y-13309353D01*
X11947077Y-13309353D02*
X11966124Y-13280782D01*
X11966124Y-13280782D02*
X11975648Y-13261734D01*
X11975648Y-13261734D02*
X11985172Y-13233163D01*
X11985172Y-13233163D02*
X11994696Y-13185544D01*
X11994696Y-13185544D02*
X11994696Y-13147449D01*
X11994696Y-13147449D02*
X11985172Y-13099829D01*
X11985172Y-13099829D02*
X11975648Y-13071258D01*
X11975648Y-13071258D02*
X11966124Y-13052210D01*
X11966124Y-13052210D02*
X11947077Y-13023639D01*
X11947077Y-13023639D02*
X11937553Y-13014115D01*
D13*
X6781537Y-13415203D02*
G75*
G03*
X6781537Y-13415203I-30000J0D01*
G01*
D11*
X7080409Y-13306687D02*
X7099457Y-13306687D01*
X7099457Y-13306687D02*
X7118505Y-13316210D01*
X7118505Y-13316210D02*
X7128029Y-13325734D01*
X7128029Y-13325734D02*
X7137552Y-13344782D01*
X7137552Y-13344782D02*
X7147076Y-13382877D01*
X7147076Y-13382877D02*
X7147076Y-13430496D01*
X7147076Y-13430496D02*
X7137552Y-13468591D01*
X7137552Y-13468591D02*
X7128029Y-13487639D01*
X7128029Y-13487639D02*
X7118505Y-13497163D01*
X7118505Y-13497163D02*
X7099457Y-13506687D01*
X7099457Y-13506687D02*
X7080409Y-13506687D01*
X7080409Y-13506687D02*
X7061362Y-13497163D01*
X7061362Y-13497163D02*
X7051838Y-13487639D01*
X7051838Y-13487639D02*
X7042314Y-13468591D01*
X7042314Y-13468591D02*
X7032790Y-13430496D01*
X7032790Y-13430496D02*
X7032790Y-13382877D01*
X7032790Y-13382877D02*
X7042314Y-13344782D01*
X7042314Y-13344782D02*
X7051838Y-13325734D01*
X7051838Y-13325734D02*
X7061362Y-13316210D01*
X7061362Y-13316210D02*
X7080409Y-13306687D01*
X7232790Y-13487639D02*
X7242314Y-13497163D01*
X7242314Y-13497163D02*
X7232790Y-13506687D01*
X7232790Y-13506687D02*
X7223267Y-13497163D01*
X7223267Y-13497163D02*
X7232790Y-13487639D01*
X7232790Y-13487639D02*
X7232790Y-13506687D01*
X7413743Y-13306687D02*
X7375648Y-13306687D01*
X7375648Y-13306687D02*
X7356600Y-13316210D01*
X7356600Y-13316210D02*
X7347076Y-13325734D01*
X7347076Y-13325734D02*
X7328029Y-13354306D01*
X7328029Y-13354306D02*
X7318505Y-13392401D01*
X7318505Y-13392401D02*
X7318505Y-13468591D01*
X7318505Y-13468591D02*
X7328029Y-13487639D01*
X7328029Y-13487639D02*
X7337552Y-13497163D01*
X7337552Y-13497163D02*
X7356600Y-13506687D01*
X7356600Y-13506687D02*
X7394695Y-13506687D01*
X7394695Y-13506687D02*
X7413743Y-13497163D01*
X7413743Y-13497163D02*
X7423267Y-13487639D01*
X7423267Y-13487639D02*
X7432790Y-13468591D01*
X7432790Y-13468591D02*
X7432790Y-13420972D01*
X7432790Y-13420972D02*
X7423267Y-13401925D01*
X7423267Y-13401925D02*
X7413743Y-13392401D01*
X7413743Y-13392401D02*
X7394695Y-13382877D01*
X7394695Y-13382877D02*
X7356600Y-13382877D01*
X7356600Y-13382877D02*
X7337552Y-13392401D01*
X7337552Y-13392401D02*
X7328029Y-13401925D01*
X7328029Y-13401925D02*
X7318505Y-13420972D01*
X7556600Y-13306687D02*
X7575648Y-13306687D01*
X7575648Y-13306687D02*
X7594695Y-13316210D01*
X7594695Y-13316210D02*
X7604219Y-13325734D01*
X7604219Y-13325734D02*
X7613743Y-13344782D01*
X7613743Y-13344782D02*
X7623267Y-13382877D01*
X7623267Y-13382877D02*
X7623267Y-13430496D01*
X7623267Y-13430496D02*
X7613743Y-13468591D01*
X7613743Y-13468591D02*
X7604219Y-13487639D01*
X7604219Y-13487639D02*
X7594695Y-13497163D01*
X7594695Y-13497163D02*
X7575648Y-13506687D01*
X7575648Y-13506687D02*
X7556600Y-13506687D01*
X7556600Y-13506687D02*
X7537552Y-13497163D01*
X7537552Y-13497163D02*
X7528029Y-13487639D01*
X7528029Y-13487639D02*
X7518505Y-13468591D01*
X7518505Y-13468591D02*
X7508981Y-13430496D01*
X7508981Y-13430496D02*
X7508981Y-13382877D01*
X7508981Y-13382877D02*
X7518505Y-13344782D01*
X7518505Y-13344782D02*
X7528029Y-13325734D01*
X7528029Y-13325734D02*
X7537552Y-13316210D01*
X7537552Y-13316210D02*
X7556600Y-13306687D01*
X7747076Y-13306687D02*
X7766124Y-13306687D01*
X7766124Y-13306687D02*
X7785171Y-13316210D01*
X7785171Y-13316210D02*
X7794695Y-13325734D01*
X7794695Y-13325734D02*
X7804219Y-13344782D01*
X7804219Y-13344782D02*
X7813743Y-13382877D01*
X7813743Y-13382877D02*
X7813743Y-13430496D01*
X7813743Y-13430496D02*
X7804219Y-13468591D01*
X7804219Y-13468591D02*
X7794695Y-13487639D01*
X7794695Y-13487639D02*
X7785171Y-13497163D01*
X7785171Y-13497163D02*
X7766124Y-13506687D01*
X7766124Y-13506687D02*
X7747076Y-13506687D01*
X7747076Y-13506687D02*
X7728029Y-13497163D01*
X7728029Y-13497163D02*
X7718505Y-13487639D01*
X7718505Y-13487639D02*
X7708981Y-13468591D01*
X7708981Y-13468591D02*
X7699457Y-13430496D01*
X7699457Y-13430496D02*
X7699457Y-13382877D01*
X7699457Y-13382877D02*
X7708981Y-13344782D01*
X7708981Y-13344782D02*
X7718505Y-13325734D01*
X7718505Y-13325734D02*
X7728029Y-13316210D01*
X7728029Y-13316210D02*
X7747076Y-13306687D01*
X7899457Y-13506687D02*
X7899457Y-13373353D01*
X7899457Y-13392401D02*
X7908981Y-13382877D01*
X7908981Y-13382877D02*
X7928029Y-13373353D01*
X7928029Y-13373353D02*
X7956600Y-13373353D01*
X7956600Y-13373353D02*
X7975648Y-13382877D01*
X7975648Y-13382877D02*
X7985171Y-13401925D01*
X7985171Y-13401925D02*
X7985171Y-13506687D01*
X7985171Y-13401925D02*
X7994695Y-13382877D01*
X7994695Y-13382877D02*
X8013743Y-13373353D01*
X8013743Y-13373353D02*
X8042314Y-13373353D01*
X8042314Y-13373353D02*
X8061362Y-13382877D01*
X8061362Y-13382877D02*
X8070886Y-13401925D01*
X8070886Y-13401925D02*
X8070886Y-13506687D01*
X8166124Y-13506687D02*
X8166124Y-13373353D01*
X8166124Y-13392401D02*
X8175648Y-13382877D01*
X8175648Y-13382877D02*
X8194695Y-13373353D01*
X8194695Y-13373353D02*
X8223267Y-13373353D01*
X8223267Y-13373353D02*
X8242314Y-13382877D01*
X8242314Y-13382877D02*
X8251838Y-13401925D01*
X8251838Y-13401925D02*
X8251838Y-13506687D01*
X8251838Y-13401925D02*
X8261362Y-13382877D01*
X8261362Y-13382877D02*
X8280410Y-13373353D01*
X8280410Y-13373353D02*
X8308981Y-13373353D01*
X8308981Y-13373353D02*
X8328029Y-13382877D01*
X8328029Y-13382877D02*
X8337552Y-13401925D01*
X8337552Y-13401925D02*
X8337552Y-13506687D01*
X8728029Y-13297163D02*
X8556600Y-13554306D01*
X8985172Y-13306687D02*
X9004219Y-13306687D01*
X9004219Y-13306687D02*
X9023267Y-13316210D01*
X9023267Y-13316210D02*
X9032791Y-13325734D01*
X9032791Y-13325734D02*
X9042315Y-13344782D01*
X9042315Y-13344782D02*
X9051838Y-13382877D01*
X9051838Y-13382877D02*
X9051838Y-13430496D01*
X9051838Y-13430496D02*
X9042315Y-13468591D01*
X9042315Y-13468591D02*
X9032791Y-13487639D01*
X9032791Y-13487639D02*
X9023267Y-13497163D01*
X9023267Y-13497163D02*
X9004219Y-13506687D01*
X9004219Y-13506687D02*
X8985172Y-13506687D01*
X8985172Y-13506687D02*
X8966124Y-13497163D01*
X8966124Y-13497163D02*
X8956600Y-13487639D01*
X8956600Y-13487639D02*
X8947076Y-13468591D01*
X8947076Y-13468591D02*
X8937553Y-13430496D01*
X8937553Y-13430496D02*
X8937553Y-13382877D01*
X8937553Y-13382877D02*
X8947076Y-13344782D01*
X8947076Y-13344782D02*
X8956600Y-13325734D01*
X8956600Y-13325734D02*
X8966124Y-13316210D01*
X8966124Y-13316210D02*
X8985172Y-13306687D01*
X9137553Y-13487639D02*
X9147076Y-13497163D01*
X9147076Y-13497163D02*
X9137553Y-13506687D01*
X9137553Y-13506687D02*
X9128029Y-13497163D01*
X9128029Y-13497163D02*
X9137553Y-13487639D01*
X9137553Y-13487639D02*
X9137553Y-13506687D01*
X9270886Y-13306687D02*
X9289934Y-13306687D01*
X9289934Y-13306687D02*
X9308981Y-13316210D01*
X9308981Y-13316210D02*
X9318505Y-13325734D01*
X9318505Y-13325734D02*
X9328029Y-13344782D01*
X9328029Y-13344782D02*
X9337553Y-13382877D01*
X9337553Y-13382877D02*
X9337553Y-13430496D01*
X9337553Y-13430496D02*
X9328029Y-13468591D01*
X9328029Y-13468591D02*
X9318505Y-13487639D01*
X9318505Y-13487639D02*
X9308981Y-13497163D01*
X9308981Y-13497163D02*
X9289934Y-13506687D01*
X9289934Y-13506687D02*
X9270886Y-13506687D01*
X9270886Y-13506687D02*
X9251838Y-13497163D01*
X9251838Y-13497163D02*
X9242315Y-13487639D01*
X9242315Y-13487639D02*
X9232791Y-13468591D01*
X9232791Y-13468591D02*
X9223267Y-13430496D01*
X9223267Y-13430496D02*
X9223267Y-13382877D01*
X9223267Y-13382877D02*
X9232791Y-13344782D01*
X9232791Y-13344782D02*
X9242315Y-13325734D01*
X9242315Y-13325734D02*
X9251838Y-13316210D01*
X9251838Y-13316210D02*
X9270886Y-13306687D01*
X9413743Y-13325734D02*
X9423267Y-13316210D01*
X9423267Y-13316210D02*
X9442315Y-13306687D01*
X9442315Y-13306687D02*
X9489934Y-13306687D01*
X9489934Y-13306687D02*
X9508981Y-13316210D01*
X9508981Y-13316210D02*
X9518505Y-13325734D01*
X9518505Y-13325734D02*
X9528029Y-13344782D01*
X9528029Y-13344782D02*
X9528029Y-13363829D01*
X9528029Y-13363829D02*
X9518505Y-13392401D01*
X9518505Y-13392401D02*
X9404219Y-13506687D01*
X9404219Y-13506687D02*
X9528029Y-13506687D01*
X9594696Y-13306687D02*
X9718505Y-13306687D01*
X9718505Y-13306687D02*
X9651838Y-13382877D01*
X9651838Y-13382877D02*
X9680410Y-13382877D01*
X9680410Y-13382877D02*
X9699457Y-13392401D01*
X9699457Y-13392401D02*
X9708981Y-13401925D01*
X9708981Y-13401925D02*
X9718505Y-13420972D01*
X9718505Y-13420972D02*
X9718505Y-13468591D01*
X9718505Y-13468591D02*
X9708981Y-13487639D01*
X9708981Y-13487639D02*
X9699457Y-13497163D01*
X9699457Y-13497163D02*
X9680410Y-13506687D01*
X9680410Y-13506687D02*
X9623267Y-13506687D01*
X9623267Y-13506687D02*
X9604219Y-13497163D01*
X9604219Y-13497163D02*
X9594696Y-13487639D01*
X9889934Y-13306687D02*
X9851838Y-13306687D01*
X9851838Y-13306687D02*
X9832791Y-13316210D01*
X9832791Y-13316210D02*
X9823267Y-13325734D01*
X9823267Y-13325734D02*
X9804219Y-13354306D01*
X9804219Y-13354306D02*
X9794696Y-13392401D01*
X9794696Y-13392401D02*
X9794696Y-13468591D01*
X9794696Y-13468591D02*
X9804219Y-13487639D01*
X9804219Y-13487639D02*
X9813743Y-13497163D01*
X9813743Y-13497163D02*
X9832791Y-13506687D01*
X9832791Y-13506687D02*
X9870886Y-13506687D01*
X9870886Y-13506687D02*
X9889934Y-13497163D01*
X9889934Y-13497163D02*
X9899457Y-13487639D01*
X9899457Y-13487639D02*
X9908981Y-13468591D01*
X9908981Y-13468591D02*
X9908981Y-13420972D01*
X9908981Y-13420972D02*
X9899457Y-13401925D01*
X9899457Y-13401925D02*
X9889934Y-13392401D01*
X9889934Y-13392401D02*
X9870886Y-13382877D01*
X9870886Y-13382877D02*
X9832791Y-13382877D01*
X9832791Y-13382877D02*
X9813743Y-13392401D01*
X9813743Y-13392401D02*
X9804219Y-13401925D01*
X9804219Y-13401925D02*
X9794696Y-13420972D01*
X9985172Y-13306687D02*
X9985172Y-13344782D01*
X10061362Y-13306687D02*
X10061362Y-13344782D01*
X10356600Y-13582877D02*
X10347077Y-13573353D01*
X10347077Y-13573353D02*
X10328029Y-13544782D01*
X10328029Y-13544782D02*
X10318505Y-13525734D01*
X10318505Y-13525734D02*
X10308981Y-13497163D01*
X10308981Y-13497163D02*
X10299458Y-13449544D01*
X10299458Y-13449544D02*
X10299458Y-13411449D01*
X10299458Y-13411449D02*
X10308981Y-13363829D01*
X10308981Y-13363829D02*
X10318505Y-13335258D01*
X10318505Y-13335258D02*
X10328029Y-13316210D01*
X10328029Y-13316210D02*
X10347077Y-13287639D01*
X10347077Y-13287639D02*
X10356600Y-13278115D01*
X10423267Y-13325734D02*
X10432791Y-13316210D01*
X10432791Y-13316210D02*
X10451838Y-13306687D01*
X10451838Y-13306687D02*
X10499458Y-13306687D01*
X10499458Y-13306687D02*
X10518505Y-13316210D01*
X10518505Y-13316210D02*
X10528029Y-13325734D01*
X10528029Y-13325734D02*
X10537553Y-13344782D01*
X10537553Y-13344782D02*
X10537553Y-13363829D01*
X10537553Y-13363829D02*
X10528029Y-13392401D01*
X10528029Y-13392401D02*
X10413743Y-13506687D01*
X10413743Y-13506687D02*
X10537553Y-13506687D01*
X10775648Y-13506687D02*
X10775648Y-13306687D01*
X10861362Y-13506687D02*
X10861362Y-13401925D01*
X10861362Y-13401925D02*
X10851839Y-13382877D01*
X10851839Y-13382877D02*
X10832791Y-13373353D01*
X10832791Y-13373353D02*
X10804219Y-13373353D01*
X10804219Y-13373353D02*
X10785172Y-13382877D01*
X10785172Y-13382877D02*
X10775648Y-13392401D01*
X10985172Y-13506687D02*
X10966124Y-13497163D01*
X10966124Y-13497163D02*
X10956600Y-13487639D01*
X10956600Y-13487639D02*
X10947077Y-13468591D01*
X10947077Y-13468591D02*
X10947077Y-13411449D01*
X10947077Y-13411449D02*
X10956600Y-13392401D01*
X10956600Y-13392401D02*
X10966124Y-13382877D01*
X10966124Y-13382877D02*
X10985172Y-13373353D01*
X10985172Y-13373353D02*
X11013743Y-13373353D01*
X11013743Y-13373353D02*
X11032791Y-13382877D01*
X11032791Y-13382877D02*
X11042315Y-13392401D01*
X11042315Y-13392401D02*
X11051839Y-13411449D01*
X11051839Y-13411449D02*
X11051839Y-13468591D01*
X11051839Y-13468591D02*
X11042315Y-13487639D01*
X11042315Y-13487639D02*
X11032791Y-13497163D01*
X11032791Y-13497163D02*
X11013743Y-13506687D01*
X11013743Y-13506687D02*
X10985172Y-13506687D01*
X11166124Y-13506687D02*
X11147077Y-13497163D01*
X11147077Y-13497163D02*
X11137553Y-13478115D01*
X11137553Y-13478115D02*
X11137553Y-13306687D01*
X11318505Y-13497163D02*
X11299458Y-13506687D01*
X11299458Y-13506687D02*
X11261362Y-13506687D01*
X11261362Y-13506687D02*
X11242315Y-13497163D01*
X11242315Y-13497163D02*
X11232791Y-13478115D01*
X11232791Y-13478115D02*
X11232791Y-13401925D01*
X11232791Y-13401925D02*
X11242315Y-13382877D01*
X11242315Y-13382877D02*
X11261362Y-13373353D01*
X11261362Y-13373353D02*
X11299458Y-13373353D01*
X11299458Y-13373353D02*
X11318505Y-13382877D01*
X11318505Y-13382877D02*
X11328029Y-13401925D01*
X11328029Y-13401925D02*
X11328029Y-13420972D01*
X11328029Y-13420972D02*
X11232791Y-13440020D01*
X11404219Y-13497163D02*
X11423267Y-13506687D01*
X11423267Y-13506687D02*
X11461362Y-13506687D01*
X11461362Y-13506687D02*
X11480410Y-13497163D01*
X11480410Y-13497163D02*
X11489934Y-13478115D01*
X11489934Y-13478115D02*
X11489934Y-13468591D01*
X11489934Y-13468591D02*
X11480410Y-13449544D01*
X11480410Y-13449544D02*
X11461362Y-13440020D01*
X11461362Y-13440020D02*
X11432791Y-13440020D01*
X11432791Y-13440020D02*
X11413743Y-13430496D01*
X11413743Y-13430496D02*
X11404219Y-13411449D01*
X11404219Y-13411449D02*
X11404219Y-13401925D01*
X11404219Y-13401925D02*
X11413743Y-13382877D01*
X11413743Y-13382877D02*
X11432791Y-13373353D01*
X11432791Y-13373353D02*
X11461362Y-13373353D01*
X11461362Y-13373353D02*
X11480410Y-13382877D01*
X11556600Y-13582877D02*
X11566124Y-13573353D01*
X11566124Y-13573353D02*
X11585172Y-13544782D01*
X11585172Y-13544782D02*
X11594696Y-13525734D01*
X11594696Y-13525734D02*
X11604219Y-13497163D01*
X11604219Y-13497163D02*
X11613743Y-13449544D01*
X11613743Y-13449544D02*
X11613743Y-13411449D01*
X11613743Y-13411449D02*
X11604219Y-13363829D01*
X11604219Y-13363829D02*
X11594696Y-13335258D01*
X11594696Y-13335258D02*
X11585172Y-13316210D01*
X11585172Y-13316210D02*
X11566124Y-13287639D01*
X11566124Y-13287639D02*
X11556600Y-13278115D01*
D14*
X6741537Y-13639203D02*
X6741537Y-13719203D01*
X6701537Y-13679203D02*
X6781537Y-13679203D01*
D11*
X7080409Y-13570687D02*
X7099457Y-13570687D01*
X7099457Y-13570687D02*
X7118505Y-13580210D01*
X7118505Y-13580210D02*
X7128029Y-13589734D01*
X7128029Y-13589734D02*
X7137552Y-13608782D01*
X7137552Y-13608782D02*
X7147076Y-13646877D01*
X7147076Y-13646877D02*
X7147076Y-13694496D01*
X7147076Y-13694496D02*
X7137552Y-13732591D01*
X7137552Y-13732591D02*
X7128029Y-13751639D01*
X7128029Y-13751639D02*
X7118505Y-13761163D01*
X7118505Y-13761163D02*
X7099457Y-13770687D01*
X7099457Y-13770687D02*
X7080409Y-13770687D01*
X7080409Y-13770687D02*
X7061362Y-13761163D01*
X7061362Y-13761163D02*
X7051838Y-13751639D01*
X7051838Y-13751639D02*
X7042314Y-13732591D01*
X7042314Y-13732591D02*
X7032790Y-13694496D01*
X7032790Y-13694496D02*
X7032790Y-13646877D01*
X7032790Y-13646877D02*
X7042314Y-13608782D01*
X7042314Y-13608782D02*
X7051838Y-13589734D01*
X7051838Y-13589734D02*
X7061362Y-13580210D01*
X7061362Y-13580210D02*
X7080409Y-13570687D01*
X7232790Y-13751639D02*
X7242314Y-13761163D01*
X7242314Y-13761163D02*
X7232790Y-13770687D01*
X7232790Y-13770687D02*
X7223267Y-13761163D01*
X7223267Y-13761163D02*
X7232790Y-13751639D01*
X7232790Y-13751639D02*
X7232790Y-13770687D01*
X7356600Y-13656401D02*
X7337552Y-13646877D01*
X7337552Y-13646877D02*
X7328029Y-13637353D01*
X7328029Y-13637353D02*
X7318505Y-13618306D01*
X7318505Y-13618306D02*
X7318505Y-13608782D01*
X7318505Y-13608782D02*
X7328029Y-13589734D01*
X7328029Y-13589734D02*
X7337552Y-13580210D01*
X7337552Y-13580210D02*
X7356600Y-13570687D01*
X7356600Y-13570687D02*
X7394695Y-13570687D01*
X7394695Y-13570687D02*
X7413743Y-13580210D01*
X7413743Y-13580210D02*
X7423267Y-13589734D01*
X7423267Y-13589734D02*
X7432790Y-13608782D01*
X7432790Y-13608782D02*
X7432790Y-13618306D01*
X7432790Y-13618306D02*
X7423267Y-13637353D01*
X7423267Y-13637353D02*
X7413743Y-13646877D01*
X7413743Y-13646877D02*
X7394695Y-13656401D01*
X7394695Y-13656401D02*
X7356600Y-13656401D01*
X7356600Y-13656401D02*
X7337552Y-13665925D01*
X7337552Y-13665925D02*
X7328029Y-13675449D01*
X7328029Y-13675449D02*
X7318505Y-13694496D01*
X7318505Y-13694496D02*
X7318505Y-13732591D01*
X7318505Y-13732591D02*
X7328029Y-13751639D01*
X7328029Y-13751639D02*
X7337552Y-13761163D01*
X7337552Y-13761163D02*
X7356600Y-13770687D01*
X7356600Y-13770687D02*
X7394695Y-13770687D01*
X7394695Y-13770687D02*
X7413743Y-13761163D01*
X7413743Y-13761163D02*
X7423267Y-13751639D01*
X7423267Y-13751639D02*
X7432790Y-13732591D01*
X7432790Y-13732591D02*
X7432790Y-13694496D01*
X7432790Y-13694496D02*
X7423267Y-13675449D01*
X7423267Y-13675449D02*
X7413743Y-13665925D01*
X7413743Y-13665925D02*
X7394695Y-13656401D01*
X7556600Y-13570687D02*
X7575648Y-13570687D01*
X7575648Y-13570687D02*
X7594695Y-13580210D01*
X7594695Y-13580210D02*
X7604219Y-13589734D01*
X7604219Y-13589734D02*
X7613743Y-13608782D01*
X7613743Y-13608782D02*
X7623267Y-13646877D01*
X7623267Y-13646877D02*
X7623267Y-13694496D01*
X7623267Y-13694496D02*
X7613743Y-13732591D01*
X7613743Y-13732591D02*
X7604219Y-13751639D01*
X7604219Y-13751639D02*
X7594695Y-13761163D01*
X7594695Y-13761163D02*
X7575648Y-13770687D01*
X7575648Y-13770687D02*
X7556600Y-13770687D01*
X7556600Y-13770687D02*
X7537552Y-13761163D01*
X7537552Y-13761163D02*
X7528029Y-13751639D01*
X7528029Y-13751639D02*
X7518505Y-13732591D01*
X7518505Y-13732591D02*
X7508981Y-13694496D01*
X7508981Y-13694496D02*
X7508981Y-13646877D01*
X7508981Y-13646877D02*
X7518505Y-13608782D01*
X7518505Y-13608782D02*
X7528029Y-13589734D01*
X7528029Y-13589734D02*
X7537552Y-13580210D01*
X7537552Y-13580210D02*
X7556600Y-13570687D01*
X7747076Y-13570687D02*
X7766124Y-13570687D01*
X7766124Y-13570687D02*
X7785171Y-13580210D01*
X7785171Y-13580210D02*
X7794695Y-13589734D01*
X7794695Y-13589734D02*
X7804219Y-13608782D01*
X7804219Y-13608782D02*
X7813743Y-13646877D01*
X7813743Y-13646877D02*
X7813743Y-13694496D01*
X7813743Y-13694496D02*
X7804219Y-13732591D01*
X7804219Y-13732591D02*
X7794695Y-13751639D01*
X7794695Y-13751639D02*
X7785171Y-13761163D01*
X7785171Y-13761163D02*
X7766124Y-13770687D01*
X7766124Y-13770687D02*
X7747076Y-13770687D01*
X7747076Y-13770687D02*
X7728029Y-13761163D01*
X7728029Y-13761163D02*
X7718505Y-13751639D01*
X7718505Y-13751639D02*
X7708981Y-13732591D01*
X7708981Y-13732591D02*
X7699457Y-13694496D01*
X7699457Y-13694496D02*
X7699457Y-13646877D01*
X7699457Y-13646877D02*
X7708981Y-13608782D01*
X7708981Y-13608782D02*
X7718505Y-13589734D01*
X7718505Y-13589734D02*
X7728029Y-13580210D01*
X7728029Y-13580210D02*
X7747076Y-13570687D01*
X7899457Y-13770687D02*
X7899457Y-13637353D01*
X7899457Y-13656401D02*
X7908981Y-13646877D01*
X7908981Y-13646877D02*
X7928029Y-13637353D01*
X7928029Y-13637353D02*
X7956600Y-13637353D01*
X7956600Y-13637353D02*
X7975648Y-13646877D01*
X7975648Y-13646877D02*
X7985171Y-13665925D01*
X7985171Y-13665925D02*
X7985171Y-13770687D01*
X7985171Y-13665925D02*
X7994695Y-13646877D01*
X7994695Y-13646877D02*
X8013743Y-13637353D01*
X8013743Y-13637353D02*
X8042314Y-13637353D01*
X8042314Y-13637353D02*
X8061362Y-13646877D01*
X8061362Y-13646877D02*
X8070886Y-13665925D01*
X8070886Y-13665925D02*
X8070886Y-13770687D01*
X8166124Y-13770687D02*
X8166124Y-13637353D01*
X8166124Y-13656401D02*
X8175648Y-13646877D01*
X8175648Y-13646877D02*
X8194695Y-13637353D01*
X8194695Y-13637353D02*
X8223267Y-13637353D01*
X8223267Y-13637353D02*
X8242314Y-13646877D01*
X8242314Y-13646877D02*
X8251838Y-13665925D01*
X8251838Y-13665925D02*
X8251838Y-13770687D01*
X8251838Y-13665925D02*
X8261362Y-13646877D01*
X8261362Y-13646877D02*
X8280410Y-13637353D01*
X8280410Y-13637353D02*
X8308981Y-13637353D01*
X8308981Y-13637353D02*
X8328029Y-13646877D01*
X8328029Y-13646877D02*
X8337552Y-13665925D01*
X8337552Y-13665925D02*
X8337552Y-13770687D01*
X8728029Y-13561163D02*
X8556600Y-13818306D01*
X8985172Y-13570687D02*
X9004219Y-13570687D01*
X9004219Y-13570687D02*
X9023267Y-13580210D01*
X9023267Y-13580210D02*
X9032791Y-13589734D01*
X9032791Y-13589734D02*
X9042315Y-13608782D01*
X9042315Y-13608782D02*
X9051838Y-13646877D01*
X9051838Y-13646877D02*
X9051838Y-13694496D01*
X9051838Y-13694496D02*
X9042315Y-13732591D01*
X9042315Y-13732591D02*
X9032791Y-13751639D01*
X9032791Y-13751639D02*
X9023267Y-13761163D01*
X9023267Y-13761163D02*
X9004219Y-13770687D01*
X9004219Y-13770687D02*
X8985172Y-13770687D01*
X8985172Y-13770687D02*
X8966124Y-13761163D01*
X8966124Y-13761163D02*
X8956600Y-13751639D01*
X8956600Y-13751639D02*
X8947076Y-13732591D01*
X8947076Y-13732591D02*
X8937553Y-13694496D01*
X8937553Y-13694496D02*
X8937553Y-13646877D01*
X8937553Y-13646877D02*
X8947076Y-13608782D01*
X8947076Y-13608782D02*
X8956600Y-13589734D01*
X8956600Y-13589734D02*
X8966124Y-13580210D01*
X8966124Y-13580210D02*
X8985172Y-13570687D01*
X9137553Y-13751639D02*
X9147076Y-13761163D01*
X9147076Y-13761163D02*
X9137553Y-13770687D01*
X9137553Y-13770687D02*
X9128029Y-13761163D01*
X9128029Y-13761163D02*
X9137553Y-13751639D01*
X9137553Y-13751639D02*
X9137553Y-13770687D01*
X9270886Y-13570687D02*
X9289934Y-13570687D01*
X9289934Y-13570687D02*
X9308981Y-13580210D01*
X9308981Y-13580210D02*
X9318505Y-13589734D01*
X9318505Y-13589734D02*
X9328029Y-13608782D01*
X9328029Y-13608782D02*
X9337553Y-13646877D01*
X9337553Y-13646877D02*
X9337553Y-13694496D01*
X9337553Y-13694496D02*
X9328029Y-13732591D01*
X9328029Y-13732591D02*
X9318505Y-13751639D01*
X9318505Y-13751639D02*
X9308981Y-13761163D01*
X9308981Y-13761163D02*
X9289934Y-13770687D01*
X9289934Y-13770687D02*
X9270886Y-13770687D01*
X9270886Y-13770687D02*
X9251838Y-13761163D01*
X9251838Y-13761163D02*
X9242315Y-13751639D01*
X9242315Y-13751639D02*
X9232791Y-13732591D01*
X9232791Y-13732591D02*
X9223267Y-13694496D01*
X9223267Y-13694496D02*
X9223267Y-13646877D01*
X9223267Y-13646877D02*
X9232791Y-13608782D01*
X9232791Y-13608782D02*
X9242315Y-13589734D01*
X9242315Y-13589734D02*
X9251838Y-13580210D01*
X9251838Y-13580210D02*
X9270886Y-13570687D01*
X9404219Y-13570687D02*
X9528029Y-13570687D01*
X9528029Y-13570687D02*
X9461362Y-13646877D01*
X9461362Y-13646877D02*
X9489934Y-13646877D01*
X9489934Y-13646877D02*
X9508981Y-13656401D01*
X9508981Y-13656401D02*
X9518505Y-13665925D01*
X9518505Y-13665925D02*
X9528029Y-13684972D01*
X9528029Y-13684972D02*
X9528029Y-13732591D01*
X9528029Y-13732591D02*
X9518505Y-13751639D01*
X9518505Y-13751639D02*
X9508981Y-13761163D01*
X9508981Y-13761163D02*
X9489934Y-13770687D01*
X9489934Y-13770687D02*
X9432791Y-13770687D01*
X9432791Y-13770687D02*
X9413743Y-13761163D01*
X9413743Y-13761163D02*
X9404219Y-13751639D01*
X9718505Y-13770687D02*
X9604219Y-13770687D01*
X9661362Y-13770687D02*
X9661362Y-13570687D01*
X9661362Y-13570687D02*
X9642315Y-13599258D01*
X9642315Y-13599258D02*
X9623267Y-13618306D01*
X9623267Y-13618306D02*
X9604219Y-13627829D01*
X9899457Y-13570687D02*
X9804219Y-13570687D01*
X9804219Y-13570687D02*
X9794696Y-13665925D01*
X9794696Y-13665925D02*
X9804219Y-13656401D01*
X9804219Y-13656401D02*
X9823267Y-13646877D01*
X9823267Y-13646877D02*
X9870886Y-13646877D01*
X9870886Y-13646877D02*
X9889934Y-13656401D01*
X9889934Y-13656401D02*
X9899457Y-13665925D01*
X9899457Y-13665925D02*
X9908981Y-13684972D01*
X9908981Y-13684972D02*
X9908981Y-13732591D01*
X9908981Y-13732591D02*
X9899457Y-13751639D01*
X9899457Y-13751639D02*
X9889934Y-13761163D01*
X9889934Y-13761163D02*
X9870886Y-13770687D01*
X9870886Y-13770687D02*
X9823267Y-13770687D01*
X9823267Y-13770687D02*
X9804219Y-13761163D01*
X9804219Y-13761163D02*
X9794696Y-13751639D01*
X9985172Y-13570687D02*
X9985172Y-13608782D01*
X10061362Y-13570687D02*
X10061362Y-13608782D01*
X10356600Y-13846877D02*
X10347077Y-13837353D01*
X10347077Y-13837353D02*
X10328029Y-13808782D01*
X10328029Y-13808782D02*
X10318505Y-13789734D01*
X10318505Y-13789734D02*
X10308981Y-13761163D01*
X10308981Y-13761163D02*
X10299458Y-13713544D01*
X10299458Y-13713544D02*
X10299458Y-13675449D01*
X10299458Y-13675449D02*
X10308981Y-13627829D01*
X10308981Y-13627829D02*
X10318505Y-13599258D01*
X10318505Y-13599258D02*
X10328029Y-13580210D01*
X10328029Y-13580210D02*
X10347077Y-13551639D01*
X10347077Y-13551639D02*
X10356600Y-13542115D01*
X10423267Y-13589734D02*
X10432791Y-13580210D01*
X10432791Y-13580210D02*
X10451838Y-13570687D01*
X10451838Y-13570687D02*
X10499458Y-13570687D01*
X10499458Y-13570687D02*
X10518505Y-13580210D01*
X10518505Y-13580210D02*
X10528029Y-13589734D01*
X10528029Y-13589734D02*
X10537553Y-13608782D01*
X10537553Y-13608782D02*
X10537553Y-13627829D01*
X10537553Y-13627829D02*
X10528029Y-13656401D01*
X10528029Y-13656401D02*
X10413743Y-13770687D01*
X10413743Y-13770687D02*
X10537553Y-13770687D01*
X10775648Y-13770687D02*
X10775648Y-13570687D01*
X10861362Y-13770687D02*
X10861362Y-13665925D01*
X10861362Y-13665925D02*
X10851839Y-13646877D01*
X10851839Y-13646877D02*
X10832791Y-13637353D01*
X10832791Y-13637353D02*
X10804219Y-13637353D01*
X10804219Y-13637353D02*
X10785172Y-13646877D01*
X10785172Y-13646877D02*
X10775648Y-13656401D01*
X10985172Y-13770687D02*
X10966124Y-13761163D01*
X10966124Y-13761163D02*
X10956600Y-13751639D01*
X10956600Y-13751639D02*
X10947077Y-13732591D01*
X10947077Y-13732591D02*
X10947077Y-13675449D01*
X10947077Y-13675449D02*
X10956600Y-13656401D01*
X10956600Y-13656401D02*
X10966124Y-13646877D01*
X10966124Y-13646877D02*
X10985172Y-13637353D01*
X10985172Y-13637353D02*
X11013743Y-13637353D01*
X11013743Y-13637353D02*
X11032791Y-13646877D01*
X11032791Y-13646877D02*
X11042315Y-13656401D01*
X11042315Y-13656401D02*
X11051839Y-13675449D01*
X11051839Y-13675449D02*
X11051839Y-13732591D01*
X11051839Y-13732591D02*
X11042315Y-13751639D01*
X11042315Y-13751639D02*
X11032791Y-13761163D01*
X11032791Y-13761163D02*
X11013743Y-13770687D01*
X11013743Y-13770687D02*
X10985172Y-13770687D01*
X11166124Y-13770687D02*
X11147077Y-13761163D01*
X11147077Y-13761163D02*
X11137553Y-13742115D01*
X11137553Y-13742115D02*
X11137553Y-13570687D01*
X11318505Y-13761163D02*
X11299458Y-13770687D01*
X11299458Y-13770687D02*
X11261362Y-13770687D01*
X11261362Y-13770687D02*
X11242315Y-13761163D01*
X11242315Y-13761163D02*
X11232791Y-13742115D01*
X11232791Y-13742115D02*
X11232791Y-13665925D01*
X11232791Y-13665925D02*
X11242315Y-13646877D01*
X11242315Y-13646877D02*
X11261362Y-13637353D01*
X11261362Y-13637353D02*
X11299458Y-13637353D01*
X11299458Y-13637353D02*
X11318505Y-13646877D01*
X11318505Y-13646877D02*
X11328029Y-13665925D01*
X11328029Y-13665925D02*
X11328029Y-13684972D01*
X11328029Y-13684972D02*
X11232791Y-13704020D01*
X11404219Y-13761163D02*
X11423267Y-13770687D01*
X11423267Y-13770687D02*
X11461362Y-13770687D01*
X11461362Y-13770687D02*
X11480410Y-13761163D01*
X11480410Y-13761163D02*
X11489934Y-13742115D01*
X11489934Y-13742115D02*
X11489934Y-13732591D01*
X11489934Y-13732591D02*
X11480410Y-13713544D01*
X11480410Y-13713544D02*
X11461362Y-13704020D01*
X11461362Y-13704020D02*
X11432791Y-13704020D01*
X11432791Y-13704020D02*
X11413743Y-13694496D01*
X11413743Y-13694496D02*
X11404219Y-13675449D01*
X11404219Y-13675449D02*
X11404219Y-13665925D01*
X11404219Y-13665925D02*
X11413743Y-13646877D01*
X11413743Y-13646877D02*
X11432791Y-13637353D01*
X11432791Y-13637353D02*
X11461362Y-13637353D01*
X11461362Y-13637353D02*
X11480410Y-13646877D01*
X11556600Y-13846877D02*
X11566124Y-13837353D01*
X11566124Y-13837353D02*
X11585172Y-13808782D01*
X11585172Y-13808782D02*
X11594696Y-13789734D01*
X11594696Y-13789734D02*
X11604219Y-13761163D01*
X11604219Y-13761163D02*
X11613743Y-13713544D01*
X11613743Y-13713544D02*
X11613743Y-13675449D01*
X11613743Y-13675449D02*
X11604219Y-13627829D01*
X11604219Y-13627829D02*
X11594696Y-13599258D01*
X11594696Y-13599258D02*
X11585172Y-13580210D01*
X11585172Y-13580210D02*
X11566124Y-13551639D01*
X11566124Y-13551639D02*
X11556600Y-13542115D01*
D15*
X6768358Y-13975023D02*
X6768358Y-13911383D01*
X6704717Y-13911383D01*
X6704717Y-13975023D01*
X6768358Y-13975023D01*
D11*
X7080409Y-13834687D02*
X7099457Y-13834687D01*
X7099457Y-13834687D02*
X7118505Y-13844210D01*
X7118505Y-13844210D02*
X7128029Y-13853734D01*
X7128029Y-13853734D02*
X7137552Y-13872782D01*
X7137552Y-13872782D02*
X7147076Y-13910877D01*
X7147076Y-13910877D02*
X7147076Y-13958496D01*
X7147076Y-13958496D02*
X7137552Y-13996591D01*
X7137552Y-13996591D02*
X7128029Y-14015639D01*
X7128029Y-14015639D02*
X7118505Y-14025163D01*
X7118505Y-14025163D02*
X7099457Y-14034687D01*
X7099457Y-14034687D02*
X7080409Y-14034687D01*
X7080409Y-14034687D02*
X7061362Y-14025163D01*
X7061362Y-14025163D02*
X7051838Y-14015639D01*
X7051838Y-14015639D02*
X7042314Y-13996591D01*
X7042314Y-13996591D02*
X7032790Y-13958496D01*
X7032790Y-13958496D02*
X7032790Y-13910877D01*
X7032790Y-13910877D02*
X7042314Y-13872782D01*
X7042314Y-13872782D02*
X7051838Y-13853734D01*
X7051838Y-13853734D02*
X7061362Y-13844210D01*
X7061362Y-13844210D02*
X7080409Y-13834687D01*
X7232790Y-14015639D02*
X7242314Y-14025163D01*
X7242314Y-14025163D02*
X7232790Y-14034687D01*
X7232790Y-14034687D02*
X7223267Y-14025163D01*
X7223267Y-14025163D02*
X7232790Y-14015639D01*
X7232790Y-14015639D02*
X7232790Y-14034687D01*
X7337552Y-14034687D02*
X7375648Y-14034687D01*
X7375648Y-14034687D02*
X7394695Y-14025163D01*
X7394695Y-14025163D02*
X7404219Y-14015639D01*
X7404219Y-14015639D02*
X7423267Y-13987068D01*
X7423267Y-13987068D02*
X7432790Y-13948972D01*
X7432790Y-13948972D02*
X7432790Y-13872782D01*
X7432790Y-13872782D02*
X7423267Y-13853734D01*
X7423267Y-13853734D02*
X7413743Y-13844210D01*
X7413743Y-13844210D02*
X7394695Y-13834687D01*
X7394695Y-13834687D02*
X7356600Y-13834687D01*
X7356600Y-13834687D02*
X7337552Y-13844210D01*
X7337552Y-13844210D02*
X7328029Y-13853734D01*
X7328029Y-13853734D02*
X7318505Y-13872782D01*
X7318505Y-13872782D02*
X7318505Y-13920401D01*
X7318505Y-13920401D02*
X7328029Y-13939449D01*
X7328029Y-13939449D02*
X7337552Y-13948972D01*
X7337552Y-13948972D02*
X7356600Y-13958496D01*
X7356600Y-13958496D02*
X7394695Y-13958496D01*
X7394695Y-13958496D02*
X7413743Y-13948972D01*
X7413743Y-13948972D02*
X7423267Y-13939449D01*
X7423267Y-13939449D02*
X7432790Y-13920401D01*
X7556600Y-13834687D02*
X7575648Y-13834687D01*
X7575648Y-13834687D02*
X7594695Y-13844210D01*
X7594695Y-13844210D02*
X7604219Y-13853734D01*
X7604219Y-13853734D02*
X7613743Y-13872782D01*
X7613743Y-13872782D02*
X7623267Y-13910877D01*
X7623267Y-13910877D02*
X7623267Y-13958496D01*
X7623267Y-13958496D02*
X7613743Y-13996591D01*
X7613743Y-13996591D02*
X7604219Y-14015639D01*
X7604219Y-14015639D02*
X7594695Y-14025163D01*
X7594695Y-14025163D02*
X7575648Y-14034687D01*
X7575648Y-14034687D02*
X7556600Y-14034687D01*
X7556600Y-14034687D02*
X7537552Y-14025163D01*
X7537552Y-14025163D02*
X7528029Y-14015639D01*
X7528029Y-14015639D02*
X7518505Y-13996591D01*
X7518505Y-13996591D02*
X7508981Y-13958496D01*
X7508981Y-13958496D02*
X7508981Y-13910877D01*
X7508981Y-13910877D02*
X7518505Y-13872782D01*
X7518505Y-13872782D02*
X7528029Y-13853734D01*
X7528029Y-13853734D02*
X7537552Y-13844210D01*
X7537552Y-13844210D02*
X7556600Y-13834687D01*
X7747076Y-13834687D02*
X7766124Y-13834687D01*
X7766124Y-13834687D02*
X7785171Y-13844210D01*
X7785171Y-13844210D02*
X7794695Y-13853734D01*
X7794695Y-13853734D02*
X7804219Y-13872782D01*
X7804219Y-13872782D02*
X7813743Y-13910877D01*
X7813743Y-13910877D02*
X7813743Y-13958496D01*
X7813743Y-13958496D02*
X7804219Y-13996591D01*
X7804219Y-13996591D02*
X7794695Y-14015639D01*
X7794695Y-14015639D02*
X7785171Y-14025163D01*
X7785171Y-14025163D02*
X7766124Y-14034687D01*
X7766124Y-14034687D02*
X7747076Y-14034687D01*
X7747076Y-14034687D02*
X7728029Y-14025163D01*
X7728029Y-14025163D02*
X7718505Y-14015639D01*
X7718505Y-14015639D02*
X7708981Y-13996591D01*
X7708981Y-13996591D02*
X7699457Y-13958496D01*
X7699457Y-13958496D02*
X7699457Y-13910877D01*
X7699457Y-13910877D02*
X7708981Y-13872782D01*
X7708981Y-13872782D02*
X7718505Y-13853734D01*
X7718505Y-13853734D02*
X7728029Y-13844210D01*
X7728029Y-13844210D02*
X7747076Y-13834687D01*
X7899457Y-14034687D02*
X7899457Y-13901353D01*
X7899457Y-13920401D02*
X7908981Y-13910877D01*
X7908981Y-13910877D02*
X7928029Y-13901353D01*
X7928029Y-13901353D02*
X7956600Y-13901353D01*
X7956600Y-13901353D02*
X7975648Y-13910877D01*
X7975648Y-13910877D02*
X7985171Y-13929925D01*
X7985171Y-13929925D02*
X7985171Y-14034687D01*
X7985171Y-13929925D02*
X7994695Y-13910877D01*
X7994695Y-13910877D02*
X8013743Y-13901353D01*
X8013743Y-13901353D02*
X8042314Y-13901353D01*
X8042314Y-13901353D02*
X8061362Y-13910877D01*
X8061362Y-13910877D02*
X8070886Y-13929925D01*
X8070886Y-13929925D02*
X8070886Y-14034687D01*
X8166124Y-14034687D02*
X8166124Y-13901353D01*
X8166124Y-13920401D02*
X8175648Y-13910877D01*
X8175648Y-13910877D02*
X8194695Y-13901353D01*
X8194695Y-13901353D02*
X8223267Y-13901353D01*
X8223267Y-13901353D02*
X8242314Y-13910877D01*
X8242314Y-13910877D02*
X8251838Y-13929925D01*
X8251838Y-13929925D02*
X8251838Y-14034687D01*
X8251838Y-13929925D02*
X8261362Y-13910877D01*
X8261362Y-13910877D02*
X8280410Y-13901353D01*
X8280410Y-13901353D02*
X8308981Y-13901353D01*
X8308981Y-13901353D02*
X8328029Y-13910877D01*
X8328029Y-13910877D02*
X8337552Y-13929925D01*
X8337552Y-13929925D02*
X8337552Y-14034687D01*
X8728029Y-13825163D02*
X8556600Y-14082306D01*
X8985172Y-13834687D02*
X9004219Y-13834687D01*
X9004219Y-13834687D02*
X9023267Y-13844210D01*
X9023267Y-13844210D02*
X9032791Y-13853734D01*
X9032791Y-13853734D02*
X9042315Y-13872782D01*
X9042315Y-13872782D02*
X9051838Y-13910877D01*
X9051838Y-13910877D02*
X9051838Y-13958496D01*
X9051838Y-13958496D02*
X9042315Y-13996591D01*
X9042315Y-13996591D02*
X9032791Y-14015639D01*
X9032791Y-14015639D02*
X9023267Y-14025163D01*
X9023267Y-14025163D02*
X9004219Y-14034687D01*
X9004219Y-14034687D02*
X8985172Y-14034687D01*
X8985172Y-14034687D02*
X8966124Y-14025163D01*
X8966124Y-14025163D02*
X8956600Y-14015639D01*
X8956600Y-14015639D02*
X8947076Y-13996591D01*
X8947076Y-13996591D02*
X8937553Y-13958496D01*
X8937553Y-13958496D02*
X8937553Y-13910877D01*
X8937553Y-13910877D02*
X8947076Y-13872782D01*
X8947076Y-13872782D02*
X8956600Y-13853734D01*
X8956600Y-13853734D02*
X8966124Y-13844210D01*
X8966124Y-13844210D02*
X8985172Y-13834687D01*
X9137553Y-14015639D02*
X9147076Y-14025163D01*
X9147076Y-14025163D02*
X9137553Y-14034687D01*
X9137553Y-14034687D02*
X9128029Y-14025163D01*
X9128029Y-14025163D02*
X9137553Y-14015639D01*
X9137553Y-14015639D02*
X9137553Y-14034687D01*
X9270886Y-13834687D02*
X9289934Y-13834687D01*
X9289934Y-13834687D02*
X9308981Y-13844210D01*
X9308981Y-13844210D02*
X9318505Y-13853734D01*
X9318505Y-13853734D02*
X9328029Y-13872782D01*
X9328029Y-13872782D02*
X9337553Y-13910877D01*
X9337553Y-13910877D02*
X9337553Y-13958496D01*
X9337553Y-13958496D02*
X9328029Y-13996591D01*
X9328029Y-13996591D02*
X9318505Y-14015639D01*
X9318505Y-14015639D02*
X9308981Y-14025163D01*
X9308981Y-14025163D02*
X9289934Y-14034687D01*
X9289934Y-14034687D02*
X9270886Y-14034687D01*
X9270886Y-14034687D02*
X9251838Y-14025163D01*
X9251838Y-14025163D02*
X9242315Y-14015639D01*
X9242315Y-14015639D02*
X9232791Y-13996591D01*
X9232791Y-13996591D02*
X9223267Y-13958496D01*
X9223267Y-13958496D02*
X9223267Y-13910877D01*
X9223267Y-13910877D02*
X9232791Y-13872782D01*
X9232791Y-13872782D02*
X9242315Y-13853734D01*
X9242315Y-13853734D02*
X9251838Y-13844210D01*
X9251838Y-13844210D02*
X9270886Y-13834687D01*
X9404219Y-13834687D02*
X9528029Y-13834687D01*
X9528029Y-13834687D02*
X9461362Y-13910877D01*
X9461362Y-13910877D02*
X9489934Y-13910877D01*
X9489934Y-13910877D02*
X9508981Y-13920401D01*
X9508981Y-13920401D02*
X9518505Y-13929925D01*
X9518505Y-13929925D02*
X9528029Y-13948972D01*
X9528029Y-13948972D02*
X9528029Y-13996591D01*
X9528029Y-13996591D02*
X9518505Y-14015639D01*
X9518505Y-14015639D02*
X9508981Y-14025163D01*
X9508981Y-14025163D02*
X9489934Y-14034687D01*
X9489934Y-14034687D02*
X9432791Y-14034687D01*
X9432791Y-14034687D02*
X9413743Y-14025163D01*
X9413743Y-14025163D02*
X9404219Y-14015639D01*
X9708981Y-13834687D02*
X9613743Y-13834687D01*
X9613743Y-13834687D02*
X9604219Y-13929925D01*
X9604219Y-13929925D02*
X9613743Y-13920401D01*
X9613743Y-13920401D02*
X9632791Y-13910877D01*
X9632791Y-13910877D02*
X9680410Y-13910877D01*
X9680410Y-13910877D02*
X9699457Y-13920401D01*
X9699457Y-13920401D02*
X9708981Y-13929925D01*
X9708981Y-13929925D02*
X9718505Y-13948972D01*
X9718505Y-13948972D02*
X9718505Y-13996591D01*
X9718505Y-13996591D02*
X9708981Y-14015639D01*
X9708981Y-14015639D02*
X9699457Y-14025163D01*
X9699457Y-14025163D02*
X9680410Y-14034687D01*
X9680410Y-14034687D02*
X9632791Y-14034687D01*
X9632791Y-14034687D02*
X9613743Y-14025163D01*
X9613743Y-14025163D02*
X9604219Y-14015639D01*
X9889934Y-13901353D02*
X9889934Y-14034687D01*
X9842315Y-13825163D02*
X9794696Y-13968020D01*
X9794696Y-13968020D02*
X9918505Y-13968020D01*
X9985172Y-13834687D02*
X9985172Y-13872782D01*
X10061362Y-13834687D02*
X10061362Y-13872782D01*
X10356600Y-14110877D02*
X10347077Y-14101353D01*
X10347077Y-14101353D02*
X10328029Y-14072782D01*
X10328029Y-14072782D02*
X10318505Y-14053734D01*
X10318505Y-14053734D02*
X10308981Y-14025163D01*
X10308981Y-14025163D02*
X10299458Y-13977544D01*
X10299458Y-13977544D02*
X10299458Y-13939449D01*
X10299458Y-13939449D02*
X10308981Y-13891829D01*
X10308981Y-13891829D02*
X10318505Y-13863258D01*
X10318505Y-13863258D02*
X10328029Y-13844210D01*
X10328029Y-13844210D02*
X10347077Y-13815639D01*
X10347077Y-13815639D02*
X10356600Y-13806115D01*
X10461362Y-13920401D02*
X10442315Y-13910877D01*
X10442315Y-13910877D02*
X10432791Y-13901353D01*
X10432791Y-13901353D02*
X10423267Y-13882306D01*
X10423267Y-13882306D02*
X10423267Y-13872782D01*
X10423267Y-13872782D02*
X10432791Y-13853734D01*
X10432791Y-13853734D02*
X10442315Y-13844210D01*
X10442315Y-13844210D02*
X10461362Y-13834687D01*
X10461362Y-13834687D02*
X10499458Y-13834687D01*
X10499458Y-13834687D02*
X10518505Y-13844210D01*
X10518505Y-13844210D02*
X10528029Y-13853734D01*
X10528029Y-13853734D02*
X10537553Y-13872782D01*
X10537553Y-13872782D02*
X10537553Y-13882306D01*
X10537553Y-13882306D02*
X10528029Y-13901353D01*
X10528029Y-13901353D02*
X10518505Y-13910877D01*
X10518505Y-13910877D02*
X10499458Y-13920401D01*
X10499458Y-13920401D02*
X10461362Y-13920401D01*
X10461362Y-13920401D02*
X10442315Y-13929925D01*
X10442315Y-13929925D02*
X10432791Y-13939449D01*
X10432791Y-13939449D02*
X10423267Y-13958496D01*
X10423267Y-13958496D02*
X10423267Y-13996591D01*
X10423267Y-13996591D02*
X10432791Y-14015639D01*
X10432791Y-14015639D02*
X10442315Y-14025163D01*
X10442315Y-14025163D02*
X10461362Y-14034687D01*
X10461362Y-14034687D02*
X10499458Y-14034687D01*
X10499458Y-14034687D02*
X10518505Y-14025163D01*
X10518505Y-14025163D02*
X10528029Y-14015639D01*
X10528029Y-14015639D02*
X10537553Y-13996591D01*
X10537553Y-13996591D02*
X10537553Y-13958496D01*
X10537553Y-13958496D02*
X10528029Y-13939449D01*
X10528029Y-13939449D02*
X10518505Y-13929925D01*
X10518505Y-13929925D02*
X10499458Y-13920401D01*
X10775648Y-14034687D02*
X10775648Y-13834687D01*
X10861362Y-14034687D02*
X10861362Y-13929925D01*
X10861362Y-13929925D02*
X10851839Y-13910877D01*
X10851839Y-13910877D02*
X10832791Y-13901353D01*
X10832791Y-13901353D02*
X10804219Y-13901353D01*
X10804219Y-13901353D02*
X10785172Y-13910877D01*
X10785172Y-13910877D02*
X10775648Y-13920401D01*
X10985172Y-14034687D02*
X10966124Y-14025163D01*
X10966124Y-14025163D02*
X10956600Y-14015639D01*
X10956600Y-14015639D02*
X10947077Y-13996591D01*
X10947077Y-13996591D02*
X10947077Y-13939449D01*
X10947077Y-13939449D02*
X10956600Y-13920401D01*
X10956600Y-13920401D02*
X10966124Y-13910877D01*
X10966124Y-13910877D02*
X10985172Y-13901353D01*
X10985172Y-13901353D02*
X11013743Y-13901353D01*
X11013743Y-13901353D02*
X11032791Y-13910877D01*
X11032791Y-13910877D02*
X11042315Y-13920401D01*
X11042315Y-13920401D02*
X11051839Y-13939449D01*
X11051839Y-13939449D02*
X11051839Y-13996591D01*
X11051839Y-13996591D02*
X11042315Y-14015639D01*
X11042315Y-14015639D02*
X11032791Y-14025163D01*
X11032791Y-14025163D02*
X11013743Y-14034687D01*
X11013743Y-14034687D02*
X10985172Y-14034687D01*
X11166124Y-14034687D02*
X11147077Y-14025163D01*
X11147077Y-14025163D02*
X11137553Y-14006115D01*
X11137553Y-14006115D02*
X11137553Y-13834687D01*
X11318505Y-14025163D02*
X11299458Y-14034687D01*
X11299458Y-14034687D02*
X11261362Y-14034687D01*
X11261362Y-14034687D02*
X11242315Y-14025163D01*
X11242315Y-14025163D02*
X11232791Y-14006115D01*
X11232791Y-14006115D02*
X11232791Y-13929925D01*
X11232791Y-13929925D02*
X11242315Y-13910877D01*
X11242315Y-13910877D02*
X11261362Y-13901353D01*
X11261362Y-13901353D02*
X11299458Y-13901353D01*
X11299458Y-13901353D02*
X11318505Y-13910877D01*
X11318505Y-13910877D02*
X11328029Y-13929925D01*
X11328029Y-13929925D02*
X11328029Y-13948972D01*
X11328029Y-13948972D02*
X11232791Y-13968020D01*
X11404219Y-14025163D02*
X11423267Y-14034687D01*
X11423267Y-14034687D02*
X11461362Y-14034687D01*
X11461362Y-14034687D02*
X11480410Y-14025163D01*
X11480410Y-14025163D02*
X11489934Y-14006115D01*
X11489934Y-14006115D02*
X11489934Y-13996591D01*
X11489934Y-13996591D02*
X11480410Y-13977544D01*
X11480410Y-13977544D02*
X11461362Y-13968020D01*
X11461362Y-13968020D02*
X11432791Y-13968020D01*
X11432791Y-13968020D02*
X11413743Y-13958496D01*
X11413743Y-13958496D02*
X11404219Y-13939449D01*
X11404219Y-13939449D02*
X11404219Y-13929925D01*
X11404219Y-13929925D02*
X11413743Y-13910877D01*
X11413743Y-13910877D02*
X11432791Y-13901353D01*
X11432791Y-13901353D02*
X11461362Y-13901353D01*
X11461362Y-13901353D02*
X11480410Y-13910877D01*
X11556600Y-14110877D02*
X11566124Y-14101353D01*
X11566124Y-14101353D02*
X11585172Y-14072782D01*
X11585172Y-14072782D02*
X11594696Y-14053734D01*
X11594696Y-14053734D02*
X11604219Y-14025163D01*
X11604219Y-14025163D02*
X11613743Y-13977544D01*
X11613743Y-13977544D02*
X11613743Y-13939449D01*
X11613743Y-13939449D02*
X11604219Y-13891829D01*
X11604219Y-13891829D02*
X11594696Y-13863258D01*
X11594696Y-13863258D02*
X11585172Y-13844210D01*
X11585172Y-13844210D02*
X11566124Y-13815639D01*
X11566124Y-13815639D02*
X11556600Y-13806115D01*
M02*
