%TF.GenerationSoftware,KiCad,Pcbnew,7.0.6*%
%TF.CreationDate,2023-10-29T15:43:53+01:00*%
%TF.ProjectId,nana,6e616e61-2e6b-4696-9361-645f70636258,rev?*%
%TF.SameCoordinates,Original*%
%TF.FileFunction,Drillmap*%
%TF.FilePolarity,Positive*%
%FSLAX45Y45*%
G04 Gerber Fmt 4.5, Leading zero omitted, Abs format (unit mm)*
G04 Created by KiCad (PCBNEW 7.0.6) date 2023-10-29 15:43:53*
%MOMM*%
%LPD*%
G01*
G04 APERTURE LIST*
%ADD10C,0.250000*%
%ADD11C,0.200000*%
G04 APERTURE END LIST*
D10*
X7452433Y-8349150D02*
X7441234Y-8352657D01*
X22852419Y-9891138D02*
X22863274Y-9865158D01*
X7088040Y-9644055D02*
X7097445Y-9654815D01*
X6809909Y-9177184D02*
X6804182Y-9201374D01*
X9878848Y-8229806D02*
X9433706Y-8180212D01*
X7097445Y-9654815D02*
X7106454Y-9665346D01*
X6979869Y-8507826D02*
X6976734Y-8512489D01*
X24242238Y-6001394D02*
X24240334Y-6003182D01*
X6820407Y-9346929D02*
X6824533Y-9352543D01*
X20664369Y-8233196D02*
X20637548Y-8241753D01*
X24290706Y-5989620D02*
X24288187Y-5989036D01*
X7441234Y-8352657D02*
X7428769Y-8356386D01*
X7167201Y-9746954D02*
X7182865Y-9770344D01*
X25112394Y-6786507D02*
X25113454Y-6784152D01*
X11843510Y-11960888D02*
X12696012Y-12137960D01*
X24240334Y-6003182D02*
X24238511Y-6005071D01*
X6795339Y-9286197D02*
X6796188Y-9291142D01*
X23683328Y-6610672D02*
X23664781Y-6631855D01*
X22784867Y-10034742D02*
X22797592Y-10009620D01*
X6798443Y-9229039D02*
X6796173Y-9243114D01*
X7000377Y-8485594D02*
X6998626Y-8487132D01*
X23156759Y-9045858D02*
X23167689Y-9023648D01*
X7159875Y-9736205D02*
X7167201Y-9746954D01*
X8909337Y-11005254D02*
X9551674Y-11274583D01*
X22872509Y-9842193D02*
X22898958Y-9771306D01*
X22797813Y-7561418D02*
X22684408Y-7658581D01*
X23538225Y-8466366D02*
X23627909Y-8357772D01*
X6833355Y-9363743D02*
X6842586Y-9374692D01*
X7910674Y-8212381D02*
X7601727Y-8296323D01*
X21842036Y-8081257D02*
X21828251Y-8082715D01*
X24267449Y-5988903D02*
X24264915Y-5989458D01*
X25107425Y-6732394D02*
X25105843Y-6730335D01*
X23063100Y-9266295D02*
X23071739Y-9243118D01*
X21814025Y-8084062D02*
X21785961Y-8086300D01*
X7601727Y-8296323D02*
X7502294Y-8332360D01*
X14135453Y-8886637D02*
X12976187Y-8730222D01*
X25112672Y-6741285D02*
X25111526Y-6738973D01*
X6982690Y-8504107D02*
X6981263Y-8505954D01*
X6794657Y-9281220D02*
X6795339Y-9286197D01*
X17132994Y-8983300D02*
X16826156Y-8999676D01*
X22017245Y-10981039D02*
X22198700Y-10814457D01*
X7866576Y-10425791D02*
X8344333Y-10721209D01*
X24283063Y-5988236D02*
X24280468Y-5988026D01*
X21127636Y-8138394D02*
X21011643Y-8155830D01*
X19093541Y-12273121D02*
X19145484Y-12263021D01*
X22819948Y-9963548D02*
X22831138Y-9939579D01*
X7153159Y-9726586D02*
X7159875Y-9736205D01*
X20066651Y-12024864D02*
X20353471Y-11925422D01*
X24304944Y-5995621D02*
X24302697Y-5994332D01*
X25113703Y-6743652D02*
X25112672Y-6741285D01*
X7663513Y-10274862D02*
X7866576Y-10425791D01*
X6851807Y-9385137D02*
X6868564Y-9403502D01*
X23228431Y-8911194D02*
X23296750Y-8798966D01*
X22797592Y-10009620D02*
X22808540Y-9987417D01*
X15338327Y-8989151D02*
X14732181Y-8946458D01*
X23144645Y-9071277D02*
X23156759Y-9045858D01*
X23014517Y-9409950D02*
X23038097Y-9337838D01*
X21785961Y-8086300D02*
X21772974Y-8087129D01*
X22162105Y-7991460D02*
X22103197Y-8015284D01*
X25117525Y-6766582D02*
X25117606Y-6763970D01*
X24272612Y-5988169D02*
X24270018Y-5988473D01*
X23648644Y-6650628D02*
X23447206Y-6885880D01*
X23371751Y-8687237D02*
X23452540Y-8576279D01*
X22645724Y-10274169D02*
X22760314Y-10081615D01*
X21761250Y-8087725D02*
X21734809Y-8088706D01*
X23038097Y-9337838D02*
X23063100Y-9266295D01*
X18885265Y-12310812D02*
X18937400Y-12301756D01*
X7145580Y-9716017D02*
X7153159Y-9726586D01*
X7489934Y-8336643D02*
X7477411Y-8340903D01*
X7010370Y-8477897D02*
X7005795Y-8481161D01*
X21011643Y-8155830D02*
X20903679Y-8175093D01*
X22684408Y-7658581D02*
X22569879Y-7748534D01*
X25117382Y-6758727D02*
X25117079Y-6756131D01*
X6988706Y-8496982D02*
X6987157Y-8498723D01*
X20589230Y-8258679D02*
X20564409Y-8267825D01*
X24250604Y-5995282D02*
X24248408Y-5996649D01*
X17746463Y-8929864D02*
X17439829Y-8960102D01*
X6954890Y-8569330D02*
X6951389Y-8582834D01*
X6987157Y-8498723D02*
X6985636Y-8500491D01*
X22946889Y-9627487D02*
X22969456Y-9554994D01*
X7464865Y-8345090D02*
X7452433Y-8349150D01*
X6794623Y-9256784D02*
X6794195Y-9263335D01*
X20691312Y-8225036D02*
X20664369Y-8233196D01*
X6796188Y-9291142D02*
X6797202Y-9296057D01*
X20637548Y-8241753D02*
X20614112Y-8249710D01*
X6807011Y-9325108D02*
X6809789Y-9330405D01*
X25117560Y-6761345D02*
X25117382Y-6758727D01*
X24295636Y-5991152D02*
X24293190Y-5990326D01*
X24285638Y-5988574D02*
X24283063Y-5988236D01*
X12696012Y-12137960D02*
X13576264Y-12283618D01*
X20629188Y-11816479D02*
X20893211Y-11698352D01*
X23101669Y-9167812D02*
X23112032Y-9143554D01*
X21515581Y-8099157D02*
X21380424Y-8109847D01*
X24244222Y-5999708D02*
X24242238Y-6001394D01*
X23092253Y-9190701D02*
X23101669Y-9167812D01*
X6794037Y-9269628D02*
X6794182Y-9275606D01*
X21828251Y-8082715D02*
X21814025Y-8084062D01*
X20715116Y-8218265D02*
X20691312Y-8225036D01*
X6985636Y-8500491D02*
X6984147Y-8502286D01*
X18046738Y-12423784D02*
X18885265Y-12310812D01*
X18358359Y-8847387D02*
X18052704Y-8892366D01*
X24548024Y-7404576D02*
X25103671Y-6799391D01*
X21925847Y-8067545D02*
X21866580Y-8078126D01*
X15602626Y-9001364D02*
X15496884Y-8996963D01*
X24307129Y-5997021D02*
X24304944Y-5995621D01*
X7401701Y-8364129D02*
X7350651Y-8378054D01*
X7026851Y-8468932D02*
X7020961Y-8471784D01*
X6991898Y-8493584D02*
X6990287Y-8495269D01*
X25115930Y-6776821D02*
X25116515Y-6774302D01*
X17439829Y-8960102D02*
X17132994Y-8983300D01*
X25105397Y-6797414D02*
X25107018Y-6795363D01*
X23129961Y-7237188D02*
X23020723Y-7349674D01*
X9012831Y-8150021D02*
X8617710Y-8142883D01*
X6995204Y-8490300D02*
X6993536Y-8491927D01*
X22841265Y-9916993D02*
X22852419Y-9891138D01*
X24252858Y-5994024D02*
X24250604Y-5995282D01*
X24259953Y-5990931D02*
X24257538Y-5991847D01*
X6945589Y-8607035D02*
X6809909Y-9177184D01*
X7122069Y-9684536D02*
X7129956Y-9694868D01*
X7106454Y-9665346D02*
X7114766Y-9675354D01*
X22513530Y-10460706D02*
X22645724Y-10274169D01*
X6970921Y-8523248D02*
X6968234Y-8529215D01*
X25104157Y-6728352D02*
X25102369Y-6726446D01*
X19871033Y-8502609D02*
X19571226Y-8588282D01*
X21609212Y-11292034D02*
X21820551Y-11140337D01*
X6794182Y-9275606D02*
X6794657Y-9281220D01*
X9433706Y-8180212D02*
X9012831Y-8150021D01*
X7052918Y-8458801D02*
X7046151Y-8461148D01*
X18663232Y-8794711D02*
X18358359Y-8847387D01*
X6993536Y-8491927D02*
X6991898Y-8493584D01*
X20804564Y-8195975D02*
X20715116Y-8218265D01*
X21380424Y-8109847D02*
X21250836Y-8122996D01*
X7003962Y-8482609D02*
X7002155Y-8484085D01*
X6801219Y-9310553D02*
X6802880Y-9315291D01*
X22909963Y-7458101D02*
X22797813Y-7561418D01*
X21734809Y-8088706D02*
X21708356Y-8089535D01*
X23112032Y-9143554D02*
X23122601Y-9119379D01*
X25108902Y-6734524D02*
X25107425Y-6732394D01*
X23296750Y-8798966D02*
X23371751Y-8687237D01*
X21250836Y-8122996D02*
X21127636Y-8138394D01*
X6998626Y-8487132D02*
X6996900Y-8488700D01*
X6968234Y-8529215D02*
X6965689Y-8535494D01*
X7182865Y-9770344D02*
X7198503Y-9793757D01*
X7198503Y-9793757D02*
X7212464Y-9814197D01*
X7002155Y-8484085D02*
X7000377Y-8485594D01*
X24309249Y-5998533D02*
X24307129Y-5997021D01*
X22103197Y-8015284D02*
X22044173Y-8035993D01*
X19041545Y-12282946D02*
X19093541Y-12273121D01*
X16826156Y-8999676D02*
X16213238Y-9012844D01*
X25102369Y-6726446D02*
X25100479Y-6724625D01*
X25107018Y-6795363D02*
X25108528Y-6793243D01*
X13576264Y-12283618D02*
X14474352Y-12394523D01*
X6951389Y-8582834D02*
X6945589Y-8607035D01*
X6816540Y-9341346D02*
X6820407Y-9346929D01*
X25117606Y-6763970D02*
X25117560Y-6761345D01*
X25116092Y-6751028D02*
X25115416Y-6748527D01*
X6802880Y-9315291D02*
X6804700Y-9319972D01*
X20564409Y-8267825D02*
X20465206Y-8304650D01*
X7502294Y-8332360D02*
X7489934Y-8336643D01*
X8617710Y-8142883D02*
X8249829Y-8162453D01*
X7033056Y-8466210D02*
X7026851Y-8468932D01*
X25113454Y-6784152D02*
X25114397Y-6781750D01*
X25116515Y-6774302D02*
X25116977Y-6771751D01*
X23718655Y-6571285D02*
X23702036Y-6589631D01*
X21866580Y-8078126D02*
X21854955Y-8079716D01*
X7114766Y-9675354D02*
X7122069Y-9684536D01*
X18937400Y-12301756D02*
X18989496Y-12292476D01*
X6981263Y-8505954D02*
X6979869Y-8507826D01*
X24257538Y-5991847D02*
X24255172Y-5992879D01*
X6842586Y-9374692D02*
X6851807Y-9385137D01*
X6809789Y-9330405D02*
X6812983Y-9335827D01*
X7428769Y-8356386D02*
X7401701Y-8364129D01*
X9551674Y-11274583D02*
X10261425Y-11525858D01*
X7015446Y-8474772D02*
X7010370Y-8477897D01*
X22923570Y-9699664D02*
X22946889Y-9627487D01*
X15496884Y-8996963D02*
X15444025Y-8994512D01*
X22220885Y-7964655D02*
X22162105Y-7991460D01*
X21655487Y-8091135D02*
X21515581Y-8099157D01*
X6868564Y-9403502D02*
X7052615Y-9604741D01*
X23627909Y-8357772D02*
X23720699Y-8250770D01*
X23815702Y-8145635D02*
X24008763Y-7942059D01*
X10261425Y-11525858D02*
X11028676Y-11755740D01*
X8249829Y-8162453D02*
X7910674Y-8212381D01*
X16213238Y-9012844D02*
X15602626Y-9001364D01*
X22969456Y-9554994D02*
X23014517Y-9409950D01*
X7335217Y-9968646D02*
X7485979Y-10122341D01*
X7485979Y-10122341D02*
X7663513Y-10274862D01*
X22771922Y-10059749D02*
X22784867Y-10034742D01*
X25116977Y-6771751D02*
X25117313Y-6769177D01*
X25117313Y-6769177D02*
X25117525Y-6766582D01*
X21144950Y-11571359D02*
X21383814Y-11435814D01*
X6798378Y-9300932D02*
X6799719Y-9305767D01*
X6799719Y-9305767D02*
X6801219Y-9310553D01*
X7052615Y-9604741D02*
X7069276Y-9623056D01*
X24288187Y-5989036D02*
X24285638Y-5988574D01*
X6828868Y-9358158D02*
X6833355Y-9363743D01*
X25117079Y-6756131D02*
X25116646Y-6753563D01*
X25100479Y-6724625D02*
X24313276Y-6001880D01*
X23167689Y-9023648D02*
X23228431Y-8911194D01*
X6797202Y-9296057D02*
X6798378Y-9300932D01*
X7020961Y-8471784D02*
X7015446Y-8474772D01*
X19571226Y-8588282D02*
X19269860Y-8665377D01*
X6984147Y-8502286D02*
X6982690Y-8504107D01*
X25111526Y-6738973D02*
X25110267Y-6736717D01*
X21820551Y-11140337D02*
X22017245Y-10981039D01*
X18967130Y-8734112D02*
X18663232Y-8794711D01*
X22831138Y-9939579D02*
X22841265Y-9916993D01*
X21985051Y-8053459D02*
X21925847Y-8067545D01*
X17176468Y-12485300D02*
X18046738Y-12423784D01*
X24277856Y-5987945D02*
X24275231Y-5987991D01*
X22808540Y-9987417D02*
X22819948Y-9963548D01*
X24313276Y-6001880D02*
X24311300Y-6000153D01*
X23447206Y-6885880D02*
X23237542Y-7121695D01*
X21383814Y-11435814D02*
X21609212Y-11292034D01*
X14732181Y-8946458D02*
X14135453Y-8886637D01*
X19769320Y-12114490D02*
X20066651Y-12024864D01*
X6804182Y-9201374D02*
X6801194Y-9214986D01*
X24238511Y-6005071D02*
X23718655Y-6571285D01*
X24275231Y-5987991D02*
X24272612Y-5988169D01*
X6990287Y-8495269D02*
X6988706Y-8496982D01*
X14474352Y-12394523D02*
X15380359Y-12467331D01*
X24199941Y-7749231D02*
X24548024Y-7404576D01*
X6794195Y-9263335D02*
X6794037Y-9269628D01*
X23132782Y-9096815D02*
X23144645Y-9071277D01*
X20169091Y-8408138D02*
X19871033Y-8502609D01*
X25111217Y-6788811D02*
X25112394Y-6786507D01*
X22898958Y-9771306D02*
X22923570Y-9699664D01*
X24246280Y-5998126D02*
X24244222Y-5999708D01*
X24280468Y-5988026D02*
X24277856Y-5987945D01*
X21854955Y-8079716D02*
X21842036Y-8081257D01*
X7129956Y-9694868D02*
X7137819Y-9705403D01*
X16284370Y-12498703D02*
X17176468Y-12485300D01*
X25108528Y-6793243D02*
X25109929Y-6791057D01*
X7069276Y-9623056D02*
X7088040Y-9644055D01*
X20893211Y-11698352D02*
X21144950Y-11571359D01*
X24008763Y-7942059D02*
X24199941Y-7749231D01*
X15444025Y-8994512D02*
X15338327Y-8989151D01*
X22044173Y-8035993D02*
X21985051Y-8053459D01*
X6801194Y-9214986D02*
X6798443Y-9229039D01*
X7005795Y-8481161D02*
X7003962Y-8482609D01*
X22760314Y-10081615D02*
X22771922Y-10059749D01*
X22198700Y-10814457D02*
X22364324Y-10640907D01*
X18052704Y-8892366D02*
X17746463Y-8929864D01*
X6958840Y-8555558D02*
X6954890Y-8569330D01*
X24300394Y-5993156D02*
X24298039Y-5992096D01*
X20465206Y-8304650D02*
X20169091Y-8408138D01*
X25114619Y-6746067D02*
X25113703Y-6743652D01*
X24248408Y-5996649D02*
X24246280Y-5998126D01*
X25110267Y-6736717D02*
X25108902Y-6734524D01*
X7079976Y-8450590D02*
X7066575Y-8454467D01*
X8344333Y-10721209D02*
X8909337Y-11005254D01*
X22337985Y-7902622D02*
X22220885Y-7964655D01*
X24293190Y-5990326D02*
X24290706Y-5989620D01*
X24262414Y-5990135D02*
X24259953Y-5990931D01*
X25114397Y-6781750D02*
X25115224Y-6779304D01*
X23452540Y-8576279D02*
X23538225Y-8466366D01*
X6973754Y-8517652D02*
X6970921Y-8523248D01*
X6976734Y-8512489D02*
X6973754Y-8517652D01*
X22569879Y-7748534D02*
X22454360Y-7830231D01*
X25115224Y-6779304D02*
X25115930Y-6776821D01*
X6965689Y-8535494D02*
X6963276Y-8542019D01*
X25109929Y-6791057D02*
X25111217Y-6788811D01*
X7104004Y-8444114D02*
X7079976Y-8450590D01*
X7477411Y-8340903D02*
X7464865Y-8345090D01*
X24264915Y-5989458D02*
X24262414Y-5990135D01*
X6996900Y-8488700D02*
X6995204Y-8490300D01*
X23071739Y-9243118D02*
X23081865Y-9216861D01*
X20614112Y-8249710D02*
X20589230Y-8258679D01*
X25116646Y-6753563D02*
X25116092Y-6751028D01*
X7039511Y-8463617D02*
X7033056Y-8466210D01*
X12976187Y-8730222D02*
X10836003Y-8372583D01*
X23720699Y-8250770D02*
X23815702Y-8145635D01*
X18989496Y-12292476D02*
X19041545Y-12282946D01*
X6960995Y-8548726D02*
X6958840Y-8555558D01*
X7137819Y-9705403D02*
X7145580Y-9716017D01*
X19269860Y-8665377D02*
X18967130Y-8734112D01*
X20353471Y-11925422D02*
X20629188Y-11816479D01*
X6795293Y-9250026D02*
X6794623Y-9256784D01*
X19145484Y-12263021D02*
X19462067Y-12193981D01*
X25103671Y-6799391D02*
X25105397Y-6797414D01*
X6963276Y-8542019D02*
X6960995Y-8548726D01*
X23702036Y-6589631D02*
X23683328Y-6610672D01*
X11028676Y-11755740D02*
X11843510Y-11960888D01*
X22863274Y-9865158D02*
X22872509Y-9842193D01*
X6804700Y-9319972D02*
X6807011Y-9325108D01*
X22454360Y-7830231D02*
X22337985Y-7902622D01*
X25105843Y-6730335D02*
X25104157Y-6728352D01*
X23237542Y-7121695D02*
X23129961Y-7237188D01*
X23122601Y-9119379D02*
X23132782Y-9096815D01*
X6812983Y-9335827D02*
X6816540Y-9341346D01*
X24255172Y-5992879D02*
X24252858Y-5994024D01*
X7212464Y-9814197D02*
X7335217Y-9968646D01*
X7046151Y-8461148D02*
X7039511Y-8463617D01*
X24302697Y-5994332D02*
X24300394Y-5993156D01*
X24298039Y-5992096D02*
X24295636Y-5991152D01*
X6796173Y-9243114D02*
X6795293Y-9250026D01*
X25115416Y-6748527D02*
X25114619Y-6746067D01*
X7350651Y-8378054D02*
X7104004Y-8444114D01*
X20903679Y-8175093D02*
X20804564Y-8195975D01*
X6824533Y-9352543D02*
X6828868Y-9358158D01*
X24311300Y-6000153D02*
X24309249Y-5998533D01*
X15380359Y-12467331D02*
X16284370Y-12498703D01*
X23664781Y-6631855D02*
X23648644Y-6650628D01*
X19462067Y-12193981D02*
X19769320Y-12114490D01*
X7066575Y-8454467D02*
X7052918Y-8458801D01*
X22364324Y-10640907D02*
X22513530Y-10460706D01*
X21772974Y-8087129D02*
X21761250Y-8087725D01*
X21708356Y-8089535D02*
X21655487Y-8091135D01*
X23020723Y-7349674D02*
X22909963Y-7458101D01*
X10836003Y-8372583D02*
X9878848Y-8229806D01*
X23081865Y-9216861D02*
X23092253Y-9190701D01*
X24270018Y-5988473D02*
X24267449Y-5988903D01*
D11*
X7042314Y-12822687D02*
X7042314Y-12622687D01*
X7042314Y-12622687D02*
X7089933Y-12622687D01*
X7089933Y-12622687D02*
X7118505Y-12632210D01*
X7118505Y-12632210D02*
X7137552Y-12651258D01*
X7137552Y-12651258D02*
X7147076Y-12670306D01*
X7147076Y-12670306D02*
X7156600Y-12708401D01*
X7156600Y-12708401D02*
X7156600Y-12736972D01*
X7156600Y-12736972D02*
X7147076Y-12775068D01*
X7147076Y-12775068D02*
X7137552Y-12794115D01*
X7137552Y-12794115D02*
X7118505Y-12813163D01*
X7118505Y-12813163D02*
X7089933Y-12822687D01*
X7089933Y-12822687D02*
X7042314Y-12822687D01*
X7242314Y-12822687D02*
X7242314Y-12689353D01*
X7242314Y-12727449D02*
X7251838Y-12708401D01*
X7251838Y-12708401D02*
X7261362Y-12698877D01*
X7261362Y-12698877D02*
X7280409Y-12689353D01*
X7280409Y-12689353D02*
X7299457Y-12689353D01*
X7366124Y-12822687D02*
X7366124Y-12689353D01*
X7366124Y-12622687D02*
X7356600Y-12632210D01*
X7356600Y-12632210D02*
X7366124Y-12641734D01*
X7366124Y-12641734D02*
X7375648Y-12632210D01*
X7375648Y-12632210D02*
X7366124Y-12622687D01*
X7366124Y-12622687D02*
X7366124Y-12641734D01*
X7489933Y-12822687D02*
X7470886Y-12813163D01*
X7470886Y-12813163D02*
X7461362Y-12794115D01*
X7461362Y-12794115D02*
X7461362Y-12622687D01*
X7594695Y-12822687D02*
X7575648Y-12813163D01*
X7575648Y-12813163D02*
X7566124Y-12794115D01*
X7566124Y-12794115D02*
X7566124Y-12622687D01*
X7823267Y-12822687D02*
X7823267Y-12622687D01*
X7823267Y-12622687D02*
X7889933Y-12765544D01*
X7889933Y-12765544D02*
X7956600Y-12622687D01*
X7956600Y-12622687D02*
X7956600Y-12822687D01*
X8137552Y-12822687D02*
X8137552Y-12717925D01*
X8137552Y-12717925D02*
X8128029Y-12698877D01*
X8128029Y-12698877D02*
X8108981Y-12689353D01*
X8108981Y-12689353D02*
X8070886Y-12689353D01*
X8070886Y-12689353D02*
X8051838Y-12698877D01*
X8137552Y-12813163D02*
X8118505Y-12822687D01*
X8118505Y-12822687D02*
X8070886Y-12822687D01*
X8070886Y-12822687D02*
X8051838Y-12813163D01*
X8051838Y-12813163D02*
X8042314Y-12794115D01*
X8042314Y-12794115D02*
X8042314Y-12775068D01*
X8042314Y-12775068D02*
X8051838Y-12756020D01*
X8051838Y-12756020D02*
X8070886Y-12746496D01*
X8070886Y-12746496D02*
X8118505Y-12746496D01*
X8118505Y-12746496D02*
X8137552Y-12736972D01*
X8232790Y-12689353D02*
X8232790Y-12889353D01*
X8232790Y-12698877D02*
X8251838Y-12689353D01*
X8251838Y-12689353D02*
X8289933Y-12689353D01*
X8289933Y-12689353D02*
X8308981Y-12698877D01*
X8308981Y-12698877D02*
X8318505Y-12708401D01*
X8318505Y-12708401D02*
X8328029Y-12727449D01*
X8328029Y-12727449D02*
X8328029Y-12784591D01*
X8328029Y-12784591D02*
X8318505Y-12803639D01*
X8318505Y-12803639D02*
X8308981Y-12813163D01*
X8308981Y-12813163D02*
X8289933Y-12822687D01*
X8289933Y-12822687D02*
X8251838Y-12822687D01*
X8251838Y-12822687D02*
X8232790Y-12813163D01*
X8413743Y-12803639D02*
X8423267Y-12813163D01*
X8423267Y-12813163D02*
X8413743Y-12822687D01*
X8413743Y-12822687D02*
X8404219Y-12813163D01*
X8404219Y-12813163D02*
X8413743Y-12803639D01*
X8413743Y-12803639D02*
X8413743Y-12822687D01*
X8413743Y-12698877D02*
X8423267Y-12708401D01*
X8423267Y-12708401D02*
X8413743Y-12717925D01*
X8413743Y-12717925D02*
X8404219Y-12708401D01*
X8404219Y-12708401D02*
X8413743Y-12698877D01*
X8413743Y-12698877D02*
X8413743Y-12717925D01*
M02*
