%TF.GenerationSoftware,KiCad,Pcbnew,7.0.6*%
%TF.CreationDate,2023-10-29T15:43:57+01:00*%
%TF.ProjectId,nana,6e616e61-2e6b-4696-9361-645f70636258,rev?*%
%TF.SameCoordinates,Original*%
%TF.FileFunction,Paste,Bot*%
%TF.FilePolarity,Positive*%
%FSLAX46Y46*%
G04 Gerber Fmt 4.6, Leading zero omitted, Abs format (unit mm)*
G04 Created by KiCad (PCBNEW 7.0.6) date 2023-10-29 15:43:57*
%MOMM*%
%LPD*%
G01*
G04 APERTURE LIST*
G04 Aperture macros list*
%AMRoundRect*
0 Rectangle with rounded corners*
0 $1 Rounding radius*
0 $2 $3 $4 $5 $6 $7 $8 $9 X,Y pos of 4 corners*
0 Add a 4 corners polygon primitive as box body*
4,1,4,$2,$3,$4,$5,$6,$7,$8,$9,$2,$3,0*
0 Add four circle primitives for the rounded corners*
1,1,$1+$1,$2,$3*
1,1,$1+$1,$4,$5*
1,1,$1+$1,$6,$7*
1,1,$1+$1,$8,$9*
0 Add four rect primitives between the rounded corners*
20,1,$1+$1,$2,$3,$4,$5,0*
20,1,$1+$1,$4,$5,$6,$7,0*
20,1,$1+$1,$6,$7,$8,$9,0*
20,1,$1+$1,$8,$9,$2,$3,0*%
%AMRotRect*
0 Rectangle, with rotation*
0 The origin of the aperture is its center*
0 $1 length*
0 $2 width*
0 $3 Rotation angle, in degrees counterclockwise*
0 Add horizontal line*
21,1,$1,$2,0,0,$3*%
G04 Aperture macros list end*
%ADD10RoundRect,0.135000X0.185000X-0.135000X0.185000X0.135000X-0.185000X0.135000X-0.185000X-0.135000X0*%
%ADD11RotRect,6.000000X0.650000X166.200000*%
%ADD12RotRect,6.000000X0.670000X166.200000*%
%ADD13RotRect,6.000000X0.660000X166.200000*%
%ADD14RotRect,1.250000X1.600000X163.500000*%
%ADD15RoundRect,0.135000X-0.125133X-0.191812X0.144497X-0.177681X0.125133X0.191812X-0.144497X0.177681X0*%
%ADD16RoundRect,0.222500X0.154947X0.273868X-0.273868X0.154947X-0.154947X-0.273868X0.273868X-0.154947X0*%
%ADD17RoundRect,0.062500X0.344659X0.160441X-0.378064X-0.039987X-0.344659X-0.160441X0.378064X0.039987X0*%
%ADD18RoundRect,0.062500X-0.039987X0.378064X-0.160441X0.344659X0.039987X-0.378064X0.160441X-0.344659X0*%
%ADD19RotRect,6.000000X1.000000X166.200000*%
%ADD20RotRect,1.550000X1.300000X3.000000*%
%ADD21RoundRect,0.200000X-0.269868X-0.206872X0.113660X-0.320478X0.269868X0.206872X-0.113660X0.320478X0*%
%ADD22RoundRect,0.200000X-0.157857X-0.809371X0.241595X-0.788436X0.157857X0.809371X-0.241595X0.788436X0*%
%ADD23RoundRect,0.135000X0.139040X-0.181984X0.215724X0.076898X-0.139040X0.181984X-0.215724X-0.076898X0*%
%ADD24RoundRect,0.135000X0.191812X-0.125133X0.177681X0.144497X-0.191812X0.125133X-0.177681X-0.144497X0*%
%ADD25RoundRect,0.250000X-0.060536X-2.070950X0.651421X1.966761X0.060536X2.070950X-0.651421X-1.966761X0*%
%ADD26RoundRect,0.250000X1.987281X-2.406650X2.690556X1.581821X-1.987281X2.406650X-2.690556X-1.581821X0*%
%ADD27RotRect,1.500000X1.500000X183.000000*%
%ADD28RoundRect,0.250000X0.197082X-0.897863X0.492284X0.776310X-0.197082X0.897863X-0.492284X-0.776310X0*%
%ADD29RoundRect,0.250000X0.886507X-1.450984X1.329310X1.060276X-0.886507X1.450984X-1.329310X-1.060276X0*%
%ADD30RoundRect,0.167500X0.116646X0.206171X-0.206171X0.116646X-0.116646X-0.206171X0.206171X-0.116646X0*%
%ADD31RoundRect,0.050000X0.348000X0.148396X-0.374723X-0.052033X-0.348000X-0.148396X0.374723X0.052033X0*%
%ADD32RoundRect,0.050000X-0.052033X0.374723X-0.148396X0.348000X0.052033X-0.374723X0.148396X-0.348000X0*%
%ADD33RoundRect,0.140000X-0.170000X0.140000X-0.170000X-0.140000X0.170000X-0.140000X0.170000X0.140000X0*%
%ADD34RotRect,1.500000X1.000000X73.500000*%
%ADD35RotRect,0.550000X0.550000X73.500000*%
%ADD36RotRect,3.500000X2.700000X354.500000*%
%ADD37C,5.700000*%
%ADD38RotRect,1.500000X0.900000X3.000000*%
%ADD39RotRect,1.500000X0.900000X183.000000*%
%ADD40RotRect,0.700000X0.700000X183.000000*%
%ADD41RotRect,0.900000X1.000000X183.000000*%
%ADD42RoundRect,0.250000X-0.370965X-0.592171X0.251158X-0.652074X0.370965X0.592171X-0.251158X0.652074X0*%
%ADD43RotRect,1.500000X0.900000X354.500000*%
%ADD44RotRect,1.500000X0.900000X264.500000*%
%ADD45RotRect,1.500000X0.900000X174.500000*%
%ADD46RotRect,0.900000X0.900000X174.500000*%
%ADD47RotRect,1.600000X0.850000X343.500000*%
%ADD48RoundRect,0.250000X0.198472X0.350798X-0.350798X0.198472X-0.198472X-0.350798X0.350798X-0.198472X0*%
%ADD49RoundRect,0.050000X0.323909X0.141715X-0.350633X-0.045352X-0.323909X-0.141715X0.350633X0.045352X0*%
%ADD50RoundRect,0.050000X-0.045352X0.350633X-0.141715X0.323909X0.045352X-0.350633X0.141715X-0.323909X0*%
%ADD51RoundRect,0.250000X0.188026X0.332335X-0.332335X0.188026X-0.188026X-0.332335X0.332335X-0.188026X0*%
%ADD52RotRect,1.500000X0.900000X343.500000*%
G04 APERTURE END LIST*
D10*
%TO.C,R5*%
X160818772Y-122442501D03*
X160818772Y-121422501D03*
%TD*%
D11*
%TO.C,J3*%
X111521712Y-99249176D03*
X111218775Y-100482517D03*
D12*
X110918223Y-101706146D03*
D11*
X110612900Y-102949198D03*
D13*
X110311155Y-104177683D03*
D11*
X110007025Y-105415879D03*
X109704087Y-106649219D03*
X109401150Y-107882560D03*
%TD*%
D14*
%TO.C,D14*%
X75262542Y-94682442D03*
X73575020Y-94182574D03*
%TD*%
D15*
%TO.C,R16*%
X169420986Y-94265734D03*
X170439588Y-94212352D03*
%TD*%
D16*
%TO.C,REF\u002A\u002A*%
X190315098Y-99538999D03*
X190021135Y-98479006D03*
X189727173Y-97419012D03*
X189255104Y-99832961D03*
X188961142Y-98772968D03*
X188667180Y-97712975D03*
X188195111Y-100126924D03*
X187901149Y-99066930D03*
X187607186Y-98006937D03*
D17*
X190842324Y-96435221D03*
X190975943Y-96917036D03*
X191109562Y-97398852D03*
X191243182Y-97880667D03*
X191376801Y-98362482D03*
X191510420Y-98844297D03*
X191644039Y-99326113D03*
X191777658Y-99807928D03*
D18*
X191298889Y-100654150D03*
X190817074Y-100787769D03*
X190335258Y-100921388D03*
X189853443Y-101055008D03*
X189371628Y-101188627D03*
X188889813Y-101322246D03*
X188407997Y-101455865D03*
X187926182Y-101589484D03*
D17*
X187079960Y-101110715D03*
X186946341Y-100628900D03*
X186812722Y-100147084D03*
X186679102Y-99665269D03*
X186545483Y-99183454D03*
X186411864Y-98701639D03*
X186278245Y-98219823D03*
X186144626Y-97738008D03*
D18*
X186623395Y-96891786D03*
X187105210Y-96758167D03*
X187587026Y-96624548D03*
X188068841Y-96490928D03*
X188550656Y-96357309D03*
X189032471Y-96223690D03*
X189514287Y-96090071D03*
X189996102Y-95956452D03*
%TD*%
D19*
%TO.C,J4*%
X105709903Y-88465751D03*
X105104028Y-90932432D03*
X104498153Y-93399113D03*
X103892278Y-95865794D03*
X103286404Y-98332476D03*
X102680529Y-100799157D03*
X102074654Y-103265838D03*
X101468779Y-105732519D03*
%TD*%
D20*
%TO.C,SW3*%
X161845273Y-100782158D03*
X169784377Y-100366087D03*
X161609761Y-96288325D03*
X169548865Y-95872254D03*
%TD*%
D21*
%TO.C,R13*%
X76427755Y-85398201D03*
X78009807Y-85866827D03*
%TD*%
D22*
%TO.C,SW4*%
X177589898Y-96126766D03*
X181784142Y-95906954D03*
%TD*%
D23*
%TO.C,R14*%
X76573930Y-95621503D03*
X76863626Y-94643507D03*
%TD*%
D24*
%TO.C,R17*%
X182949900Y-95419274D03*
X182896518Y-94400672D03*
%TD*%
D25*
%TO.C,U10*%
X123771599Y-107514644D03*
D26*
X119705130Y-99968871D03*
X125170813Y-100932619D03*
X120547324Y-95192554D03*
X126013007Y-96156301D03*
D25*
X118768776Y-106632511D03*
%TD*%
D27*
%TO.C,SW1*%
X180813748Y-99863157D03*
X173024438Y-100271377D03*
%TD*%
D28*
%TO.C,U9*%
X133434818Y-104814633D03*
D29*
X130490747Y-99599166D03*
X133494411Y-100128793D03*
X131072469Y-96300060D03*
X134076132Y-96829687D03*
D28*
X128944095Y-104022797D03*
%TD*%
D30*
%TO.C,REF\u002A\u002A*%
X198118810Y-96619900D03*
X197899675Y-95829723D03*
X197328633Y-96839035D03*
X197109498Y-96048858D03*
D31*
X198797627Y-95175979D03*
X198904523Y-95561431D03*
X199011418Y-95946883D03*
X199118314Y-96332336D03*
X199225209Y-96717788D03*
D32*
X198772554Y-97517852D03*
X198387102Y-97624748D03*
X198001650Y-97731643D03*
X197616197Y-97838539D03*
X197230745Y-97945434D03*
D31*
X196430681Y-97492779D03*
X196323785Y-97107327D03*
X196216890Y-96721875D03*
X196109994Y-96336422D03*
X196003099Y-95950970D03*
D32*
X196455754Y-95150906D03*
X196841206Y-95044010D03*
X197226658Y-94937115D03*
X197612111Y-94830219D03*
X197997563Y-94723324D03*
%TD*%
D33*
%TO.C,C8*%
X161818773Y-121452516D03*
X161818773Y-122412516D03*
%TD*%
D34*
%TO.C,D16*%
X73688831Y-91527205D03*
X75222942Y-91981629D03*
X76757054Y-92436054D03*
X75080506Y-86828988D03*
X76614618Y-87283413D03*
X78148729Y-87737837D03*
%TD*%
D35*
%TO.C,D12*%
X94573035Y-88775007D03*
X94842850Y-87864128D03*
X95753729Y-88133943D03*
X95483914Y-89044822D03*
%TD*%
D36*
%TO.C,D17*%
X141440409Y-95041652D03*
X153823157Y-98946462D03*
D37*
X147631783Y-96994057D03*
%TD*%
D38*
%TO.C,U5*%
X163887487Y-123532508D03*
X163808983Y-122034564D03*
X163730479Y-120536619D03*
X163651975Y-119038675D03*
X163573471Y-117540731D03*
X163494967Y-116042786D03*
X163416463Y-114544842D03*
X163337959Y-113046898D03*
X163259455Y-111548953D03*
D39*
X180735472Y-110633074D03*
X180813976Y-112131019D03*
X180892480Y-113628963D03*
X180970984Y-115126907D03*
X181049488Y-116624851D03*
X181127992Y-118122796D03*
X181206496Y-119620740D03*
X181285000Y-121118684D03*
X181363504Y-122616629D03*
D40*
X172103635Y-115791900D03*
X172161204Y-116890392D03*
X172218774Y-117988885D03*
X173152196Y-115736947D03*
X173209765Y-116835439D03*
X173267335Y-117933932D03*
X174300620Y-115676761D03*
X174358189Y-116775253D03*
X174415759Y-117873746D03*
%TD*%
D41*
%TO.C,SW2*%
X175799464Y-95443433D03*
X171705083Y-95658010D03*
X175883201Y-97041240D03*
X171788820Y-97255817D03*
%TD*%
D42*
%TO.C,R12*%
X138180043Y-97992753D03*
X141091577Y-98273101D03*
%TD*%
D15*
%TO.C,R15*%
X167523592Y-94365167D03*
X168542194Y-94311785D03*
%TD*%
D24*
%TO.C,R18*%
X183049338Y-97316662D03*
X182995956Y-96298060D03*
%TD*%
D43*
%TO.C,U6*%
X136457056Y-121476291D03*
X136578780Y-120212138D03*
X136700505Y-118947985D03*
X136943953Y-116419679D03*
X137065677Y-115155525D03*
X137187401Y-113891372D03*
X137309125Y-112627219D03*
X137796022Y-107570606D03*
X137917746Y-106306453D03*
X138039470Y-105042300D03*
D44*
X139916151Y-103967223D03*
X141180304Y-104088947D03*
X142444458Y-104210671D03*
X143708611Y-104332395D03*
X144972764Y-104454119D03*
X146236917Y-104575843D03*
X147501070Y-104697567D03*
X148765223Y-104819291D03*
X150029377Y-104941015D03*
X151293530Y-105062739D03*
X152557683Y-105184464D03*
X153821836Y-105306188D03*
D45*
X155458903Y-106719601D03*
X155337179Y-107983754D03*
X155215455Y-109247907D03*
X154850283Y-113040367D03*
X154728559Y-114304520D03*
X154606834Y-115568673D03*
X154485110Y-116832826D03*
X154363386Y-118096979D03*
X154241662Y-119361132D03*
X154119938Y-120625286D03*
X153997255Y-121899393D03*
D46*
X143154237Y-112958976D03*
X143154237Y-112958976D03*
X143020053Y-114352530D03*
X142885869Y-115746085D03*
X144547792Y-113093160D03*
X144413608Y-114486714D03*
X144279424Y-115880269D03*
X144279424Y-115880269D03*
X145941347Y-113227344D03*
X145807163Y-114620898D03*
X145672979Y-116014453D03*
%TD*%
D47*
%TO.C,D13*%
X88802814Y-88729031D03*
X89299841Y-87051097D03*
X92655710Y-88045151D03*
X92158683Y-89723085D03*
%TD*%
D48*
%TO.C,REF\u002A\u002A*%
X193060123Y-108576622D03*
X192704696Y-107294994D03*
X192349268Y-106013365D03*
X191778494Y-108932050D03*
X191423067Y-107650421D03*
X191067640Y-106368792D03*
X190496866Y-109287477D03*
X190141438Y-108005848D03*
X189786011Y-106724220D03*
D49*
X194052772Y-104223009D03*
X194159668Y-104608462D03*
X194266563Y-104993914D03*
X194373458Y-105379366D03*
X194480354Y-105764818D03*
X194587249Y-106150270D03*
X194694144Y-106535723D03*
X194801040Y-106921175D03*
X194907935Y-107306627D03*
X195014830Y-107692079D03*
X195121726Y-108077531D03*
X195228621Y-108462983D03*
X195335516Y-108848436D03*
X195442412Y-109233888D03*
D50*
X194850479Y-110280126D03*
X194465026Y-110387022D03*
X194079574Y-110493917D03*
X193694122Y-110600812D03*
X193308670Y-110707708D03*
X192923218Y-110814603D03*
X192537765Y-110921498D03*
X192152313Y-111028394D03*
X191766861Y-111135289D03*
X191381409Y-111242184D03*
X190995957Y-111349080D03*
X190610505Y-111455975D03*
X190225052Y-111562870D03*
X189839600Y-111669766D03*
D49*
X188793362Y-111077833D03*
X188686466Y-110692380D03*
X188579571Y-110306928D03*
X188472676Y-109921476D03*
X188365780Y-109536024D03*
X188258885Y-109150572D03*
X188151990Y-108765119D03*
X188045094Y-108379667D03*
X187938199Y-107994215D03*
X187831304Y-107608763D03*
X187724408Y-107223311D03*
X187617513Y-106837859D03*
X187510618Y-106452406D03*
X187403722Y-106066954D03*
D50*
X187995655Y-105020716D03*
X188381108Y-104913820D03*
X188766560Y-104806925D03*
X189152012Y-104700030D03*
X189537464Y-104593134D03*
X189922916Y-104486239D03*
X190308369Y-104379344D03*
X190693821Y-104272448D03*
X191079273Y-104165553D03*
X191464725Y-104058658D03*
X191850177Y-103951762D03*
X192235629Y-103844867D03*
X192621082Y-103737972D03*
X193006534Y-103631076D03*
%TD*%
D51*
%TO.C,REF\u002A\u002A*%
X202455792Y-106598804D03*
X202111055Y-105355720D03*
X201766317Y-104112637D03*
X201421580Y-102869554D03*
X201212709Y-106943541D03*
X200867971Y-105700458D03*
X200523234Y-104457375D03*
X200178496Y-103214291D03*
X199969626Y-107288279D03*
X199624888Y-106045195D03*
X199280151Y-104802112D03*
X198935413Y-103559029D03*
X198726542Y-107633016D03*
X198381805Y-106389933D03*
X198037067Y-105146850D03*
X197692330Y-103903766D03*
D17*
X202718445Y-101923577D03*
X202852064Y-102405392D03*
X202985683Y-102887207D03*
X203119302Y-103369023D03*
X203252921Y-103850838D03*
X203386541Y-104332653D03*
X203520160Y-104814468D03*
X203653779Y-105296284D03*
X203787398Y-105778099D03*
X203921017Y-106259914D03*
X204054637Y-106741729D03*
D18*
X203401769Y-107895669D03*
X202919954Y-108029288D03*
X202438139Y-108162907D03*
X201956323Y-108296526D03*
X201474508Y-108430145D03*
X200992693Y-108563765D03*
X200510878Y-108697384D03*
X200029062Y-108831003D03*
X199547247Y-108964622D03*
X199065432Y-109098241D03*
X198583617Y-109231861D03*
D17*
X197429677Y-108578993D03*
X197296058Y-108097178D03*
X197162439Y-107615363D03*
X197028820Y-107133547D03*
X196895201Y-106651732D03*
X196761581Y-106169917D03*
X196627962Y-105688102D03*
X196494343Y-105206286D03*
X196360724Y-104724471D03*
X196227105Y-104242656D03*
X196093485Y-103760841D03*
D18*
X196746353Y-102606901D03*
X197228168Y-102473282D03*
X197709983Y-102339663D03*
X198191799Y-102206044D03*
X198673614Y-102072425D03*
X199155429Y-101938805D03*
X199637244Y-101805186D03*
X200119060Y-101671567D03*
X200600875Y-101537948D03*
X201082690Y-101404329D03*
X201564505Y-101270709D03*
%TD*%
D52*
%TO.C,D8*%
X80972566Y-88052262D03*
X81909817Y-84888157D03*
X86608034Y-86279832D03*
X85670783Y-89443937D03*
%TD*%
M02*
