<?xml version="1.0" encoding="UTF-8" standalone="no"?>
<!-- Created with Inkscape (http://www.inkscape.org/) -->

<svg
   width="14.344696mm"
   height="1.8459473mm"
   viewBox="0 0 14.344696 1.8459473"
   version="1.1"
   id="svg5"
   xml:space="preserve"
   sodipodi:docname="drawing - kopia.svg"
   inkscape:version="1.2.2 (732a01da63, 2022-12-09)"
   xmlns:inkscape="http://www.inkscape.org/namespaces/inkscape"
   xmlns:sodipodi="http://sodipodi.sourceforge.net/DTD/sodipodi-0.dtd"
   xmlns="http://www.w3.org/2000/svg"
   xmlns:svg="http://www.w3.org/2000/svg"><sodipodi:namedview
     id="namedview7"
     pagecolor="#ffffff"
     bordercolor="#000000"
     borderopacity="0.25"
     inkscape:showpageshadow="2"
     inkscape:pageopacity="0.0"
     inkscape:pagecheckerboard="0"
     inkscape:deskcolor="#d1d1d1"
     inkscape:document-units="mm"
     showgrid="false"
     inkscape:zoom="4.5506012"
     inkscape:cx="377.2029"
     inkscape:cy="1053.7069"
     inkscape:window-width="1920"
     inkscape:window-height="1057"
     inkscape:window-x="-8"
     inkscape:window-y="-8"
     inkscape:window-maximized="1"
     inkscape:current-layer="layer2" /><defs
     id="defs2" /><g
     inkscape:groupmode="layer"
     id="layer2"
     inkscape:label="Layer 2"
     transform="translate(-67.558473,-277.2767)"><g
       aria-label="3,3V 5V 0 1 2 3"
       id="text2001"
       style="font-weight:bold;font-size:2.11667px;font-family:Ubuntu;-inkscape-font-specification:'Ubuntu Bold';stroke-width:0.2;stroke-linecap:round;stroke-linejoin:round"><path
         d="m 67.986042,278.80931 q -0.05715,0 -0.120651,-0.008 -0.0635,-0.006 -0.122766,-0.019 -0.05927,-0.0127 -0.107951,-0.0275 -0.04868,-0.0148 -0.0762,-0.0275 l 0.06138,-0.26247 q 0.05503,0.0233 0.1397,0.0508 0.08678,0.0254 0.213784,0.0254 0.14605,0 0.213783,-0.055 0.06773,-0.055 0.06773,-0.14817 0,-0.0571 -0.0254,-0.0953 -0.02328,-0.0402 -0.06562,-0.0635 -0.04233,-0.0254 -0.1016,-0.0339 -0.05715,-0.0106 -0.122767,-0.0106 h -0.122767 v -0.254 h 0.1397 q 0.04657,0 0.0889,-0.008 0.04445,-0.008 0.07832,-0.0275 0.03387,-0.0212 0.05292,-0.055 0.02117,-0.036 0.02117,-0.0889 0,-0.0402 -0.01693,-0.0699 -0.01693,-0.0296 -0.04445,-0.0487 -0.0254,-0.019 -0.06138,-0.0275 -0.03387,-0.0106 -0.06985,-0.0106 -0.09102,0 -0.169334,0.0275 -0.0762,0.0275 -0.1397,0.0677 l -0.112184,-0.23072 q 0.03387,-0.0212 0.07832,-0.0444 0.04657,-0.0233 0.1016,-0.0423 0.05503,-0.019 0.116417,-0.0317 0.0635,-0.0127 0.13335,-0.0127 0.129117,0 0.222251,0.0317 0.09525,0.0296 0.156633,0.0868 0.06138,0.055 0.09102,0.13124 0.02963,0.0741 0.02963,0.16298 0,0.0868 -0.04868,0.16933 -0.04868,0.0804 -0.131234,0.12277 0.114301,0.0466 0.175684,0.1397 0.0635,0.091 0.0635,0.22013 0,0.1016 -0.03387,0.18839 -0.03387,0.0847 -0.105833,0.14816 -0.07197,0.0614 -0.18415,0.0974 -0.110067,0.0339 -0.262467,0.0339 z"
         id="path2507" /><path
         d="m 69.152328,278.45582 q 0.0042,0.0508 0.0042,0.072 0.0021,0.0212 0.0021,0.036 0,0.0635 -0.0127,0.13547 -0.01058,0.0699 -0.03175,0.14182 -0.02117,0.072 -0.05292,0.14393 -0.03175,0.072 -0.07197,0.13758 l -0.247651,-0.0614 q 0.04868,-0.1397 0.06773,-0.26247 0.01905,-0.12276 0.01905,-0.2032 0,-0.0127 -0.0021,-0.0318 0,-0.0212 -0.0021,-0.0423 0,-0.0212 -0.0021,-0.0402 0,-0.019 0,-0.0254 z"
         id="path2509" /><path
         d="m 69.709013,278.80931 q -0.05715,0 -0.12065,-0.008 -0.0635,-0.006 -0.122767,-0.019 -0.05927,-0.0127 -0.10795,-0.0275 -0.04868,-0.0148 -0.0762,-0.0275 l 0.06138,-0.26247 q 0.05503,0.0233 0.1397,0.0508 0.08678,0.0254 0.213784,0.0254 0.14605,0 0.213784,-0.055 0.06773,-0.055 0.06773,-0.14817 0,-0.0571 -0.0254,-0.0953 -0.02328,-0.0402 -0.06562,-0.0635 -0.04233,-0.0254 -0.1016,-0.0339 -0.05715,-0.0106 -0.122767,-0.0106 H 69.53968 v -0.254 h 0.1397 q 0.04657,0 0.0889,-0.008 0.04445,-0.008 0.07832,-0.0275 0.03387,-0.0212 0.05292,-0.055 0.02117,-0.036 0.02117,-0.0889 0,-0.0402 -0.01693,-0.0699 -0.01693,-0.0296 -0.04445,-0.0487 -0.0254,-0.019 -0.06138,-0.0275 -0.03387,-0.0106 -0.06985,-0.0106 -0.09102,0 -0.169333,0.0275 -0.0762,0.0275 -0.139701,0.0677 l -0.112183,-0.23072 q 0.03387,-0.0212 0.07832,-0.0444 0.04657,-0.0233 0.1016,-0.0423 0.05503,-0.019 0.116417,-0.0317 0.0635,-0.0127 0.13335,-0.0127 0.129117,0 0.22225,0.0317 0.09525,0.0296 0.156634,0.0868 0.06138,0.055 0.09102,0.13124 0.02963,0.0741 0.02963,0.16298 0,0.0868 -0.04868,0.16933 -0.04868,0.0804 -0.131234,0.12277 0.1143,0.0466 0.175684,0.1397 0.0635,0.091 0.0635,0.22013 0,0.1016 -0.03387,0.18839 -0.03387,0.0847 -0.105834,0.14816 -0.07197,0.0614 -0.18415,0.0974 -0.110067,0.0339 -0.262467,0.0339 z"
         id="path2511" /><path
         d="m 71.03405,278.77756 q -0.08678,-0.18415 -0.17145,-0.38312 -0.08467,-0.19897 -0.160867,-0.3937 -0.0762,-0.19473 -0.141817,-0.37253 -0.0635,-0.1778 -0.110067,-0.3175 h 0.364067 q 0.04233,0.127 0.09102,0.27516 0.0508,0.14605 0.1016,0.2921 0.05292,0.14605 0.101601,0.2794 0.04868,0.13335 0.09102,0.23072 0.04022,-0.0974 0.0889,-0.23072 0.0508,-0.13335 0.1016,-0.2794 0.05292,-0.14605 0.1016,-0.2921 0.0508,-0.14816 0.09313,-0.27516 h 0.351368 q -0.04868,0.1397 -0.112184,0.3175 -0.0635,0.1778 -0.1397,0.37253 -0.0762,0.19473 -0.160867,0.3937 -0.08467,0.19897 -0.17145,0.38312 z"
         id="path2513" /><path
         d="m 73.22692,278.34576 q 0,-0.0614 -0.02752,-0.10795 -0.02752,-0.0487 -0.09525,-0.0804 -0.06773,-0.0317 -0.182034,-0.0487 -0.1143,-0.0169 -0.287867,-0.0169 0.02328,-0.19685 0.0381,-0.40005 0.01482,-0.2032 0.02328,-0.381 h 0.793751 v 0.26458 h -0.529168 q -0.0042,0.0762 -0.01058,0.14817 -0.0042,0.0699 -0.01058,0.12276 0.309033,0.0212 0.455084,0.14605 0.148167,0.12277 0.148167,0.3429 0,0.1016 -0.03598,0.18839 -0.03598,0.0868 -0.10795,0.15028 -0.07197,0.0635 -0.182034,0.0995 -0.10795,0.036 -0.254,0.036 -0.05715,0 -0.12065,-0.008 -0.06138,-0.006 -0.12065,-0.019 -0.05715,-0.0106 -0.103717,-0.0233 -0.04657,-0.0127 -0.07197,-0.0254 l 0.05715,-0.26035 q 0.05292,0.0233 0.1397,0.0466 0.08678,0.0212 0.207434,0.0212 0.14605,0 0.211667,-0.0571 0.06562,-0.0593 0.06562,-0.13758 z"
         id="path2515" /><path
         d="m 74.272557,278.77756 q -0.08678,-0.18415 -0.171451,-0.38312 -0.08467,-0.19897 -0.160866,-0.3937 -0.0762,-0.19473 -0.141817,-0.37253 -0.0635,-0.1778 -0.110067,-0.3175 h 0.364067 q 0.04233,0.127 0.09102,0.27516 0.0508,0.14605 0.1016,0.2921 0.05292,0.14605 0.1016,0.2794 0.04868,0.13335 0.09102,0.23072 0.04022,-0.0974 0.0889,-0.23072 0.0508,-0.13335 0.1016,-0.2794 0.05292,-0.14605 0.1016,-0.2921 0.0508,-0.14816 0.09313,-0.27516 h 0.351367 q -0.04868,0.1397 -0.112183,0.3175 -0.0635,0.1778 -0.139701,0.37253 -0.0762,0.19473 -0.160867,0.3937 -0.08467,0.19897 -0.17145,0.38312 z"
         id="path2517" /><path
         d="m 76.833727,278.04096 q 0,0.37041 -0.141817,0.56938 -0.1397,0.19685 -0.38735,0.19685 -0.247651,0 -0.389468,-0.19685 -0.1397,-0.19897 -0.1397,-0.56938 0,-0.18415 0.03598,-0.32597 0.0381,-0.14182 0.10795,-0.23918 0.06985,-0.0974 0.167217,-0.14817 0.09737,-0.0508 0.218017,-0.0508 0.24765,0 0.38735,0.19897 0.141817,0.19685 0.141817,0.56515 z m -0.321734,0 q 0,-0.11007 -0.01058,-0.19897 -0.01058,-0.091 -0.03387,-0.15663 -0.02328,-0.0656 -0.0635,-0.1016 -0.04022,-0.036 -0.09948,-0.036 -0.05927,0 -0.09948,0.036 -0.0381,0.036 -0.0635,0.1016 -0.02328,0.0656 -0.03387,0.15663 -0.01058,0.0889 -0.01058,0.19897 0,0.11006 0.01058,0.20108 0.01058,0.091 0.03387,0.15663 0.0254,0.0656 0.0635,0.1016 0.04022,0.036 0.09948,0.036 0.05927,0 0.09948,-0.036 0.04022,-0.036 0.0635,-0.1016 0.02328,-0.0656 0.03387,-0.15663 0.01058,-0.091 0.01058,-0.20108 z"
         id="path2519" /><path
         d="m 77.561862,277.61551 q 0.06138,-0.0254 0.127,-0.0571 0.06773,-0.0339 0.131234,-0.072 0.0635,-0.0402 0.12065,-0.0825 0.05927,-0.0444 0.105834,-0.0931 h 0.220133 v 1.46685 h -0.315384 v -1.05622 q -0.0635,0.0423 -0.141816,0.0783 -0.07832,0.0339 -0.152401,0.0593 z"
         id="path2521" /><path
         d="m 80.173834,277.69594 q 0,0.0804 -0.03175,0.15452 -0.03175,0.0741 -0.08255,0.14393 -0.0508,0.0677 -0.1143,0.13123 -0.0635,0.0635 -0.124883,0.12065 -0.03175,0.0296 -0.06985,0.0677 -0.03598,0.036 -0.06985,0.0741 -0.03387,0.0381 -0.06138,0.072 -0.0254,0.0317 -0.03175,0.0529 h 0.630768 v 0.26459 h -0.977902 q -0.0042,-0.0233 -0.0042,-0.0593 0,-0.036 0,-0.0508 0,-0.1016 0.03175,-0.18627 0.03387,-0.0847 0.08678,-0.15663 0.05292,-0.0741 0.118534,-0.13758 0.06773,-0.0635 0.13335,-0.127 0.0508,-0.0487 0.09525,-0.091 0.04445,-0.0445 0.07832,-0.0847 0.03387,-0.0423 0.05292,-0.0826 0.01905,-0.0423 0.01905,-0.0847 0,-0.0931 -0.05292,-0.13124 -0.05292,-0.0381 -0.131234,-0.0381 -0.05715,0 -0.10795,0.019 -0.04868,0.0169 -0.09102,0.0423 -0.04022,0.0233 -0.06985,0.0487 -0.02963,0.0233 -0.04445,0.0381 l -0.156633,-0.22013 q 0.09313,-0.0868 0.2159,-0.14182 0.124884,-0.0571 0.2667,-0.0571 0.129117,0 0.222251,0.0296 0.09313,0.0296 0.1524,0.0847 0.06138,0.0529 0.0889,0.13123 0.02963,0.0762 0.02963,0.17357 z"
         id="path2523" /><path
         d="m 81.316837,278.80931 q -0.05715,0 -0.12065,-0.008 -0.0635,-0.006 -0.122767,-0.019 -0.05927,-0.0127 -0.10795,-0.0275 -0.04868,-0.0148 -0.0762,-0.0275 l 0.06138,-0.26247 q 0.05503,0.0233 0.1397,0.0508 0.08678,0.0254 0.213784,0.0254 0.14605,0 0.213784,-0.055 0.06773,-0.055 0.06773,-0.14817 0,-0.0571 -0.0254,-0.0953 -0.02328,-0.0402 -0.06562,-0.0635 -0.04233,-0.0254 -0.1016,-0.0339 -0.05715,-0.0106 -0.122767,-0.0106 h -0.122767 v -0.254 h 0.139701 q 0.04657,0 0.0889,-0.008 0.04445,-0.008 0.07832,-0.0275 0.03387,-0.0212 0.05292,-0.055 0.02117,-0.036 0.02117,-0.0889 0,-0.0402 -0.01693,-0.0699 -0.01693,-0.0296 -0.04445,-0.0487 -0.0254,-0.019 -0.06138,-0.0275 -0.03387,-0.0106 -0.06985,-0.0106 -0.09102,0 -0.169334,0.0275 -0.0762,0.0275 -0.1397,0.0677 l -0.112183,-0.23072 q 0.03387,-0.0212 0.07832,-0.0444 0.04657,-0.0233 0.101601,-0.0423 0.05503,-0.019 0.116416,-0.0317 0.0635,-0.0127 0.133351,-0.0127 0.129116,0 0.22225,0.0317 0.09525,0.0296 0.156634,0.0868 0.06138,0.055 0.09102,0.13124 0.02963,0.0741 0.02963,0.16298 0,0.0868 -0.04868,0.16933 -0.04868,0.0804 -0.131233,0.12277 0.1143,0.0466 0.175683,0.1397 0.0635,0.091 0.0635,0.22013 0,0.1016 -0.03387,0.18839 -0.03387,0.0847 -0.105834,0.14816 -0.07197,0.0614 -0.18415,0.0974 -0.110067,0.0339 -0.262467,0.0339 z"
         id="path2525" /></g></g></svg>
